<?xml version="1.0" standalone="no"?>
<!DOCTYPE svg PUBLIC "-//W3C//DTD SVG 1.1//EN" "http://www.w3.org/Graphics/SVG/1.1/DTD/svg11.dtd" >
<svg>
<metadata>
Created by FontForge 20090914 at Tue Apr 13 17:16:43 2021
 By www-data
Copyright 2019 The Karla Project Authors (https://github.com/googlefonts/karla)
</metadata>
<defs>
<font id="Karla-Bold" horiz-adv-x="1200" >
  <font-face 
    font-family="Karla"
    font-weight="700"
    font-stretch="normal"
    units-per-em="2000"
    panose-1="2 11 0 4 3 5 3 3 0 3"
    ascent="1600"
    descent="-400"
    x-height="970"
    cap-height="1298"
    bbox="-291.501 -502 2408 2006"
    underline-thickness="50"
    underline-position="-75"
    unicode-range="U+000D-U+FB02"
  />
<missing-glyph horiz-adv-x="1031" 
d="M10 1645h1011v-1640h-1011v1640zM0 1655v-1660h1031v1660h-1031zM1021 5c-60.667 80.667 -120.499 170.501 -179.499 269.501l-180.5 315.5l-192 344.5c-66.667 118.333 -137.834 237.5 -213.501 357.5s-157.5 237.667 -245.5 353l269 -456.5l254.5 -443.5
c83 -143.333 165 -277.833 246 -403.5s161.5 -237.834 241.5 -336.501zM10.001 5.00098c80 98.667 160.501 210.833 241.501 336.5s163 260.167 246 403.5l254.5 443.5l269 456.5c-88 -115.333 -169.833 -233 -245.5 -353s-146.834 -239.167 -213.501 -357.5l-192 -344.5
l-180.5 -315.5c-59 -99 -118.833 -188.833 -179.5 -269.5z" />
    <glyph glyph-name="fi" unicode="fi" horiz-adv-x="1392" 
d="M242 0v1088c0 70 13.667 127 41 171s63.5 76.5 108.5 97.5s93.833 31.5 146.5 31.5c32.667 0 66.334 -2.33301 101.001 -7s68.334 -10.334 101.001 -17.001l-46 -182c-16.667 6 -34 10.833 -52 14.5s-35.333 5.5 -52 5.5c-18.667 0 -36.334 -3.5 -53.001 -10.5
s-30.334 -19.167 -41.001 -36.5s-16 -41 -16 -71v-1084h-238zM98 814.001v156h560v-156h-560zM1059 1148c-46 0 -81.833 12.167 -107.5 36.5s-38.5 58.166 -38.5 101.499c0 42 12.833 75.5 38.5 100.5s61.5 37.5 107.5 37.5c45.333 0 81 -12.5 107 -37.5s39 -58.5 39 -100.5
c0 -43.333 -13 -77.166 -39 -101.499s-61.667 -36.5 -107 -36.5zM941 0.000976562v974h236v-974h-236z" />
    <glyph glyph-name="fl" unicode="fl" horiz-adv-x="1344" 
d="M242 0v1088c0 70 13.667 127 41 171s63.5 76.5 108.5 97.5s93.833 31.5 146.5 31.5c32.667 0 66.334 -2.33301 101.001 -7s68.334 -10.334 101.001 -17.001l-46 -182c-16.667 6 -34 10.833 -52 14.5s-35.333 5.5 -52 5.5c-18.667 0 -36.334 -3.5 -53.001 -10.5
s-30.334 -19.167 -41.001 -36.5s-16 -41 -16 -71v-1084h-238zM98 814.001v156h560v-156h-560zM921 0.000976562v1372h236v-1372h-236z" />
    <glyph glyph-name=".notdef" horiz-adv-x="1031" 
d="M10 1645h1011v-1640h-1011v1640zM0 1655v-1660h1031v1660h-1031zM1021 5c-60.667 80.667 -120.499 170.501 -179.499 269.501l-180.5 315.5l-192 344.5c-66.667 118.333 -137.834 237.5 -213.501 357.5s-157.5 237.667 -245.5 353l269 -456.5l254.5 -443.5
c83 -143.333 165 -277.833 246 -403.5s161.5 -237.834 241.5 -336.501zM10.001 5.00098c80 98.667 160.501 210.833 241.501 336.5s163 260.167 246 403.5l254.5 443.5l269 456.5c-88 -115.333 -169.833 -233 -245.5 -353s-146.834 -239.167 -213.501 -357.5l-192 -344.5
l-180.5 -315.5c-59 -99 -118.833 -188.833 -179.5 -269.5z" />
    <glyph glyph-name="CR" unicode="&#xd;" 
 />
    <glyph glyph-name="space" unicode=" " horiz-adv-x="506" 
 />
    <glyph glyph-name="exclam" unicode="!" horiz-adv-x="586" 
d="M198 438l-26 888h256l-28 -888h-202zM301 -18c-48.667 0 -88.334 14.833 -119.001 44.5s-46 67.5 -46 113.5c0 44 15.333 81.333 46 112s70.334 46 119.001 46c47.333 0 87 -15.333 119 -46s48 -68 48 -112c0 -46 -16 -83.833 -48 -113.5s-71.667 -44.5 -119 -44.5z" />
    <glyph glyph-name="quotedbl" unicode="&#x22;" horiz-adv-x="765" 
d="M496 896l-30 476h236l-32 -476h-174zM94 896l-30 476h236l-32 -476h-174z" />
    <glyph glyph-name="numbersign" unicode="#" horiz-adv-x="1356" 
d="M270 66l28 262h-184l14 154h186l34 316h-186l16 154h186l28 260h222l-28 -260h272l28 260h220l-26 -260h186l-16 -154h-188l-32 -316h188l-16 -154h-188l-28 -262h-222l28 262h-272l-28 -262h-222zM536 482h272l34 316h-272z" />
    <glyph glyph-name="dollar" unicode="$" horiz-adv-x="1378" 
d="M708 -28c-76.667 0 -149.833 8.66602 -219.5 25.999s-131.334 43.5 -185.001 78.5s-96 80 -127 135s-46.5 119.833 -46.5 194.5h232c0 -52 14 -94 42 -126s68.667 -55.333 122 -70s118 -22 194 -22c60.667 0 110.334 7.33301 149.001 22s67.167 34.5 85.5 59.5
s27.5 52.5 27.5 82.5c0 38 -12.5 71 -37.5 99s-61.167 50.333 -108.5 67l-142 54v204l256 -90c100 -34.667 174.667 -78.667 224 -132s74 -122.666 74 -207.999c0 -62.667 -19.167 -122.5 -57.5 -179.5s-97.333 -103.667 -177 -140s-181.5 -54.5 -305.5 -54.5z
M606.001 -202.001v1676h168v-1676h-168zM652.001 567.999l-146.001 50.0029c-112 38 -198.333 83.333 -259 136s-91 124.667 -91 216c0 105.333 44.833 190.666 134.5 255.999s220.167 98 391.5 98c159.333 0 280.5 -34.5 363.5 -103.5s134.5 -162.5 154.5 -280.5h-234
c-10 51.333 -39.167 94.5 -87.5 129.5s-115.166 52.5 -200.499 52.5c-88 0 -154.333 -15 -199 -45s-67 -68.333 -67 -115c0 -34.667 10.833 -62.834 32.5 -84.501s55.5 -40.834 101.5 -57.501l106 -44v-208z" />
    <glyph glyph-name="percent" unicode="%" horiz-adv-x="1529" 
d="M212 0l880 1298h238l-878 -1298h-240zM1150 -22c-48 0 -92.667 11.167 -134 33.5s-74.666 56 -99.999 101s-38 101.5 -38 169.5s12.667 124.5 38 169.5s58.666 78.667 99.999 101s86 33.5 134 33.5c49.333 0 95 -11.167 137 -33.5s75.667 -56 101 -101
s38 -101.5 38 -169.5s-12.667 -124.5 -38 -169.5s-59 -78.667 -101 -101s-87.667 -33.5 -137 -33.5zM1150 130c29.333 0 53 11.333 71 34s27 62 27 118c0 55.333 -9 94.833 -27 118.5s-41.667 35.5 -71 35.5c-28.667 0 -51.834 -11.833 -69.501 -35.5
s-26.5 -63.167 -26.5 -118.5c0 -56 8.83301 -95.333 26.5 -118s40.834 -34 69.501 -34zM394 718c-48 0 -92.667 11.167 -134 33.5s-74.666 56 -99.999 101s-38 101.5 -38 169.5c0 67.333 12.667 123.333 38 168s58.666 78.167 99.999 100.5s86 33.5 134 33.5
c49.333 0 95 -11.167 137 -33.5s75.667 -55.833 101 -100.5s38 -100.667 38 -168c0 -68 -12.667 -124.5 -38 -169.5s-59 -78.667 -101 -101s-87.667 -33.5 -137 -33.5zM394 868c28.667 0 52.167 11.667 70.5 35s27.5 63 27.5 119c0 55.333 -9.16699 94.5 -27.5 117.5
s-41.833 34.5 -70.5 34.5s-51.834 -11.5 -69.501 -34.5s-26.5 -62.167 -26.5 -117.5c0 -56 8.83301 -95.667 26.5 -119s40.834 -35 69.501 -35z" />
    <glyph glyph-name="ampersand" unicode="&#x26;" horiz-adv-x="1930" 
d="M1512 -28c-64.667 0 -124.999 14.166 -180.999 42.499s-115.667 71.5 -179 129.5l-634 574c-42 38 -76.5 81.667 -103.5 131s-40.5 101 -40.5 155c0 58.667 17 111.834 51 159.501s83.667 85.667 149 114s144.666 42.5 237.999 42.5c90 0 166.833 -14 230.5 -42
s112.5 -65.667 146.5 -113s51 -99.666 51 -156.999c0 -60 -14.667 -113.833 -44 -161.5s-73.333 -90.334 -132 -128.001s-132 -71.167 -220 -100.5l-124 116c60 23.333 109.167 47.166 147.5 71.499s66.666 50.5 84.999 78.5s27.5 59.333 27.5 94c0 40 -15.5 73 -46.5 99
s-71.5 39 -121.5 39c-58 0 -102.167 -14.167 -132.5 -42.5s-45.5 -62.833 -45.5 -103.5c0 -30.667 7.66699 -59.667 23 -87s39 -55.666 71 -84.999l614 -554c24.667 -20.667 47.5 -36.5 68.5 -47.5s46.833 -16.5 77.5 -16.5c32 0 59.5 11.667 82.5 35s35.5 61 37.5 113h214
c-2.66699 -108.667 -29.667 -195.167 -81 -259.5s-127.666 -96.5 -228.999 -96.5zM720.001 -28.001c-74 0 -143.334 9.99902 -208.001 29.999s-121.667 48 -171 84s-87.833 78.167 -115.5 126.5s-41.5 100.833 -41.5 157.5c0 102.667 41.833 180.667 125.5 234
s199.834 86 348.501 98l76 -128c-102 -8.66699 -175.833 -29.167 -221.5 -61.5s-68.5 -75.166 -68.5 -128.499c0 -36.667 11 -69.834 33 -99.501s53.667 -53.5 95 -71.5s91.333 -27 150 -27c74.667 0 143.667 14.833 207 44.5s121.833 71 175.5 124s102.5 115.333 146.5 187
s83 149.834 117 234.501l158 -88c-36 -106.667 -80.5 -203.834 -133.5 -291.501s-113.5 -163.167 -181.5 -226.5s-143.167 -112.166 -225.5 -146.499s-170.833 -51.5 -265.5 -51.5z" />
    <glyph glyph-name="quotesingle" unicode="'" horiz-adv-x="359" 
d="M62 1354h236l-32 -476h-174z" />
    <glyph glyph-name="parenleft" unicode="(" horiz-adv-x="799" 
d="M564 1508l170 -124.001c-76.667 -80 -140.5 -160 -191.5 -240s-89.167 -161.833 -114.5 -245.5s-38 -171.167 -38 -262.5c0 -136 28.667 -264.167 86 -384.5s143.333 -240.166 258 -359.499l-170 -128c-143.333 127.333 -248.833 264 -316.5 410s-101.5 300 -101.5 462
c0 163.333 33.833 318 101.5 464s173.167 282 316.5 408z" />
    <glyph glyph-name="parenright" unicode=")" horiz-adv-x="799" 
d="M236 -236l-172 128.001c115.333 119.333 201.833 239.166 259.5 359.499s86.5 248.5 86.5 384.5c0 91.333 -12.833 178.833 -38.5 262.5s-64.167 165.5 -115.5 245.5s-115.333 160 -192 240l172 124c142 -126 247.167 -262 315.5 -408s102.5 -300.667 102.5 -464
c0 -108 -15 -212.5 -45 -313.5s-76 -198.167 -138 -291.5s-140.333 -182.333 -235 -267z" />
    <glyph glyph-name="asterisk" unicode="*" horiz-adv-x="818" 
d="M150 894l172 162l-222 74l60 140l198 -100l-24 238h160l-24 -238l198 104l60 -142l-218 -74l172 -164l-118 -102l-148 202l-152 -202z" />
    <glyph glyph-name="plus" unicode="+" horiz-adv-x="1087" 
d="M426 982h236v-388h390v-206h-390v-388h-236v388h-390v206h390v388z" />
    <glyph glyph-name="comma" unicode="," horiz-adv-x="506" 
d="M222 -272l-174 88c44 22 83 47.333 117 76s56.333 61.334 67 98.001c-36.667 7.33301 -68.167 22.666 -94.5 45.999s-39.5 54 -39.5 92c0 40 15.333 73.667 46 101s69.334 41 116.001 41c59.333 0 105.833 -20.667 139.5 -62s50.5 -90.333 50.5 -147
c0 -64.667 -20.333 -127.5 -61 -188.5s-96.334 -109.167 -167.001 -144.5z" />
    <glyph glyph-name="hyphen" unicode="-" horiz-adv-x="747" 
d="M92 500v206h562v-206h-562z" />
    <glyph glyph-name="period" unicode="." horiz-adv-x="430" 
d="M48 138c0 45.333 15.333 83.334 46 114.001s70 46 118 46s88 -15.333 120 -46s48 -68.667 48 -114c0 -44.667 -16 -81.834 -48 -111.501s-72 -44.5 -120 -44.5s-87.333 15 -118 45s-46 67 -46 111z" />
    <glyph glyph-name="slash" unicode="/" horiz-adv-x="943" 
d="M106 -160l514 1650h242l-518 -1650h-238z" />
    <glyph glyph-name="zero" unicode="0" horiz-adv-x="1265" 
d="M634 -28c-106.667 0 -200.5 24.667 -281.5 74s-144.333 124 -190 224s-68.5 226 -68.5 378c0 152.667 22.833 279 68.5 379s109 174.5 190 223.5s174.833 73.5 281.5 73.5c105.333 0 198.5 -24.5 279.5 -73.5s144.333 -123.5 190 -223.5s68.5 -226.333 68.5 -379
c0 -152 -22.833 -278 -68.5 -378s-109 -174.667 -190 -224s-174.167 -74 -279.5 -74zM634 188c93.333 0 165.666 39.5 216.999 118.5s77 192.833 77 341.5s-25.667 262.834 -77 342.501s-123.666 119.5 -216.999 119.5c-94 0 -166.833 -39.833 -218.5 -119.5
s-77.5 -193.834 -77.5 -342.501s25.833 -262.5 77.5 -341.5s124.5 -118.5 218.5 -118.5z" />
    <glyph glyph-name="one" unicode="1" horiz-adv-x="713" 
d="M348 1306l178 0.000976562v-1306h-236v1024c-35.333 -16 -70 -28.333 -104 -37s-68 -13 -102 -13v226c45.333 4.66699 89.333 15.167 132 31.5s86.667 41.166 132 74.499z" />
    <glyph glyph-name="two" unicode="2" horiz-adv-x="1210" 
d="M120 0l-0.00195312 221.998c0 72.667 11 134.334 33 185.001s54.833 93.5 98.5 128.5s98.5 65.167 164.5 90.5l266 102c58 23.333 100.833 52 128.5 86s41.5 76 41.5 126s-18.167 92.167 -54.5 126.5s-88.166 51.5 -155.499 51.5
c-64.667 0 -118.834 -16.167 -162.501 -48.5s-68.834 -79.5 -75.501 -141.5h-262c2 88.667 25 162.334 69 221.001s103 102.5 177 131.5s157.333 43.5 250 43.5c87.333 0 166.333 -16.5 237 -49.5s126.834 -79 168.501 -138s62.5 -127.833 62.5 -206.5
c0 -66.667 -12.167 -125.334 -36.5 -176.001s-61.166 -95 -110.499 -133s-111.666 -71.667 -186.999 -101l-268 -104c-52 -20 -89.667 -42.167 -113 -66.5s-35 -56.166 -35 -95.499v-38h742v-216h-978z" />
    <glyph glyph-name="three" unicode="3" horiz-adv-x="1244" 
d="M626 -28c-68.667 0 -134.997 9.33496 -198.997 28.002s-121.333 46.334 -172 83.001s-90.834 82.167 -120.501 136.5s-44.5 117.166 -44.5 188.499h248c2.66699 -45.333 16.334 -84.5 41.001 -117.5s58.167 -58.333 100.5 -76s91.166 -26.5 146.499 -26.5
c81.333 0 145 18.667 191 56s69 84.666 69 141.999c0 37.333 -9.33301 69.5 -28 96.5s-47.334 47.667 -86.001 62s-88 21.5 -148 21.5h-172v186h146c76 0 135.667 16.333 179 49s65 77 65 133c0 50 -18.667 91.833 -56 125.5s-93.333 50.5 -168 50.5
c-60.667 0 -114.834 -12.333 -162.501 -37s-78.167 -67.667 -91.5 -129h-248c9.33301 88.667 36.166 161 80.499 217s101.833 97.167 172.5 123.5s150.334 39.5 239.001 39.5c94 0 177.667 -15.333 251 -46s131.166 -73.167 173.499 -127.5s63.5 -117.166 63.5 -188.499
c0 -66 -18 -123.5 -54 -172.5s-89.333 -85.5 -160 -109.5c78.667 -26.667 141.667 -66.334 189 -119.001s71 -118.334 71 -197.001c0 -76.667 -21.5 -144.5 -64.5 -203.5s-103.167 -105.167 -180.5 -138.5s-167.666 -50 -270.999 -50z" />
    <glyph glyph-name="four" unicode="4" horiz-adv-x="1190" 
d="M708 1312h228v-822h226v-202h-226v-288h-234v288h-658v178zM714 962l-390 -496h390v496z" />
    <glyph glyph-name="five" unicode="5" horiz-adv-x="1164" 
d="M594 -28c-93.333 0 -175.667 16.168 -247 48.501s-127.5 79.5 -168.5 141.5s-62.5 137.333 -64.5 226h240c0 -66.667 23 -116.667 69 -150s103 -50 171 -50c72.667 0 132.167 23.5 178.5 70.5s69.5 104.833 69.5 173.5c0 133.333 -89.333 200 -268 200h-396l60 666h778
v-216h-588l46 68l-38 -386l-20 22c32 7.33301 70 12.833 114 16.5s82 5.5 114 5.5c134 0 240.833 -32.5 320.5 -97.5s119.5 -157.833 119.5 -278.5c0 -86 -20.333 -163.833 -61 -233.5s-97.667 -124.834 -171 -165.501s-159.333 -61 -258 -61z" />
    <glyph glyph-name="six" unicode="6" horiz-adv-x="1214" 
d="M644 -28c-108.667 0 -204.332 28.3301 -286.999 84.9971s-147.167 134.167 -193.5 232.5s-69.5 210.5 -69.5 336.5c0 148.667 23.333 275 70 379s112.167 183.167 196.5 237.5s182.833 81.5 295.5 81.5c86 0 162 -15.833 228 -47.5s118 -76.167 156 -133.5
s58.667 -124.333 62 -201h-252c-7.33301 52 -26 93 -56 123s-73.333 45 -130 45c-102.667 0 -184 -45.167 -244 -135.5s-90 -213.166 -90 -368.499c0 -20 0.5 -41.667 1.5 -65s3.16699 -45.666 6.5 -66.999c10.667 82 34.167 146.333 70.5 193s80.166 79.834 131.499 99.501
s105.333 29.5 162 29.5c81.333 0 153 -17.667 215 -53s110.667 -84 146 -146s53 -133 53 -213c0 -82 -19.833 -154 -59.5 -216s-95 -110.167 -166 -144.5s-153.167 -51.5 -246.5 -51.5zM644.002 187.997c62.667 0 116.334 18.8311 161.001 56.498s67 87.5 67 149.5
c0 64.667 -22.333 115.5 -67 152.5s-98.334 55.5 -161.001 55.5c-41.333 0 -78.833 -8.66699 -112.5 -26s-60.667 -41.666 -81 -72.999s-30.5 -67.666 -30.5 -108.999c0 -62 21.833 -111.833 65.5 -149.5s96.5 -56.5 158.5 -56.5z" />
    <glyph glyph-name="seven" unicode="7" horiz-adv-x="995" 
d="M88 0l594 1070h-634v228h912v-226l-554 -1072h-318z" />
    <glyph glyph-name="eight" unicode="8" horiz-adv-x="1293" 
d="M646 -28c-111.333 0 -208.005 16.502 -290.005 49.502s-145.5 78 -190.5 135s-67.5 121.5 -67.5 193.5c0 61.333 16.333 113.666 49 156.999s77.334 76.666 134.001 99.999s120.334 35 191.001 35c28 0 54 -2.33301 78 -7s52 -11 84 -19v-58
c-56.667 0 -107 -8.33301 -151 -25s-78.5 -39 -103.5 -67s-37.5 -58.667 -37.5 -92c0 -38.667 13.667 -71.834 41 -99.501s64 -49 110 -64s97 -22.5 153 -22.5c104 0 181 13.5 231 40.5s75 61.5 75 103.5c0 33.333 -12.167 61.833 -36.5 85.5
s-58.166 43.834 -101.499 60.501l-370 142c-44.667 17.333 -90.167 41.333 -136.5 72s-85.5 69 -117.5 115s-48 100.333 -48 163c0 72 19.833 134.5 59.5 187.5s97 94 172 123s165.833 43.5 272.5 43.5c94.667 0 180 -16 256 -48s136.333 -76 181 -132s67 -120 67 -192
c0 -50 -13.667 -96.333 -41 -139s-67 -77.167 -119 -103.5s-114.667 -39.5 -188 -39.5c-25.333 0 -48.666 2.16699 -69.999 6.5s-46 10.833 -74 19.5v68c44 0 84.833 7.16699 122.5 21.5s68 34.333 91 60s34.5 55.834 34.5 90.501c0 35.333 -11 66 -33 92
s-52.5 46.167 -91.5 60.5s-84.167 21.5 -135.5 21.5c-48.667 0 -92.667 -6.5 -132 -19.5s-70.5 -30.833 -93.5 -53.5s-34.5 -48.334 -34.5 -77.001c0 -32.667 11.333 -59.5 34 -80.5s55.334 -40.167 98.001 -57.5l382 -148c95.333 -36.667 168.5 -79.167 219.5 -127.5
s76.5 -115.833 76.5 -202.5c0 -72 -21.5 -136 -64.5 -192s-105.5 -100 -187.5 -132s-181.333 -48 -298 -48z" />
    <glyph glyph-name="nine" unicode="9" horiz-adv-x="1220" 
d="M594 -28c-89.333 0 -169.667 17.5 -241 52.5s-128 83.333 -170 145s-63 133.167 -63 214.5h246c2.66699 -60 24.5 -107.667 65.5 -143s92.5 -53 154.5 -53c72.667 0 131.334 20.833 176.001 62.5s77.167 100.167 97.5 175.5s30.5 163.333 30.5 264
c0 20 -0.5 39.5 -1.5 58.5s-3.16699 38.833 -6.5 59.5c-12.667 -73.333 -36.667 -132.5 -72 -177.5s-78.166 -77.667 -128.499 -98s-104.833 -30.5 -163.5 -30.5c-80.667 0 -151.834 17.5 -213.501 52.5s-110.167 83.333 -145.5 145s-53 132.5 -53 212.5
c0 82.667 19.833 155 59.5 217s94.667 110 165 144s151.5 51 243.5 51c77.333 0 149.5 -15.667 216.5 -47s125.5 -75.833 175.5 -133.5s89.167 -126.5 117.5 -206.5s42.5 -169 42.5 -267c0 -142 -19.667 -265.333 -59 -370s-98.333 -185.5 -177 -242.5
s-177.334 -85.5 -296.001 -85.5zM575.999 696c40.667 0 78.167 8.66699 112.5 26s61.833 41.333 82.5 72s31 66 31 106c0 64 -22.5 114.667 -67.5 152s-98.5 56 -160.5 56s-114.833 -18.667 -158.5 -56s-65.5 -88 -65.5 -152s22 -114 66 -150s97.333 -54 160 -54z" />
    <glyph glyph-name="colon" unicode=":" horiz-adv-x="539" 
d="M102 172c0 45.333 15.333 83.334 46 114.001s70 46 118 46s88 -15.333 120 -46s48 -68.667 48 -114c0 -44.667 -16 -81.834 -48 -111.501s-72 -44.5 -120 -44.5s-87.333 15 -118 45s-46 67 -46 111zM102 768.001c0 45.333 15.333 83.334 46 114.001s70 46 118 46
s88 -15.333 120 -46s48 -68.667 48 -114c0 -44.667 -16 -81.834 -48 -111.501s-72 -44.5 -120 -44.5s-87.333 15 -118 45s-46 67 -46 111z" />
    <glyph glyph-name="semicolon" unicode=";" horiz-adv-x="616" 
d="M282 -272l-174 88c44 22 83 47.333 117 76s56.333 61.334 67 98.001c-36.667 7.33301 -68.167 22.666 -94.5 45.999s-39.5 54 -39.5 92c0 40 15.333 73.667 46 101s69.334 41 116.001 41c59.333 0 105.833 -20.667 139.5 -62s50.5 -90.333 50.5 -147
c0 -64.667 -20.333 -127.5 -61 -188.5s-96.334 -109.167 -167.001 -144.5zM170 768c0 45.333 15.333 83.334 46 114.001s70 46 118 46s88 -15.333 120 -46s48 -68.667 48 -114c0 -44.667 -16 -81.834 -48 -111.501s-72 -44.5 -120 -44.5s-87.333 15 -118 45s-46 67 -46 111z
" />
    <glyph glyph-name="less" unicode="&#x3c;" horiz-adv-x="1004" 
d="M758 1234l156 -180l-654 -460v100l654 -458l-156 -180l-668 482v212z" />
    <glyph glyph-name="equal" unicode="=" horiz-adv-x="1012" 
d="M158 396h696v-204h-696v204zM158 816h696v-204h-696v204z" />
    <glyph glyph-name="greater" unicode="&#x3e;" horiz-adv-x="1004" 
d="M246 56l-156 180l652 458v-100l-652 460l156 180l668 -484v-212z" />
    <glyph glyph-name="question" unicode="?" horiz-adv-x="1034" 
d="M350 388l-0.000976562 80.002c0 58 6.83301 105.667 20.5 143s35 68.833 64 94.5s67.5 50.5 115.5 74.5c42 21.333 74.667 41.166 98 59.499s39.5 37.166 48.5 56.499s13.5 42 13.5 68c0 42 -17 76.833 -51 104.5s-80.333 41.5 -139 41.5
c-70 0 -123.833 -15.5 -161.5 -46.5s-59.167 -72.167 -64.5 -123.5h-246c7.33301 116 50.166 209 128.499 279s189.5 105 333.5 105c94.667 0 176.334 -16 245.001 -48s121.667 -75.333 159 -130s56 -116 56 -184c0 -69.333 -17.5 -128 -52.5 -176
s-89.5 -90.667 -163.5 -128c-43.333 -22 -77.166 -42.667 -101.499 -62s-41.5 -40.5 -51.5 -63.5s-15 -51.833 -15 -86.5v-58h-236zM473.999 -27.998c-48.667 0 -88.167 15.001 -118.5 45.001s-45.5 66.667 -45.5 110c0 45.333 15.167 83.166 45.5 113.499
s69.5 45.5 117.5 45.5c48.667 0 89 -15.167 121 -45.5s48 -67.833 48 -112.5c0 -44 -16 -81 -48 -111s-72 -45 -120 -45z" />
    <glyph glyph-name="at" unicode="@" horiz-adv-x="2053" 
d="M1138 -434c-152 0 -289.502 21.6631 -412.502 64.9961s-228.667 104 -317 182s-156.166 169.833 -203.499 275.5s-71 221.167 -71 346.5c0 128.667 24.667 247 74 355s118 202 206 282s191.333 142 310 186s247 66 385 66c128.667 0 244.834 -18.833 348.501 -56.5
s192.334 -90.5 266.001 -158.5s130.167 -147.167 169.5 -237.5s59 -187.5 59 -291.5c0 -90 -13.667 -170 -41 -240s-64.166 -129.167 -110.499 -177.5s-98.333 -85.166 -156 -110.499s-116.834 -38 -177.501 -38s-111.334 11.833 -152.001 35.5s-67 55.834 -79 96.501
l-12 32c-22.667 -45.333 -53.334 -84 -92.001 -116s-90.334 -48 -155.001 -48c-62 0 -119 15.833 -171 47.5s-93.333 75.834 -124 132.501s-46 122.334 -46 197.001c0 67.333 12.667 130.5 38 189.5s60.5 110.833 105.5 155.5s96.333 79.834 154 105.501
s118.834 38.5 183.501 38.5c89.333 0 159.833 -26.5 211.5 -79.5s77.5 -132.5 77.5 -238.5v-262c0 -36.667 5.83301 -62.834 17.5 -78.501s29.167 -23.5 52.5 -23.5c30.667 0 64.667 13.667 102 41s69.333 69 96 125s40 126.667 40 212c0 103.333 -23 195.333 -69 276
s-113.333 144.167 -202 190.5s-196.667 69.5 -324 69.5c-110.667 0 -211.667 -17.833 -303 -53.5s-170.166 -85.5 -236.499 -149.5s-117.5 -138.833 -153.5 -224.5s-54 -178.834 -54 -279.501c0 -126 29.667 -237.667 89 -335s146 -173.666 260 -228.999s253 -83 417 -83
v-192zM1017 203.996c46.667 0 85.167 13.502 115.5 40.502s58.833 65.5 85.5 115.5v200c0 41.333 -7.66699 74.666 -23 99.999s-43.333 38 -84 38c-39.333 0 -79.333 -12.667 -120 -38s-74.667 -60.833 -102 -106.5s-41 -98.834 -41 -159.501
c0 -64 16.167 -111.667 48.5 -143s72.5 -47 120.5 -47z" />
    <glyph glyph-name="A" unicode="A" horiz-adv-x="1251" 
d="M44 0l442 1298h296l424 -1298h-248l-90 280h-482l-92 -280h-250zM446 458h366l-182 558z" />
    <glyph glyph-name="B" unicode="B" horiz-adv-x="1296" 
d="M186 0l-0.00195312 1298h524c100 0 183 -15.5 249 -46.5s115.333 -72.5 148 -124.5s49 -109.667 49 -173c0 -73.333 -20.5 -136 -61.5 -188s-98.5 -88.667 -172.5 -110c48.667 -10 92.334 -28.333 131.001 -55s69.167 -60.334 91.5 -101.001s33.5 -87.334 33.5 -140.001
c0 -41.333 -7.16699 -83 -21.5 -125s-39 -80.833 -74 -116.5s-82.667 -64.334 -143 -86.001s-136.166 -32.5 -227.499 -32.5h-526zM421.998 206.003l284 0.000976562c75.333 0 130.5 15.167 165.5 45.5s52.5 71.166 52.5 122.499s-18 92.5 -54 123.5s-90.667 46.5 -164 46.5
h-284v-338zM421.998 1094v-344h278c70 0 123.167 15.5 159.5 46.5s54.5 73.5 54.5 127.5c0 51.333 -17.833 92.5 -53.5 123.5s-88.5 46.5 -158.5 46.5h-280z" />
    <glyph glyph-name="C" unicode="C" horiz-adv-x="1267" 
d="M658 -28c-114 0 -213.167 27.166 -297.5 81.499s-149.833 132.166 -196.5 233.499s-70 223 -70 365c0 146.667 24.167 269.834 72.5 369.501s115 175 200 226s182.167 76.5 291.5 76.5c151.333 0 269.5 -36.667 354.5 -110s139.5 -168.666 163.5 -285.999l-252 -46
c-20.667 68 -53.667 123 -99 165s-101 63 -167 63c-58 0 -110.333 -16.833 -157 -50.5s-83.834 -84.5 -111.501 -152.5s-41.5 -153 -41.5 -255c0 -96 12.167 -178.667 36.5 -248s59.5 -122.666 105.5 -159.999s102 -56 168 -56c84.667 0 150.167 22.5 196.5 67.5
s69.5 102.5 69.5 172.5h252c0 -96.667 -20.833 -178.834 -62.5 -246.501s-101.167 -119.5 -178.5 -155.5s-169.666 -54 -276.999 -54z" />
    <glyph glyph-name="D" unicode="D" horiz-adv-x="1373" 
d="M186 1298h420c132 0 247.667 -26.5 347 -79.5s176.666 -128.167 231.999 -225.5s83 -212.333 83 -345c0 -131.333 -27.667 -245.5 -83 -342.5s-132.666 -172.167 -231.999 -225.5s-215 -80 -347 -80h-420v1298zM422 1084v-872h184c84 0 156.5 19 217.5 57
s108 89.833 141 155.5s49.5 140.167 49.5 223.5c0 84.667 -16.5 159.667 -49.5 225s-80 116.833 -141 154.5s-133.5 56.5 -217.5 56.5h-184z" />
    <glyph glyph-name="E" unicode="E" horiz-adv-x="1173" 
d="M184 0v1298h834v-204h-598v-342h562v-204h-562v-342h598v-206h-834z" />
    <glyph glyph-name="F" unicode="F" horiz-adv-x="1093" 
d="M186 0v1298h818v-204h-582v-342h532v-202h-532v-550h-236z" />
    <glyph glyph-name="G" unicode="G" horiz-adv-x="1354" 
d="M660 -28c-106 0 -201.667 27.999 -287 83.999s-153.166 134.167 -203.499 234.5s-75.5 217.5 -75.5 351.5c0 106 15.5 201 46.5 285s74.167 155.667 129.5 215s120.333 104.5 195 135.5s155.667 46.5 243 46.5c121.333 0 223.166 -26.333 305.499 -79
s146.5 -135.667 192.5 -249l-242 -56c-34 55.333 -73.167 97.5 -117.5 126.5s-94.5 43.5 -150.5 43.5c-64 0 -122.333 -18.833 -175 -56.5s-94.667 -91.5 -126 -161.5s-47 -153.333 -47 -250c0 -90.667 13.833 -170 41.5 -238s66.5 -121 116.5 -159s108 -57 174 -57
c56 0 106.167 12.5 150.5 37.5s79.333 60.833 105 107.5s38.5 103 38.5 169h52c0 -108 -12.833 -201.667 -38.5 -281s-65.5 -140.666 -119.5 -183.999s-123.333 -65 -208 -65zM1008 -0.000976562l-34 286v224l-292 6v150h518v-666h-192z" />
    <glyph glyph-name="H" unicode="H" horiz-adv-x="1411" 
d="M186 1298h236v-542h566v542h236v-1298h-236v550h-566v-550h-236v1298z" />
    <glyph glyph-name="I" unicode="I" horiz-adv-x="609" 
d="M186 0v1298h236v-1298h-236z" />
    <glyph glyph-name="J" unicode="J" horiz-adv-x="887" 
d="M32 54v235.999c53.333 -30.667 105.5 -53 156.5 -67s98.167 -21 141.5 -21c57.333 0 99 16.667 125 50s39 84 39 152v894h238v-894c0 -104.667 -16.333 -188.667 -49 -252s-77.667 -109.166 -135 -137.499s-123.333 -42.5 -198 -42.5
c-58.667 0 -114.667 7.83301 -168 23.5s-103.333 35.167 -150 58.5z" />
    <glyph glyph-name="K" unicode="K" horiz-adv-x="1308" 
d="M936 1298h324l-856 -876v322zM648 762l648 -762h-304l-508 608zM186 1298h238v-1298h-238v1298z" />
    <glyph glyph-name="L" unicode="L" horiz-adv-x="988" 
d="M422 1298v-1092h534v-206h-770v1298h236z" />
    <glyph glyph-name="M" unicode="M" horiz-adv-x="1749" 
d="M186 1298h338l366 -794h-20l366 794h326v-1298h-238v1026h36l-404 -884h-154l-402 880h22v-1022h-236v1298z" />
    <glyph glyph-name="N" unicode="N" horiz-adv-x="1434" 
d="M182 1298h258l590 -926h-18v926h236v-1298h-240l-628 982h38v-982h-236v1298z" />
    <glyph glyph-name="O" unicode="O" horiz-adv-x="1365" 
d="M682 -28c-115.333 0 -217.166 25.333 -305.499 76s-157.5 126.334 -207.5 227.001s-75 225.667 -75 375c0 152 25 277.833 75 377.5s119.167 174 207.5 223s190.166 73.5 305.499 73.5c116 0 218.333 -25.167 307 -75.5s158 -125.5 208 -225.5s75 -224.333 75 -373
c0 -151.333 -25 -277.333 -75 -378s-119.333 -175.834 -208 -225.501s-191 -74.5 -307 -74.5zM682 186c106 0 190.167 40 252.5 120s93.5 195.333 93.5 346c0 145.333 -31.167 258.333 -93.5 339s-146.5 121 -252.5 121c-104 0 -187.333 -40.5 -250 -121.5
s-94 -194.5 -94 -340.5c0 -150 31.333 -264.833 94 -344.5s146 -119.5 250 -119.5z" />
    <glyph glyph-name="P" unicode="P" horiz-adv-x="1161" 
d="M180 0v1298h458c146 0 259.833 -36 341.5 -108s122.5 -174 122.5 -306c0 -130.667 -40.833 -232 -122.5 -304s-195.5 -108 -341.5 -108h-220v-472h-238zM418 678l220 0.000976562c73.333 0 128.666 19.333 165.999 58s56 88 56 148c0 61.333 -18.667 111.666 -56 150.999
s-92.666 59 -165.999 59h-220v-416z" />
    <glyph glyph-name="Q" unicode="Q" horiz-adv-x="1372" 
d="M682 -28c-115.333 0 -217.166 25.333 -305.499 76s-157.5 126.334 -207.5 227.001s-75 225.667 -75 375c0 152 25 277.833 75 377.5s119.167 174 207.5 223s190.166 73.5 305.499 73.5c116 0 218.333 -25.167 307 -75.5s158 -125.5 208 -225.5s75 -224.333 75 -373
c0 -151.333 -25 -277.333 -75 -378s-119.333 -175.834 -208 -225.501s-191 -74.5 -307 -74.5zM1080 -360c-66 0 -127.002 17.667 -183.002 53s-105 85 -147 149l-134 202l188 88l116 -180c19.333 -28 41.333 -47.667 66 -59s50 -17.666 76 -18.999
c33.333 0 65.5 4.16699 96.5 12.5s63.5 19.5 97.5 33.5v-244c-31.333 -12.667 -61.166 -21.834 -89.499 -27.501s-57.166 -8.5 -86.499 -8.5zM681.998 186c106 0 190.167 40 252.5 120s93.5 195.333 93.5 346c0 145.333 -31.167 258.333 -93.5 339s-146.5 121 -252.5 121
c-104 0 -187.333 -40.5 -250 -121.5s-94 -194.5 -94 -340.5c0 -150 31.333 -264.833 94 -344.5s146 -119.5 250 -119.5z" />
    <glyph glyph-name="R" unicode="R" horiz-adv-x="1287" 
d="M186 0v1298h480c155.333 0 274.5 -36.333 357.5 -109s124.5 -169 124.5 -289c0 -118 -41.5 -213.167 -124.5 -285.5s-202.167 -108.5 -357.5 -108.5h-244v-506h-236zM888 0l-344 608h252l400 -608h-308zM422 664l220 -0.000976562c86.667 0 152.334 19.833 197.001 59.5
s67 91.167 67 154.5c0 64.667 -20.333 116.834 -61 156.501s-100.334 59.5 -179.001 59.5h-244v-430z" />
    <glyph glyph-name="S" unicode="S" horiz-adv-x="1275" 
d="M638 -28c-90 0 -172.832 15.666 -248.499 46.999s-137 79 -184 143s-72.167 145.333 -75.5 244h232c0 -50 12.333 -91 37 -123s57.834 -55.833 99.501 -71.5s87.5 -23.5 137.5 -23.5c48 0 90.833 6.33301 128.5 19s67.334 30.834 89.001 54.501s32.5 51.834 32.5 84.501
c0 43.333 -13.167 77.333 -39.5 102s-68.5 47.334 -126.5 68.001l-256 102c-100 39.333 -176.667 85 -230 137s-80 123.667 -80 215c0 105.333 41.667 190.666 125 255.999s199.666 98 348.999 98c145.333 0 257.666 -33.833 336.999 -101.5s124.333 -161.834 135 -282.501
h-232c-8.66699 51.333 -32 92.5 -70 123.5s-94.667 46.5 -170 46.5c-66.667 0 -119.334 -13.833 -158.001 -41.5s-58 -62.5 -58 -104.5c0 -36 12.167 -64.5 36.5 -85.5s62.166 -41.167 113.499 -60.5l284 -110c96 -37.333 169.667 -84.333 221 -141s77 -127.667 77 -213
c0 -78 -19.667 -145.5 -59 -202.5s-96.666 -101.167 -171.999 -132.5s-167 -47 -275 -47z" />
    <glyph glyph-name="T" unicode="T" horiz-adv-x="1063" 
d="M12 1094v204h1040v-204h-455l53 54v-1148h-236v1148l53 -54h-455z" />
    <glyph glyph-name="U" unicode="U" horiz-adv-x="1380" 
d="M166 1298h236v-808c0 -106.667 27.167 -183.667 81.5 -231s123.833 -71 208.5 -71c85.333 0 155 23.667 209 71s81 124.333 81 231v808h236v-808c0 -109.333 -21 -202.666 -63 -279.999s-102.167 -136.333 -180.5 -177s-172.5 -61 -282.5 -61s-204.167 20.333 -282.5 61
s-138.5 99.667 -180.5 177s-63 170.666 -63 279.999v808z" />
    <glyph glyph-name="V" unicode="V" horiz-adv-x="1205" 
d="M590 258l332 1040h248l-446 -1298h-248l-440 1298h250l328 -1040h-24z" />
    <glyph glyph-name="W" unicode="W" horiz-adv-x="1893" 
d="M20 1298h264l314 -1090h-60l310 1004h160l322 -988h-54l330 1074h266l-446 -1298h-248l-254 766h22l-254 -766h-248z" />
    <glyph glyph-name="X" unicode="X" horiz-adv-x="1367" 
d="M68 0l458 646l-460 652h290l328 -468l284 468h286l-438 -648l482 -650h-296l-342 462l-306 -462h-286z" />
    <glyph glyph-name="Y" unicode="Y" horiz-adv-x="1173" 
d="M14 1298h280l310 -558h-46l322 558h278l-462 -762v-536h-236v536z" />
    <glyph glyph-name="Z" unicode="Z" horiz-adv-x="1257" 
d="M146 0v204l754 962v-86l-754 2v216h982v-202l-708 -908l-6 30l714 -2v-216h-982z" />
    <glyph glyph-name="bracketleft" unicode="[" horiz-adv-x="704" 
d="M186 -282v1862h494v-214h-258v-1434h258v-214h-494z" />
    <glyph glyph-name="backslash" unicode="\" horiz-adv-x="943" 
d="M82 1490l514 -1650h242l-518 1650h-238z" />
    <glyph glyph-name="bracketright" unicode="]" horiz-adv-x="671" 
d="M486 -282v1862h-494v-214h258v-1434h-258v-214h494z" />
    <glyph glyph-name="asciicircum" unicode="^" horiz-adv-x="1054" 
d="M40 436l396 770h190l396 -770h-260l-276 590h90l-276 -590h-260z" />
    <glyph glyph-name="underscore" unicode="_" horiz-adv-x="1536" 
d="M110 0v206h1318v-206h-1318z" />
    <glyph glyph-name="grave" unicode="`" horiz-adv-x="720" 
d="M512 1117l-418 337l157 128l374 -373z" />
    <glyph glyph-name="a" unicode="a" horiz-adv-x="1170" 
d="M804 0l-30 236.001v390c0 68 -13.833 118.333 -41.5 151s-74.5 49 -140.5 49c-38 0 -71 -5.66699 -99 -17s-49.5 -27.5 -64.5 -48.5s-22.5 -46.5 -22.5 -76.5h-258c0 73.333 17.667 133.166 53 179.499s86.166 80.333 152.499 102s145.833 32.5 238.5 32.5
c84 0 157.333 -13.5 220 -40.5s111.334 -68.5 146.001 -124.5s52 -127.667 52 -215v-618h-206zM486 -27.999c-83.333 0 -152.832 14.501 -208.499 43.501s-97.5 67.167 -125.5 114.5s-42 98.666 -42 153.999c0 61.333 16.167 112.833 48.5 154.5s78.166 73 137.499 94
s129.333 31.5 210 31.5c52.667 0 102.5 -4 149.5 -12s93.833 -18.667 140.5 -32v-138c-36.667 12 -76.667 21.333 -120 28s-84 10 -122 10c-56 0 -102 -10.333 -138 -31s-54 -55.667 -54 -105c0 -36 14.667 -67 44 -93s76 -39 140 -39c48.667 0 90 10.667 124 32
s59.833 48 77.5 80s26.5 64 26.5 96h56c0 -70 -13 -134.5 -39 -193.5s-64.5 -106.167 -115.5 -141.5s-114.167 -53 -189.5 -53z" />
    <glyph glyph-name="b" unicode="b" horiz-adv-x="1228" 
d="M682 -28c-60.667 0 -116.166 17.0059 -166.499 51.0059s-90.5 84.833 -120.5 152.5s-45 152.5 -45 254.5h72c0 -48.667 11 -91.334 33 -128.001s50.333 -65.167 85 -85.5s70.667 -30.5 108 -30.5c46 0 87 12.667 123 38s64.5 60.666 85.5 105.999
s31.5 98.666 31.5 159.999c0 59.333 -10.333 111.166 -31 155.499s-49.167 78.833 -85.5 103.5s-78.166 37 -125.499 37c-39.333 0 -76 -9.5 -110 -28.5s-61.5 -46.333 -82.5 -82s-31.5 -78.834 -31.5 -129.501h-72c0 98 14.167 180.667 42.5 248
s68.666 118.166 120.999 152.499s114.5 51.5 186.5 51.5c78.667 0 150.167 -20.833 214.5 -62.5s115.666 -100.667 153.999 -177s57.5 -165.833 57.5 -268.5c0 -104 -19.833 -194.833 -59.5 -272.5s-93.167 -138 -160.5 -181s-142 -64.5 -224 -64.5zM186.001 0.00585938
v1372h236v-1132l-82 -240h-154z" />
    <glyph glyph-name="c" unicode="c" horiz-adv-x="1059" 
d="M554 -28c-81.333 0 -156.831 21.168 -226.498 63.501s-126 102 -169 179s-64.5 167.5 -64.5 271.5c0 110 21.5 203.167 64.5 279.5s99.333 134.166 169 173.499s145.167 59 226.5 59c63.333 0 119.166 -10.167 167.499 -30.5s89.5 -47.666 123.5 -81.999
s60.667 -72.5 80 -114.5s31.666 -84.333 36.999 -127l-238 -6c-10.667 42.667 -30.5 78 -59.5 106s-66.5 42 -112.5 42c-38 0 -73.667 -10.5 -107 -31.5s-60.5 -53.5 -81.5 -97.5s-31.5 -101 -31.5 -171c0 -66.667 9.83301 -122.167 29.5 -166.5
s46.167 -77.666 79.5 -99.999s70.333 -33.5 111 -33.5c60 0 103.667 14.5 131 43.5s41 67.833 41 116.5h238c0 -68.667 -15.667 -131.334 -47 -188.001s-77.333 -101.834 -138 -135.501s-135 -50.5 -223 -50.5z" />
    <glyph glyph-name="d" unicode="d" horiz-adv-x="1228" 
d="M544 -28c-81.333 0 -155.497 21.4941 -222.497 64.4941s-120.333 103.333 -160 181s-59.5 168.5 -59.5 272.5c0 102.667 19.167 192.167 57.5 268.5s89.666 135.333 153.999 177s135.833 62.5 214.5 62.5c72 0 134.333 -17.167 187 -51.5s93 -85.166 121 -152.499
s42 -150 42 -248h-74c0 50.667 -10.333 93.834 -31 129.501s-47.834 63 -81.501 82s-70.167 28.5 -109.5 28.5c-47.333 0 -89.166 -12.333 -125.499 -37s-64.833 -59.167 -85.5 -103.5s-31 -96.166 -31 -155.499c0 -61.333 10.333 -114.666 31 -159.999
s49.167 -80.666 85.5 -105.999s77.5 -38 123.5 -38c37.333 0 73.166 10.167 107.499 30.5s62.333 48.833 84 85.5s32.5 79.334 32.5 128.001h74c0 -102 -15.167 -186.833 -45.5 -254.5s-70.833 -118.5 -121.5 -152.5s-106.334 -51 -167.001 -51zM848.003 -0.00585938
l-44 240v1132h238v-1372h-194z" />
    <glyph glyph-name="e" unicode="e" horiz-adv-x="1060" 
d="M548 -28c-82.667 0 -158.329 21.333 -226.996 64s-123.667 102.5 -165 179.5s-62 167.167 -62 270.5c0 106.667 20.5 198.334 61.5 275.001s95.833 135.334 164.5 176.001s144.667 61 228 61c77.333 0 144.166 -15.5 200.499 -46.5s101.666 -73 135.999 -126
s57.5 -112.833 69.5 -179.5s12.667 -135.334 2 -206.001h-674v128h507l-46 -30c2 31.333 0.5 63 -4.5 95s-14.5 61.333 -28.5 88s-33.833 48.167 -59.5 64.5s-58.5 24.5 -98.5 24.5c-48 0 -88.667 -12 -122 -36s-58.666 -56.667 -75.999 -98s-26 -88 -26 -140v-94
c0 -54.667 8.16699 -103 24.5 -145s40.666 -75 72.999 -99s73.166 -36 122.499 -36c46 0 84.667 10.667 116 32s51.333 53.333 60 96h238c-10 -62.667 -33.5 -117.834 -70.5 -165.501s-84.833 -85 -143.5 -112s-125.334 -40.5 -200.001 -40.5z" />
    <glyph glyph-name="f" unicode="f" horiz-adv-x="735" 
d="M242 0v1088c0 70 13.667 127 41 171s63.5 76.5 108.5 97.5s93.833 31.5 146.5 31.5c32.667 0 66.334 -2.33301 101.001 -7s68.334 -10.334 101.001 -17.001l-46 -182c-16.667 6 -34 10.833 -52 14.5s-35.333 5.5 -52 5.5c-18.667 0 -36.334 -3.5 -53.001 -10.5
s-30.334 -19.167 -41.001 -36.5s-16 -41 -16 -71v-1084h-238zM98 814.001v156h560v-156h-560z" />
    <glyph glyph-name="g" unicode="g" horiz-adv-x="1164" 
d="M560 -502c-111.333 0 -206.5 15.332 -285.5 45.999s-139.5 70.834 -181.5 120.501s-63 103.5 -63 161.5c0 68.667 25 121.834 75 159.501s113 56.5 189 56.5l172 -64c-65.333 0 -115.666 -12.333 -150.999 -37s-53 -59 -53 -103c0 -46 26.5 -82.833 79.5 -110.5
s125.833 -41.5 218.5 -41.5c67.333 0 125.666 10 174.999 30s87.5 46 114.5 78s40.5 66 40.5 102c0 24 -8 43.667 -24 59s-40.667 23 -74 23h-326c-65.333 0 -124.833 10.5 -178.5 31.5s-96.334 49.333 -128.001 85s-47.5 75.5 -47.5 119.5
c0 40.667 11.333 75.834 34 105.501s53.5 52.5 92.5 68.5s82.833 24 131.5 24l60 -78c-19.333 0 -37.833 -3.83301 -55.5 -11.5s-32.167 -18.834 -43.5 -33.501s-17 -33 -17 -55c0 -26.667 11.333 -48.334 34 -65.001s62 -25 118 -25h326c103.333 0 184.5 -19 243.5 -57
s88.5 -96.333 88.5 -175c0 -70 -23 -136.5 -69 -199.5s-111.167 -114.5 -195.5 -154.5s-184.166 -60 -299.499 -60zM572 299.999c-76.667 0 -146.834 14.5 -210.501 43.5s-114.5 69.5 -152.5 121.5s-57 113 -57 183c0 71.333 19 133.333 57 186s88.833 93.167 152.5 121.5
s133.834 42.5 210.501 42.5c74.667 0 143.667 -14.167 207 -42.5s114.333 -68.833 153 -121.5s58 -114.667 58 -186c0 -70 -19.333 -131 -58 -183s-89.667 -92.5 -153 -121.5s-132.333 -43.5 -207 -43.5zM574 463.999c61.333 0 107.333 17.667 138 53s46 79 46 131
c0 56 -15.5 101 -46.5 135s-77.5 51 -139.5 51c-60 0 -106 -17 -138 -51s-48 -79 -48 -135c0 -52 16.167 -95.667 48.5 -131s78.833 -53 139.5 -53zM916 841.999l-108 61.999c0 58 13.5 108.833 40.5 152.5s63 77.5 108 101.5s94.833 36 149.5 36l-12 -226
c-58 0 -102.167 -10.167 -132.5 -30.5s-45.5 -52.166 -45.5 -95.499z" />
    <glyph glyph-name="h" unicode="h" horiz-adv-x="1246" 
d="M852 0l0.000976562 568.001c0 72 -17.333 126.333 -52 163s-80 55 -136 55c-47.333 0 -89.166 -13 -125.499 -39s-64.833 -65.167 -85.5 -117.5s-31 -117.5 -31 -195.5h-78c0 126 15.667 230.833 47 314.5s75.666 146.167 132.999 187.5s124.666 62 201.999 62
c80 0 146.833 -17.833 200.5 -53.5s94 -85.834 121 -150.501s40.5 -140 40.5 -226v-568h-236zM186.001 0.000976562v1372h236v-1372h-236z" />
    <glyph glyph-name="i" unicode="i" horiz-adv-x="656" 
d="M324 1148c-46 0 -81.833 12.167 -107.5 36.5s-38.5 58.166 -38.5 101.499c0 42 12.833 75.5 38.5 100.5s61.5 37.5 107.5 37.5c45.333 0 81 -12.5 107 -37.5s39 -58.5 39 -100.5c0 -43.333 -13 -77.166 -39 -101.499s-61.667 -36.5 -107 -36.5zM206 0v974h236v-974h-236z
" />
    <glyph glyph-name="j" unicode="j" horiz-adv-x="670" 
d="M336 1148c-44.667 0 -80.167 12.167 -106.5 36.5s-39.5 58.166 -39.5 101.499c0 42 13.167 75.5 39.5 100.5s61.833 37.5 106.5 37.5c45.333 0 81 -12.5 107 -37.5s39 -58.5 39 -100.5c0 -43.333 -13 -77.166 -39 -101.499s-61.667 -36.5 -107 -36.5zM128 -502
c-52 0 -100.168 5.66797 -144.501 17.001s-89.5 26.333 -135.5 45l4 204c34 -16.667 69.833 -30.834 107.5 -42.501s74.5 -17.5 110.5 -17.5c48.667 0 85.834 14 111.501 42s38.5 75.333 38.5 142v1086h236v-1090c0 -138.667 -28.833 -237.667 -86.5 -297
s-138.167 -89 -241.5 -89z" />
    <glyph glyph-name="k" unicode="k" horiz-adv-x="1183" 
d="M186 0v1372h236v-1372h-236zM390 602l416 368h320l-736 -612v244zM862 0l-434 618l224 54l498 -672h-288z" />
    <glyph glyph-name="l" unicode="l" horiz-adv-x="609" 
d="M186 0v1372h236v-1372h-236z" />
    <glyph glyph-name="m" unicode="m" horiz-adv-x="1898" 
d="M1504 0l0.00195312 568.001c0 72 -17.333 126.333 -52 163s-80 55 -136 55c-70.667 0 -126.334 -28.667 -167.001 -86s-61 -144 -61 -260h-98c0 102 9.5 188.5 28.5 259.5s46 128.333 81 172s76.167 75.667 123.5 96s99.666 30.5 156.999 30.5
c79.333 0 145.833 -17.833 199.5 -53.5s94.167 -85.834 121.5 -150.501s41 -140 41 -226v-568h-238zM186.002 0.000976562l-0.000976562 970.001h206l26 -166c32 64.667 74.333 113.167 127 145.5s113 48.5 181 48.5c80 0 146.833 -17.833 200.5 -53.5
s94 -85.834 121 -150.501s40.5 -140 40.5 -226v-568h-236v568c0 72 -17.333 126.333 -52 163s-80 55 -136 55c-47.333 0 -89.166 -13 -125.499 -39s-64.833 -65.167 -85.5 -117.5s-31 -117.5 -31 -195.5v-434h-236z" />
    <glyph glyph-name="n" unicode="n" horiz-adv-x="1246" 
d="M852 0l0.000976562 568.001c0 72 -17.333 126.333 -52 163s-80 55 -136 55c-47.333 0 -89.166 -13 -125.499 -39s-64.833 -65.167 -85.5 -117.5s-31 -117.5 -31 -195.5h-78c0 126 15.667 230.833 47 314.5s75.666 146.167 132.999 187.5s124.666 62 201.999 62
c80 0 146.833 -17.833 200.5 -53.5s94 -85.834 121 -150.501s40.5 -140 40.5 -226v-568h-236zM186.001 0.000976562v970h206l30 -192v-778h-236z" />
    <glyph glyph-name="o" unicode="o" horiz-adv-x="1132" 
d="M568 -28c-88.667 0 -168.834 19 -240.501 57s-128.5 94.833 -170.5 170.5s-63 170.5 -63 284.5c0 116 21 212 63 288s98.833 132.667 170.5 170s151.834 56 240.501 56c87.333 0 166.5 -18.667 237.5 -56s127.5 -94 169.5 -170s63 -172 63 -288
c0 -114 -21 -208.833 -63 -284.5s-98.5 -132.5 -169.5 -170.5s-150.167 -57 -237.5 -57zM560 178c46.667 0 88.167 11.5 124.5 34.5s65 57.167 86 102.5s31.5 101.666 31.5 168.999c0 102.667 -20.167 180 -60.5 232s-95.5 78 -165.5 78c-47.333 0 -89.333 -11.5 -126 -34.5
s-65.5 -57.5 -86.5 -103.5s-31.5 -103.333 -31.5 -172c0 -101.333 20.5 -177.666 61.5 -228.999s96.5 -77 166.5 -77z" />
    <glyph glyph-name="p" unicode="p" horiz-adv-x="1220" 
d="M672 -28c-71.333 0 -132 15.333 -182 46s-88.167 77.167 -114.5 139.5s-39.5 140.5 -39.5 234.5h86c0 -43.333 10 -80.333 30 -111s46.5 -54.167 79.5 -70.5s68.5 -24.5 106.5 -24.5c39.333 0 78.166 10.833 116.499 32.5s70.166 54.667 95.499 99s38 100.5 38 168.5
c0 62 -10.667 115.5 -32 160.5s-50.5 79.5 -87.5 103.5s-79.167 36 -126.5 36c-40 0 -76.667 -9 -110 -27s-60 -44.167 -80 -78.5s-30 -75.833 -30 -124.5h-86c0 102 15.667 185.5 47 250.5s73.333 113.167 126 144.5s110.334 47 173.001 47
c76.667 0 148.834 -20.333 216.501 -61s122.5 -99.167 164.5 -175.5s63 -168.166 63 -275.499c0 -108 -21.333 -200.333 -64 -277s-98.5 -135.334 -167.5 -176.001s-143.167 -61 -222.5 -61zM186 -474v1444h194l42 -240v-1204h-236z" />
    <glyph glyph-name="q" unicode="q" horiz-adv-x="1220" 
d="M548 -28c-79.333 0 -153.502 20.333 -222.502 61s-124.833 99.334 -167.5 176.001s-64 169 -64 277c0 107.333 21 199.166 63 275.499s96.667 134.833 164 175.5s139 61 215 61c62.667 0 120.334 -15.667 173.001 -47s95 -79.5 127 -144.5s48 -148.5 48 -250.5h-88
c0 48.667 -9.83301 90.167 -29.5 124.5s-46 60.5 -79 78.5s-69.5 27 -109.5 27c-47.333 0 -89.5 -12 -126.5 -36s-66.167 -58.5 -87.5 -103.5s-32 -98.5 -32 -160.5c0 -68 12.5 -124.167 37.5 -168.5s56.667 -77.333 95 -99s77.5 -32.5 117.5 -32.5
c36.667 0 71.334 8.16699 104.001 24.5s59.167 39.833 79.5 70.5s30.5 67.667 30.5 111h46c0 -82.667 -9.66699 -155.5 -29 -218.5s-50.5 -112.333 -93.5 -148s-100.167 -53.5 -171.5 -53.5zM1098 -502c-108.667 27.333 -186.167 70 -232.5 128s-69.5 138.667 -69.5 242v862
l84 240h152v-1120c0 -39.333 4 -70.166 12 -92.499s21.833 -39.833 41.5 -52.5s46.5 -24.334 80.5 -35.001z" />
    <glyph glyph-name="r" unicode="r" horiz-adv-x="785" 
d="M186 0v974h236v-974h-236zM364 426c0 127.333 14.334 232.668 43.001 316.001s67.167 145.166 115.5 185.499s102.166 60.5 161.499 60.5c16 0 31.167 -1 45.5 -3s28.5 -5 42.5 -9l-4 -236c-17.333 4 -36 7.33301 -56 10s-38 4 -54 4c-52 0 -95.5 -12.5 -130.5 -37.5
s-61.333 -61.833 -79 -110.5s-26.5 -108.667 -26.5 -180h-58z" />
    <glyph glyph-name="s" unicode="s" horiz-adv-x="1055" 
d="M548 -28c-93.333 0 -173.503 12.833 -240.503 38.5s-118.5 62.667 -154.5 111s-54.333 106.5 -55 174.5h218c2 -48 21 -83 57 -105s85 -33 147 -33c34 0 64.167 5 90.5 15s46.833 23.667 61.5 41s22 36.666 22 57.999c0 27.333 -9.83301 48.833 -29.5 64.5
s-51.167 30.167 -94.5 43.5l-212 76c-76 27.333 -134.333 63.333 -175 108s-61 98 -61 160c0 82 37.167 148.167 111.5 198.5s173.833 75.5 298.5 75.5c124 0 219.833 -27.167 287.5 -81.5s102.5 -123.166 104.5 -206.499h-222c-3.33301 32 -18.666 57.333 -45.999 76
s-68.666 28 -123.999 28c-50 0 -89.167 -10.167 -117.5 -30.5s-42.5 -44.166 -42.5 -71.499c0 -46 39.333 -80.667 118 -104l230 -86c74.667 -25.333 132.667 -58 174 -98s62 -90.667 62 -152c0 -51.333 -17.167 -99.833 -51.5 -145.5s-82.166 -82.834 -143.499 -111.501
s-132.333 -43 -213 -43z" />
    <glyph glyph-name="t" unicode="t" horiz-adv-x="789" 
d="M514 -28c-57.333 0 -109.833 10.667 -157.5 32s-85.667 54 -114 98s-42.5 100 -42.5 168v958h236v-950c0 -80 38 -120 114 -120c23.333 0 46.666 2.66699 69.999 8s50 13.333 80 24l34 -166c-37.333 -14.667 -73.666 -27 -108.999 -37s-72.333 -15 -111 -15zM64 814v156
h636v-156h-636z" />
    <glyph glyph-name="u" unicode="u" horiz-adv-x="1254" 
d="M832 974h236v-974h-236v974zM166 974l236 -0.00195312v-596c0 -63.333 15.667 -110.833 47 -142.5s74.333 -47.5 129 -47.5c46.667 0 89.167 12.167 127.5 36.5s69 60.333 92 108s34.5 106.834 34.5 177.501h64c0 -118.667 -15.333 -217 -46 -295s-73 -136.333 -127 -175
s-116.333 -58 -187 -58c-69.333 0 -132 12.333 -188 37s-100.333 64.334 -133 119.001s-49 126.667 -49 216v620z" />
    <glyph glyph-name="v" unicode="v" horiz-adv-x="1038" 
d="M24 970h272l232 -768h-18l232 768h272l-362 -970h-266z" />
    <glyph glyph-name="w" unicode="w" horiz-adv-x="1516" 
d="M24 970h246l210 -736h-24l198 684h214l198 -686h-24l210 738h236l-320 -970h-232l-198 644h36l-194 -644h-234z" />
    <glyph glyph-name="x" unicode="x" horiz-adv-x="1107" 
d="M32 0l378 484l-378 490h290l238 -312l226 312h288l-376 -490l376 -484h-288l-242 312l-222 -312h-290z" />
    <glyph glyph-name="y" unicode="y" horiz-adv-x="1007" 
d="M38 970l268 0.000976562l258 -764h-42l222 764h240l-372 -1146c-38 -114.667 -84.833 -197.667 -140.5 -249s-123.5 -77 -203.5 -77c-46 0 -90.833 5.16699 -134.5 15.5s-88.167 26.5 -133.5 48.5v208c36.667 -22.667 72.167 -39.334 106.5 -50.001s68.833 -16 103.5 -16
c31.333 0 58.833 8.5 82.5 25.5s44.167 40.667 61.5 71s32 65.5 44 105.5l30 94z" />
    <glyph glyph-name="z" unicode="z" horiz-adv-x="990" 
d="M114 0v192l504 588h-504v190h764v-190l-488 -588h488v-192h-764z" />
    <glyph glyph-name="braceleft" unicode="{" horiz-adv-x="782" 
d="M774 -312c-121.333 0 -220 21.667 -296 65s-131.667 102.833 -167 178.5s-53 162.5 -53 260.5v182c0 55.333 -4.5 93.5 -13.5 114.5s-26.5 31.5 -52.5 31.5h-50v238h50c26 0 43.5 10.333 52.5 31s13.5 59 13.5 115v184c0 98 17.667 184.5 53 259.5s91 133.833 167 176.5
s174.667 64 296 64v-212c-98 0 -169.5 -23.667 -214.5 -71s-67.5 -121 -67.5 -221v-192c0 -64 -12.5 -116.5 -37.5 -157.5s-56.5 -71.167 -94.5 -90.5v-10c38 -19.333 69.5 -49.5 94.5 -90.5s37.5 -93.5 37.5 -157.5v-192c0 -100 22.5 -173.667 67.5 -221
s116.5 -71 214.5 -71v-214z" />
    <glyph glyph-name="bar" unicode="|" horiz-adv-x="609" 
d="M186 -244v1784h236v-1784h-236z" />
    <glyph glyph-name="braceright" unicode="}" horiz-adv-x="782" 
d="M8 -312c121.333 0 220 21.667 296 65s131.667 102.833 167 178.5s53 162.5 53 260.5v182c0 55.333 4.5 93.5 13.5 114.5s26.5 31.5 52.5 31.5h50v238h-50c-26 0 -43.5 10.333 -52.5 31s-13.5 59 -13.5 115v184c0 98 -17.667 184.5 -53 259.5s-91 133.833 -167 176.5
s-174.667 64 -296 64v-212c98 0 169.5 -23.667 214.5 -71s67.5 -121 67.5 -221v-192c0 -64 12.5 -116.5 37.5 -157.5s56.5 -71.167 94.5 -90.5v-10c-38 -19.333 -69.5 -49.5 -94.5 -90.5s-37.5 -93.5 -37.5 -157.5v-192c0 -100 -22.5 -173.667 -67.5 -221
s-116.5 -71 -214.5 -71v-214z" />
    <glyph glyph-name="asciitilde" unicode="~" horiz-adv-x="1139" 
d="M240 408l-125.998 68c23.333 86 55.333 154.167 96 204.5s94 75.5 160 75.5c29.333 0 60.5 -4.66699 93.5 -14s73.833 -23.333 122.5 -42c48.667 -19.333 86.167 -32.833 112.5 -40.5s49.5 -11.5 69.5 -11.5c26 0 50.167 9.33301 72.5 28s41.5 46 57.5 82l126 -80
c-26.667 -84.667 -63.5 -148.167 -110.5 -190.5s-101.5 -63.5 -163.5 -63.5c-22 0 -49.333 4.33301 -82 13s-73.334 23 -122.001 43l-110 37.5c-24.667 8.33301 -47.334 12.5 -68.001 12.5c-26 0 -49.667 -9.33301 -71 -28s-40.333 -50 -57 -94z" />
    <glyph glyph-name="uni00A0" unicode="&#xa0;" horiz-adv-x="506" 
 />
    <glyph glyph-name="exclamdown" unicode="&#xa1;" horiz-adv-x="586" 
d="M198 866l-26 -888h256l-28 888h-202zM301 1322c-48.667 0 -88.334 -14.833 -119.001 -44.5s-46 -67.5 -46 -113.5c0 -44 15.333 -81.333 46 -112s70.334 -46 119.001 -46c47.333 0 87 15.333 119 46s48 68 48 112c0 46 -16 83.833 -48 113.5s-71.667 44.5 -119 44.5z" />
    <glyph glyph-name="cent" unicode="&#xa2;" horiz-adv-x="1057" 
d="M452 -216v258h194v-258h-194zM452 940v234h194v-234h-194zM554 -28c-81.333 0 -156.831 21.168 -226.498 63.501s-126 102 -169 179s-64.5 167.5 -64.5 271.5c0 110 21.5 203.167 64.5 279.5s99.333 134.166 169 173.499s145.167 59 226.5 59
c63.333 0 119.166 -10.167 167.499 -30.5s89.5 -47.666 123.5 -81.999s60.667 -72.5 80 -114.5s31.666 -84.333 36.999 -127l-238 -6c-10.667 42.667 -30.5 78 -59.5 106s-66.5 42 -112.5 42c-38 0 -73.667 -10.5 -107 -31.5s-60.5 -53.5 -81.5 -97.5s-31.5 -101 -31.5 -171
c0 -66.667 9.83301 -122.167 29.5 -166.5s46.167 -77.666 79.5 -99.999s70.333 -33.5 111 -33.5c60 0 103.667 14.5 131 43.5s41 67.833 41 116.5h238c0 -68.667 -15.667 -131.334 -47 -188.001s-77.333 -101.834 -138 -135.501s-135 -50.5 -223 -50.5z" />
    <glyph glyph-name="sterling" unicode="&#xa3;" horiz-adv-x="1203" 
d="M108 144v67.998c49.333 0 84 14.333 104 43s30 72.334 30 131.001v502c0 96 17 176.333 51 241s81.5 113.334 142.5 146.001s132.5 49 214.5 49c110 0 197.5 -29.333 262.5 -88s105.5 -146 121.5 -262h-232c-6 44 -22.5 77.667 -49.5 101s-61.167 35 -102.5 35
c-52 0 -93.667 -18 -125 -54s-47 -92 -47 -168v-486c0 -88 -26.667 -153 -80 -195s-150 -63 -290 -63zM44 -0.00195312l0.000976562 211.999h634c66 0 113.5 12.833 142.5 38.5s46.833 64.834 53.5 117.501h256c-2.66699 -116 -37.834 -206.333 -105.501 -271
s-182.5 -97 -344.5 -97h-636zM76.001 561.997v158h744v-158h-744z" />
    <glyph glyph-name="currency" unicode="&#xa4;" 
d="M600 216c-78 0 -149 19.167 -213 57.5s-115.167 89.5 -153.5 153.5s-57.5 135 -57.5 213s19.167 149 57.5 213s89.5 115.167 153.5 153.5s135 57.5 213 57.5s149 -19.167 213 -57.5s114.833 -89.5 152.5 -153.5s56.5 -135 56.5 -213s-18.833 -149 -56.5 -213
s-88.5 -115.167 -152.5 -153.5s-135 -57.5 -213 -57.5zM600 426c39.333 0 75.166 9.66699 107.499 29s58.166 45.166 77.499 77.499s29 68.166 29 107.499c0 40 -9.66699 76.167 -29 108.5s-45.166 58 -77.499 77s-68.166 28.5 -107.499 28.5s-75.166 -9.5 -107.499 -28.5
s-58.166 -44.667 -77.499 -77s-29 -68.5 -29 -108.5c0 -39.333 9.66699 -75.166 29 -107.499s45.166 -58.166 77.499 -77.499s68.166 -29 107.499 -29zM848 788l-100 100l230 230l100 -98zM340 800l-218 218l98 100l218 -218zM860 480l218 -218l-98 -100l-218 218zM340 480
l98 -100l-218 -218l-98 100z" />
    <glyph glyph-name="yen" unicode="&#xa5;" horiz-adv-x="1173" 
d="M460 0v536l-446 762h280l310 -558h-46l322 558h278l-462 -762v-536h-236zM232 170v132h698v-132h-698zM232 384v132h698v-132h-698z" />
    <glyph glyph-name="brokenbar" unicode="&#xa6;" horiz-adv-x="609" 
d="M186 750v790h236v-790h-236zM186 -244v790h236v-790h-236z" />
    <glyph glyph-name="section" unicode="&#xa7;" 
d="M629 472c34.667 0 65.166 4.99805 91.499 14.998s46.833 23.833 61.5 41.5s22 37.5 22 59.5c0 26 -10.333 46.833 -31 62.5s-52 30.167 -94 43.5l-211 76c-75.333 25.333 -133.5 60.666 -174.5 105.999s-61.5 98.333 -61.5 159c0 84 36.833 151.167 110.5 201.5
s171.5 75.5 293.5 75.5c130 0 228.167 -27.5 294.5 -82.5s100.5 -123.833 102.5 -206.5h-222c-2 32.667 -17.333 58.334 -46 77.001s-68 28 -118 28c-54 0 -95 -10.333 -123 -31s-42 -45 -42 -73c0 -43.333 39 -77.333 117 -102l230 -86c75.333 -26 133.5 -59 174.5 -99
s61.5 -89 61.5 -147c0 -53.333 -17.167 -103.166 -51.5 -149.499s-82.166 -83.666 -143.499 -111.999s-132.333 -42.5 -213 -42.5zM568.999 737.998c-50 0 -89.1699 -10.6699 -117.503 -32.0029s-42.5 -46.666 -42.5 -75.999c0 -43.333 39.333 -77.666 118 -102.999l230 -85
c74 -26 131.667 -59 173 -99s62 -89.333 62 -148c0 -52.667 -16.5 -102.167 -49.5 -148.5s-81.167 -83.833 -144.5 -112.5s-140.666 -43 -231.999 -43c-82.667 0 -156.667 12.833 -222 38.5s-116.666 62.834 -153.999 111.501s-55.666 107 -54.999 175h218
c0.666992 -48 19.5 -83 56.5 -105s82.833 -33 137.5 -33c58.667 0 104 11 136 33s48 49.333 48 82c0 26 -10.167 46.833 -30.5 62.5s-51.833 30.5 -94.5 44.5l-211 75c-76.667 26.667 -135.167 62.667 -175.5 108s-60.5 99 -60.5 161c0 86.667 37 154.167 111 202.5
s173.667 72.5 299 72.5v-181z" />
    <glyph glyph-name="dieresis" unicode="&#xa8;" horiz-adv-x="854" 
d="M618 1142c-38.667 0 -71.667 12.667 -99 38s-41 57 -41 95s13.667 69.833 41 95.5s60.333 38.5 99 38.5c41.333 0 75.333 -12.833 102 -38.5s40 -57.5 40 -95.5s-13.333 -69.667 -40 -95s-60.667 -38 -102 -38zM234 1142c-40.667 0 -74.167 12.667 -100.5 38
s-39.5 56.333 -39.5 93c0 39.333 13.167 71.5 39.5 96.5s59.833 37.5 100.5 37.5c41.333 0 75.333 -12.5 102 -37.5s40 -57.167 40 -96.5c0 -36.667 -13.333 -67.667 -40 -93s-60.667 -38 -102 -38z" />
    <glyph glyph-name="copyright" unicode="&#xa9;" horiz-adv-x="1421" 
d="M711 -12c-91.333 0 -177 17.167 -257 51.5s-150.5 81.833 -211.5 142.5s-108.667 131 -143 211s-51.5 165.667 -51.5 257s17.167 177 51.5 257s82 150.5 143 211.5s131.5 108.5 211.5 142.5s165.667 51 257 51c90.667 0 176.167 -17 256.5 -51
s150.833 -81.5 211.5 -142.5s108.167 -131.5 142.5 -211.5s51.5 -165.667 51.5 -257s-17.167 -177 -51.5 -257s-81.833 -150.333 -142.5 -211s-131.167 -108.167 -211.5 -142.5s-165.833 -51.5 -256.5 -51.5zM711 106c75.333 0 145.833 14.167 211.5 42.5
s123.334 67.333 173.001 117s88.667 107.5 117 173.5s42.5 136.333 42.5 211c0 75.333 -14.167 145.833 -42.5 211.5s-67.333 123.5 -117 173.5s-107.334 89 -173.001 117s-136.167 42 -211.5 42c-74.667 0 -145 -14 -211 -42s-124 -67 -174 -117
s-89.167 -107.833 -117.5 -173.5s-42.5 -136.167 -42.5 -211.5c0 -74.667 14.167 -145 42.5 -211s67.5 -123.833 117.5 -173.5s108 -88.667 174 -117s136.333 -42.5 211 -42.5zM708 240c-68.667 0 -128.666 16.4971 -179.999 49.4971s-91.166 80.333 -119.499 142
s-42.5 135.5 -42.5 221.5c0 88.667 14.833 163.167 44.5 223.5s70.167 106 121.5 137s110 46.5 176 46.5c92 0 163.667 -22.167 215 -66.5s84.333 -102.166 99 -173.499l-152 -28c-12.667 42 -32.667 75.667 -60 101s-61.333 38 -102 38
c-34.667 0 -66.334 -10.167 -95.001 -30.5s-51.5 -51.166 -68.5 -92.499s-25.5 -93 -25.5 -155c0 -58.667 7.5 -109 22.5 -151s36.5 -74.333 64.5 -97s62 -34 102 -34c51.333 0 91.166 13.667 119.499 41s42.5 62 42.5 104h152c0 -87.333 -28 -155.166 -84 -203.499
s-132.667 -72.5 -230 -72.5z" />
    <glyph glyph-name="ordfeminine" unicode="&#xaa;" horiz-adv-x="1170" 
d="M804 0l-30 236.001v390c0 68 -13.833 118.333 -41.5 151s-74.5 49 -140.5 49c-38 0 -71 -5.66699 -99 -17s-49.5 -27.5 -64.5 -48.5s-22.5 -46.5 -22.5 -76.5h-258c0 73.333 17.667 133.166 53 179.499s86.166 80.333 152.499 102s145.833 32.5 238.5 32.5
c84 0 157.333 -13.5 220 -40.5s111.334 -68.5 146.001 -124.5s52 -127.667 52 -215v-618h-206zM486 -27.999c-83.333 0 -152.832 14.501 -208.499 43.501s-97.5 67.167 -125.5 114.5s-42 98.666 -42 153.999c0 61.333 16.167 112.833 48.5 154.5s78.166 73 137.499 94
s129.333 31.5 210 31.5c52.667 0 102.5 -4 149.5 -12s93.833 -18.667 140.5 -32v-138c-36.667 12 -76.667 21.333 -120 28s-84 10 -122 10c-56 0 -102 -10.333 -138 -31s-54 -55.667 -54 -105c0 -36 14.667 -67 44 -93s76 -39 140 -39c48.667 0 90 10.667 124 32
s59.833 48 77.5 80s26.5 64 26.5 96h56c0 -70 -13 -134.5 -39 -193.5s-64.5 -106.167 -115.5 -141.5s-114.167 -53 -189.5 -53z" />
    <glyph glyph-name="guillemotleft" unicode="&#xab;" horiz-adv-x="1245" 
d="M315 509l352 342l-159 120l-414 -431l414 -432l159 120l-352 343v-62zM800 509l352 342l-159 120l-414 -431l414 -432l159 120l-352 343v-62z" />
    <glyph glyph-name="logicalnot" unicode="&#xac;" 
d="M219 675h710v-378h-156v252l48 -52h-602v178z" />
    <glyph glyph-name="uni00AD" unicode="&#xad;" 
d="M92 500v206h562v-206h-562z" />
    <glyph glyph-name="registered" unicode="&#xae;" horiz-adv-x="1421" 
d="M711 -12c-91.333 0 -177 17.167 -257 51.5s-150.5 81.833 -211.5 142.5s-108.667 131 -143 211s-51.5 165.667 -51.5 257s17.167 177 51.5 257s82 150.5 143 211.5s131.5 108.5 211.5 142.5s165.667 51 257 51c90.667 0 176.167 -17 256.5 -51
s150.833 -81.5 211.5 -142.5s108.167 -131.5 142.5 -211.5s51.5 -165.667 51.5 -257s-17.167 -177 -51.5 -257s-81.833 -150.333 -142.5 -211s-131.167 -108.167 -211.5 -142.5s-165.833 -51.5 -256.5 -51.5zM711 106c75.333 0 145.833 14.167 211.5 42.5
s123.334 67.333 173.001 117s88.667 107.5 117 173.5s42.5 136.333 42.5 211c0 75.333 -14.167 145.833 -42.5 211.5s-67.333 123.5 -117 173.5s-107.334 89 -173.001 117s-136.167 42 -211.5 42c-74.667 0 -145 -14 -211 -42s-124 -67 -174 -117
s-89.167 -107.833 -117.5 -173.5s-42.5 -136.167 -42.5 -211.5c0 -74.667 14.167 -145 42.5 -211s67.5 -123.833 117.5 -173.5s108 -88.667 174 -117s136.333 -42.5 211 -42.5zM857 291l-197 346h143l228 -346h-174zM457 291v739h273c88 0 155.667 -20.667 203 -62
s71 -96 71 -164c0 -66.667 -23.667 -120.667 -71 -162s-115 -62 -203 -62h-140v-289h-133zM590 669h126c50 0 87.5 11.5 112.5 34.5s37.5 52.167 37.5 87.5c0 37.333 -11.5 67.333 -34.5 90s-56.833 34 -101.5 34h-140v-246z" />
    <glyph glyph-name="macron" unicode="&#xaf;" horiz-adv-x="880" 
d="M95 1361h691v-193h-691v193z" />
    <glyph glyph-name="degree" unicode="&#xb0;" horiz-adv-x="777" 
d="M389 970c-55.333 0 -105.833 13.5 -151.5 40.5s-82 63.5 -109 109.5s-40.5 96.333 -40.5 151c0 56 13.5 106.5 40.5 151.5s63.333 81 109 108s96.167 40.5 151.5 40.5s105.666 -13.5 150.999 -40.5s81.5 -63 108.5 -108s40.5 -95.5 40.5 -151.5
c0 -54.667 -13.5 -105 -40.5 -151s-63.167 -82.5 -108.5 -109.5s-95.666 -40.5 -150.999 -40.5zM389 1127c39.333 0 73 14.167 101 42.5s42 62.166 42 101.499s-14 73.166 -42 101.499s-61.667 42.5 -101 42.5c-40 0 -74.167 -14.167 -102.5 -42.5
s-42.5 -62.166 -42.5 -101.499s14.167 -73.166 42.5 -101.499s62.5 -42.5 102.5 -42.5z" />
    <glyph glyph-name="plusminus" unicode="&#xb1;" horiz-adv-x="1012" 
d="M414 1098h184v-306h278v-152h-278v-304h-184v304h-278v152h278v306zM152 178h710v-178h-710v178z" />
    <glyph glyph-name="uni00B2" unicode="&#xb2;" horiz-adv-x="819" 
d="M120.29 526l0.000976562 133.733c0 43.7764 6.62695 80.9258 19.8799 111.448s33.0322 56.3262 59.3379 77.4111c26.3057 21.084 59.3379 39.2568 99.0977 54.5186l160.243 61.4463c34.9404 14.0566 60.7441 31.3262 77.4111 51.8076
c16.667 20.4824 25.001 45.7842 25.001 75.9043c0 30.1211 -10.9443 55.5234 -32.832 76.2061s-53.1133 31.0244 -93.6758 31.0244c-38.9561 0 -71.5869 -9.73926 -97.8926 -29.2168c-26.3057 -19.4785 -41.4668 -47.8926 -45.4824 -85.2422h-157.834
c1.20508 53.4141 15.0605 97.792 41.5674 133.134c26.5059 35.3418 62.0488 61.748 106.628 79.2178s94.7803 26.2051 150.604 26.2051c52.6113 0 100.202 -9.93945 142.773 -29.8193c42.5703 -19.8799 76.4062 -47.5908 101.507 -83.1338
c25.1006 -35.542 37.6514 -77.0078 37.6514 -124.397c0 -40.1611 -7.3291 -75.5029 -21.9883 -106.025s-36.8486 -57.2295 -66.5684 -80.1211s-67.2705 -43.1729 -112.652 -60.8438l-161.448 -62.6514c-31.3252 -12.0479 -54.0166 -25.4014 -68.0732 -40.0605
c-14.0557 -14.6592 -21.084 -33.8359 -21.084 -57.5312v-22.8916h446.993v-130.122h-589.164z" />
    <glyph glyph-name="uni00B3" unicode="&#xb3;" horiz-adv-x="826" 
d="M413.113 509.133c-41.3662 0 -81.3262 5.62012 -119.881 16.8652s-73.0938 27.9121 -103.616 50.001s-54.7197 49.499 -72.5918 82.2305s-26.8076 70.583 -26.8076 113.556h149.399c1.60645 -27.3096 9.83984 -50.9043 24.7002 -70.7842
c14.8594 -19.8799 35.04 -35.1406 60.543 -45.7832c25.502 -10.6436 54.9199 -15.9648 88.2539 -15.9648c48.9961 0 87.3496 11.2451 115.062 33.7363c27.7109 22.4893 41.5664 51.0039 41.5664 85.543c0 22.4902 -5.62207 41.8682 -16.8672 58.1328
c-11.2451 16.2656 -28.5146 28.7158 -51.8076 37.3496c-23.2939 8.63477 -53.0137 12.9521 -89.1592 12.9521h-103.615v112.05h87.9521c45.7842 0 81.7285 9.83984 107.833 29.5186s39.1572 46.3857 39.1572 80.1211c0 30.1211 -11.2451 55.3223 -33.7354 75.6035
s-56.2256 30.4219 -101.206 30.4219c-36.5469 0 -69.1777 -7.42969 -97.8926 -22.2891c-28.7158 -14.8604 -47.0898 -40.7646 -55.1221 -77.7129h-149.398c5.62207 53.4141 21.7871 96.9893 48.4941 130.725s61.3457 58.5352 103.917 74.3994
c42.5713 15.8633 90.5635 23.7949 143.978 23.7949c56.627 0 107.029 -9.2373 151.207 -27.7109c44.1768 -18.4736 79.0166 -44.0762 104.519 -76.8076c25.5029 -32.7314 38.2539 -70.583 38.2539 -113.555c0 -39.7598 -10.8438 -74.3984 -32.5303 -103.917
c-21.6875 -29.5186 -53.8164 -51.5068 -96.3867 -65.9648c47.3896 -16.0645 85.3418 -39.96 113.856 -71.6875s42.7715 -71.2861 42.7715 -118.677c0 -46.1846 -12.9521 -87.0488 -38.8555 -122.592c-25.9043 -35.542 -62.1494 -63.3535 -108.736 -83.4346
c-46.5869 -20.0801 -101.005 -30.1201 -163.254 -30.1201z" />
    <glyph glyph-name="acute" unicode="&#xb4;" horiz-adv-x="720" 
d="M207 1117l-113 92l374 373l158 -128z" />
    <glyph glyph-name="uni00B5" unicode="&#xb5;" horiz-adv-x="1254" 
d="M832 974h236v-974h-236v974zM166 974l236 -0.00195312v-596c0 -63.333 15.667 -110.833 47 -142.5s74.333 -47.5 129 -47.5c46.667 0 89.167 12.167 127.5 36.5s69 60.333 92 108s34.5 106.834 34.5 177.501h64c0 -118.667 -15.333 -217 -46 -295s-73 -136.333 -127 -175
s-116.333 -58 -187 -58c-69.333 0 -132 12.333 -188 37s-100.333 64.334 -133 119.001s-49 126.667 -49 216v620zM166 -398.002v1372h236v-1372h-236z" />
    <glyph glyph-name="paragraph" unicode="&#xb6;" 
d="M537 472c-146.667 0 -260.834 36 -342.501 108s-122.5 173.667 -122.5 305c0 132 40.833 233.833 122.5 305.5s195.834 107.5 342.501 107.5h451v-212h-324v-614h-127zM543 -252v1550h176v-1550h-176zM846 -252v1550h175v-1550h-175z" />
    <glyph glyph-name="periodcentered" unicode="&#xb7;" horiz-adv-x="430" 
d="M48 532c0 45.333 15.333 83.334 46 114.001s70 46 118 46s88 -15.333 120 -46s48 -68.667 48 -114c0 -44.667 -16 -81.834 -48 -111.501s-72 -44.5 -120 -44.5s-87.333 15 -118 45s-46 67 -46 111z" />
    <glyph glyph-name="cedilla" unicode="&#xb8;" horiz-adv-x="628" 
d="M94 -367l32.999 83.002c45.333 -21.333 85.5 -33.5 120.5 -36.5s63 1.33301 84 13s32.5 28.167 34.5 49.5c2 18.667 -4.5 35.167 -19.5 49.5s-36 27.166 -63 38.499s-59.167 21 -96.5 29l78 220l104 -15l-71 -199l-31 60c64.667 -10 117 -25 157 -45s68.833 -43 86.5 -69
s25.5 -53.667 23.5 -83c-2.66699 -38.667 -19.167 -69.834 -49.5 -93.501s-68.166 -39.5 -113.499 -47.5s-92.5 -8.33301 -141.5 -1s-94.167 23 -135.5 47z" />
    <glyph glyph-name="uni00B9" unicode="&#xb9;" horiz-adv-x="537" 
d="M242.641 1305.76h107.23v-786.757h-142.17v616.875c-21.2861 -9.63867 -42.1699 -17.0684 -62.6514 -22.2891c-20.4824 -5.22168 -40.9648 -7.83203 -61.4463 -7.83203v136.146c27.3096 2.81152 53.8154 9.13672 79.5186 18.9766
c25.7031 9.83887 52.209 24.7988 79.5186 44.8799z" />
    <glyph glyph-name="ordmasculine" unicode="&#xba;" horiz-adv-x="1132" 
d="M568 -28c-88.667 0 -168.834 19 -240.501 57s-128.5 94.833 -170.5 170.5s-63 170.5 -63 284.5c0 116 21 212 63 288s98.833 132.667 170.5 170s151.834 56 240.501 56c87.333 0 166.5 -18.667 237.5 -56s127.5 -94 169.5 -170s63 -172 63 -288
c0 -114 -21 -208.833 -63 -284.5s-98.5 -132.5 -169.5 -170.5s-150.167 -57 -237.5 -57zM560 178c46.667 0 88.167 11.5 124.5 34.5s65 57.167 86 102.5s31.5 101.666 31.5 168.999c0 102.667 -20.167 180 -60.5 232s-95.5 78 -165.5 78c-47.333 0 -89.333 -11.5 -126 -34.5
s-65.5 -57.5 -86.5 -103.5s-31.5 -103.333 -31.5 -172c0 -101.333 20.5 -177.666 61.5 -228.999s96.5 -77 166.5 -77z" />
    <glyph glyph-name="guillemotright" unicode="&#xbb;" horiz-adv-x="1245" 
d="M930 509l-352 342l159 120l414 -431l-414 -432l-159 120l352 343v-62zM446 509l-352 342l159 120l414 -431l-414 -432l-159 120l352 343v-62z" />
    <glyph glyph-name="onequarter" unicode="&#xbc;" horiz-adv-x="1853" 
d="M243 1387h106.999v-787h-142v617c-21.333 -10 -42.166 -17.5 -62.499 -22.5s-40.833 -7.83301 -61.5 -8.5v137c27.333 2.66699 54 9 80 19s52.333 25 79 45zM245.498 -24.0254l978.003 1402.76h185.311l-981.065 -1402.76h-182.248zM1551 790h136v-495h137v-122h-137
v-173h-140v173h-397v108zM1553 579l-234 -298h234v298z" />
    <glyph glyph-name="onehalf" unicode="&#xbd;" horiz-adv-x="1925" 
d="M243 1387h106.999v-787h-142v617c-21.333 -10 -42.166 -17.5 -62.499 -22.5s-40.833 -7.83301 -61.5 -8.5v137c27.333 2.66699 54 9 80 19s52.333 25 79 45zM245.498 -24.0254l978.003 1402.76h185.311l-981.065 -1402.76h-182.248zM1226 0l-0.00195312 134.001
c0 65.333 14.833 116.5 44.5 153.5s74.5 66.833 134.5 89.5l159 62c35.333 13.333 61.333 30.333 78 51s25 46.334 25 77.001c0 30 -11 55.333 -33 76s-53 31 -93 31s-73 -9.83301 -99 -29.5s-41 -48.167 -45 -85.5h-157c0.666992 53.333 14.334 97.666 41.001 132.999
s62.167 61.833 106.5 79.5s94.5 26.5 150.5 26.5c52.667 0 100.334 -9.83301 143.001 -29.5s76.5 -47.334 101.5 -83.001s37.5 -77.167 37.5 -124.5c0 -60.667 -16.5 -110.5 -49.5 -149.5s-83.5 -71.833 -151.5 -98.5l-162 -62c-31.333 -12 -54 -25.333 -68 -40
s-21 -34 -21 -58v-23h447v-130h-589z" />
    <glyph glyph-name="threequarters" unicode="&#xbe;" horiz-adv-x="2140" 
d="M413 572c-55.333 0 -107.499 10.0029 -156.499 30.0029s-89 49.5 -120 88.5s-46.5 86.833 -46.5 143.5h149c2.66699 -40.667 19.834 -72.834 51.501 -96.501s72.5 -35.5 122.5 -35.5c48.667 0 87 11.333 115 34s42 51 42 85s-12.833 60.667 -38.5 80s-65.5 29 -119.5 29
h-104v112h88c46 0 82 9.83301 108 29.5s39 46.5 39 80.5c0 30 -11.167 55.167 -33.5 75.5s-56.166 30.5 -101.499 30.5c-36.667 0 -69.334 -7.5 -98.001 -22.5s-47 -40.833 -55 -77.5h-149c8.66699 79.333 40.167 137.333 94.5 174s121.5 55 201.5 55
c85.333 0 155.666 -20.333 210.999 -61s83 -93.334 83 -158.001c0 -39.333 -11 -73.833 -33 -103.5s-54 -51.5 -96 -65.5c47.333 -16.667 85.166 -40.834 113.499 -72.501s42.5 -71.167 42.5 -118.5c0 -69.333 -28.333 -126 -85 -170s-131.667 -66 -225 -66zM533.5 -24.0225
l978.003 1402.76h185.311l-981.065 -1402.76h-182.248zM1839 790.003h136v-495h137v-122h-137v-173h-140v173h-397v108zM1841 579.003l-234 -298h234v298z" />
    <glyph glyph-name="questiondown" unicode="&#xbf;" horiz-adv-x="1034" 
d="M668 906l0.000976562 -80.002c0 -58 -6.83301 -105.667 -20.5 -143s-35 -68.833 -64 -94.5s-67.5 -50.5 -115.5 -74.5c-42 -21.333 -74.667 -41.166 -98 -59.499s-39.5 -37.166 -48.5 -56.499s-13.5 -42 -13.5 -68c0 -42 17 -76.833 51 -104.5s80.333 -41.5 139 -41.5
c70 0 123.833 15.5 161.5 46.5s59.167 72.167 64.5 123.5h246c-7.33301 -116 -50.166 -209 -128.499 -279s-189.5 -105 -333.5 -105c-94.667 0 -176.334 16 -245.001 48s-121.667 75.333 -159 130s-56 116 -56 184c0 69.333 17.5 128 52.5 176s89.5 90.667 163.5 128
c43.333 22 77.166 42.667 101.499 62s41.5 40.5 51.5 63.5s15 51.833 15 86.5v58h236zM544.001 1322c48.667 0 88.167 -15.001 118.5 -45.001s45.5 -66.667 45.5 -110c0 -45.333 -15.167 -83.166 -45.5 -113.499s-69.5 -45.5 -117.5 -45.5c-48.667 0 -89 15.167 -121 45.5
s-48 67.833 -48 112.5c0 44 16 81 48 111s72 45 120 45z" />
    <glyph glyph-name="Agrave" unicode="&#xc0;" horiz-adv-x="1251" 
d="M44 0l442 1298h296l424 -1298h-248l-90 280h-482l-92 -280h-250zM446 458h366l-182 558zM789 1443l-418 337l157 128l374 -373z" />
    <glyph glyph-name="Aacute" unicode="&#xc1;" horiz-adv-x="1251" 
d="M44 0l442 1298h296l424 -1298h-248l-90 280h-482l-92 -280h-250zM446 458h366l-182 558zM573 1440l-113 92l374 373l158 -128z" />
    <glyph glyph-name="Acircumflex" unicode="&#xc2;" horiz-adv-x="1251" 
d="M44 0l442 1298h296l424 -1298h-248l-90 280h-482l-92 -280h-250zM446 458h366l-182 558zM420 1427l-139 110l356 305l357 -305l-139 -110l-260 234h83z" />
    <glyph glyph-name="Atilde" unicode="&#xc3;" horiz-adv-x="1251" 
d="M44 0l442 1298h296l424 -1298h-248l-90 280h-482l-92 -280h-250zM446 458h366l-182 558zM386 1449l-94.002 56.999c16 80.667 42.833 143.5 80.5 188.5s82.167 67.5 133.5 67.5c19.333 0 39.5 -3.66699 60.5 -11s49.5 -20.333 85.5 -39
c34 -17.333 59.5 -29.666 76.5 -36.999s33.5 -11 49.5 -11c19.333 0 38.333 7.83301 57 23.5s35 40.5 49 74.5l100 -66c-9.33301 -48 -24.5 -90.5 -45.5 -127.5s-45.167 -66.167 -72.5 -87.5s-54.666 -32 -81.999 -32c-24 0 -47.833 4.66699 -71.5 14s-54.5 23.333 -92.5 42
c-31.333 17.333 -54.666 29 -69.999 35s-30 9 -44 9c-21.333 0 -41.833 -6.83301 -61.5 -20.5s-39.167 -40.167 -58.5 -79.5z" />
    <glyph glyph-name="Adieresis" unicode="&#xc4;" horiz-adv-x="1251" 
d="M44 0l442 1298h296l424 -1298h-248l-90 280h-482l-92 -280h-250zM446 458h366l-182 558zM829 1468c-38.667 0 -71.667 12.667 -99 38s-41 57 -41 95s13.667 69.833 41 95.5s60.333 38.5 99 38.5c41.333 0 75.333 -12.833 102 -38.5s40 -57.5 40 -95.5
s-13.333 -69.667 -40 -95s-60.667 -38 -102 -38zM445 1468c-40.667 0 -74.167 12.667 -100.5 38s-39.5 56.333 -39.5 93c0 39.333 13.167 71.5 39.5 96.5s59.833 37.5 100.5 37.5c41.333 0 75.333 -12.5 102 -37.5s40 -57.167 40 -96.5c0 -36.667 -13.333 -67.667 -40 -93
s-60.667 -38 -102 -38z" />
    <glyph glyph-name="Aring" unicode="&#xc5;" horiz-adv-x="1251" 
d="M44 0l442 1298h296l424 -1298h-248l-90 280h-482l-92 -280h-250zM446 458h366l-182 558zM639 1402c-43.333 0 -83.168 10.6689 -119.501 32.002s-65.166 50.166 -86.499 86.499s-32 76.166 -32 119.499s10.667 83 32 119s50 64.833 86 86.5s76 32.5 120 32.5
c43.333 0 83 -10.833 119 -32.5s64.833 -50.5 86.5 -86.5s32.5 -75.667 32.5 -119s-10.833 -83 -32.5 -119s-50.5 -64.833 -86.5 -86.5s-75.667 -32.5 -119 -32.5zM638.998 1560c22.667 0 41.667 7.66699 57 23s23 34.333 23 57s-7.66699 41.834 -23 57.501
s-34.333 23.5 -57 23.5s-41.667 -7.83301 -57 -23.5s-23 -34.834 -23 -57.501s7.66699 -41.667 23 -57s34.333 -23 57 -23z" />
    <glyph glyph-name="AE" unicode="&#xc6;" horiz-adv-x="1766" 
d="M1611 1298v-204h-590l40 36v-472l-40 90h553v-204h-553l40 66v-509l-40 106h590v-207h-786v362l40 -82h-519l114 77l-143 -357h-245l519 1298h1020zM865 458l-40 -66l-1 735l41 -33h-168l93 89l-313 -782l-66 57h454z" />
    <glyph glyph-name="Ccedilla" unicode="&#xc7;" horiz-adv-x="1267" 
d="M658 -28c-114 0 -213.167 27.166 -297.5 81.499s-149.833 132.166 -196.5 233.499s-70 223 -70 365c0 146.667 24.167 269.834 72.5 369.501s115 175 200 226s182.167 76.5 291.5 76.5c151.333 0 269.5 -36.667 354.5 -110s139.5 -168.666 163.5 -285.999l-252 -46
c-20.667 68 -53.667 123 -99 165s-101 63 -167 63c-58 0 -110.333 -16.833 -157 -50.5s-83.834 -84.5 -111.501 -152.5s-41.5 -153 -41.5 -255c0 -96 12.167 -178.667 36.5 -248s59.5 -122.666 105.5 -159.999s102 -56 168 -56c84.667 0 150.167 22.5 196.5 67.5
s69.5 102.5 69.5 172.5h252c0 -96.667 -20.833 -178.834 -62.5 -246.501s-101.167 -119.5 -178.5 -155.5s-169.666 -54 -276.999 -54zM468 -367.001l32.999 83.002c45.333 -21.333 85.5 -33.5 120.5 -36.5s63 1.33301 84 13s32.5 28.167 34.5 49.5
c2 18.667 -4.5 35.167 -19.5 49.5s-36 27.166 -63 38.499s-59.167 21 -96.5 29l78 220l104 -15l-71 -199l-31 60c64.667 -10 117 -25 157 -45s68.833 -43 86.5 -69s25.5 -53.667 23.5 -83c-2.66699 -38.667 -19.167 -69.834 -49.5 -93.501s-68.166 -39.5 -113.499 -47.5
s-92.5 -8.33301 -141.5 -1s-94.167 23 -135.5 47z" />
    <glyph glyph-name="Egrave" unicode="&#xc8;" horiz-adv-x="1173" 
d="M184 0v1298h834v-204h-598v-342h562v-204h-562v-342h598v-206h-834zM737 1443l-418 337l157 128l374 -373z" />
    <glyph glyph-name="Eacute" unicode="&#xc9;" horiz-adv-x="1173" 
d="M184 0v1298h834v-204h-598v-342h562v-204h-562v-342h598v-206h-834zM522 1440l-113 92l374 373l158 -128z" />
    <glyph glyph-name="Ecircumflex" unicode="&#xca;" horiz-adv-x="1173" 
d="M184 0v1298h834v-204h-598v-342h562v-204h-562v-342h598v-206h-834zM369 1427l-139 110l356 305l357 -305l-139 -110l-260 234h83z" />
    <glyph glyph-name="Edieresis" unicode="&#xcb;" horiz-adv-x="1173" 
d="M184 0v1298h834v-204h-598v-342h562v-204h-562v-342h598v-206h-834zM777 1468c-38.667 0 -71.667 12.667 -99 38s-41 57 -41 95s13.667 69.833 41 95.5s60.333 38.5 99 38.5c41.333 0 75.333 -12.833 102 -38.5s40 -57.5 40 -95.5s-13.333 -69.667 -40 -95
s-60.667 -38 -102 -38zM393 1468c-40.667 0 -74.167 12.667 -100.5 38s-39.5 56.333 -39.5 93c0 39.333 13.167 71.5 39.5 96.5s59.833 37.5 100.5 37.5c41.333 0 75.333 -12.5 102 -37.5s40 -57.167 40 -96.5c0 -36.667 -13.333 -67.667 -40 -93s-60.667 -38 -102 -38z" />
    <glyph glyph-name="Igrave" unicode="&#xcc;" horiz-adv-x="609" 
d="M186 0v1298h236v-1298h-236zM455 1443l-418 337l157 128l374 -373z" />
    <glyph glyph-name="Iacute" unicode="&#xcd;" horiz-adv-x="609" 
d="M186 0v1298h236v-1298h-236zM240 1440l-113 92l374 373l158 -128z" />
    <glyph glyph-name="Icircumflex" unicode="&#xce;" horiz-adv-x="609" 
d="M186 0v1298h236v-1298h-236zM87 1427l-139 110l356 305l357 -305l-139 -110l-260 234h83z" />
    <glyph glyph-name="Idieresis" unicode="&#xcf;" horiz-adv-x="609" 
d="M186 0v1298h236v-1298h-236zM495 1468c-38.667 0 -71.667 12.667 -99 38s-41 57 -41 95s13.667 69.833 41 95.5s60.333 38.5 99 38.5c41.333 0 75.333 -12.833 102 -38.5s40 -57.5 40 -95.5s-13.333 -69.667 -40 -95s-60.667 -38 -102 -38zM111 1468
c-40.667 0 -74.167 12.667 -100.5 38s-39.5 56.333 -39.5 93c0 39.333 13.167 71.5 39.5 96.5s59.833 37.5 100.5 37.5c41.333 0 75.333 -12.5 102 -37.5s40 -57.167 40 -96.5c0 -36.667 -13.333 -67.667 -40 -93s-60.667 -38 -102 -38z" />
    <glyph glyph-name="Eth" unicode="&#xd0;" horiz-adv-x="1373" 
d="M44 751h633v-204h-633v204zM186 1298h420c132 0 247.667 -26.5 347 -79.5s176.666 -128.167 231.999 -225.5s83 -212.333 83 -345c0 -131.333 -27.667 -245.5 -83 -342.5s-132.666 -172.167 -231.999 -225.5s-215 -80 -347 -80h-420v1298zM422 1084v-872h184
c84 0 156.5 19 217.5 57s108 89.833 141 155.5s49.5 140.167 49.5 223.5c0 84.667 -16.5 159.667 -49.5 225s-80 116.833 -141 154.5s-133.5 56.5 -217.5 56.5h-184z" />
    <glyph glyph-name="Ntilde" unicode="&#xd1;" horiz-adv-x="1434" 
d="M182 1298h258l590 -926h-18v926h236v-1298h-240l-628 982h38v-982h-236v1298zM465 1449l-94.002 56.999c16 80.667 42.833 143.5 80.5 188.5s82.167 67.5 133.5 67.5c19.333 0 39.5 -3.66699 60.5 -11s49.5 -20.333 85.5 -39c34 -17.333 59.5 -29.666 76.5 -36.999
s33.5 -11 49.5 -11c19.333 0 38.333 7.83301 57 23.5s35 40.5 49 74.5l100 -66c-9.33301 -48 -24.5 -90.5 -45.5 -127.5s-45.167 -66.167 -72.5 -87.5s-54.666 -32 -81.999 -32c-24 0 -47.833 4.66699 -71.5 14s-54.5 23.333 -92.5 42c-31.333 17.333 -54.666 29 -69.999 35
s-30 9 -44 9c-21.333 0 -41.833 -6.83301 -61.5 -20.5s-39.167 -40.167 -58.5 -79.5z" />
    <glyph glyph-name="Ograve" unicode="&#xd2;" horiz-adv-x="1365" 
d="M682 -28c-115.333 0 -217.166 25.333 -305.499 76s-157.5 126.334 -207.5 227.001s-75 225.667 -75 375c0 152 25 277.833 75 377.5s119.167 174 207.5 223s190.166 73.5 305.499 73.5c116 0 218.333 -25.167 307 -75.5s158 -125.5 208 -225.5s75 -224.333 75 -373
c0 -151.333 -25 -277.333 -75 -378s-119.333 -175.834 -208 -225.501s-191 -74.5 -307 -74.5zM682 186c106 0 190.167 40 252.5 120s93.5 195.333 93.5 346c0 145.333 -31.167 258.333 -93.5 339s-146.5 121 -252.5 121c-104 0 -187.333 -40.5 -250 -121.5
s-94 -194.5 -94 -340.5c0 -150 31.333 -264.833 94 -344.5s146 -119.5 250 -119.5zM837 1443l-418 337l157 128l374 -373z" />
    <glyph glyph-name="Oacute" unicode="&#xd3;" horiz-adv-x="1365" 
d="M682 -28c-115.333 0 -217.166 25.333 -305.499 76s-157.5 126.334 -207.5 227.001s-75 225.667 -75 375c0 152 25 277.833 75 377.5s119.167 174 207.5 223s190.166 73.5 305.499 73.5c116 0 218.333 -25.167 307 -75.5s158 -125.5 208 -225.5s75 -224.333 75 -373
c0 -151.333 -25 -277.333 -75 -378s-119.333 -175.834 -208 -225.501s-191 -74.5 -307 -74.5zM682 186c106 0 190.167 40 252.5 120s93.5 195.333 93.5 346c0 145.333 -31.167 258.333 -93.5 339s-146.5 121 -252.5 121c-104 0 -187.333 -40.5 -250 -121.5
s-94 -194.5 -94 -340.5c0 -150 31.333 -264.833 94 -344.5s146 -119.5 250 -119.5zM622 1440l-113 92l374 373l158 -128z" />
    <glyph glyph-name="Ocircumflex" unicode="&#xd4;" horiz-adv-x="1365" 
d="M682 -28c-115.333 0 -217.166 25.333 -305.499 76s-157.5 126.334 -207.5 227.001s-75 225.667 -75 375c0 152 25 277.833 75 377.5s119.167 174 207.5 223s190.166 73.5 305.499 73.5c116 0 218.333 -25.167 307 -75.5s158 -125.5 208 -225.5s75 -224.333 75 -373
c0 -151.333 -25 -277.333 -75 -378s-119.333 -175.834 -208 -225.501s-191 -74.5 -307 -74.5zM682 186c106 0 190.167 40 252.5 120s93.5 195.333 93.5 346c0 145.333 -31.167 258.333 -93.5 339s-146.5 121 -252.5 121c-104 0 -187.333 -40.5 -250 -121.5
s-94 -194.5 -94 -340.5c0 -150 31.333 -264.833 94 -344.5s146 -119.5 250 -119.5zM469 1427l-139 110l356 305l357 -305l-139 -110l-260 234h83z" />
    <glyph glyph-name="Otilde" unicode="&#xd5;" horiz-adv-x="1365" 
d="M682 -28c-115.333 0 -217.166 25.333 -305.499 76s-157.5 126.334 -207.5 227.001s-75 225.667 -75 375c0 152 25 277.833 75 377.5s119.167 174 207.5 223s190.166 73.5 305.499 73.5c116 0 218.333 -25.167 307 -75.5s158 -125.5 208 -225.5s75 -224.333 75 -373
c0 -151.333 -25 -277.333 -75 -378s-119.333 -175.834 -208 -225.501s-191 -74.5 -307 -74.5zM682 186c106 0 190.167 40 252.5 120s93.5 195.333 93.5 346c0 145.333 -31.167 258.333 -93.5 339s-146.5 121 -252.5 121c-104 0 -187.333 -40.5 -250 -121.5
s-94 -194.5 -94 -340.5c0 -150 31.333 -264.833 94 -344.5s146 -119.5 250 -119.5zM434 1449l-94.002 56.999c16 80.667 42.833 143.5 80.5 188.5s82.167 67.5 133.5 67.5c19.333 0 39.5 -3.66699 60.5 -11s49.5 -20.333 85.5 -39c34 -17.333 59.5 -29.666 76.5 -36.999
s33.5 -11 49.5 -11c19.333 0 38.333 7.83301 57 23.5s35 40.5 49 74.5l100 -66c-9.33301 -48 -24.5 -90.5 -45.5 -127.5s-45.167 -66.167 -72.5 -87.5s-54.666 -32 -81.999 -32c-24 0 -47.833 4.66699 -71.5 14s-54.5 23.333 -92.5 42c-31.333 17.333 -54.666 29 -69.999 35
s-30 9 -44 9c-21.333 0 -41.833 -6.83301 -61.5 -20.5s-39.167 -40.167 -58.5 -79.5z" />
    <glyph glyph-name="Odieresis" unicode="&#xd6;" horiz-adv-x="1365" 
d="M682 -28c-115.333 0 -217.166 25.333 -305.499 76s-157.5 126.334 -207.5 227.001s-75 225.667 -75 375c0 152 25 277.833 75 377.5s119.167 174 207.5 223s190.166 73.5 305.499 73.5c116 0 218.333 -25.167 307 -75.5s158 -125.5 208 -225.5s75 -224.333 75 -373
c0 -151.333 -25 -277.333 -75 -378s-119.333 -175.834 -208 -225.501s-191 -74.5 -307 -74.5zM682 186c106 0 190.167 40 252.5 120s93.5 195.333 93.5 346c0 145.333 -31.167 258.333 -93.5 339s-146.5 121 -252.5 121c-104 0 -187.333 -40.5 -250 -121.5
s-94 -194.5 -94 -340.5c0 -150 31.333 -264.833 94 -344.5s146 -119.5 250 -119.5zM877 1468c-38.667 0 -71.667 12.667 -99 38s-41 57 -41 95s13.667 69.833 41 95.5s60.333 38.5 99 38.5c41.333 0 75.333 -12.833 102 -38.5s40 -57.5 40 -95.5s-13.333 -69.667 -40 -95
s-60.667 -38 -102 -38zM493 1468c-40.667 0 -74.167 12.667 -100.5 38s-39.5 56.333 -39.5 93c0 39.333 13.167 71.5 39.5 96.5s59.833 37.5 100.5 37.5c41.333 0 75.333 -12.5 102 -37.5s40 -57.167 40 -96.5c0 -36.667 -13.333 -67.667 -40 -93s-60.667 -38 -102 -38z" />
    <glyph glyph-name="multiply" unicode="&#xd7;" horiz-adv-x="1088" 
d="M284 90l-166 168l260 260l-260 258l166 168l260 -260l260 260l168 -168l-262 -258l262 -260l-168 -168l-260 260z" />
    <glyph glyph-name="Oslash" unicode="&#xd8;" horiz-adv-x="1365" 
d="M60 0l1021 1299h199l-1024 -1299h-196zM682 -28c-115.333 0 -217.333 25.333 -306 76s-157.834 126.334 -207.501 227.001s-74.5 225.667 -74.5 375c0 152 24.833 277.833 74.5 377.5s118.834 174 207.501 223s190.667 73.5 306 73.5c116 0 218.333 -25.167 307 -75.5
s157.834 -125.5 207.501 -225.5s74.5 -224.333 74.5 -373c0 -151.333 -24.833 -277.333 -74.5 -378s-118.834 -175.834 -207.501 -225.501s-191 -74.5 -307 -74.5zM682 186c106 0 190 40 252 120s93 195.333 93 346c0 145.333 -31 258.333 -93 339s-146 121 -252 121
c-104 0 -187.333 -40.5 -250 -121.5s-94 -194.5 -94 -340.5c0 -150 31.333 -264.833 94 -344.5s146 -119.5 250 -119.5z" />
    <glyph glyph-name="Ugrave" unicode="&#xd9;" horiz-adv-x="1380" 
d="M166 1298h236v-808c0 -106.667 27.167 -183.667 81.5 -231s123.833 -71 208.5 -71c85.333 0 155 23.667 209 71s81 124.333 81 231v808h236v-808c0 -109.333 -21 -202.666 -63 -279.999s-102.167 -136.333 -180.5 -177s-172.5 -61 -282.5 -61s-204.167 20.333 -282.5 61
s-138.5 99.667 -180.5 177s-63 170.666 -63 279.999v808zM841 1443l-418 337l157 128l374 -373z" />
    <glyph glyph-name="Uacute" unicode="&#xda;" horiz-adv-x="1380" 
d="M166 1298h236v-808c0 -106.667 27.167 -183.667 81.5 -231s123.833 -71 208.5 -71c85.333 0 155 23.667 209 71s81 124.333 81 231v808h236v-808c0 -109.333 -21 -202.666 -63 -279.999s-102.167 -136.333 -180.5 -177s-172.5 -61 -282.5 -61s-204.167 20.333 -282.5 61
s-138.5 99.667 -180.5 177s-63 170.666 -63 279.999v808zM625 1440l-113 92l374 373l158 -128z" />
    <glyph glyph-name="Ucircumflex" unicode="&#xdb;" horiz-adv-x="1380" 
d="M166 1298h236v-808c0 -106.667 27.167 -183.667 81.5 -231s123.833 -71 208.5 -71c85.333 0 155 23.667 209 71s81 124.333 81 231v808h236v-808c0 -109.333 -21 -202.666 -63 -279.999s-102.167 -136.333 -180.5 -177s-172.5 -61 -282.5 -61s-204.167 20.333 -282.5 61
s-138.5 99.667 -180.5 177s-63 170.666 -63 279.999v808zM472 1427l-139 110l356 305l357 -305l-139 -110l-260 234h83z" />
    <glyph glyph-name="Udieresis" unicode="&#xdc;" horiz-adv-x="1380" 
d="M166 1298h236v-808c0 -106.667 27.167 -183.667 81.5 -231s123.833 -71 208.5 -71c85.333 0 155 23.667 209 71s81 124.333 81 231v808h236v-808c0 -109.333 -21 -202.666 -63 -279.999s-102.167 -136.333 -180.5 -177s-172.5 -61 -282.5 -61s-204.167 20.333 -282.5 61
s-138.5 99.667 -180.5 177s-63 170.666 -63 279.999v808zM881 1468c-38.667 0 -71.667 12.667 -99 38s-41 57 -41 95s13.667 69.833 41 95.5s60.333 38.5 99 38.5c41.333 0 75.333 -12.833 102 -38.5s40 -57.5 40 -95.5s-13.333 -69.667 -40 -95s-60.667 -38 -102 -38z
M497 1468c-40.667 0 -74.167 12.667 -100.5 38s-39.5 56.333 -39.5 93c0 39.333 13.167 71.5 39.5 96.5s59.833 37.5 100.5 37.5c41.333 0 75.333 -12.5 102 -37.5s40 -57.167 40 -96.5c0 -36.667 -13.333 -67.667 -40 -93s-60.667 -38 -102 -38z" />
    <glyph glyph-name="Yacute" unicode="&#xdd;" horiz-adv-x="1173" 
d="M14 1298h280l310 -558h-46l322 558h278l-462 -762v-536h-236v536zM522 1440l-113 92l374 373l158 -128z" />
    <glyph glyph-name="Thorn" unicode="&#xde;" horiz-adv-x="1161" 
d="M180 0v1298h238v-263l-54 53h274c146 0 259.833 -36 341.5 -108s122.5 -174 122.5 -306c0 -130.667 -40.833 -232 -122.5 -304s-195.5 -108 -341.5 -108h-274l54 53v-315h-238zM418 415l-54 53.001h274c73.333 0 128.666 19.333 165.999 58s56 88 56 148
c0 61.333 -18.667 111.666 -56 150.999s-92.666 59 -165.999 59h-274l54 54v-523z" />
    <glyph glyph-name="germandbls" unicode="&#xdf;" horiz-adv-x="1297" 
d="M1047 1076c0 -48.667 -8.67188 -89.3379 -26.0049 -122.005s-37.166 -60.834 -59.499 -84.501s-42 -45.5 -59 -65.5s-25.5 -41.333 -25.5 -64c0 -25.333 10.833 -47.666 32.5 -66.999s48.5 -39 80.5 -59s63.833 -43 95.5 -69s58.334 -57.667 80.001 -95
s32.5 -83.666 32.5 -138.999c0 -69.333 -18.167 -129.166 -54.5 -179.499s-83.333 -89.166 -141 -116.499s-119.167 -41 -184.5 -41c-38 0 -80 5 -126 15s-88 24.333 -126 43l2 188c40 -26.667 77.5 -46.167 112.5 -58.5s69.833 -18.5 104.5 -18.5
c36.667 0 66.334 6.33301 89.001 19s39 29.667 49 51s15 45.333 15 72c0 42.667 -10 78.834 -30 108.501s-44.5 55.834 -73.5 78.501l-87 66c-29 21.333 -53.333 45 -73 71s-29.5 57 -29.5 93s9.33301 66.833 28 92.5s40.334 50 65.001 73s46.334 47.833 65.001 74.5
s28 59 28 97c0 49.333 -18.5 87.833 -55.5 115.5s-85.5 41.5 -145.5 41.5c-76 0 -129.167 -23 -159.5 -69s-45.5 -119.333 -45.5 -220v-907h-239v912c0 104 18.167 190.833 54.5 260.5s88.333 122 156 157s149.167 52.5 244.5 52.5c83.333 0 155.333 -12.667 216 -38
s107.5 -61 140.5 -107s49.5 -99.667 49.5 -161z" />
    <glyph glyph-name="agrave" unicode="&#xe0;" horiz-adv-x="1170" 
d="M804 0l-30 236.001v390c0 68 -13.833 118.333 -41.5 151s-74.5 49 -140.5 49c-38 0 -71 -5.66699 -99 -17s-49.5 -27.5 -64.5 -48.5s-22.5 -46.5 -22.5 -76.5h-258c0 73.333 17.667 133.166 53 179.499s86.166 80.333 152.499 102s145.833 32.5 238.5 32.5
c84 0 157.333 -13.5 220 -40.5s111.334 -68.5 146.001 -124.5s52 -127.667 52 -215v-618h-206zM486 -27.999c-83.333 0 -152.832 14.501 -208.499 43.501s-97.5 67.167 -125.5 114.5s-42 98.666 -42 153.999c0 61.333 16.167 112.833 48.5 154.5s78.166 73 137.499 94
s129.333 31.5 210 31.5c52.667 0 102.5 -4 149.5 -12s93.833 -18.667 140.5 -32v-138c-36.667 12 -76.667 21.333 -120 28s-84 10 -122 10c-56 0 -102 -10.333 -138 -31s-54 -55.667 -54 -105c0 -36 14.667 -67 44 -93s76 -39 140 -39c48.667 0 90 10.667 124 32
s59.833 48 77.5 80s26.5 64 26.5 96h56c0 -70 -13 -134.5 -39 -193.5s-64.5 -106.167 -115.5 -141.5s-114.167 -53 -189.5 -53zM735.001 1117l-418 337l157 128l374 -373z" />
    <glyph glyph-name="aacute" unicode="&#xe1;" horiz-adv-x="1170" 
d="M804 0l-30 236.001v390c0 68 -13.833 118.333 -41.5 151s-74.5 49 -140.5 49c-38 0 -71 -5.66699 -99 -17s-49.5 -27.5 -64.5 -48.5s-22.5 -46.5 -22.5 -76.5h-258c0 73.333 17.667 133.166 53 179.499s86.166 80.333 152.499 102s145.833 32.5 238.5 32.5
c84 0 157.333 -13.5 220 -40.5s111.334 -68.5 146.001 -124.5s52 -127.667 52 -215v-618h-206zM486 -27.999c-83.333 0 -152.832 14.501 -208.499 43.501s-97.5 67.167 -125.5 114.5s-42 98.666 -42 153.999c0 61.333 16.167 112.833 48.5 154.5s78.166 73 137.499 94
s129.333 31.5 210 31.5c52.667 0 102.5 -4 149.5 -12s93.833 -18.667 140.5 -32v-138c-36.667 12 -76.667 21.333 -120 28s-84 10 -122 10c-56 0 -102 -10.333 -138 -31s-54 -55.667 -54 -105c0 -36 14.667 -67 44 -93s76 -39 140 -39c48.667 0 90 10.667 124 32
s59.833 48 77.5 80s26.5 64 26.5 96h56c0 -70 -13 -134.5 -39 -193.5s-64.5 -106.167 -115.5 -141.5s-114.167 -53 -189.5 -53zM520.001 1114l-113 92l374 373l158 -128z" />
    <glyph glyph-name="acircumflex" unicode="&#xe2;" horiz-adv-x="1170" 
d="M804 0l-30 236.001v390c0 68 -13.833 118.333 -41.5 151s-74.5 49 -140.5 49c-38 0 -71 -5.66699 -99 -17s-49.5 -27.5 -64.5 -48.5s-22.5 -46.5 -22.5 -76.5h-258c0 73.333 17.667 133.166 53 179.499s86.166 80.333 152.499 102s145.833 32.5 238.5 32.5
c84 0 157.333 -13.5 220 -40.5s111.334 -68.5 146.001 -124.5s52 -127.667 52 -215v-618h-206zM486 -27.999c-83.333 0 -152.832 14.501 -208.499 43.501s-97.5 67.167 -125.5 114.5s-42 98.666 -42 153.999c0 61.333 16.167 112.833 48.5 154.5s78.166 73 137.499 94
s129.333 31.5 210 31.5c52.667 0 102.5 -4 149.5 -12s93.833 -18.667 140.5 -32v-138c-36.667 12 -76.667 21.333 -120 28s-84 10 -122 10c-56 0 -102 -10.333 -138 -31s-54 -55.667 -54 -105c0 -36 14.667 -67 44 -93s76 -39 140 -39c48.667 0 90 10.667 124 32
s59.833 48 77.5 80s26.5 64 26.5 96h56c0 -70 -13 -134.5 -39 -193.5s-64.5 -106.167 -115.5 -141.5s-114.167 -53 -189.5 -53zM367.001 1101l-139 110l356 305l357 -305l-139 -110l-260 234h83z" />
    <glyph glyph-name="atilde" unicode="&#xe3;" horiz-adv-x="1170" 
d="M804 0l-30 236.001v390c0 68 -13.833 118.333 -41.5 151s-74.5 49 -140.5 49c-38 0 -71 -5.66699 -99 -17s-49.5 -27.5 -64.5 -48.5s-22.5 -46.5 -22.5 -76.5h-258c0 73.333 17.667 133.166 53 179.499s86.166 80.333 152.499 102s145.833 32.5 238.5 32.5
c84 0 157.333 -13.5 220 -40.5s111.334 -68.5 146.001 -124.5s52 -127.667 52 -215v-618h-206zM486 -27.999c-83.333 0 -152.832 14.501 -208.499 43.501s-97.5 67.167 -125.5 114.5s-42 98.666 -42 153.999c0 61.333 16.167 112.833 48.5 154.5s78.166 73 137.499 94
s129.333 31.5 210 31.5c52.667 0 102.5 -4 149.5 -12s93.833 -18.667 140.5 -32v-138c-36.667 12 -76.667 21.333 -120 28s-84 10 -122 10c-56 0 -102 -10.333 -138 -31s-54 -55.667 -54 -105c0 -36 14.667 -67 44 -93s76 -39 140 -39c48.667 0 90 10.667 124 32
s59.833 48 77.5 80s26.5 64 26.5 96h56c0 -70 -13 -134.5 -39 -193.5s-64.5 -106.167 -115.5 -141.5s-114.167 -53 -189.5 -53zM332.001 1123l-94.002 56.999c16 80.667 42.833 143.5 80.5 188.5s82.167 67.5 133.5 67.5c19.333 0 39.5 -3.66699 60.5 -11
s49.5 -20.333 85.5 -39c34 -17.333 59.5 -29.666 76.5 -36.999s33.5 -11 49.5 -11c19.333 0 38.333 7.83301 57 23.5s35 40.5 49 74.5l100 -66c-9.33301 -48 -24.5 -90.5 -45.5 -127.5s-45.167 -66.167 -72.5 -87.5s-54.666 -32 -81.999 -32c-24 0 -47.833 4.66699 -71.5 14
s-54.5 23.333 -92.5 42c-31.333 17.333 -54.666 29 -69.999 35s-30 9 -44 9c-21.333 0 -41.833 -6.83301 -61.5 -20.5s-39.167 -40.167 -58.5 -79.5z" />
    <glyph glyph-name="adieresis" unicode="&#xe4;" horiz-adv-x="1170" 
d="M804 0l-30 236.001v390c0 68 -13.833 118.333 -41.5 151s-74.5 49 -140.5 49c-38 0 -71 -5.66699 -99 -17s-49.5 -27.5 -64.5 -48.5s-22.5 -46.5 -22.5 -76.5h-258c0 73.333 17.667 133.166 53 179.499s86.166 80.333 152.499 102s145.833 32.5 238.5 32.5
c84 0 157.333 -13.5 220 -40.5s111.334 -68.5 146.001 -124.5s52 -127.667 52 -215v-618h-206zM486 -27.999c-83.333 0 -152.832 14.501 -208.499 43.501s-97.5 67.167 -125.5 114.5s-42 98.666 -42 153.999c0 61.333 16.167 112.833 48.5 154.5s78.166 73 137.499 94
s129.333 31.5 210 31.5c52.667 0 102.5 -4 149.5 -12s93.833 -18.667 140.5 -32v-138c-36.667 12 -76.667 21.333 -120 28s-84 10 -122 10c-56 0 -102 -10.333 -138 -31s-54 -55.667 -54 -105c0 -36 14.667 -67 44 -93s76 -39 140 -39c48.667 0 90 10.667 124 32
s59.833 48 77.5 80s26.5 64 26.5 96h56c0 -70 -13 -134.5 -39 -193.5s-64.5 -106.167 -115.5 -141.5s-114.167 -53 -189.5 -53zM775.001 1142c-38.667 0 -71.667 12.667 -99 38s-41 57 -41 95s13.667 69.833 41 95.5s60.333 38.5 99 38.5c41.333 0 75.333 -12.833 102 -38.5
s40 -57.5 40 -95.5s-13.333 -69.667 -40 -95s-60.667 -38 -102 -38zM391.001 1142c-40.667 0 -74.167 12.667 -100.5 38s-39.5 56.333 -39.5 93c0 39.333 13.167 71.5 39.5 96.5s59.833 37.5 100.5 37.5c41.333 0 75.333 -12.5 102 -37.5s40 -57.167 40 -96.5
c0 -36.667 -13.333 -67.667 -40 -93s-60.667 -38 -102 -38z" />
    <glyph glyph-name="aring" unicode="&#xe5;" horiz-adv-x="1170" 
d="M804 0l-30 236.001v390c0 68 -13.833 118.333 -41.5 151s-74.5 49 -140.5 49c-38 0 -71 -5.66699 -99 -17s-49.5 -27.5 -64.5 -48.5s-22.5 -46.5 -22.5 -76.5h-258c0 73.333 17.667 133.166 53 179.499s86.166 80.333 152.499 102s145.833 32.5 238.5 32.5
c84 0 157.333 -13.5 220 -40.5s111.334 -68.5 146.001 -124.5s52 -127.667 52 -215v-618h-206zM486 -27.999c-83.333 0 -152.832 14.501 -208.499 43.501s-97.5 67.167 -125.5 114.5s-42 98.666 -42 153.999c0 61.333 16.167 112.833 48.5 154.5s78.166 73 137.499 94
s129.333 31.5 210 31.5c52.667 0 102.5 -4 149.5 -12s93.833 -18.667 140.5 -32v-138c-36.667 12 -76.667 21.333 -120 28s-84 10 -122 10c-56 0 -102 -10.333 -138 -31s-54 -55.667 -54 -105c0 -36 14.667 -67 44 -93s76 -39 140 -39c48.667 0 90 10.667 124 32
s59.833 48 77.5 80s26.5 64 26.5 96h56c0 -70 -13 -134.5 -39 -193.5s-64.5 -106.167 -115.5 -141.5s-114.167 -53 -189.5 -53zM586.001 1076c-43.333 0 -83.168 10.6689 -119.501 32.002s-65.166 50.166 -86.499 86.499s-32 76.166 -32 119.499s10.667 83 32 119
s50 64.833 86 86.5s76 32.5 120 32.5c43.333 0 83 -10.833 119 -32.5s64.833 -50.5 86.5 -86.5s32.5 -75.667 32.5 -119s-10.833 -83 -32.5 -119s-50.5 -64.833 -86.5 -86.5s-75.667 -32.5 -119 -32.5zM585.999 1234c22.667 0 41.667 7.66699 57 23s23 34.333 23 57
s-7.66699 41.834 -23 57.501s-34.333 23.5 -57 23.5s-41.667 -7.83301 -57 -23.5s-23 -34.834 -23 -57.501s7.66699 -41.667 23 -57s34.333 -23 57 -23z" />
    <glyph glyph-name="ae" unicode="&#xe6;" horiz-adv-x="1724" 
d="M791 302l-30.001 0.00195312v324c0 66 -14.5 115.833 -43.5 149.5s-74.5 50.5 -136.5 50.5c-35.333 0 -66.166 -5.66699 -92.499 -17s-46.666 -27.5 -60.999 -48.5s-21.5 -46.5 -21.5 -76.5h-258c0 73.333 17.5 133.166 52.5 179.499s81.833 80.333 140.5 102
s123.667 32.5 195 32.5c90 0 164.667 -16.5 224 -49.5s103.666 -80.333 132.999 -142s44 -135.834 44 -222.501v-139zM479.999 -27.998c-79.333 0 -146.502 14 -201.502 42s-96.833 65.667 -125.5 113s-43 99.666 -43 156.999c0 61.333 15.833 112.833 47.5 154.5
s76.334 73 134.001 94s124.5 31.5 200.5 31.5c49.333 0 98.5 -4.16699 147.5 -12.5s96.5 -18.833 142.5 -31.5v-138c-36 12 -76.833 21.333 -122.5 28s-84.167 10 -115.5 10c-52 0 -95.333 -10.5 -130 -31.5s-52 -54.5 -52 -100.5c0 -38 13.667 -70.167 41 -96.5
s68.333 -39.5 123 -39.5c50 0 92.333 10.333 127 31s61.334 46.834 80.001 78.501s28 64.5 28 98.5h152c0 -62.667 -16.333 -123.667 -49 -183s-81 -108.333 -145 -147s-143.667 -58 -239 -58zM1224 -27.998c-88.667 0 -167.67 22.499 -237.003 67.499
s-123.833 106.667 -163.5 185s-59.5 166.5 -59.5 264.5c0 98.667 19.833 186.334 59.5 263.001s93.667 136.834 162 180.501s146.166 65.5 233.499 65.5c74 0 138.833 -15.667 194.5 -47s100.5 -73.5 134.5 -126.5s57.333 -112.667 70 -179s13.334 -134.833 2.00098 -205.5
h-674v128h507l-46 -30c2 31.333 0.5 63 -4.5 95s-14.667 61.333 -29 88s-34.333 48.167 -60 64.5s-58.5 24.5 -98.5 24.5c-47.333 0 -87.666 -12 -120.999 -36s-58.666 -56.667 -75.999 -98s-26 -88 -26 -140v-94c0 -54.667 8 -103 24 -145s40.333 -75 73 -99
s74 -36 124 -36c44 0 81.833 10.333 113.5 31s51.834 53 60.501 97h239c-9.33301 -62.667 -33 -117.834 -71 -165.501s-85.667 -85 -143 -112s-120 -40.5 -188 -40.5z" />
    <glyph glyph-name="ccedilla" unicode="&#xe7;" horiz-adv-x="1059" 
d="M554 -28c-81.333 0 -156.831 21.168 -226.498 63.501s-126 102 -169 179s-64.5 167.5 -64.5 271.5c0 110 21.5 203.167 64.5 279.5s99.333 134.166 169 173.499s145.167 59 226.5 59c63.333 0 119.166 -10.167 167.499 -30.5s89.5 -47.666 123.5 -81.999
s60.667 -72.5 80 -114.5s31.666 -84.333 36.999 -127l-238 -6c-10.667 42.667 -30.5 78 -59.5 106s-66.5 42 -112.5 42c-38 0 -73.667 -10.5 -107 -31.5s-60.5 -53.5 -81.5 -97.5s-31.5 -101 -31.5 -171c0 -66.667 9.83301 -122.167 29.5 -166.5
s46.167 -77.666 79.5 -99.999s70.333 -33.5 111 -33.5c60 0 103.667 14.5 131 43.5s41 67.833 41 116.5h238c0 -68.667 -15.667 -131.334 -47 -188.001s-77.333 -101.834 -138 -135.501s-135 -50.5 -223 -50.5zM350.002 -364.999l32.999 83.002
c45.333 -21.333 85.5 -33.5 120.5 -36.5s63 1.33301 84 13s32.5 28.167 34.5 49.5c2 18.667 -4.5 35.167 -19.5 49.5s-36 27.166 -63 38.499s-59.167 21 -96.5 29l78 220l104 -15l-71 -199l-31 60c64.667 -10 117 -25 157 -45s68.833 -43 86.5 -69s25.5 -53.667 23.5 -83
c-2.66699 -38.667 -19.167 -69.834 -49.5 -93.501s-68.166 -39.5 -113.499 -47.5s-92.5 -8.33301 -141.5 -1s-94.167 23 -135.5 47z" />
    <glyph glyph-name="egrave" unicode="&#xe8;" horiz-adv-x="1060" 
d="M548 -28c-82.667 0 -158.329 21.333 -226.996 64s-123.667 102.5 -165 179.5s-62 167.167 -62 270.5c0 106.667 20.5 198.334 61.5 275.001s95.833 135.334 164.5 176.001s144.667 61 228 61c77.333 0 144.166 -15.5 200.499 -46.5s101.666 -73 135.999 -126
s57.5 -112.833 69.5 -179.5s12.667 -135.334 2 -206.001h-674v128h507l-46 -30c2 31.333 0.5 63 -4.5 95s-14.5 61.333 -28.5 88s-33.833 48.167 -59.5 64.5s-58.5 24.5 -98.5 24.5c-48 0 -88.667 -12 -122 -36s-58.666 -56.667 -75.999 -98s-26 -88 -26 -140v-94
c0 -54.667 8.16699 -103 24.5 -145s40.666 -75 72.999 -99s73.166 -36 122.499 -36c46 0 84.667 10.667 116 32s51.333 53.333 60 96h238c-10 -62.667 -33.5 -117.834 -70.5 -165.501s-84.833 -85 -143.5 -112s-125.334 -40.5 -200.001 -40.5zM681.005 1117l-418 337
l157 128l374 -373z" />
    <glyph glyph-name="eacute" unicode="&#xe9;" horiz-adv-x="1060" 
d="M548 -28c-82.667 0 -158.329 21.333 -226.996 64s-123.667 102.5 -165 179.5s-62 167.167 -62 270.5c0 106.667 20.5 198.334 61.5 275.001s95.833 135.334 164.5 176.001s144.667 61 228 61c77.333 0 144.166 -15.5 200.499 -46.5s101.666 -73 135.999 -126
s57.5 -112.833 69.5 -179.5s12.667 -135.334 2 -206.001h-674v128h507l-46 -30c2 31.333 0.5 63 -4.5 95s-14.5 61.333 -28.5 88s-33.833 48.167 -59.5 64.5s-58.5 24.5 -98.5 24.5c-48 0 -88.667 -12 -122 -36s-58.666 -56.667 -75.999 -98s-26 -88 -26 -140v-94
c0 -54.667 8.16699 -103 24.5 -145s40.666 -75 72.999 -99s73.166 -36 122.499 -36c46 0 84.667 10.667 116 32s51.333 53.333 60 96h238c-10 -62.667 -33.5 -117.834 -70.5 -165.501s-84.833 -85 -143.5 -112s-125.334 -40.5 -200.001 -40.5zM466.005 1114l-113 92l374 373
l158 -128z" />
    <glyph glyph-name="ecircumflex" unicode="&#xea;" horiz-adv-x="1060" 
d="M548 -28c-82.667 0 -158.329 21.333 -226.996 64s-123.667 102.5 -165 179.5s-62 167.167 -62 270.5c0 106.667 20.5 198.334 61.5 275.001s95.833 135.334 164.5 176.001s144.667 61 228 61c77.333 0 144.166 -15.5 200.499 -46.5s101.666 -73 135.999 -126
s57.5 -112.833 69.5 -179.5s12.667 -135.334 2 -206.001h-674v128h507l-46 -30c2 31.333 0.5 63 -4.5 95s-14.5 61.333 -28.5 88s-33.833 48.167 -59.5 64.5s-58.5 24.5 -98.5 24.5c-48 0 -88.667 -12 -122 -36s-58.666 -56.667 -75.999 -98s-26 -88 -26 -140v-94
c0 -54.667 8.16699 -103 24.5 -145s40.666 -75 72.999 -99s73.166 -36 122.499 -36c46 0 84.667 10.667 116 32s51.333 53.333 60 96h238c-10 -62.667 -33.5 -117.834 -70.5 -165.501s-84.833 -85 -143.5 -112s-125.334 -40.5 -200.001 -40.5zM313.005 1101l-139 110
l356 305l357 -305l-139 -110l-260 234h83z" />
    <glyph glyph-name="edieresis" unicode="&#xeb;" horiz-adv-x="1060" 
d="M548 -28c-82.667 0 -158.329 21.333 -226.996 64s-123.667 102.5 -165 179.5s-62 167.167 -62 270.5c0 106.667 20.5 198.334 61.5 275.001s95.833 135.334 164.5 176.001s144.667 61 228 61c77.333 0 144.166 -15.5 200.499 -46.5s101.666 -73 135.999 -126
s57.5 -112.833 69.5 -179.5s12.667 -135.334 2 -206.001h-674v128h507l-46 -30c2 31.333 0.5 63 -4.5 95s-14.5 61.333 -28.5 88s-33.833 48.167 -59.5 64.5s-58.5 24.5 -98.5 24.5c-48 0 -88.667 -12 -122 -36s-58.666 -56.667 -75.999 -98s-26 -88 -26 -140v-94
c0 -54.667 8.16699 -103 24.5 -145s40.666 -75 72.999 -99s73.166 -36 122.499 -36c46 0 84.667 10.667 116 32s51.333 53.333 60 96h238c-10 -62.667 -33.5 -117.834 -70.5 -165.501s-84.833 -85 -143.5 -112s-125.334 -40.5 -200.001 -40.5zM721.005 1142
c-38.667 0 -71.667 12.667 -99 38s-41 57 -41 95s13.667 69.833 41 95.5s60.333 38.5 99 38.5c41.333 0 75.333 -12.833 102 -38.5s40 -57.5 40 -95.5s-13.333 -69.667 -40 -95s-60.667 -38 -102 -38zM337.005 1142c-40.667 0 -74.167 12.667 -100.5 38
s-39.5 56.333 -39.5 93c0 39.333 13.167 71.5 39.5 96.5s59.833 37.5 100.5 37.5c41.333 0 75.333 -12.5 102 -37.5s40 -57.167 40 -96.5c0 -36.667 -13.333 -67.667 -40 -93s-60.667 -38 -102 -38z" />
    <glyph glyph-name="igrave" unicode="&#xec;" horiz-adv-x="656" 
d="M206 0v974h236v-974h-236zM474 1117l-418 337l157 128l374 -373z" />
    <glyph glyph-name="iacute" unicode="&#xed;" horiz-adv-x="656" 
d="M206 0v974h236v-974h-236zM259 1114l-113 92l374 373l158 -128z" />
    <glyph glyph-name="icircumflex" unicode="&#xee;" horiz-adv-x="656" 
d="M206 0v974h236v-974h-236zM106 1101l-139 110l356 305l357 -305l-139 -110l-260 234h83z" />
    <glyph glyph-name="idieresis" unicode="&#xef;" horiz-adv-x="656" 
d="M206 0v974h236v-974h-236zM514 1142c-38.667 0 -71.667 12.667 -99 38s-41 57 -41 95s13.667 69.833 41 95.5s60.333 38.5 99 38.5c41.333 0 75.333 -12.833 102 -38.5s40 -57.5 40 -95.5s-13.333 -69.667 -40 -95s-60.667 -38 -102 -38zM130 1142
c-40.667 0 -74.167 12.667 -100.5 38s-39.5 56.333 -39.5 93c0 39.333 13.167 71.5 39.5 96.5s59.833 37.5 100.5 37.5c41.333 0 75.333 -12.5 102 -37.5s40 -57.167 40 -96.5c0 -36.667 -13.333 -67.667 -40 -93s-60.667 -38 -102 -38z" />
    <glyph glyph-name="eth" unicode="&#xf0;" horiz-adv-x="1134" 
d="M550 -28c-80.667 0 -155.002 21.4971 -223.002 64.4971s-122.5 103.5 -163.5 181.5s-61.5 169.333 -61.5 274c0 102 19.167 190.833 57.5 266.5s89.5 134.5 153.5 176.5s133.667 63 209 63c77.333 0 144.333 -21.5 201 -64.5s100.5 -100.833 131.5 -173.5
s46.5 -154 46.5 -244h-74c-0.666992 61.333 -13.5 112 -38.5 152s-56 69.667 -93 89s-75.5 29 -115.5 29c-46.667 0 -88 -12.333 -124 -37s-64.333 -59.334 -85 -104.001s-31 -97 -31 -157s10.333 -112.667 31 -158s49.167 -80.666 85.5 -105.999s78.166 -38 125.499 -38
c50.667 0 93.5 14 128.5 42s62.167 65.333 81.5 112s30.333 98.334 33 155.001c3.33301 101.333 -0.666992 198 -12 290s-33.666 180.167 -66.999 264.5s-80.5 165.833 -141.5 244.5s-139.5 155.334 -235.5 230.001l198 133c87.333 -79.333 162 -161.666 224 -246.999
s112.333 -171.833 151 -259.5s67 -174.5 85 -260.5s27 -169 27 -249c0 -108 -13.833 -203.5 -41.5 -286.5s-65.167 -152.833 -112.5 -209.5s-101.166 -99.667 -161.499 -129s-123.166 -44 -188.499 -44zM418.998 1112l-67 143l621 311l68 -143z" />
    <glyph glyph-name="ntilde" unicode="&#xf1;" horiz-adv-x="1246" 
d="M852 0l0.000976562 568.001c0 72 -17.333 126.333 -52 163s-80 55 -136 55c-47.333 0 -89.166 -13 -125.499 -39s-64.833 -65.167 -85.5 -117.5s-31 -117.5 -31 -195.5h-78c0 126 15.667 230.833 47 314.5s75.666 146.167 132.999 187.5s124.666 62 201.999 62
c80 0 146.833 -17.833 200.5 -53.5s94 -85.834 121 -150.501s40.5 -140 40.5 -226v-568h-236zM186.001 0.000976562v970h206l30 -192v-778h-236zM385.001 1130l-94.002 56.999c16 80.667 42.833 143.5 80.5 188.5s82.167 67.5 133.5 67.5c19.333 0 39.5 -3.66699 60.5 -11
s49.5 -20.333 85.5 -39c34 -17.333 59.5 -29.666 76.5 -36.999s33.5 -11 49.5 -11c19.333 0 38.333 7.83301 57 23.5s35 40.5 49 74.5l100 -66c-9.33301 -48 -24.5 -90.5 -45.5 -127.5s-45.167 -66.167 -72.5 -87.5s-54.666 -32 -81.999 -32c-24 0 -47.833 4.66699 -71.5 14
s-54.5 23.333 -92.5 42c-31.333 17.333 -54.666 29 -69.999 35s-30 9 -44 9c-21.333 0 -41.833 -6.83301 -61.5 -20.5s-39.167 -40.167 -58.5 -79.5z" />
    <glyph glyph-name="ograve" unicode="&#xf2;" horiz-adv-x="1132" 
d="M568 -28c-88.667 0 -168.834 19 -240.501 57s-128.5 94.833 -170.5 170.5s-63 170.5 -63 284.5c0 116 21 212 63 288s98.833 132.667 170.5 170s151.834 56 240.501 56c87.333 0 166.5 -18.667 237.5 -56s127.5 -94 169.5 -170s63 -172 63 -288
c0 -114 -21 -208.833 -63 -284.5s-98.5 -132.5 -169.5 -170.5s-150.167 -57 -237.5 -57zM560 178c46.667 0 88.167 11.5 124.5 34.5s65 57.167 86 102.5s31.5 101.666 31.5 168.999c0 102.667 -20.167 180 -60.5 232s-95.5 78 -165.5 78c-47.333 0 -89.333 -11.5 -126 -34.5
s-65.5 -57.5 -86.5 -103.5s-31.5 -103.333 -31.5 -172c0 -101.333 20.5 -177.666 61.5 -228.999s96.5 -77 166.5 -77zM717 1117l-418 337l157 128l374 -373z" />
    <glyph glyph-name="oacute" unicode="&#xf3;" horiz-adv-x="1132" 
d="M568 -28c-88.667 0 -168.834 19 -240.501 57s-128.5 94.833 -170.5 170.5s-63 170.5 -63 284.5c0 116 21 212 63 288s98.833 132.667 170.5 170s151.834 56 240.501 56c87.333 0 166.5 -18.667 237.5 -56s127.5 -94 169.5 -170s63 -172 63 -288
c0 -114 -21 -208.833 -63 -284.5s-98.5 -132.5 -169.5 -170.5s-150.167 -57 -237.5 -57zM560 178c46.667 0 88.167 11.5 124.5 34.5s65 57.167 86 102.5s31.5 101.666 31.5 168.999c0 102.667 -20.167 180 -60.5 232s-95.5 78 -165.5 78c-47.333 0 -89.333 -11.5 -126 -34.5
s-65.5 -57.5 -86.5 -103.5s-31.5 -103.333 -31.5 -172c0 -101.333 20.5 -177.666 61.5 -228.999s96.5 -77 166.5 -77zM502 1114l-113 92l374 373l158 -128z" />
    <glyph glyph-name="ocircumflex" unicode="&#xf4;" horiz-adv-x="1132" 
d="M568 -28c-88.667 0 -168.834 19 -240.501 57s-128.5 94.833 -170.5 170.5s-63 170.5 -63 284.5c0 116 21 212 63 288s98.833 132.667 170.5 170s151.834 56 240.501 56c87.333 0 166.5 -18.667 237.5 -56s127.5 -94 169.5 -170s63 -172 63 -288
c0 -114 -21 -208.833 -63 -284.5s-98.5 -132.5 -169.5 -170.5s-150.167 -57 -237.5 -57zM560 178c46.667 0 88.167 11.5 124.5 34.5s65 57.167 86 102.5s31.5 101.666 31.5 168.999c0 102.667 -20.167 180 -60.5 232s-95.5 78 -165.5 78c-47.333 0 -89.333 -11.5 -126 -34.5
s-65.5 -57.5 -86.5 -103.5s-31.5 -103.333 -31.5 -172c0 -101.333 20.5 -177.666 61.5 -228.999s96.5 -77 166.5 -77zM349 1101l-139 110l356 305l357 -305l-139 -110l-260 234h83z" />
    <glyph glyph-name="otilde" unicode="&#xf5;" horiz-adv-x="1132" 
d="M568 -28c-88.667 0 -168.834 19 -240.501 57s-128.5 94.833 -170.5 170.5s-63 170.5 -63 284.5c0 116 21 212 63 288s98.833 132.667 170.5 170s151.834 56 240.501 56c87.333 0 166.5 -18.667 237.5 -56s127.5 -94 169.5 -170s63 -172 63 -288
c0 -114 -21 -208.833 -63 -284.5s-98.5 -132.5 -169.5 -170.5s-150.167 -57 -237.5 -57zM560 178c46.667 0 88.167 11.5 124.5 34.5s65 57.167 86 102.5s31.5 101.666 31.5 168.999c0 102.667 -20.167 180 -60.5 232s-95.5 78 -165.5 78c-47.333 0 -89.333 -11.5 -126 -34.5
s-65.5 -57.5 -86.5 -103.5s-31.5 -103.333 -31.5 -172c0 -101.333 20.5 -177.666 61.5 -228.999s96.5 -77 166.5 -77zM314 1123l-94.002 56.999c16 80.667 42.833 143.5 80.5 188.5s82.167 67.5 133.5 67.5c19.333 0 39.5 -3.66699 60.5 -11s49.5 -20.333 85.5 -39
c34 -17.333 59.5 -29.666 76.5 -36.999s33.5 -11 49.5 -11c19.333 0 38.333 7.83301 57 23.5s35 40.5 49 74.5l100 -66c-9.33301 -48 -24.5 -90.5 -45.5 -127.5s-45.167 -66.167 -72.5 -87.5s-54.666 -32 -81.999 -32c-24 0 -47.833 4.66699 -71.5 14s-54.5 23.333 -92.5 42
c-31.333 17.333 -54.666 29 -69.999 35s-30 9 -44 9c-21.333 0 -41.833 -6.83301 -61.5 -20.5s-39.167 -40.167 -58.5 -79.5z" />
    <glyph glyph-name="odieresis" unicode="&#xf6;" horiz-adv-x="1132" 
d="M568 -28c-88.667 0 -168.834 19 -240.501 57s-128.5 94.833 -170.5 170.5s-63 170.5 -63 284.5c0 116 21 212 63 288s98.833 132.667 170.5 170s151.834 56 240.501 56c87.333 0 166.5 -18.667 237.5 -56s127.5 -94 169.5 -170s63 -172 63 -288
c0 -114 -21 -208.833 -63 -284.5s-98.5 -132.5 -169.5 -170.5s-150.167 -57 -237.5 -57zM560 178c46.667 0 88.167 11.5 124.5 34.5s65 57.167 86 102.5s31.5 101.666 31.5 168.999c0 102.667 -20.167 180 -60.5 232s-95.5 78 -165.5 78c-47.333 0 -89.333 -11.5 -126 -34.5
s-65.5 -57.5 -86.5 -103.5s-31.5 -103.333 -31.5 -172c0 -101.333 20.5 -177.666 61.5 -228.999s96.5 -77 166.5 -77zM757 1142c-38.667 0 -71.667 12.667 -99 38s-41 57 -41 95s13.667 69.833 41 95.5s60.333 38.5 99 38.5c41.333 0 75.333 -12.833 102 -38.5
s40 -57.5 40 -95.5s-13.333 -69.667 -40 -95s-60.667 -38 -102 -38zM373 1142c-40.667 0 -74.167 12.667 -100.5 38s-39.5 56.333 -39.5 93c0 39.333 13.167 71.5 39.5 96.5s59.833 37.5 100.5 37.5c41.333 0 75.333 -12.5 102 -37.5s40 -57.167 40 -96.5
c0 -36.667 -13.333 -67.667 -40 -93s-60.667 -38 -102 -38z" />
    <glyph glyph-name="divide" unicode="&#xf7;" horiz-adv-x="1041" 
d="M132 444v208h776v-208h-776zM518 78c-38.667 0 -71 12.5 -97 37.5s-39 55.833 -39 92.5c0 37.333 13 68.333 39 93s58.333 37 97 37c40 0 73.333 -12.333 100 -37s40 -55.667 40 -93c0 -36.667 -13.333 -67.5 -40 -92.5s-60 -37.5 -100 -37.5zM518 752
c-38.667 0 -71 12.167 -97 36.5s-39 55.5 -39 93.5c0 36 13 66.667 39 92s58.333 38 97 38c40 0 73.333 -12.667 100 -38s40 -56 40 -92c0 -38 -13.333 -69.167 -40 -93.5s-60 -36.5 -100 -36.5z" />
    <glyph glyph-name="oslash" unicode="&#xf8;" horiz-adv-x="1132" 
d="M568 -28c-88.667 0 -168.834 19 -240.501 57s-128.5 94.833 -170.5 170.5s-63 170.5 -63 284.5c0 116 21 212 63 288s98.833 132.667 170.5 170s151.834 56 240.501 56c87.333 0 166.5 -18.667 237.5 -56s127.5 -94 169.5 -170s63 -172 63 -288
c0 -114 -21 -208.833 -63 -284.5s-98.5 -132.5 -169.5 -170.5s-150.167 -57 -237.5 -57zM560 178c46.667 0 88.167 11.5 124.5 34.5s65 57.167 86 102.5s31.5 101.666 31.5 168.999c0 102.667 -20.167 180 -60.5 232s-95.5 78 -165.5 78c-47.333 0 -89.333 -11.5 -126 -34.5
s-65.5 -57.5 -86.5 -103.5s-31.5 -103.333 -31.5 -172c0 -101.333 20.5 -177.666 61.5 -228.999s96.5 -77 166.5 -77zM99.2939 -1.33203l820.43 983.111h220.272l-824.07 -983.111h-216.632z" />
    <glyph glyph-name="ugrave" unicode="&#xf9;" horiz-adv-x="1254" 
d="M832 974h236v-974h-236v974zM166 974l236 -0.00195312v-596c0 -63.333 15.667 -110.833 47 -142.5s74.333 -47.5 129 -47.5c46.667 0 89.167 12.167 127.5 36.5s69 60.333 92 108s34.5 106.834 34.5 177.501h64c0 -118.667 -15.333 -217 -46 -295s-73 -136.333 -127 -175
s-116.333 -58 -187 -58c-69.333 0 -132 12.333 -188 37s-100.333 64.334 -133 119.001s-49 126.667 -49 216v620zM794 1117l-418 337l157 128l374 -373z" />
    <glyph glyph-name="uacute" unicode="&#xfa;" horiz-adv-x="1254" 
d="M832 974h236v-974h-236v974zM166 974l236 -0.00195312v-596c0 -63.333 15.667 -110.833 47 -142.5s74.333 -47.5 129 -47.5c46.667 0 89.167 12.167 127.5 36.5s69 60.333 92 108s34.5 106.834 34.5 177.501h64c0 -118.667 -15.333 -217 -46 -295s-73 -136.333 -127 -175
s-116.333 -58 -187 -58c-69.333 0 -132 12.333 -188 37s-100.333 64.334 -133 119.001s-49 126.667 -49 216v620zM578 1114l-113 92l374 373l158 -128z" />
    <glyph glyph-name="ucircumflex" unicode="&#xfb;" horiz-adv-x="1254" 
d="M832 974h236v-974h-236v974zM166 974l236 -0.00195312v-596c0 -63.333 15.667 -110.833 47 -142.5s74.333 -47.5 129 -47.5c46.667 0 89.167 12.167 127.5 36.5s69 60.333 92 108s34.5 106.834 34.5 177.501h64c0 -118.667 -15.333 -217 -46 -295s-73 -136.333 -127 -175
s-116.333 -58 -187 -58c-69.333 0 -132 12.333 -188 37s-100.333 64.334 -133 119.001s-49 126.667 -49 216v620zM425 1101l-139 110l356 305l357 -305l-139 -110l-260 234h83z" />
    <glyph glyph-name="udieresis" unicode="&#xfc;" horiz-adv-x="1254" 
d="M832 974h236v-974h-236v974zM166 974l236 -0.00195312v-596c0 -63.333 15.667 -110.833 47 -142.5s74.333 -47.5 129 -47.5c46.667 0 89.167 12.167 127.5 36.5s69 60.333 92 108s34.5 106.834 34.5 177.501h64c0 -118.667 -15.333 -217 -46 -295s-73 -136.333 -127 -175
s-116.333 -58 -187 -58c-69.333 0 -132 12.333 -188 37s-100.333 64.334 -133 119.001s-49 126.667 -49 216v620zM834 1142c-38.667 0 -71.667 12.667 -99 38s-41 57 -41 95s13.667 69.833 41 95.5s60.333 38.5 99 38.5c41.333 0 75.333 -12.833 102 -38.5
s40 -57.5 40 -95.5s-13.333 -69.667 -40 -95s-60.667 -38 -102 -38zM450 1142c-40.667 0 -74.167 12.667 -100.5 38s-39.5 56.333 -39.5 93c0 39.333 13.167 71.5 39.5 96.5s59.833 37.5 100.5 37.5c41.333 0 75.333 -12.5 102 -37.5s40 -57.167 40 -96.5
c0 -36.667 -13.333 -67.667 -40 -93s-60.667 -38 -102 -38z" />
    <glyph glyph-name="yacute" unicode="&#xfd;" horiz-adv-x="1007" 
d="M38 970l268 0.000976562l258 -764h-42l222 764h240l-372 -1146c-38 -114.667 -84.833 -197.667 -140.5 -249s-123.5 -77 -203.5 -77c-46 0 -90.833 5.16699 -134.5 15.5s-88.167 26.5 -133.5 48.5v208c36.667 -22.667 72.167 -39.334 106.5 -50.001s68.833 -16 103.5 -16
c31.333 0 58.833 8.5 82.5 25.5s44.167 40.667 61.5 71s32 65.5 44 105.5l30 94zM439 1114l-113 92l374 373l158 -128z" />
    <glyph glyph-name="thorn" unicode="&#xfe;" 
d="M672 -28c-71.333 0 -132 15.333 -182 46s-88.167 77.167 -114.5 139.5s-39.5 140.5 -39.5 234.5h86c0 -43.333 10 -80.333 30 -111s46.5 -54.167 79.5 -70.5s68.5 -24.5 106.5 -24.5c39.333 0 78.166 10.833 116.499 32.5s70.166 54.667 95.499 99s38 100.5 38 168.5
c0 62 -10.667 115.5 -32 160.5s-50.5 79.5 -87.5 103.5s-79.167 36 -126.5 36c-40 0 -76.667 -9 -110 -27s-60 -44.167 -80 -78.5s-30 -75.833 -30 -124.5h-86c0 102 15.667 185.5 47 250.5s73.333 113.167 126 144.5s110.334 47 173.001 47
c76.667 0 148.834 -20.333 216.501 -61s122.5 -99.167 164.5 -175.5s63 -168.166 63 -275.499c0 -108 -21.333 -200.333 -64 -277s-98.5 -135.334 -167.5 -176.001s-143.167 -61 -222.5 -61zM186 -474v1772h236v-1772h-236z" />
    <glyph glyph-name="ydieresis" unicode="&#xff;" horiz-adv-x="1007" 
d="M38 970l268 0.000976562l258 -764h-42l222 764h240l-372 -1146c-38 -114.667 -84.833 -197.667 -140.5 -249s-123.5 -77 -203.5 -77c-46 0 -90.833 5.16699 -134.5 15.5s-88.167 26.5 -133.5 48.5v208c36.667 -22.667 72.167 -39.334 106.5 -50.001s68.833 -16 103.5 -16
c31.333 0 58.833 8.5 82.5 25.5s44.167 40.667 61.5 71s32 65.5 44 105.5l30 94zM695 1142c-38.667 0 -71.667 12.667 -99 38s-41 57 -41 95s13.667 69.833 41 95.5s60.333 38.5 99 38.5c41.333 0 75.333 -12.833 102 -38.5s40 -57.5 40 -95.5s-13.333 -69.667 -40 -95
s-60.667 -38 -102 -38zM311 1142c-40.667 0 -74.167 12.667 -100.5 38s-39.5 56.333 -39.5 93c0 39.333 13.167 71.5 39.5 96.5s59.833 37.5 100.5 37.5c41.333 0 75.333 -12.5 102 -37.5s40 -57.167 40 -96.5c0 -36.667 -13.333 -67.667 -40 -93s-60.667 -38 -102 -38z" />
    <glyph glyph-name="Amacron" unicode="&#x100;" horiz-adv-x="1251" 
d="M44 0l442 1298h296l424 -1298h-248l-90 280h-482l-92 -280h-250zM446 458h366l-182 558zM293 1687h691v-193h-691v193z" />
    <glyph glyph-name="amacron" unicode="&#x101;" horiz-adv-x="1170" 
d="M804 0l-30 236.001v390c0 68 -13.833 118.333 -41.5 151s-74.5 49 -140.5 49c-38 0 -71 -5.66699 -99 -17s-49.5 -27.5 -64.5 -48.5s-22.5 -46.5 -22.5 -76.5h-258c0 73.333 17.667 133.166 53 179.499s86.166 80.333 152.499 102s145.833 32.5 238.5 32.5
c84 0 157.333 -13.5 220 -40.5s111.334 -68.5 146.001 -124.5s52 -127.667 52 -215v-618h-206zM486 -27.999c-83.333 0 -152.832 14.501 -208.499 43.501s-97.5 67.167 -125.5 114.5s-42 98.666 -42 153.999c0 61.333 16.167 112.833 48.5 154.5s78.166 73 137.499 94
s129.333 31.5 210 31.5c52.667 0 102.5 -4 149.5 -12s93.833 -18.667 140.5 -32v-138c-36.667 12 -76.667 21.333 -120 28s-84 10 -122 10c-56 0 -102 -10.333 -138 -31s-54 -55.667 -54 -105c0 -36 14.667 -67 44 -93s76 -39 140 -39c48.667 0 90 10.667 124 32
s59.833 48 77.5 80s26.5 64 26.5 96h56c0 -70 -13 -134.5 -39 -193.5s-64.5 -106.167 -115.5 -141.5s-114.167 -53 -189.5 -53zM239.001 1361h691v-193h-691v193z" />
    <glyph glyph-name="Abreve" unicode="&#x102;" horiz-adv-x="1251" 
d="M44 0l442 1298h296l424 -1298h-248l-90 280h-482l-92 -280h-250zM446 458h366l-182 558zM638 1487c-98 0 -175.167 27.667 -231.5 83s-84.5 131.666 -84.5 228.999h186c0 -51.333 11.5 -90.333 34.5 -117s54.833 -40 95.5 -40c41.333 0 73.5 13.333 96.5 40
s34.5 65.667 34.5 117h185c0 -97.333 -28 -173.666 -84 -228.999s-133.333 -83 -232 -83z" />
    <glyph glyph-name="abreve" unicode="&#x103;" horiz-adv-x="1170" 
d="M804 0l-30 236.001v390c0 68 -13.833 118.333 -41.5 151s-74.5 49 -140.5 49c-38 0 -71 -5.66699 -99 -17s-49.5 -27.5 -64.5 -48.5s-22.5 -46.5 -22.5 -76.5h-258c0 73.333 17.667 133.166 53 179.499s86.166 80.333 152.499 102s145.833 32.5 238.5 32.5
c84 0 157.333 -13.5 220 -40.5s111.334 -68.5 146.001 -124.5s52 -127.667 52 -215v-618h-206zM486 -27.999c-83.333 0 -152.832 14.501 -208.499 43.501s-97.5 67.167 -125.5 114.5s-42 98.666 -42 153.999c0 61.333 16.167 112.833 48.5 154.5s78.166 73 137.499 94
s129.333 31.5 210 31.5c52.667 0 102.5 -4 149.5 -12s93.833 -18.667 140.5 -32v-138c-36.667 12 -76.667 21.333 -120 28s-84 10 -122 10c-56 0 -102 -10.333 -138 -31s-54 -55.667 -54 -105c0 -36 14.667 -67 44 -93s76 -39 140 -39c48.667 0 90 10.667 124 32
s59.833 48 77.5 80s26.5 64 26.5 96h56c0 -70 -13 -134.5 -39 -193.5s-64.5 -106.167 -115.5 -141.5s-114.167 -53 -189.5 -53zM584.001 1161c-98 0 -175.167 27.667 -231.5 83s-84.5 131.666 -84.5 228.999h186c0 -51.333 11.5 -90.333 34.5 -117s54.833 -40 95.5 -40
c41.333 0 73.5 13.333 96.5 40s34.5 65.667 34.5 117h185c0 -97.333 -28 -173.666 -84 -228.999s-133.333 -83 -232 -83z" />
    <glyph glyph-name="Aogonek" unicode="&#x104;" horiz-adv-x="1251" 
d="M44 0l442 1298h296l424 -1298h-248l-90 280h-482l-92 -280h-250zM446 458h366l-182 558zM1322 -325c-43.333 -23.333 -87.501 -40.999 -132.501 -52.999s-89.167 -18 -132.5 -18c-71.333 0 -130.333 16 -177 48s-70 77.667 -70 137c0 48 17.167 94.833 51.5 140.5
s84.833 82.167 151.5 109.5l180 -39c-68.667 -24 -123.167 -49.833 -163.5 -77.5s-60.5 -58.5 -60.5 -92.5c0 -26 11 -44.167 33 -54.5s46.333 -15.5 73 -15.5c28.667 0 57.834 4.66699 87.501 14s64.5 24.666 104.5 45.999z" />
    <glyph glyph-name="aogonek" unicode="&#x105;" horiz-adv-x="1170" 
d="M804 0l-30 236.001v390c0 68 -13.833 118.333 -41.5 151s-74.5 49 -140.5 49c-38 0 -71 -5.66699 -99 -17s-49.5 -27.5 -64.5 -48.5s-22.5 -46.5 -22.5 -76.5h-258c0 73.333 17.667 133.166 53 179.499s86.166 80.333 152.499 102s145.833 32.5 238.5 32.5
c84 0 157.333 -13.5 220 -40.5s111.334 -68.5 146.001 -124.5s52 -127.667 52 -215v-618h-206zM486 -27.999c-83.333 0 -152.832 14.501 -208.499 43.501s-97.5 67.167 -125.5 114.5s-42 98.666 -42 153.999c0 61.333 16.167 112.833 48.5 154.5s78.166 73 137.499 94
s129.333 31.5 210 31.5c52.667 0 102.5 -4 149.5 -12s93.833 -18.667 140.5 -32v-138c-36.667 12 -76.667 21.333 -120 28s-84 10 -122 10c-56 0 -102 -10.333 -138 -31s-54 -55.667 -54 -105c0 -36 14.667 -67 44 -93s76 -39 140 -39c48.667 0 90 10.667 124 32
s59.833 48 77.5 80s26.5 64 26.5 96h56c0 -70 -13 -134.5 -39 -193.5s-64.5 -106.167 -115.5 -141.5s-114.167 -53 -189.5 -53zM1139 -324.998c-43.333 -23.333 -87.501 -40.999 -132.501 -52.999s-89.167 -18 -132.5 -18c-71.333 0 -130.333 16 -177 48s-70 77.667 -70 137
c0 48 17.167 94.833 51.5 140.5s84.833 82.167 151.5 109.5l180 -39c-68.667 -24 -123.167 -49.833 -163.5 -77.5s-60.5 -58.5 -60.5 -92.5c0 -26 11 -44.167 33 -54.5s46.333 -15.5 73 -15.5c28.667 0 57.834 4.66699 87.501 14s64.5 24.666 104.5 45.999z" />
    <glyph glyph-name="Cacute" unicode="&#x106;" horiz-adv-x="1267" 
d="M658 -28c-114 0 -213.167 27.166 -297.5 81.499s-149.833 132.166 -196.5 233.499s-70 223 -70 365c0 146.667 24.167 269.834 72.5 369.501s115 175 200 226s182.167 76.5 291.5 76.5c151.333 0 269.5 -36.667 354.5 -110s139.5 -168.666 163.5 -285.999l-252 -46
c-20.667 68 -53.667 123 -99 165s-101 63 -167 63c-58 0 -110.333 -16.833 -157 -50.5s-83.834 -84.5 -111.501 -152.5s-41.5 -153 -41.5 -255c0 -96 12.167 -178.667 36.5 -248s59.5 -122.666 105.5 -159.999s102 -56 168 -56c84.667 0 150.167 22.5 196.5 67.5
s69.5 102.5 69.5 172.5h252c0 -96.667 -20.833 -178.834 -62.5 -246.501s-101.167 -119.5 -178.5 -155.5s-169.666 -54 -276.999 -54zM581 1440l-113 92l374 373l158 -128z" />
    <glyph glyph-name="cacute" unicode="&#x107;" horiz-adv-x="1059" 
d="M554 -28c-81.333 0 -156.831 21.168 -226.498 63.501s-126 102 -169 179s-64.5 167.5 -64.5 271.5c0 110 21.5 203.167 64.5 279.5s99.333 134.166 169 173.499s145.167 59 226.5 59c63.333 0 119.166 -10.167 167.499 -30.5s89.5 -47.666 123.5 -81.999
s60.667 -72.5 80 -114.5s31.666 -84.333 36.999 -127l-238 -6c-10.667 42.667 -30.5 78 -59.5 106s-66.5 42 -112.5 42c-38 0 -73.667 -10.5 -107 -31.5s-60.5 -53.5 -81.5 -97.5s-31.5 -101 -31.5 -171c0 -66.667 9.83301 -122.167 29.5 -166.5
s46.167 -77.666 79.5 -99.999s70.333 -33.5 111 -33.5c60 0 103.667 14.5 131 43.5s41 67.833 41 116.5h238c0 -68.667 -15.667 -131.334 -47 -188.001s-77.333 -101.834 -138 -135.501s-135 -50.5 -223 -50.5zM489.002 1114l-113 92l374 373l158 -128z" />
    <glyph glyph-name="Cdotaccent" unicode="&#x10a;" horiz-adv-x="1267" 
d="M658 -28c-114 0 -213.167 27.166 -297.5 81.499s-149.833 132.166 -196.5 233.499s-70 223 -70 365c0 146.667 24.167 269.834 72.5 369.501s115 175 200 226s182.167 76.5 291.5 76.5c151.333 0 269.5 -36.667 354.5 -110s139.5 -168.666 163.5 -285.999l-252 -46
c-20.667 68 -53.667 123 -99 165s-101 63 -167 63c-58 0 -110.333 -16.833 -157 -50.5s-83.834 -84.5 -111.501 -152.5s-41.5 -153 -41.5 -255c0 -96 12.167 -178.667 36.5 -248s59.5 -122.666 105.5 -159.999s102 -56 168 -56c84.667 0 150.167 22.5 196.5 67.5
s69.5 102.5 69.5 172.5h252c0 -96.667 -20.833 -178.834 -62.5 -246.501s-101.167 -119.5 -178.5 -155.5s-169.666 -54 -276.999 -54zM495.095 1631.4c0 44.4785 15.0439 81.7617 45.1328 111.85c30.0879 30.0889 68.6797 45.1328 115.774 45.1328
s86.3398 -15.0439 117.736 -45.1328c31.3965 -30.0879 47.0947 -67.3711 47.0947 -111.85c0 -43.8242 -15.6982 -80.29 -47.0947 -109.397c-31.3965 -29.1064 -70.6416 -43.6602 -117.736 -43.6602s-85.6865 14.7168 -115.774 44.1504
c-30.0889 29.4346 -45.1328 65.7373 -45.1328 108.907z" />
    <glyph glyph-name="cdotaccent" unicode="&#x10b;" horiz-adv-x="1059" 
d="M554 -28c-81.333 0 -156.831 21.168 -226.498 63.501s-126 102 -169 179s-64.5 167.5 -64.5 271.5c0 110 21.5 203.167 64.5 279.5s99.333 134.166 169 173.499s145.167 59 226.5 59c63.333 0 119.166 -10.167 167.499 -30.5s89.5 -47.666 123.5 -81.999
s60.667 -72.5 80 -114.5s31.666 -84.333 36.999 -127l-238 -6c-10.667 42.667 -30.5 78 -59.5 106s-66.5 42 -112.5 42c-38 0 -73.667 -10.5 -107 -31.5s-60.5 -53.5 -81.5 -97.5s-31.5 -101 -31.5 -171c0 -66.667 9.83301 -122.167 29.5 -166.5
s46.167 -77.666 79.5 -99.999s70.333 -33.5 111 -33.5c60 0 103.667 14.5 131 43.5s41 67.833 41 116.5h238c0 -68.667 -15.667 -131.334 -47 -188.001s-77.333 -101.834 -138 -135.501s-135 -50.5 -223 -50.5zM403.097 1305.4c0 44.4785 15.0439 81.7617 45.1328 111.85
c30.0879 30.0889 68.6797 45.1328 115.774 45.1328s86.3398 -15.0439 117.736 -45.1328c31.3965 -30.0879 47.0947 -67.3711 47.0947 -111.85c0 -43.8242 -15.6982 -80.29 -47.0947 -109.397c-31.3965 -29.1064 -70.6416 -43.6602 -117.736 -43.6602
s-85.6865 14.7168 -115.774 44.1504c-30.0889 29.4346 -45.1328 65.7373 -45.1328 108.907z" />
    <glyph glyph-name="Ccaron" unicode="&#x10c;" horiz-adv-x="1267" 
d="M658 -28c-114 0 -213.167 27.166 -297.5 81.499s-149.833 132.166 -196.5 233.499s-70 223 -70 365c0 146.667 24.167 269.834 72.5 369.501s115 175 200 226s182.167 76.5 291.5 76.5c151.333 0 269.5 -36.667 354.5 -110s139.5 -168.666 163.5 -285.999l-252 -46
c-20.667 68 -53.667 123 -99 165s-101 63 -167 63c-58 0 -110.333 -16.833 -157 -50.5s-83.834 -84.5 -111.501 -152.5s-41.5 -153 -41.5 -255c0 -96 12.167 -178.667 36.5 -248s59.5 -122.666 105.5 -159.999s102 -56 168 -56c84.667 0 150.167 22.5 196.5 67.5
s69.5 102.5 69.5 172.5h252c0 -96.667 -20.833 -178.834 -62.5 -246.501s-101.167 -119.5 -178.5 -155.5s-169.666 -54 -276.999 -54zM653 1442l-356 305l139 110l258 -260h-83l260 260l139 -110z" />
    <glyph glyph-name="ccaron" unicode="&#x10d;" horiz-adv-x="1059" 
d="M554 -28c-81.333 0 -156.831 21.168 -226.498 63.501s-126 102 -169 179s-64.5 167.5 -64.5 271.5c0 110 21.5 203.167 64.5 279.5s99.333 134.166 169 173.499s145.167 59 226.5 59c63.333 0 119.166 -10.167 167.499 -30.5s89.5 -47.666 123.5 -81.999
s60.667 -72.5 80 -114.5s31.666 -84.333 36.999 -127l-238 -6c-10.667 42.667 -30.5 78 -59.5 106s-66.5 42 -112.5 42c-38 0 -73.667 -10.5 -107 -31.5s-60.5 -53.5 -81.5 -97.5s-31.5 -101 -31.5 -171c0 -66.667 9.83301 -122.167 29.5 -166.5
s46.167 -77.666 79.5 -99.999s70.333 -33.5 111 -33.5c60 0 103.667 14.5 131 43.5s41 67.833 41 116.5h238c0 -68.667 -15.667 -131.334 -47 -188.001s-77.333 -101.834 -138 -135.501s-135 -50.5 -223 -50.5zM561.002 1116l-356 305l139 110l258 -260h-83l260 260
l139 -110z" />
    <glyph glyph-name="Dcaron" unicode="&#x10e;" horiz-adv-x="1373" 
d="M186 1298h420c132 0 247.667 -26.5 347 -79.5s176.666 -128.167 231.999 -225.5s83 -212.333 83 -345c0 -131.333 -27.667 -245.5 -83 -342.5s-132.666 -172.167 -231.999 -225.5s-215 -80 -347 -80h-420v1298zM422 1084v-872h184c84 0 156.5 19 217.5 57
s108 89.833 141 155.5s49.5 140.167 49.5 223.5c0 84.667 -16.5 159.667 -49.5 225s-80 116.833 -141 154.5s-133.5 56.5 -217.5 56.5h-184zM694 1442l-356 305l139 110l258 -260h-83l260 260l139 -110z" />
    <glyph glyph-name="dcaron" unicode="&#x10f;" horiz-adv-x="1426" 
d="M1215 1028l-113.001 56.001c32.667 16 60.5 34 83.5 54s38.167 43.667 45.5 71c-26 4 -47.833 13.833 -65.5 29.5s-26.5 36.167 -26.5 61.5c0 26 9.83301 48.167 29.5 66.5s45.167 27.5 76.5 27.5c38 0 68.5 -13.667 91.5 -41s34.5 -60 34.5 -98
c0 -43.333 -13.667 -85.833 -41 -127.5s-65.666 -74.834 -114.999 -99.501zM543.999 -27.999c-81.333 0 -155.497 21.4941 -222.497 64.4941s-120.333 103.333 -160 181s-59.5 168.5 -59.5 272.5c0 102.667 19.167 192.167 57.5 268.5s89.666 135.333 153.999 177
s135.833 62.5 214.5 62.5c72 0 134.333 -17.167 187 -51.5s93 -85.166 121 -152.499s42 -150 42 -248h-74c0 50.667 -10.333 93.834 -31 129.501s-47.834 63 -81.501 82s-70.167 28.5 -109.5 28.5c-47.333 0 -89.166 -12.333 -125.499 -37s-64.833 -59.167 -85.5 -103.5
s-31 -96.166 -31 -155.499c0 -61.333 10.333 -114.666 31 -159.999s49.167 -80.666 85.5 -105.999s77.5 -38 123.5 -38c37.333 0 73.166 10.167 107.499 30.5s62.333 48.833 84 85.5s32.5 79.334 32.5 128.001h74c0 -102 -15.167 -186.833 -45.5 -254.5
s-70.833 -118.5 -121.5 -152.5s-106.334 -51 -167.001 -51zM848.002 -0.00488281l-44 240v1132h238v-1372h-194z" />
    <glyph glyph-name="Dcroat" unicode="&#x110;" horiz-adv-x="1373" 
d="M44 751h633v-204h-633v204zM186 1298h420c132 0 247.667 -26.5 347 -79.5s176.666 -128.167 231.999 -225.5s83 -212.333 83 -345c0 -131.333 -27.667 -245.5 -83 -342.5s-132.666 -172.167 -231.999 -225.5s-215 -80 -347 -80h-420v1298zM422 1084v-872h184
c84 0 156.5 19 217.5 57s108 89.833 141 155.5s49.5 140.167 49.5 223.5c0 84.667 -16.5 159.667 -49.5 225s-80 116.833 -141 154.5s-133.5 56.5 -217.5 56.5h-184z" />
    <glyph glyph-name="dcroat" unicode="&#x111;" horiz-adv-x="1228" 
d="M544 -28c-81.333 0 -155.497 21.4941 -222.497 64.4941s-120.333 103.333 -160 181s-59.5 168.5 -59.5 272.5c0 102.667 19.167 192.167 57.5 268.5s89.666 135.333 153.999 177s135.833 62.5 214.5 62.5c72 0 134.333 -17.167 187 -51.5s93 -85.166 121 -152.499
s42 -150 42 -248h-74c0 50.667 -10.333 93.834 -31 129.501s-47.834 63 -81.501 82s-70.167 28.5 -109.5 28.5c-47.333 0 -89.166 -12.333 -125.499 -37s-64.833 -59.167 -85.5 -103.5s-31 -96.166 -31 -155.499c0 -61.333 10.333 -114.666 31 -159.999
s49.167 -80.666 85.5 -105.999s77.5 -38 123.5 -38c37.333 0 73.166 10.167 107.499 30.5s62.333 48.833 84 85.5s32.5 79.334 32.5 128.001h74c0 -102 -15.167 -186.833 -45.5 -254.5s-70.833 -118.5 -121.5 -152.5s-106.334 -51 -167.001 -51zM848.003 -0.00585938
l-44 240v1132h238v-1372h-194zM602.003 1088.99v155h584v-155h-584z" />
    <glyph glyph-name="Emacron" unicode="&#x112;" horiz-adv-x="1173" 
d="M184 0v1298h834v-204h-598v-342h562v-204h-562v-342h598v-206h-834zM241 1687h691v-193h-691v193z" />
    <glyph glyph-name="emacron" unicode="&#x113;" horiz-adv-x="1060" 
d="M548 -28c-82.667 0 -158.329 21.333 -226.996 64s-123.667 102.5 -165 179.5s-62 167.167 -62 270.5c0 106.667 20.5 198.334 61.5 275.001s95.833 135.334 164.5 176.001s144.667 61 228 61c77.333 0 144.166 -15.5 200.499 -46.5s101.666 -73 135.999 -126
s57.5 -112.833 69.5 -179.5s12.667 -135.334 2 -206.001h-674v128h507l-46 -30c2 31.333 0.5 63 -4.5 95s-14.5 61.333 -28.5 88s-33.833 48.167 -59.5 64.5s-58.5 24.5 -98.5 24.5c-48 0 -88.667 -12 -122 -36s-58.666 -56.667 -75.999 -98s-26 -88 -26 -140v-94
c0 -54.667 8.16699 -103 24.5 -145s40.666 -75 72.999 -99s73.166 -36 122.499 -36c46 0 84.667 10.667 116 32s51.333 53.333 60 96h238c-10 -62.667 -33.5 -117.834 -70.5 -165.501s-84.833 -85 -143.5 -112s-125.334 -40.5 -200.001 -40.5zM185.005 1361h691v-193h-691
v193z" />
    <glyph glyph-name="Edotaccent" unicode="&#x116;" horiz-adv-x="1173" 
d="M184 0v1298h834v-204h-598v-342h562v-204h-562v-342h598v-206h-834zM435.095 1631.4c0 44.4785 15.0439 81.7617 45.1328 111.85c30.0879 30.0889 68.6797 45.1328 115.774 45.1328s86.3398 -15.0439 117.736 -45.1328
c31.3965 -30.0879 47.0947 -67.3711 47.0947 -111.85c0 -43.8242 -15.6982 -80.29 -47.0947 -109.397c-31.3965 -29.1064 -70.6416 -43.6602 -117.736 -43.6602s-85.6865 14.7168 -115.774 44.1504c-30.0889 29.4346 -45.1328 65.7373 -45.1328 108.907z" />
    <glyph glyph-name="edotaccent" unicode="&#x117;" horiz-adv-x="1060" 
d="M548 -28c-82.667 0 -158.329 21.333 -226.996 64s-123.667 102.5 -165 179.5s-62 167.167 -62 270.5c0 106.667 20.5 198.334 61.5 275.001s95.833 135.334 164.5 176.001s144.667 61 228 61c77.333 0 144.166 -15.5 200.499 -46.5s101.666 -73 135.999 -126
s57.5 -112.833 69.5 -179.5s12.667 -135.334 2 -206.001h-674v128h507l-46 -30c2 31.333 0.5 63 -4.5 95s-14.5 61.333 -28.5 88s-33.833 48.167 -59.5 64.5s-58.5 24.5 -98.5 24.5c-48 0 -88.667 -12 -122 -36s-58.666 -56.667 -75.999 -98s-26 -88 -26 -140v-94
c0 -54.667 8.16699 -103 24.5 -145s40.666 -75 72.999 -99s73.166 -36 122.499 -36c46 0 84.667 10.667 116 32s51.333 53.333 60 96h238c-10 -62.667 -33.5 -117.834 -70.5 -165.501s-84.833 -85 -143.5 -112s-125.334 -40.5 -200.001 -40.5zM380.1 1305.4
c0 44.4785 15.0439 81.7617 45.1328 111.85c30.0879 30.0889 68.6797 45.1328 115.774 45.1328s86.3398 -15.0439 117.736 -45.1328c31.3965 -30.0879 47.0947 -67.3711 47.0947 -111.85c0 -43.8242 -15.6982 -80.29 -47.0947 -109.397
c-31.3965 -29.1064 -70.6416 -43.6602 -117.736 -43.6602s-85.6865 14.7168 -115.774 44.1504c-30.0889 29.4346 -45.1328 65.7373 -45.1328 108.907z" />
    <glyph glyph-name="Eogonek" unicode="&#x118;" horiz-adv-x="1173" 
d="M184 0v1298h834v-204h-598v-342h562v-204h-562v-342h598v-206h-834zM904 -325c-43.333 -23.333 -87.501 -40.999 -132.501 -52.999s-89.167 -18 -132.5 -18c-71.333 0 -130.333 16 -177 48s-70 77.667 -70 137c0 48 17.167 94.833 51.5 140.5s84.833 82.167 151.5 109.5
l180 -39c-68.667 -24 -123.167 -49.833 -163.5 -77.5s-60.5 -58.5 -60.5 -92.5c0 -26 11 -44.167 33 -54.5s46.333 -15.5 73 -15.5c28.667 0 57.834 4.66699 87.501 14s64.5 24.666 104.5 45.999z" />
    <glyph glyph-name="eogonek" unicode="&#x119;" horiz-adv-x="1060" 
d="M548 -28c-82.667 0 -158.329 21.333 -226.996 64s-123.667 102.5 -165 179.5s-62 167.167 -62 270.5c0 106.667 20.5 198.334 61.5 275.001s95.833 135.334 164.5 176.001s144.667 61 228 61c77.333 0 144.166 -15.5 200.499 -46.5s101.666 -73 135.999 -126
s57.5 -112.833 69.5 -179.5s12.667 -135.334 2 -206.001h-674v128h507l-46 -30c2 31.333 0.5 63 -4.5 95s-14.5 61.333 -28.5 88s-33.833 48.167 -59.5 64.5s-58.5 24.5 -98.5 24.5c-48 0 -88.667 -12 -122 -36s-58.666 -56.667 -75.999 -98s-26 -88 -26 -140v-94
c0 -54.667 8.16699 -103 24.5 -145s40.666 -75 72.999 -99s73.166 -36 122.499 -36c46 0 84.667 10.667 116 32s51.333 53.333 60 96h238c-10 -62.667 -33.5 -117.834 -70.5 -165.501s-84.833 -85 -143.5 -112s-125.334 -40.5 -200.001 -40.5zM791.005 -325
c-43.333 -23.333 -87.501 -40.999 -132.501 -52.999s-89.167 -18 -132.5 -18c-71.333 0 -130.333 16 -177 48s-70 77.667 -70 137c0 48 17.167 94.833 51.5 140.5s84.833 82.167 151.5 109.5l180 -39c-68.667 -24 -123.167 -49.833 -163.5 -77.5s-60.5 -58.5 -60.5 -92.5
c0 -26 11 -44.167 33 -54.5s46.333 -15.5 73 -15.5c28.667 0 57.834 4.66699 87.501 14s64.5 24.666 104.5 45.999z" />
    <glyph glyph-name="Ecaron" unicode="&#x11a;" horiz-adv-x="1173" 
d="M184 0v1298h834v-204h-598v-342h562v-204h-562v-342h598v-206h-834zM594 1442l-356 305l139 110l258 -260h-83l260 260l139 -110z" />
    <glyph glyph-name="ecaron" unicode="&#x11b;" horiz-adv-x="1060" 
d="M548 -28c-82.667 0 -158.329 21.333 -226.996 64s-123.667 102.5 -165 179.5s-62 167.167 -62 270.5c0 106.667 20.5 198.334 61.5 275.001s95.833 135.334 164.5 176.001s144.667 61 228 61c77.333 0 144.166 -15.5 200.499 -46.5s101.666 -73 135.999 -126
s57.5 -112.833 69.5 -179.5s12.667 -135.334 2 -206.001h-674v128h507l-46 -30c2 31.333 0.5 63 -4.5 95s-14.5 61.333 -28.5 88s-33.833 48.167 -59.5 64.5s-58.5 24.5 -98.5 24.5c-48 0 -88.667 -12 -122 -36s-58.666 -56.667 -75.999 -98s-26 -88 -26 -140v-94
c0 -54.667 8.16699 -103 24.5 -145s40.666 -75 72.999 -99s73.166 -36 122.499 -36c46 0 84.667 10.667 116 32s51.333 53.333 60 96h238c-10 -62.667 -33.5 -117.834 -70.5 -165.501s-84.833 -85 -143.5 -112s-125.334 -40.5 -200.001 -40.5zM538.005 1116l-356 305
l139 110l258 -260h-83l260 260l139 -110z" />
    <glyph glyph-name="Gbreve" unicode="&#x11e;" horiz-adv-x="1354" 
d="M660 -28c-106 0 -201.667 27.999 -287 83.999s-153.166 134.167 -203.499 234.5s-75.5 217.5 -75.5 351.5c0 106 15.5 201 46.5 285s74.167 155.667 129.5 215s120.333 104.5 195 135.5s155.667 46.5 243 46.5c121.333 0 223.166 -26.333 305.499 -79
s146.5 -135.667 192.5 -249l-242 -56c-34 55.333 -73.167 97.5 -117.5 126.5s-94.5 43.5 -150.5 43.5c-64 0 -122.333 -18.833 -175 -56.5s-94.667 -91.5 -126 -161.5s-47 -153.333 -47 -250c0 -90.667 13.833 -170 41.5 -238s66.5 -121 116.5 -159s108 -57 174 -57
c56 0 106.167 12.5 150.5 37.5s79.333 60.833 105 107.5s38.5 103 38.5 169h52c0 -108 -12.833 -201.667 -38.5 -281s-65.5 -140.666 -119.5 -183.999s-123.333 -65 -208 -65zM1008 -0.000976562l-34 286v224l-292 6v150h518v-666h-192zM677 1487
c-98 0 -175.167 27.667 -231.5 83s-84.5 131.666 -84.5 228.999h186c0 -51.333 11.5 -90.333 34.5 -117s54.833 -40 95.5 -40c41.333 0 73.5 13.333 96.5 40s34.5 65.667 34.5 117h185c0 -97.333 -28 -173.666 -84 -228.999s-133.333 -83 -232 -83z" />
    <glyph glyph-name="gbreve" unicode="&#x11f;" horiz-adv-x="1164" 
d="M560 -502c-111.333 0 -206.5 15.332 -285.5 45.999s-139.5 70.834 -181.5 120.501s-63 103.5 -63 161.5c0 68.667 25 121.834 75 159.501s113 56.5 189 56.5l172 -64c-65.333 0 -115.666 -12.333 -150.999 -37s-53 -59 -53 -103c0 -46 26.5 -82.833 79.5 -110.5
s125.833 -41.5 218.5 -41.5c67.333 0 125.666 10 174.999 30s87.5 46 114.5 78s40.5 66 40.5 102c0 24 -8 43.667 -24 59s-40.667 23 -74 23h-326c-65.333 0 -124.833 10.5 -178.5 31.5s-96.334 49.333 -128.001 85s-47.5 75.5 -47.5 119.5
c0 40.667 11.333 75.834 34 105.501s53.5 52.5 92.5 68.5s82.833 24 131.5 24l60 -78c-19.333 0 -37.833 -3.83301 -55.5 -11.5s-32.167 -18.834 -43.5 -33.501s-17 -33 -17 -55c0 -26.667 11.333 -48.334 34 -65.001s62 -25 118 -25h326c103.333 0 184.5 -19 243.5 -57
s88.5 -96.333 88.5 -175c0 -70 -23 -136.5 -69 -199.5s-111.167 -114.5 -195.5 -154.5s-184.166 -60 -299.499 -60zM572 299.999c-76.667 0 -146.834 14.5 -210.501 43.5s-114.5 69.5 -152.5 121.5s-57 113 -57 183c0 71.333 19 133.333 57 186s88.833 93.167 152.5 121.5
s133.834 42.5 210.501 42.5c74.667 0 143.667 -14.167 207 -42.5s114.333 -68.833 153 -121.5s58 -114.667 58 -186c0 -70 -19.333 -131 -58 -183s-89.667 -92.5 -153 -121.5s-132.333 -43.5 -207 -43.5zM574 463.999c61.333 0 107.333 17.667 138 53s46 79 46 131
c0 56 -15.5 101 -46.5 135s-77.5 51 -139.5 51c-60 0 -106 -17 -138 -51s-48 -79 -48 -135c0 -52 16.167 -95.667 48.5 -131s78.833 -53 139.5 -53zM916 841.999l-108 61.999c0 58 13.5 108.833 40.5 152.5s63 77.5 108 101.5s94.833 36 149.5 36l-12 -226
c-58 0 -102.167 -10.167 -132.5 -30.5s-45.5 -52.166 -45.5 -95.499zM582 1161c-98 0 -175.167 27.667 -231.5 83s-84.5 131.666 -84.5 228.999h186c0 -51.333 11.5 -90.333 34.5 -117s54.833 -40 95.5 -40c41.333 0 73.5 13.333 96.5 40s34.5 65.667 34.5 117h185
c0 -97.333 -28 -173.666 -84 -228.999s-133.333 -83 -232 -83z" />
    <glyph glyph-name="Gdotaccent" unicode="&#x120;" horiz-adv-x="1354" 
d="M660 -28c-106 0 -201.667 27.999 -287 83.999s-153.166 134.167 -203.499 234.5s-75.5 217.5 -75.5 351.5c0 106 15.5 201 46.5 285s74.167 155.667 129.5 215s120.333 104.5 195 135.5s155.667 46.5 243 46.5c121.333 0 223.166 -26.333 305.499 -79
s146.5 -135.667 192.5 -249l-242 -56c-34 55.333 -73.167 97.5 -117.5 126.5s-94.5 43.5 -150.5 43.5c-64 0 -122.333 -18.833 -175 -56.5s-94.667 -91.5 -126 -161.5s-47 -153.333 -47 -250c0 -90.667 13.833 -170 41.5 -238s66.5 -121 116.5 -159s108 -57 174 -57
c56 0 106.167 12.5 150.5 37.5s79.333 60.833 105 107.5s38.5 103 38.5 169h52c0 -108 -12.833 -201.667 -38.5 -281s-65.5 -140.666 -119.5 -183.999s-123.333 -65 -208 -65zM1008 -0.000976562l-34 286v224l-292 6v150h518v-666h-192zM526.095 1631.4
c0 44.4785 15.0439 81.7617 45.1328 111.85c30.0879 30.0889 68.6797 45.1328 115.774 45.1328s86.3398 -15.0439 117.736 -45.1328c31.3965 -30.0879 47.0947 -67.3711 47.0947 -111.85c0 -43.8242 -15.6982 -80.29 -47.0947 -109.397
c-31.3965 -29.1064 -70.6416 -43.6602 -117.736 -43.6602s-85.6865 14.7168 -115.774 44.1504c-30.0889 29.4346 -45.1328 65.7373 -45.1328 108.907z" />
    <glyph glyph-name="gdotaccent" unicode="&#x121;" horiz-adv-x="1164" 
d="M560 -502c-111.333 0 -206.5 15.332 -285.5 45.999s-139.5 70.834 -181.5 120.501s-63 103.5 -63 161.5c0 68.667 25 121.834 75 159.501s113 56.5 189 56.5l172 -64c-65.333 0 -115.666 -12.333 -150.999 -37s-53 -59 -53 -103c0 -46 26.5 -82.833 79.5 -110.5
s125.833 -41.5 218.5 -41.5c67.333 0 125.666 10 174.999 30s87.5 46 114.5 78s40.5 66 40.5 102c0 24 -8 43.667 -24 59s-40.667 23 -74 23h-326c-65.333 0 -124.833 10.5 -178.5 31.5s-96.334 49.333 -128.001 85s-47.5 75.5 -47.5 119.5
c0 40.667 11.333 75.834 34 105.501s53.5 52.5 92.5 68.5s82.833 24 131.5 24l60 -78c-19.333 0 -37.833 -3.83301 -55.5 -11.5s-32.167 -18.834 -43.5 -33.501s-17 -33 -17 -55c0 -26.667 11.333 -48.334 34 -65.001s62 -25 118 -25h326c103.333 0 184.5 -19 243.5 -57
s88.5 -96.333 88.5 -175c0 -70 -23 -136.5 -69 -199.5s-111.167 -114.5 -195.5 -154.5s-184.166 -60 -299.499 -60zM572 299.999c-76.667 0 -146.834 14.5 -210.501 43.5s-114.5 69.5 -152.5 121.5s-57 113 -57 183c0 71.333 19 133.333 57 186s88.833 93.167 152.5 121.5
s133.834 42.5 210.501 42.5c74.667 0 143.667 -14.167 207 -42.5s114.333 -68.833 153 -121.5s58 -114.667 58 -186c0 -70 -19.333 -131 -58 -183s-89.667 -92.5 -153 -121.5s-132.333 -43.5 -207 -43.5zM574 463.999c61.333 0 107.333 17.667 138 53s46 79 46 131
c0 56 -15.5 101 -46.5 135s-77.5 51 -139.5 51c-60 0 -106 -17 -138 -51s-48 -79 -48 -135c0 -52 16.167 -95.667 48.5 -131s78.833 -53 139.5 -53zM916 841.999l-108 61.999c0 58 13.5 108.833 40.5 152.5s63 77.5 108 101.5s94.833 36 149.5 36l-12 -226
c-58 0 -102.167 -10.167 -132.5 -30.5s-45.5 -52.166 -45.5 -95.499zM432.095 1305.4c0 44.4785 15.0439 81.7617 45.1328 111.85c30.0879 30.0889 68.6797 45.1328 115.774 45.1328s86.3398 -15.0439 117.736 -45.1328c31.3965 -30.0879 47.0947 -67.3711 47.0947 -111.85
c0 -43.8242 -15.6982 -80.29 -47.0947 -109.397c-31.3965 -29.1064 -70.6416 -43.6602 -117.736 -43.6602s-85.6865 14.7168 -115.774 44.1504c-30.0889 29.4346 -45.1328 65.7373 -45.1328 108.907z" />
    <glyph glyph-name="uni0122" unicode="&#x122;" horiz-adv-x="1354" 
d="M660 -28c-106 0 -201.667 27.999 -287 83.999s-153.166 134.167 -203.499 234.5s-75.5 217.5 -75.5 351.5c0 106 15.5 201 46.5 285s74.167 155.667 129.5 215s120.333 104.5 195 135.5s155.667 46.5 243 46.5c121.333 0 223.166 -26.333 305.499 -79
s146.5 -135.667 192.5 -249l-242 -56c-34 55.333 -73.167 97.5 -117.5 126.5s-94.5 43.5 -150.5 43.5c-64 0 -122.333 -18.833 -175 -56.5s-94.667 -91.5 -126 -161.5s-47 -153.333 -47 -250c0 -90.667 13.833 -170 41.5 -238s66.5 -121 116.5 -159s108 -57 174 -57
c56 0 106.167 12.5 150.5 37.5s79.333 60.833 105 107.5s38.5 103 38.5 169h52c0 -108 -12.833 -201.667 -38.5 -281s-65.5 -140.666 -119.5 -183.999s-123.333 -65 -208 -65zM1008 -0.000976562l-34 286v224l-292 6v150h518v-666h-192zM630 -449.001l-109.001 56
c32.667 16.667 61.334 35 86.001 55s41.667 43.333 51 70c-25.333 4 -46.333 14 -63 30s-24 36.667 -22 62c2 26.667 13.667 48.834 35 66.501s47 26.5 77 26.5c38 0 67.5 -13.333 88.5 -40s30.167 -59.334 27.5 -98.001c-2 -42.667 -18 -85.167 -48 -127.5
s-71 -75.833 -123 -100.5z" />
    <glyph glyph-name="uni0123" unicode="&#x123;" horiz-adv-x="1164" 
d="M560 -502c-111.333 0 -206.5 15.332 -285.5 45.999s-139.5 70.834 -181.5 120.501s-63 103.5 -63 161.5c0 68.667 25 121.834 75 159.501s113 56.5 189 56.5l172 -64c-65.333 0 -115.666 -12.333 -150.999 -37s-53 -59 -53 -103c0 -46 26.5 -82.833 79.5 -110.5
s125.833 -41.5 218.5 -41.5c67.333 0 125.666 10 174.999 30s87.5 46 114.5 78s40.5 66 40.5 102c0 24 -8 43.667 -24 59s-40.667 23 -74 23h-326c-65.333 0 -124.833 10.5 -178.5 31.5s-96.334 49.333 -128.001 85s-47.5 75.5 -47.5 119.5
c0 40.667 11.333 75.834 34 105.501s53.5 52.5 92.5 68.5s82.833 24 131.5 24l60 -78c-19.333 0 -37.833 -3.83301 -55.5 -11.5s-32.167 -18.834 -43.5 -33.501s-17 -33 -17 -55c0 -26.667 11.333 -48.334 34 -65.001s62 -25 118 -25h326c103.333 0 184.5 -19 243.5 -57
s88.5 -96.333 88.5 -175c0 -70 -23 -136.5 -69 -199.5s-111.167 -114.5 -195.5 -154.5s-184.166 -60 -299.499 -60zM572 299.999c-76.667 0 -146.834 14.5 -210.501 43.5s-114.5 69.5 -152.5 121.5s-57 113 -57 183c0 71.333 19 133.333 57 186s88.833 93.167 152.5 121.5
s133.834 42.5 210.501 42.5c74.667 0 143.667 -14.167 207 -42.5s114.333 -68.833 153 -121.5s58 -114.667 58 -186c0 -70 -19.333 -131 -58 -183s-89.667 -92.5 -153 -121.5s-132.333 -43.5 -207 -43.5zM574 463.999c61.333 0 107.333 17.667 138 53s46 79 46 131
c0 56 -15.5 101 -46.5 135s-77.5 51 -139.5 51c-60 0 -106 -17 -138 -51s-48 -79 -48 -135c0 -52 16.167 -95.667 48.5 -131s78.833 -53 139.5 -53zM916 841.999l-108 61.999c0 58 13.5 108.833 40.5 152.5s63 77.5 108 101.5s94.833 36 149.5 36l-12 -226
c-58 0 -102.167 -10.167 -132.5 -30.5s-45.5 -52.166 -45.5 -95.499zM600 1400l109.001 -56c-32.667 -16.667 -61.334 -35 -86.001 -55s-41.667 -43.333 -51 -70c25.333 -4 46.333 -14 63 -30s24 -36.667 22 -62c-2 -26.667 -13.667 -48.834 -35 -66.501
s-47 -26.5 -77 -26.5c-38 0 -67.5 13.333 -88.5 40s-30.167 59.334 -27.5 98.001c2 42.667 18 85.167 48 127.5s71 75.833 123 100.5z" />
    <glyph glyph-name="Hbar" unicode="&#x126;" horiz-adv-x="1411" 
d="M186 1298h236v-604h566v604h236v-1298h-236v487h-566v-487h-236v1298zM306 842v172h811v-172h-811z" />
    <glyph glyph-name="hbar" unicode="&#x127;" horiz-adv-x="1246" 
d="M852 0l0.000976562 568.001c0 72 -17.333 126.333 -52 163s-80 55 -136 55c-47.333 0 -89.166 -13 -125.499 -39s-64.833 -65.167 -85.5 -117.5s-31 -117.5 -31 -195.5h-78c0 126 15.667 230.833 47 314.5s75.666 146.167 132.999 187.5s124.666 62 201.999 62
c80 0 146.833 -17.833 200.5 -53.5s94 -85.834 121 -150.501s40.5 -140 40.5 -226v-568h-236zM186.001 0.000976562v1372h236v-1372h-236zM64.001 1071v154h524v-154h-524z" />
    <glyph glyph-name="Imacron" unicode="&#x12a;" horiz-adv-x="609" 
d="M186 0v1298h236v-1298h-236zM76.5928 1687h456.042v-193h-456.042v193z" />
    <glyph glyph-name="imacron" unicode="&#x12b;" horiz-adv-x="656" 
d="M206 0v974h236v-974h-236zM95.5928 1361h456.042v-193h-456.042v193z" />
    <glyph glyph-name="Iogonek" unicode="&#x12e;" horiz-adv-x="609" 
d="M186 0v1298h236v-1298h-236zM550 -325c-43.333 -23.333 -87.501 -40.999 -132.501 -52.999s-89.167 -18 -132.5 -18c-71.333 0 -130.333 16 -177 48s-70 77.667 -70 137c0 48 17.167 94.833 51.5 140.5s84.833 82.167 151.5 109.5l180 -39
c-68.667 -24 -123.167 -49.833 -163.5 -77.5s-60.5 -58.5 -60.5 -92.5c0 -26 11 -44.167 33 -54.5s46.333 -15.5 73 -15.5c28.667 0 57.834 4.66699 87.501 14s64.5 24.666 104.5 45.999z" />
    <glyph glyph-name="iogonek" unicode="&#x12f;" horiz-adv-x="656" 
d="M206 0v974h236v-974h-236zM173.095 1305.4c0 44.4785 15.0439 81.7617 45.1328 111.85c30.0879 30.0889 68.6797 45.1328 115.774 45.1328s86.3398 -15.0439 117.736 -45.1328c31.3965 -30.0879 47.0947 -67.3711 47.0947 -111.85
c0 -43.8242 -15.6982 -80.29 -47.0947 -109.397c-31.3965 -29.1064 -70.6416 -43.6602 -117.736 -43.6602s-85.6865 14.7168 -115.774 44.1504c-30.0889 29.4346 -45.1328 65.7373 -45.1328 108.907zM570 -325c-43.333 -23.333 -87.501 -40.999 -132.501 -52.999
s-89.167 -18 -132.5 -18c-71.333 0 -130.333 16 -177 48s-70 77.667 -70 137c0 48 17.167 94.833 51.5 140.5s84.833 82.167 151.5 109.5l180 -39c-68.667 -24 -123.167 -49.833 -163.5 -77.5s-60.5 -58.5 -60.5 -92.5c0 -26 11 -44.167 33 -54.5s46.333 -15.5 73 -15.5
c28.667 0 57.834 4.66699 87.501 14s64.5 24.666 104.5 45.999z" />
    <glyph glyph-name="Idotaccent" unicode="&#x130;" horiz-adv-x="609" 
d="M186 0v1298h236v-1298h-236zM153.095 1631.4c0 44.4785 15.0439 81.7617 45.1328 111.85c30.0879 30.0889 68.6797 45.1328 115.774 45.1328s86.3398 -15.0439 117.736 -45.1328c31.3965 -30.0879 47.0947 -67.3711 47.0947 -111.85
c0 -43.8242 -15.6982 -80.29 -47.0947 -109.397c-31.3965 -29.1064 -70.6416 -43.6602 -117.736 -43.6602s-85.6865 14.7168 -115.774 44.1504c-30.0889 29.4346 -45.1328 65.7373 -45.1328 108.907z" />
    <glyph glyph-name="dotlessi" unicode="&#x131;" horiz-adv-x="656" 
d="M206 0v974h236v-974h-236z" />
    <glyph glyph-name="uni0136" unicode="&#x136;" horiz-adv-x="1308" 
d="M936 1298h324l-856 -876v322zM648 762l648 -762h-304l-508 608zM186 1298h238v-1298h-238v1298zM607 -449l-109.001 56c32.667 16.667 61.334 35 86.001 55s41.667 43.333 51 70c-25.333 4 -46.333 14 -63 30s-24 36.667 -22 62c2 26.667 13.667 48.834 35 66.501
s47 26.5 77 26.5c38 0 67.5 -13.333 88.5 -40s30.167 -59.334 27.5 -98.001c-2 -42.667 -18 -85.167 -48 -127.5s-71 -75.833 -123 -100.5z" />
    <glyph glyph-name="uni0137" unicode="&#x137;" horiz-adv-x="1183" 
d="M186 0v1372h236v-1372h-236zM390 602l416 368h320l-736 -612v244zM862 0l-434 618l224 54l498 -672h-288zM545 -449l-109.001 56c32.667 16.667 61.334 35 86.001 55s41.667 43.333 51 70c-25.333 4 -46.333 14 -63 30s-24 36.667 -22 62
c2 26.667 13.667 48.834 35 66.501s47 26.5 77 26.5c38 0 67.5 -13.333 88.5 -40s30.167 -59.334 27.5 -98.001c-2 -42.667 -18 -85.167 -48 -127.5s-71 -75.833 -123 -100.5z" />
    <glyph glyph-name="Lacute" unicode="&#x139;" horiz-adv-x="988" 
d="M422 1298v-1092h534v-206h-770v1298h236zM456 1440l-113 92l374 373l158 -128z" />
    <glyph glyph-name="lacute" unicode="&#x13a;" horiz-adv-x="609" 
d="M186 0v1372h236v-1372h-236zM240 1541l-113 92l374 373l158 -128z" />
    <glyph glyph-name="uni013B" unicode="&#x13b;" horiz-adv-x="988" 
d="M422 1298v-1092h534v-206h-770v1298h236zM447 -449l-109.001 56c32.667 16.667 61.334 35 86.001 55s41.667 43.333 51 70c-25.333 4 -46.333 14 -63 30s-24 36.667 -22 62c2 26.667 13.667 48.834 35 66.501s47 26.5 77 26.5c38 0 67.5 -13.333 88.5 -40
s30.167 -59.334 27.5 -98.001c-2 -42.667 -18 -85.167 -48 -127.5s-71 -75.833 -123 -100.5z" />
    <glyph glyph-name="uni013C" unicode="&#x13c;" horiz-adv-x="609" 
d="M186 0v1372h236v-1372h-236zM257 -449l-109.001 56c32.667 16.667 61.334 35 86.001 55s41.667 43.333 51 70c-25.333 4 -46.333 14 -63 30s-24 36.667 -22 62c2 26.667 13.667 48.834 35 66.501s47 26.5 77 26.5c38 0 67.5 -13.333 88.5 -40
s30.167 -59.334 27.5 -98.001c-2 -42.667 -18 -85.167 -48 -127.5s-71 -75.833 -123 -100.5z" />
    <glyph glyph-name="Lcaron" unicode="&#x13d;" horiz-adv-x="988" 
d="M422 1298v-1092h534v-206h-770v1298h236zM528 1442l-356 305l139 110l258 -260h-83l260 260l139 -110z" />
    <glyph glyph-name="lcaron" unicode="&#x13e;" horiz-adv-x="609" 
d="M186 0v1372h236v-1372h-236zM312 1543l-356 305l139 110l258 -260h-83l260 260l139 -110z" />
    <glyph glyph-name="Lslash" unicode="&#x141;" horiz-adv-x="988" 
d="M73 628l-36 202l546 91l36 -202zM422 1298v-1092h534v-206h-770v1298h236z" />
    <glyph glyph-name="lslash" unicode="&#x142;" horiz-adv-x="609" 
d="M61 721l-30 150l545 91l30 -150zM186 0v1372h236v-1372h-236z" />
    <glyph glyph-name="Nacute" unicode="&#x143;" horiz-adv-x="1434" 
d="M182 1298h258l590 -926h-18v926h236v-1298h-240l-628 982h38v-982h-236v1298zM652 1440l-113 92l374 373l158 -128z" />
    <glyph glyph-name="nacute" unicode="&#x144;" horiz-adv-x="1246" 
d="M852 0l0.000976562 568.001c0 72 -17.333 126.333 -52 163s-80 55 -136 55c-47.333 0 -89.166 -13 -125.499 -39s-64.833 -65.167 -85.5 -117.5s-31 -117.5 -31 -195.5h-78c0 126 15.667 230.833 47 314.5s75.666 146.167 132.999 187.5s124.666 62 201.999 62
c80 0 146.833 -17.833 200.5 -53.5s94 -85.834 121 -150.501s40.5 -140 40.5 -226v-568h-236zM186.001 0.000976562v970h206l30 -192v-778h-236zM573.001 1121l-113 92l374 373l158 -128z" />
    <glyph glyph-name="uni0145" unicode="&#x145;" horiz-adv-x="1434" 
d="M182 1298h258l590 -926h-18v926h236v-1298h-240l-628 982h38v-982h-236v1298zM670 -449l-109.001 56c32.667 16.667 61.334 35 86.001 55s41.667 43.333 51 70c-25.333 4 -46.333 14 -63 30s-24 36.667 -22 62c2 26.667 13.667 48.834 35 66.501s47 26.5 77 26.5
c38 0 67.5 -13.333 88.5 -40s30.167 -59.334 27.5 -98.001c-2 -42.667 -18 -85.167 -48 -127.5s-71 -75.833 -123 -100.5z" />
    <glyph glyph-name="uni0146" unicode="&#x146;" horiz-adv-x="1246" 
d="M852 0l0.000976562 568.001c0 72 -17.333 126.333 -52 163s-80 55 -136 55c-47.333 0 -89.166 -13 -125.499 -39s-64.833 -65.167 -85.5 -117.5s-31 -117.5 -31 -195.5h-78c0 126 15.667 230.833 47 314.5s75.666 146.167 132.999 187.5s124.666 62 201.999 62
c80 0 146.833 -17.833 200.5 -53.5s94 -85.834 121 -150.501s40.5 -140 40.5 -226v-568h-236zM186.001 0.000976562v970h206l30 -192v-778h-236zM576.001 -448.999l-109.001 56c32.667 16.667 61.334 35 86.001 55s41.667 43.333 51 70c-25.333 4 -46.333 14 -63 30
s-24 36.667 -22 62c2 26.667 13.667 48.834 35 66.501s47 26.5 77 26.5c38 0 67.5 -13.333 88.5 -40s30.167 -59.334 27.5 -98.001c-2 -42.667 -18 -85.167 -48 -127.5s-71 -75.833 -123 -100.5z" />
    <glyph glyph-name="Ncaron" unicode="&#x147;" horiz-adv-x="1434" 
d="M182 1298h258l590 -926h-18v926h236v-1298h-240l-628 982h38v-982h-236v1298zM724 1442l-356 305l139 110l258 -260h-83l260 260l139 -110z" />
    <glyph glyph-name="ncaron" unicode="&#x148;" horiz-adv-x="1246" 
d="M852 0l0.000976562 568.001c0 72 -17.333 126.333 -52 163s-80 55 -136 55c-47.333 0 -89.166 -13 -125.499 -39s-64.833 -65.167 -85.5 -117.5s-31 -117.5 -31 -195.5h-78c0 126 15.667 230.833 47 314.5s75.666 146.167 132.999 187.5s124.666 62 201.999 62
c80 0 146.833 -17.833 200.5 -53.5s94 -85.834 121 -150.501s40.5 -140 40.5 -226v-568h-236zM186.001 0.000976562v970h206l30 -192v-778h-236zM645.001 1123l-356 305l139 110l258 -260h-83l260 260l139 -110z" />
    <glyph glyph-name="Eng" unicode="&#x14a;" horiz-adv-x="1434" 
d="M920 -502c-52.667 0 -101.167 5.66797 -145.5 17.001s-89.5 26.333 -135.5 45l5 204c34 -16.667 69.833 -30.834 107.5 -42.501s74.5 -17.5 110.5 -17.5c48.667 0 87.5 14 116.5 42s43.167 75.333 42.5 142l-8 779h235v-783c0 -138.667 -28.833 -237.667 -86.5 -297
s-138.167 -89 -241.5 -89zM182 1298h258l590 -926h-18v926h236v-1298l-83 -240l-785 1222h38v-982h-236v1298z" />
    <glyph glyph-name="eng" unicode="&#x14b;" horiz-adv-x="1277" 
d="M761 -502c-52 0 -100.168 5.66797 -144.501 17.001s-89.5 26.333 -135.5 45l4 204c34 -16.667 69.667 -30.834 107 -42.501s74.333 -17.5 111 -17.5c48.667 0 85.834 14 111.501 42s38.5 75.333 38.5 142v620h236v-624c0 -138.667 -28.833 -237.667 -86.5 -297
s-138.167 -89 -241.5 -89zM851.999 0.000976562l0.000976562 568.001c0 72 -17.333 126.333 -52 163s-80 55 -136 55c-47.333 0 -89.166 -13 -125.499 -39s-64.833 -65.167 -85.5 -117.5s-31 -117.5 -31 -195.5h-78c0 126 15.667 230.833 47 314.5
s75.666 146.167 132.999 187.5s124.666 62 201.999 62c80 0 146.833 -17.833 200.5 -53.5s94 -85.834 121 -150.501s40.5 -140 40.5 -226v-568h-236zM186 0.00195312v970h206l30 -192v-778h-236z" />
    <glyph glyph-name="Omacron" unicode="&#x14c;" horiz-adv-x="1365" 
d="M682 -28c-115.333 0 -217.166 25.333 -305.499 76s-157.5 126.334 -207.5 227.001s-75 225.667 -75 375c0 152 25 277.833 75 377.5s119.167 174 207.5 223s190.166 73.5 305.499 73.5c116 0 218.333 -25.167 307 -75.5s158 -125.5 208 -225.5s75 -224.333 75 -373
c0 -151.333 -25 -277.333 -75 -378s-119.333 -175.834 -208 -225.501s-191 -74.5 -307 -74.5zM682 186c106 0 190.167 40 252.5 120s93.5 195.333 93.5 346c0 145.333 -31.167 258.333 -93.5 339s-146.5 121 -252.5 121c-104 0 -187.333 -40.5 -250 -121.5
s-94 -194.5 -94 -340.5c0 -150 31.333 -264.833 94 -344.5s146 -119.5 250 -119.5zM341 1687h691v-193h-691v193z" />
    <glyph glyph-name="omacron" unicode="&#x14d;" horiz-adv-x="1132" 
d="M568 -28c-88.667 0 -168.834 19 -240.501 57s-128.5 94.833 -170.5 170.5s-63 170.5 -63 284.5c0 116 21 212 63 288s98.833 132.667 170.5 170s151.834 56 240.501 56c87.333 0 166.5 -18.667 237.5 -56s127.5 -94 169.5 -170s63 -172 63 -288
c0 -114 -21 -208.833 -63 -284.5s-98.5 -132.5 -169.5 -170.5s-150.167 -57 -237.5 -57zM560 178c46.667 0 88.167 11.5 124.5 34.5s65 57.167 86 102.5s31.5 101.666 31.5 168.999c0 102.667 -20.167 180 -60.5 232s-95.5 78 -165.5 78c-47.333 0 -89.333 -11.5 -126 -34.5
s-65.5 -57.5 -86.5 -103.5s-31.5 -103.333 -31.5 -172c0 -101.333 20.5 -177.666 61.5 -228.999s96.5 -77 166.5 -77zM221 1361h691v-193h-691v193z" />
    <glyph glyph-name="Ohungarumlaut" unicode="&#x150;" horiz-adv-x="1365" 
d="M682 -28c-115.333 0 -217.166 25.333 -305.499 76s-157.5 126.334 -207.5 227.001s-75 225.667 -75 375c0 152 25 277.833 75 377.5s119.167 174 207.5 223s190.166 73.5 305.499 73.5c116 0 218.333 -25.167 307 -75.5s158 -125.5 208 -225.5s75 -224.333 75 -373
c0 -151.333 -25 -277.333 -75 -378s-119.333 -175.834 -208 -225.501s-191 -74.5 -307 -74.5zM682 186c106 0 190.167 40 252.5 120s93.5 195.333 93.5 346c0 145.333 -31.167 258.333 -93.5 339s-146.5 121 -252.5 121c-104 0 -187.333 -40.5 -250 -121.5
s-94 -194.5 -94 -340.5c0 -150 31.333 -264.833 94 -344.5s146 -119.5 250 -119.5zM866 1434l-118 21l35 339l165 -39zM596 1449l-121 17l12 342l168 -28z" />
    <glyph glyph-name="ohungarumlaut" unicode="&#x151;" horiz-adv-x="1132" 
d="M568 -28c-88.667 0 -168.834 19 -240.501 57s-128.5 94.833 -170.5 170.5s-63 170.5 -63 284.5c0 116 21 212 63 288s98.833 132.667 170.5 170s151.834 56 240.501 56c87.333 0 166.5 -18.667 237.5 -56s127.5 -94 169.5 -170s63 -172 63 -288
c0 -114 -21 -208.833 -63 -284.5s-98.5 -132.5 -169.5 -170.5s-150.167 -57 -237.5 -57zM560 178c46.667 0 88.167 11.5 124.5 34.5s65 57.167 86 102.5s31.5 101.666 31.5 168.999c0 102.667 -20.167 180 -60.5 232s-95.5 78 -165.5 78c-47.333 0 -89.333 -11.5 -126 -34.5
s-65.5 -57.5 -86.5 -103.5s-31.5 -103.333 -31.5 -172c0 -101.333 20.5 -177.666 61.5 -228.999s96.5 -77 166.5 -77zM746 1108l-118 21l35 339l165 -39zM476 1123l-121 17l12 342l168 -28z" />
    <glyph glyph-name="OE" unicode="&#x152;" horiz-adv-x="1791" 
d="M652 -28c-108 0 -203.999 25.5 -287.999 76.5s-150 127 -198 228s-72 226.5 -72 376.5c0 150.667 24 275.5 72 374.5s114 173.167 198 222.5s179.667 74 287 74c84.667 0 160.167 -13 226.5 -39s117.833 -62.667 154.5 -110l-137 -118c-32 16.667 -68.5 30 -109.5 40
s-81.5 15 -121.5 15c-102.667 0 -182.667 -40.667 -240 -122s-86 -196 -86 -344c0 -145.333 28.667 -258.333 86 -339s138.666 -121 243.999 -121c40.667 0 80.5 5.33301 119.5 16s77.167 25 114.5 43l130 -151c-36.667 -32.667 -88 -61.167 -154 -85.5
s-141.333 -36.5 -226 -36.5zM885.001 0v1298h751v-204h-568l46 54v-449l-46 53h532v-204h-532l46 53v-448l-46 53h568v-206h-751z" />
    <glyph glyph-name="oe" unicode="&#x153;" horiz-adv-x="1693" 
d="M545.959 -28c-84.4453 0 -160.796 19 -229.051 57s-122.383 94.833 -162.384 170.5c-40 75.667 -60 170.5 -60 284.5c0 116 20 212 60 288c40.001 76 94.1289 132.667 162.384 170s144.605 56 229.051 56c83.1758 0 158.573 -18.667 226.193 -56
s121.431 -94 161.432 -170s60.001 -172 60.001 -288c0 -114 -20 -208.833 -60.001 -284.5s-93.8115 -132.5 -161.432 -170.5s-143.018 -57 -226.193 -57zM538.34 178c44.4453 0 83.9707 11.5 118.574 34.5s61.9053 57.167 81.9053 102.5s30 101.666 30 168.999
c0 102.667 -19.2061 180 -57.6191 232s-90.9531 78 -157.62 78c-45.0801 0 -85.0811 -11.5 -120.002 -34.5s-62.3818 -57.5 -82.3828 -103.5c-20 -46 -30 -103.333 -30 -172c0 -101.333 19.5244 -177.666 58.5723 -228.999s91.9053 -77 158.572 -77zM1200.91 -28
c-78.7314 0 -150.792 21.333 -216.189 64s-117.779 102.5 -157.145 179.5s-59.0479 167.167 -59.0479 270.5c0 106.667 19.5234 198.334 58.5713 275.001s91.2705 135.334 156.668 176.001s137.779 61 217.146 61c73.6514 0 137.303 -15.5 190.954 -46.5
s96.8262 -73 129.525 -126c32.6982 -53 54.7617 -112.833 66.1904 -179.5s12.0635 -135.334 1.9043 -206.001h-641.913v128h482.863l-43.8096 -30c1.9043 31.333 0.475586 63 -4.28613 95s-13.8096 61.333 -27.1426 88c-13.334 26.667 -32.2236 48.167 -56.668 64.5
s-55.7148 24.5 -93.8105 24.5c-45.7148 0 -84.4453 -12 -116.191 -36c-31.7471 -24 -55.875 -56.667 -72.3838 -98c-16.5078 -41.333 -24.7617 -88 -24.7617 -140v-94c0 -54.667 7.77832 -103 23.334 -145s38.7305 -75 69.5244 -99s69.6836 -36 116.669 -36
c43.8096 0 80.6357 10.667 110.478 32s48.8896 53.333 57.1436 96h226.669c-9.52344 -62.667 -31.9043 -117.834 -67.1436 -165.501c-35.2383 -47.667 -80.7939 -85 -136.668 -112s-119.367 -40.5 -190.479 -40.5z" />
    <glyph glyph-name="Racute" unicode="&#x154;" horiz-adv-x="1287" 
d="M186 0v1298h480c155.333 0 274.5 -36.333 357.5 -109s124.5 -169 124.5 -289c0 -118 -41.5 -213.167 -124.5 -285.5s-202.167 -108.5 -357.5 -108.5h-244v-506h-236zM888 0l-344 608h252l400 -608h-308zM422 664l220 -0.000976562c86.667 0 152.334 19.833 197.001 59.5
s67 91.167 67 154.5c0 64.667 -20.333 116.834 -61 156.501s-100.334 59.5 -179.001 59.5h-244v-430zM579 1440l-113 92l374 373l158 -128z" />
    <glyph glyph-name="racute" unicode="&#x155;" horiz-adv-x="785" 
d="M186 0v974h236v-974h-236zM364 426c0 127.333 14.334 232.668 43.001 316.001s67.167 145.166 115.5 185.499s102.166 60.5 161.499 60.5c16 0 31.167 -1 45.5 -3s28.5 -5 42.5 -9l-4 -236c-17.333 4 -36 7.33301 -56 10s-38 4 -54 4c-52 0 -95.5 -12.5 -130.5 -37.5
s-61.333 -61.833 -79 -110.5s-26.5 -108.667 -26.5 -180h-58zM415.001 1114l-113 92l374 373l158 -128z" />
    <glyph glyph-name="uni0156" unicode="&#x156;" horiz-adv-x="1287" 
d="M186 0v1298h480c155.333 0 274.5 -36.333 357.5 -109s124.5 -169 124.5 -289c0 -118 -41.5 -213.167 -124.5 -285.5s-202.167 -108.5 -357.5 -108.5h-244v-506h-236zM888 0l-344 608h252l400 -608h-308zM422 664l220 -0.000976562c86.667 0 152.334 19.833 197.001 59.5
s67 91.167 67 154.5c0 64.667 -20.333 116.834 -61 156.501s-100.334 59.5 -179.001 59.5h-244v-430zM597 -449.001l-109.001 56c32.667 16.667 61.334 35 86.001 55s41.667 43.333 51 70c-25.333 4 -46.333 14 -63 30s-24 36.667 -22 62c2 26.667 13.667 48.834 35 66.501
s47 26.5 77 26.5c38 0 67.5 -13.333 88.5 -40s30.167 -59.334 27.5 -98.001c-2 -42.667 -18 -85.167 -48 -127.5s-71 -75.833 -123 -100.5z" />
    <glyph glyph-name="uni0157" unicode="&#x157;" horiz-adv-x="785" 
d="M186 0v974h236v-974h-236zM364 426c0 127.333 14.334 232.668 43.001 316.001s67.167 145.166 115.5 185.499s102.166 60.5 161.499 60.5c16 0 31.167 -1 45.5 -3s28.5 -5 42.5 -9l-4 -236c-17.333 4 -36 7.33301 -56 10s-38 4 -54 4c-52 0 -95.5 -12.5 -130.5 -37.5
s-61.333 -61.833 -79 -110.5s-26.5 -108.667 -26.5 -180h-58zM465.001 -444.998l-109.001 56c32.667 16.667 61.334 35 86.001 55s41.667 43.333 51 70c-25.333 4 -46.333 14 -63 30s-24 36.667 -22 62c2 26.667 13.667 48.834 35 66.501s47 26.5 77 26.5
c38 0 67.5 -13.333 88.5 -40s30.167 -59.334 27.5 -98.001c-2 -42.667 -18 -85.167 -48 -127.5s-71 -75.833 -123 -100.5z" />
    <glyph glyph-name="Rcaron" unicode="&#x158;" horiz-adv-x="1287" 
d="M186 0v1298h480c155.333 0 274.5 -36.333 357.5 -109s124.5 -169 124.5 -289c0 -118 -41.5 -213.167 -124.5 -285.5s-202.167 -108.5 -357.5 -108.5h-244v-506h-236zM888 0l-344 608h252l400 -608h-308zM422 664l220 -0.000976562c86.667 0 152.334 19.833 197.001 59.5
s67 91.167 67 154.5c0 64.667 -20.333 116.834 -61 156.501s-100.334 59.5 -179.001 59.5h-244v-430zM651 1442l-356 305l139 110l258 -260h-83l260 260l139 -110z" />
    <glyph glyph-name="rcaron" unicode="&#x159;" horiz-adv-x="785" 
d="M186 0v974h236v-974h-236zM364 426c0 127.333 14.334 232.668 43.001 316.001s67.167 145.166 115.5 185.499s102.166 60.5 161.499 60.5c16 0 31.167 -1 45.5 -3s28.5 -5 42.5 -9l-4 -236c-17.333 4 -36 7.33301 -56 10s-38 4 -54 4c-52 0 -95.5 -12.5 -130.5 -37.5
s-61.333 -61.833 -79 -110.5s-26.5 -108.667 -26.5 -180h-58zM487.001 1116l-356 305l139 110l258 -260h-83l260 260l139 -110z" />
    <glyph glyph-name="Sacute" unicode="&#x15a;" horiz-adv-x="1275" 
d="M638 -28c-90 0 -172.832 15.666 -248.499 46.999s-137 79 -184 143s-72.167 145.333 -75.5 244h232c0 -50 12.333 -91 37 -123s57.834 -55.833 99.501 -71.5s87.5 -23.5 137.5 -23.5c48 0 90.833 6.33301 128.5 19s67.334 30.834 89.001 54.501s32.5 51.834 32.5 84.501
c0 43.333 -13.167 77.333 -39.5 102s-68.5 47.334 -126.5 68.001l-256 102c-100 39.333 -176.667 85 -230 137s-80 123.667 -80 215c0 105.333 41.667 190.666 125 255.999s199.666 98 348.999 98c145.333 0 257.666 -33.833 336.999 -101.5s124.333 -161.834 135 -282.501
h-232c-8.66699 51.333 -32 92.5 -70 123.5s-94.667 46.5 -170 46.5c-66.667 0 -119.334 -13.833 -158.001 -41.5s-58 -62.5 -58 -104.5c0 -36 12.167 -64.5 36.5 -85.5s62.166 -41.167 113.499 -60.5l284 -110c96 -37.333 169.667 -84.333 221 -141s77 -127.667 77 -213
c0 -78 -19.667 -145.5 -59 -202.5s-96.666 -101.167 -171.999 -132.5s-167 -47 -275 -47zM573.001 1440l-113 92l374 373l158 -128z" />
    <glyph glyph-name="sacute" unicode="&#x15b;" horiz-adv-x="1055" 
d="M548 -28c-93.333 0 -173.503 12.833 -240.503 38.5s-118.5 62.667 -154.5 111s-54.333 106.5 -55 174.5h218c2 -48 21 -83 57 -105s85 -33 147 -33c34 0 64.167 5 90.5 15s46.833 23.667 61.5 41s22 36.666 22 57.999c0 27.333 -9.83301 48.833 -29.5 64.5
s-51.167 30.167 -94.5 43.5l-212 76c-76 27.333 -134.333 63.333 -175 108s-61 98 -61 160c0 82 37.167 148.167 111.5 198.5s173.833 75.5 298.5 75.5c124 0 219.833 -27.167 287.5 -81.5s102.5 -123.166 104.5 -206.499h-222c-3.33301 32 -18.666 57.333 -45.999 76
s-68.666 28 -123.999 28c-50 0 -89.167 -10.167 -117.5 -30.5s-42.5 -44.166 -42.5 -71.499c0 -46 39.333 -80.667 118 -104l230 -86c74.667 -25.333 132.667 -58 174 -98s62 -90.667 62 -152c0 -51.333 -17.167 -99.833 -51.5 -145.5s-82.166 -82.834 -143.499 -111.501
s-132.333 -43 -213 -43zM462.997 1114l-113 92l374 373l158 -128z" />
    <glyph glyph-name="Scedilla" unicode="&#x15e;" horiz-adv-x="1275" 
d="M638 -28c-90 0 -172.832 15.666 -248.499 46.999s-137 79 -184 143s-72.167 145.333 -75.5 244h232c0 -50 12.333 -91 37 -123s57.834 -55.833 99.501 -71.5s87.5 -23.5 137.5 -23.5c48 0 90.833 6.33301 128.5 19s67.334 30.834 89.001 54.501s32.5 51.834 32.5 84.501
c0 43.333 -13.167 77.333 -39.5 102s-68.5 47.334 -126.5 68.001l-256 102c-100 39.333 -176.667 85 -230 137s-80 123.667 -80 215c0 105.333 41.667 190.666 125 255.999s199.666 98 348.999 98c145.333 0 257.666 -33.833 336.999 -101.5s124.333 -161.834 135 -282.501
h-232c-8.66699 51.333 -32 92.5 -70 123.5s-94.667 46.5 -170 46.5c-66.667 0 -119.334 -13.833 -158.001 -41.5s-58 -62.5 -58 -104.5c0 -36 12.167 -64.5 36.5 -85.5s62.166 -41.167 113.499 -60.5l284 -110c96 -37.333 169.667 -84.333 221 -141s77 -127.667 77 -213
c0 -78 -19.667 -145.5 -59 -202.5s-96.666 -101.167 -171.999 -132.5s-167 -47 -275 -47zM443.001 -367.001l32.999 83.002c45.333 -21.333 85.5 -33.5 120.5 -36.5s63 1.33301 84 13s32.5 28.167 34.5 49.5c2 18.667 -4.5 35.167 -19.5 49.5s-36 27.166 -63 38.499
s-59.167 21 -96.5 29l78 220l104 -15l-71 -199l-31 60c64.667 -10 117 -25 157 -45s68.833 -43 86.5 -69s25.5 -53.667 23.5 -83c-2.66699 -38.667 -19.167 -69.834 -49.5 -93.501s-68.166 -39.5 -113.499 -47.5s-92.5 -8.33301 -141.5 -1s-94.167 23 -135.5 47z" />
    <glyph glyph-name="scedilla" unicode="&#x15f;" horiz-adv-x="1055" 
d="M548 -28c-93.333 0 -173.503 12.833 -240.503 38.5s-118.5 62.667 -154.5 111s-54.333 106.5 -55 174.5h218c2 -48 21 -83 57 -105s85 -33 147 -33c34 0 64.167 5 90.5 15s46.833 23.667 61.5 41s22 36.666 22 57.999c0 27.333 -9.83301 48.833 -29.5 64.5
s-51.167 30.167 -94.5 43.5l-212 76c-76 27.333 -134.333 63.333 -175 108s-61 98 -61 160c0 82 37.167 148.167 111.5 198.5s173.833 75.5 298.5 75.5c124 0 219.833 -27.167 287.5 -81.5s102.5 -123.166 104.5 -206.499h-222c-3.33301 32 -18.666 57.333 -45.999 76
s-68.666 28 -123.999 28c-50 0 -89.167 -10.167 -117.5 -30.5s-42.5 -44.166 -42.5 -71.499c0 -46 39.333 -80.667 118 -104l230 -86c74.667 -25.333 132.667 -58 174 -98s62 -90.667 62 -152c0 -51.333 -17.167 -99.833 -51.5 -145.5s-82.166 -82.834 -143.499 -111.501
s-132.333 -43 -213 -43zM331.997 -366l32.999 83.002c45.333 -21.333 85.5 -33.5 120.5 -36.5s63 1.33301 84 13s32.5 28.167 34.5 49.5c2 18.667 -4.5 35.167 -19.5 49.5s-36 27.166 -63 38.499s-59.167 21 -96.5 29l78 220l104 -15l-71 -199l-31 60
c64.667 -10 117 -25 157 -45s68.833 -43 86.5 -69s25.5 -53.667 23.5 -83c-2.66699 -38.667 -19.167 -69.834 -49.5 -93.501s-68.166 -39.5 -113.499 -47.5s-92.5 -8.33301 -141.5 -1s-94.167 23 -135.5 47z" />
    <glyph glyph-name="Scaron" unicode="&#x160;" horiz-adv-x="1275" 
d="M638 -28c-90 0 -172.832 15.666 -248.499 46.999s-137 79 -184 143s-72.167 145.333 -75.5 244h232c0 -50 12.333 -91 37 -123s57.834 -55.833 99.501 -71.5s87.5 -23.5 137.5 -23.5c48 0 90.833 6.33301 128.5 19s67.334 30.834 89.001 54.501s32.5 51.834 32.5 84.501
c0 43.333 -13.167 77.333 -39.5 102s-68.5 47.334 -126.5 68.001l-256 102c-100 39.333 -176.667 85 -230 137s-80 123.667 -80 215c0 105.333 41.667 190.666 125 255.999s199.666 98 348.999 98c145.333 0 257.666 -33.833 336.999 -101.5s124.333 -161.834 135 -282.501
h-232c-8.66699 51.333 -32 92.5 -70 123.5s-94.667 46.5 -170 46.5c-66.667 0 -119.334 -13.833 -158.001 -41.5s-58 -62.5 -58 -104.5c0 -36 12.167 -64.5 36.5 -85.5s62.166 -41.167 113.499 -60.5l284 -110c96 -37.333 169.667 -84.333 221 -141s77 -127.667 77 -213
c0 -78 -19.667 -145.5 -59 -202.5s-96.666 -101.167 -171.999 -132.5s-167 -47 -275 -47zM645.001 1442l-356 305l139 110l258 -260h-83l260 260l139 -110z" />
    <glyph glyph-name="scaron" unicode="&#x161;" horiz-adv-x="1055" 
d="M548 -28c-93.333 0 -173.503 12.833 -240.503 38.5s-118.5 62.667 -154.5 111s-54.333 106.5 -55 174.5h218c2 -48 21 -83 57 -105s85 -33 147 -33c34 0 64.167 5 90.5 15s46.833 23.667 61.5 41s22 36.666 22 57.999c0 27.333 -9.83301 48.833 -29.5 64.5
s-51.167 30.167 -94.5 43.5l-212 76c-76 27.333 -134.333 63.333 -175 108s-61 98 -61 160c0 82 37.167 148.167 111.5 198.5s173.833 75.5 298.5 75.5c124 0 219.833 -27.167 287.5 -81.5s102.5 -123.166 104.5 -206.499h-222c-3.33301 32 -18.666 57.333 -45.999 76
s-68.666 28 -123.999 28c-50 0 -89.167 -10.167 -117.5 -30.5s-42.5 -44.166 -42.5 -71.499c0 -46 39.333 -80.667 118 -104l230 -86c74.667 -25.333 132.667 -58 174 -98s62 -90.667 62 -152c0 -51.333 -17.167 -99.833 -51.5 -145.5s-82.166 -82.834 -143.499 -111.501
s-132.333 -43 -213 -43zM534.997 1116l-356 305l139 110l258 -260h-83l260 260l139 -110z" />
    <glyph glyph-name="uni0162" unicode="&#x162;" horiz-adv-x="1063" 
d="M12 1094v204h1040v-204h-455l53 54v-1148h-236v1148l53 -54h-455zM273 -358l32.999 83.002c45.333 -21.333 85.5 -33.5 120.5 -36.5s63 1.33301 84 13s32.5 28.167 34.5 49.5c2 18.667 -4.5 35.167 -19.5 49.5s-36 27.166 -63 38.499s-59.167 21 -96.5 29l78 220l104 -15
l-71 -199l-31 60c64.667 -10 117 -25 157 -45s68.833 -43 86.5 -69s25.5 -53.667 23.5 -83c-2.66699 -38.667 -19.167 -69.834 -49.5 -93.501s-68.166 -39.5 -113.499 -47.5s-92.5 -8.33301 -141.5 -1s-94.167 23 -135.5 47z" />
    <glyph glyph-name="uni0163" unicode="&#x163;" horiz-adv-x="789" 
d="M514 -28c-57.333 0 -109.833 10.667 -157.5 32s-85.667 54 -114 98s-42.5 100 -42.5 168v958h236v-950c0 -80 38 -120 114 -120c23.333 0 46.666 2.66699 69.999 8s50 13.333 80 24l34 -166c-37.333 -14.667 -73.666 -27 -108.999 -37s-72.333 -15 -111 -15zM64 814v156
h636v-156h-636zM245 -361l32.999 83.002c45.333 -21.333 85.5 -33.5 120.5 -36.5s63 1.33301 84 13s32.5 28.167 34.5 49.5c2 18.667 -4.5 35.167 -19.5 49.5s-36 27.166 -63 38.499s-59.167 21 -96.5 29l78 220l104 -15l-71 -199l-31 60c64.667 -10 117 -25 157 -45
s68.833 -43 86.5 -69s25.5 -53.667 23.5 -83c-2.66699 -38.667 -19.167 -69.834 -49.5 -93.501s-68.166 -39.5 -113.499 -47.5s-92.5 -8.33301 -141.5 -1s-94.167 23 -135.5 47z" />
    <glyph glyph-name="Tcaron" unicode="&#x164;" horiz-adv-x="1063" 
d="M12 1094v204h1040v-204h-455l53 54v-1148h-236v1148l53 -54h-455zM539 1442l-356 305l139 110l258 -260h-83l260 260l139 -110z" />
    <glyph glyph-name="tcaron" unicode="&#x165;" horiz-adv-x="789" 
d="M514 -28c-57.333 0 -109.833 10.667 -157.5 32s-85.667 54 -114 98s-42.5 100 -42.5 168v958h236v-950c0 -80 38 -120 114 -120c23.333 0 46.666 2.66699 69.999 8s50 13.333 80 24l34 -166c-37.333 -14.667 -73.666 -27 -108.999 -37s-72.333 -15 -111 -15zM64 814v156
h636v-156h-636zM398 1309l-356 305l139 110l258 -260h-83l260 260l139 -110z" />
    <glyph glyph-name="Tbar" unicode="&#x166;" horiz-adv-x="1063" 
d="M12 1094v204h1040v-204h-455l53 54v-1148h-236v1148l53 -54h-455zM163.568 501.217v192.082h693.753v-192.082h-693.753z" />
    <glyph glyph-name="tbar" unicode="&#x167;" horiz-adv-x="789" 
d="M514 -28c-57.333 0 -109.833 10.667 -157.5 32s-85.667 54 -114 98s-42.5 100 -42.5 168v958h236v-950c0 -80 38 -120 114 -120c23.333 0 46.666 2.66699 69.999 8s50 13.333 80 24l34 -166c-37.333 -14.667 -73.666 -27 -108.999 -37s-72.333 -15 -111 -15zM64 814v156
h636v-156h-636zM72.1055 522.437v176.516h580.969v-176.516h-580.969z" />
    <glyph glyph-name="Umacron" unicode="&#x16a;" horiz-adv-x="1380" 
d="M166 1298h236v-808c0 -106.667 27.167 -183.667 81.5 -231s123.833 -71 208.5 -71c85.333 0 155 23.667 209 71s81 124.333 81 231v808h236v-808c0 -109.333 -21 -202.666 -63 -279.999s-102.167 -136.333 -180.5 -177s-172.5 -61 -282.5 -61s-204.167 20.333 -282.5 61
s-138.5 99.667 -180.5 177s-63 170.666 -63 279.999v808zM345 1687h691v-193h-691v193z" />
    <glyph glyph-name="umacron" unicode="&#x16b;" horiz-adv-x="1254" 
d="M832 974h236v-974h-236v974zM166 974l236 -0.00195312v-596c0 -63.333 15.667 -110.833 47 -142.5s74.333 -47.5 129 -47.5c46.667 0 89.167 12.167 127.5 36.5s69 60.333 92 108s34.5 106.834 34.5 177.501h64c0 -118.667 -15.333 -217 -46 -295s-73 -136.333 -127 -175
s-116.333 -58 -187 -58c-69.333 0 -132 12.333 -188 37s-100.333 64.334 -133 119.001s-49 126.667 -49 216v620zM298 1361h691v-193h-691v193z" />
    <glyph glyph-name="Uring" unicode="&#x16e;" horiz-adv-x="1380" 
d="M166 1298h236v-808c0 -106.667 27.167 -183.667 81.5 -231s123.833 -71 208.5 -71c85.333 0 155 23.667 209 71s81 124.333 81 231v808h236v-808c0 -109.333 -21 -202.666 -63 -279.999s-102.167 -136.333 -180.5 -177s-172.5 -61 -282.5 -61s-204.167 20.333 -282.5 61
s-138.5 99.667 -180.5 177s-63 170.666 -63 279.999v808zM691 1402c-43.333 0 -83.168 10.6689 -119.501 32.002s-65.166 50.166 -86.499 86.499s-32 76.166 -32 119.499s10.667 83 32 119s50 64.833 86 86.5s76 32.5 120 32.5c43.333 0 83 -10.833 119 -32.5
s64.833 -50.5 86.5 -86.5s32.5 -75.667 32.5 -119s-10.833 -83 -32.5 -119s-50.5 -64.833 -86.5 -86.5s-75.667 -32.5 -119 -32.5zM690.998 1560c22.667 0 41.667 7.66699 57 23s23 34.333 23 57s-7.66699 41.834 -23 57.501s-34.333 23.5 -57 23.5
s-41.667 -7.83301 -57 -23.5s-23 -34.834 -23 -57.501s7.66699 -41.667 23 -57s34.333 -23 57 -23z" />
    <glyph glyph-name="uring" unicode="&#x16f;" horiz-adv-x="1254" 
d="M832 974h236v-974h-236v974zM166 974l236 -0.00195312v-596c0 -63.333 15.667 -110.833 47 -142.5s74.333 -47.5 129 -47.5c46.667 0 89.167 12.167 127.5 36.5s69 60.333 92 108s34.5 106.834 34.5 177.501h64c0 -118.667 -15.333 -217 -46 -295s-73 -136.333 -127 -175
s-116.333 -58 -187 -58c-69.333 0 -132 12.333 -188 37s-100.333 64.334 -133 119.001s-49 126.667 -49 216v620zM644 1076c-43.333 0 -83.168 10.6689 -119.501 32.002s-65.166 50.166 -86.499 86.499s-32 76.166 -32 119.499s10.667 83 32 119s50 64.833 86 86.5
s76 32.5 120 32.5c43.333 0 83 -10.833 119 -32.5s64.833 -50.5 86.5 -86.5s32.5 -75.667 32.5 -119s-10.833 -83 -32.5 -119s-50.5 -64.833 -86.5 -86.5s-75.667 -32.5 -119 -32.5zM643.998 1234c22.667 0 41.667 7.66699 57 23s23 34.333 23 57
s-7.66699 41.834 -23 57.501s-34.333 23.5 -57 23.5s-41.667 -7.83301 -57 -23.5s-23 -34.834 -23 -57.501s7.66699 -41.667 23 -57s34.333 -23 57 -23z" />
    <glyph glyph-name="Uhungarumlaut" unicode="&#x170;" horiz-adv-x="1380" 
d="M166 1298h236v-808c0 -106.667 27.167 -183.667 81.5 -231s123.833 -71 208.5 -71c85.333 0 155 23.667 209 71s81 124.333 81 231v808h236v-808c0 -109.333 -21 -202.666 -63 -279.999s-102.167 -136.333 -180.5 -177s-172.5 -61 -282.5 -61s-204.167 20.333 -282.5 61
s-138.5 99.667 -180.5 177s-63 170.666 -63 279.999v808zM869 1434l-118 21l35 339l165 -39zM599 1449l-121 17l12 342l168 -28z" />
    <glyph glyph-name="uhungarumlaut" unicode="&#x171;" horiz-adv-x="1254" 
d="M832 974h236v-974h-236v974zM166 974l236 -0.00195312v-596c0 -63.333 15.667 -110.833 47 -142.5s74.333 -47.5 129 -47.5c46.667 0 89.167 12.167 127.5 36.5s69 60.333 92 108s34.5 106.834 34.5 177.501h64c0 -118.667 -15.333 -217 -46 -295s-73 -136.333 -127 -175
s-116.333 -58 -187 -58c-69.333 0 -132 12.333 -188 37s-100.333 64.334 -133 119.001s-49 126.667 -49 216v620zM822 1108l-118 21l35 339l165 -39zM552 1123l-121 17l12 342l168 -28z" />
    <glyph glyph-name="Uogonek" unicode="&#x172;" horiz-adv-x="1380" 
d="M166 1298h236v-808c0 -106.667 27.167 -183.667 81.5 -231s123.833 -71 208.5 -71c85.333 0 155 23.667 209 71s81 124.333 81 231v808h236v-808c0 -109.333 -21 -202.666 -63 -279.999s-102.167 -136.333 -180.5 -177s-172.5 -61 -282.5 -61s-204.167 20.333 -282.5 61
s-138.5 99.667 -180.5 177s-63 170.666 -63 279.999v808zM994 -325c-43.333 -23.333 -87.501 -40.999 -132.501 -52.999s-89.167 -18 -132.5 -18c-71.333 0 -130.333 16 -177 48s-70 77.667 -70 137c0 48 17.167 94.833 51.5 140.5s84.833 82.167 151.5 109.5l180 -39
c-68.667 -24 -123.167 -49.833 -163.5 -77.5s-60.5 -58.5 -60.5 -92.5c0 -26 11 -44.167 33 -54.5s46.333 -15.5 73 -15.5c28.667 0 57.834 4.66699 87.501 14s64.5 24.666 104.5 45.999z" />
    <glyph glyph-name="uogonek" unicode="&#x173;" horiz-adv-x="1254" 
d="M832 974h236v-974h-236v974zM166 974l236 -0.00195312v-596c0 -63.333 15.667 -110.833 47 -142.5s74.333 -47.5 129 -47.5c46.667 0 89.167 12.167 127.5 36.5s69 60.333 92 108s34.5 106.834 34.5 177.501h64c0 -118.667 -15.333 -217 -46 -295s-73 -136.333 -127 -175
s-116.333 -58 -187 -58c-69.333 0 -132 12.333 -188 37s-100.333 64.334 -133 119.001s-49 126.667 -49 216v620zM1197 -325.002c-43.333 -23.333 -87.501 -40.999 -132.501 -52.999s-89.167 -18 -132.5 -18c-71.333 0 -130.333 16 -177 48s-70 77.667 -70 137
c0 48 17.167 94.833 51.5 140.5s84.833 82.167 151.5 109.5l180 -39c-68.667 -24 -123.167 -49.833 -163.5 -77.5s-60.5 -58.5 -60.5 -92.5c0 -26 11 -44.167 33 -54.5s46.333 -15.5 73 -15.5c28.667 0 57.834 4.66699 87.501 14s64.5 24.666 104.5 45.999z" />
    <glyph glyph-name="Wcircumflex" unicode="&#x174;" horiz-adv-x="1893" 
d="M20 1298h264l314 -1090h-60l310 1004h160l322 -988h-54l330 1074h266l-446 -1298h-248l-254 766h22l-254 -766h-248zM725 1435l-139 110l356 305l357 -305l-139 -110l-260 234h83z" />
    <glyph glyph-name="wcircumflex" unicode="&#x175;" horiz-adv-x="1516" 
d="M24 970h246l210 -736h-24l198 684h214l198 -686h-24l210 738h236l-320 -970h-232l-198 644h36l-194 -644h-234zM540 1101l-139 110l356 305l357 -305l-139 -110l-260 234h83z" />
    <glyph glyph-name="Ycircumflex" unicode="&#x176;" horiz-adv-x="1173" 
d="M14 1298h280l310 -558h-46l322 558h278l-462 -762v-536h-236v536zM369 1427l-139 110l356 305l357 -305l-139 -110l-260 234h83z" />
    <glyph glyph-name="ycircumflex" unicode="&#x177;" horiz-adv-x="1007" 
d="M38 970l268 0.000976562l258 -764h-42l222 764h240l-372 -1146c-38 -114.667 -84.833 -197.667 -140.5 -249s-123.5 -77 -203.5 -77c-46 0 -90.833 5.16699 -134.5 15.5s-88.167 26.5 -133.5 48.5v208c36.667 -22.667 72.167 -39.334 106.5 -50.001s68.833 -16 103.5 -16
c31.333 0 58.833 8.5 82.5 25.5s44.167 40.667 61.5 71s32 65.5 44 105.5l30 94zM286 1101l-139 110l356 305l357 -305l-139 -110l-260 234h83z" />
    <glyph glyph-name="Ydieresis" unicode="&#x178;" horiz-adv-x="1173" 
d="M14 1298h280l310 -558h-46l322 558h278l-462 -762v-536h-236v536zM778 1468c-38.667 0 -71.667 12.667 -99 38s-41 57 -41 95s13.667 69.833 41 95.5s60.333 38.5 99 38.5c41.333 0 75.333 -12.833 102 -38.5s40 -57.5 40 -95.5s-13.333 -69.667 -40 -95
s-60.667 -38 -102 -38zM394 1468c-40.667 0 -74.167 12.667 -100.5 38s-39.5 56.333 -39.5 93c0 39.333 13.167 71.5 39.5 96.5s59.833 37.5 100.5 37.5c41.333 0 75.333 -12.5 102 -37.5s40 -57.167 40 -96.5c0 -36.667 -13.333 -67.667 -40 -93s-60.667 -38 -102 -38z" />
    <glyph glyph-name="Zacute" unicode="&#x179;" horiz-adv-x="1257" 
d="M146 0v204l754 962v-86l-754 2v216h982v-202l-708 -908l-6 30l714 -2v-216h-982zM591 1440l-113 92l374 373l158 -128z" />
    <glyph glyph-name="zacute" unicode="&#x17a;" horiz-adv-x="990" 
d="M114 0v192l504 588h-504v190h764v-190l-488 -588h488v-192h-764zM431 1114l-113 92l374 373l158 -128z" />
    <glyph glyph-name="Zdotaccent" unicode="&#x17b;" horiz-adv-x="1257" 
d="M146 0v204l754 962v-86l-754 2v216h982v-202l-708 -908l-6 30l714 -2v-216h-982zM505.095 1631.4c0 44.4785 15.0439 81.7617 45.1328 111.85c30.0879 30.0889 68.6797 45.1328 115.774 45.1328s86.3398 -15.0439 117.736 -45.1328
c31.3965 -30.0879 47.0947 -67.3711 47.0947 -111.85c0 -43.8242 -15.6982 -80.29 -47.0947 -109.397c-31.3965 -29.1064 -70.6416 -43.6602 -117.736 -43.6602s-85.6865 14.7168 -115.774 44.1504c-30.0889 29.4346 -45.1328 65.7373 -45.1328 108.907z" />
    <glyph glyph-name="zdotaccent" unicode="&#x17c;" horiz-adv-x="990" 
d="M114 0v192l504 588h-504v190h764v-190l-488 -588h488v-192h-764zM345.095 1305.4c0 44.4785 15.0439 81.7617 45.1328 111.85c30.0879 30.0889 68.6797 45.1328 115.774 45.1328s86.3398 -15.0439 117.736 -45.1328c31.3965 -30.0879 47.0947 -67.3711 47.0947 -111.85
c0 -43.8242 -15.6982 -80.29 -47.0947 -109.397c-31.3965 -29.1064 -70.6416 -43.6602 -117.736 -43.6602s-85.6865 14.7168 -115.774 44.1504c-30.0889 29.4346 -45.1328 65.7373 -45.1328 108.907z" />
    <glyph glyph-name="Zcaron" unicode="&#x17d;" horiz-adv-x="1257" 
d="M146 0v204l754 962v-86l-754 2v216h982v-202l-708 -908l-6 30l714 -2v-216h-982zM663 1442l-356 305l139 110l258 -260h-83l260 260l139 -110z" />
    <glyph glyph-name="zcaron" unicode="&#x17e;" horiz-adv-x="990" 
d="M114 0v192l504 588h-504v190h764v-190l-488 -588h488v-192h-764zM503 1116l-356 305l139 110l258 -260h-83l260 260l139 -110z" />
    <glyph glyph-name="florin" unicode="&#x192;" horiz-adv-x="726" 
d="M21 814l11 156h560l-10 -156h-561zM-152 -429l58 182.001c16.667 -5.33301 33.667 -9.83301 51 -13.5s34.666 -5.5 51.999 -5.5c18.667 0 36.667 3.5 54 10.5s31.833 19.167 43.5 36.5s18.834 40.666 21.501 69.999l86 1237c4.66699 70 22.167 127 52.5 171
s69 76.5 116 97.5s96.5 31.5 148.5 31.5c32 0 65.333 -2.33301 100 -7s68 -10.334 100 -17.001l-59 -182c-16 6 -32.833 10.833 -50.5 14.5s-34.834 5.5 -51.501 5.5c-18.667 0 -36.667 -3.5 -54 -10.5s-31.833 -19.167 -43.5 -36.5s-18.5 -41 -20.5 -71l-86 -1236
c-5.33301 -70 -23.333 -127.167 -54 -171.5s-69.167 -77 -115.5 -98s-96.166 -31.5 -149.499 -31.5c-31.333 0 -64.333 2.33301 -99 7s-68 10.334 -100 17.001z" />
    <glyph glyph-name="uni0218" unicode="&#x218;" horiz-adv-x="1275" 
d="M638 -28c-90 0 -172.832 15.666 -248.499 46.999s-137 79 -184 143s-72.167 145.333 -75.5 244h232c0 -50 12.333 -91 37 -123s57.834 -55.833 99.501 -71.5s87.5 -23.5 137.5 -23.5c48 0 90.833 6.33301 128.5 19s67.334 30.834 89.001 54.501s32.5 51.834 32.5 84.501
c0 43.333 -13.167 77.333 -39.5 102s-68.5 47.334 -126.5 68.001l-256 102c-100 39.333 -176.667 85 -230 137s-80 123.667 -80 215c0 105.333 41.667 190.666 125 255.999s199.666 98 348.999 98c145.333 0 257.666 -33.833 336.999 -101.5s124.333 -161.834 135 -282.501
h-232c-8.66699 51.333 -32 92.5 -70 123.5s-94.667 46.5 -170 46.5c-66.667 0 -119.334 -13.833 -158.001 -41.5s-58 -62.5 -58 -104.5c0 -36 12.167 -64.5 36.5 -85.5s62.166 -41.167 113.499 -60.5l284 -110c96 -37.333 169.667 -84.333 221 -141s77 -127.667 77 -213
c0 -78 -19.667 -145.5 -59 -202.5s-96.666 -101.167 -171.999 -132.5s-167 -47 -275 -47zM597.001 -449.001l-109.001 56c32.667 16.667 61.334 35 86.001 55s41.667 43.333 51 70c-25.333 4 -46.333 14 -63 30s-24 36.667 -22 62c2 26.667 13.667 48.834 35 66.501
s47 26.5 77 26.5c38 0 67.5 -13.333 88.5 -40s30.167 -59.334 27.5 -98.001c-2 -42.667 -18 -85.167 -48 -127.5s-71 -75.833 -123 -100.5z" />
    <glyph glyph-name="uni0219" unicode="&#x219;" horiz-adv-x="1055" 
d="M548 -28c-93.333 0 -173.503 12.833 -240.503 38.5s-118.5 62.667 -154.5 111s-54.333 106.5 -55 174.5h218c2 -48 21 -83 57 -105s85 -33 147 -33c34 0 64.167 5 90.5 15s46.833 23.667 61.5 41s22 36.666 22 57.999c0 27.333 -9.83301 48.833 -29.5 64.5
s-51.167 30.167 -94.5 43.5l-212 76c-76 27.333 -134.333 63.333 -175 108s-61 98 -61 160c0 82 37.167 148.167 111.5 198.5s173.833 75.5 298.5 75.5c124 0 219.833 -27.167 287.5 -81.5s102.5 -123.166 104.5 -206.499h-222c-3.33301 32 -18.666 57.333 -45.999 76
s-68.666 28 -123.999 28c-50 0 -89.167 -10.167 -117.5 -30.5s-42.5 -44.166 -42.5 -71.499c0 -46 39.333 -80.667 118 -104l230 -86c74.667 -25.333 132.667 -58 174 -98s62 -90.667 62 -152c0 -51.333 -17.167 -99.833 -51.5 -145.5s-82.166 -82.834 -143.499 -111.501
s-132.333 -43 -213 -43zM485.997 -448l-109.001 56c32.667 16.667 61.334 35 86.001 55s41.667 43.333 51 70c-25.333 4 -46.333 14 -63 30s-24 36.667 -22 62c2 26.667 13.667 48.834 35 66.501s47 26.5 77 26.5c38 0 67.5 -13.333 88.5 -40s30.167 -59.334 27.5 -98.001
c-2 -42.667 -18 -85.167 -48 -127.5s-71 -75.833 -123 -100.5z" />
    <glyph glyph-name="uni021A" unicode="&#x21a;" horiz-adv-x="1063" 
d="M12 1094v204h1040v-204h-455l53 54v-1148h-236v1148l53 -54h-455zM428 -440l-109.001 56c32.667 16.667 61.334 35 86.001 55s41.667 43.333 51 70c-25.333 4 -46.333 14 -63 30s-24 36.667 -22 62c2 26.667 13.667 48.834 35 66.501s47 26.5 77 26.5
c38 0 67.5 -13.333 88.5 -40s30.167 -59.334 27.5 -98.001c-2 -42.667 -18 -85.167 -48 -127.5s-71 -75.833 -123 -100.5z" />
    <glyph glyph-name="uni021B" unicode="&#x21b;" horiz-adv-x="789" 
d="M514 -28c-57.333 0 -109.833 10.667 -157.5 32s-85.667 54 -114 98s-42.5 100 -42.5 168v958h236v-950c0 -80 38 -120 114 -120c23.333 0 46.666 2.66699 69.999 8s50 13.333 80 24l34 -166c-37.333 -14.667 -73.666 -27 -108.999 -37s-72.333 -15 -111 -15zM64 814v156
h636v-156h-636zM400 -443l-109.001 56c32.667 16.667 61.334 35 86.001 55s41.667 43.333 51 70c-25.333 4 -46.333 14 -63 30s-24 36.667 -22 62c2 26.667 13.667 48.834 35 66.501s47 26.5 77 26.5c38 0 67.5 -13.333 88.5 -40s30.167 -59.334 27.5 -98.001
c-2 -42.667 -18 -85.167 -48 -127.5s-71 -75.833 -123 -100.5z" />
    <glyph glyph-name="uni0237" unicode="&#x237;" horiz-adv-x="670" 
d="M128 -502c-52 0 -100.168 5.66797 -144.501 17.001s-89.5 26.333 -135.5 45l4 204c34 -16.667 69.833 -30.834 107.5 -42.501s74.5 -17.5 110.5 -17.5c48.667 0 85.834 14 111.501 42s38.5 75.333 38.5 142v1086h236v-1090c0 -138.667 -28.833 -237.667 -86.5 -297
s-138.167 -89 -241.5 -89z" />
    <glyph glyph-name="apostrophe" unicode="&#x2bc;" horiz-adv-x="473" 
d="M246 768l-174 88c44 22 83 47.333 117 76s56.333 61.334 67 98.001c-36.667 7.33301 -68.167 22.666 -94.5 45.999s-39.5 54 -39.5 92c0 40 15.333 73.667 46 101s69.334 41 116.001 41c59.333 0 105.833 -20.667 139.5 -62s50.5 -90.333 50.5 -147
c0 -64.667 -20.333 -127.5 -61 -188.5s-96.334 -109.167 -167.001 -144.5z" />
    <glyph glyph-name="circumflex" unicode="&#x2c6;" horiz-adv-x="901" 
d="M233 1109l-139 110l356 305l357 -305l-139 -110l-260 234h83z" />
    <glyph glyph-name="caron" unicode="&#x2c7;" horiz-adv-x="901" 
d="M450 1116l-356 305l139 110l258 -260h-83l260 260l139 -110z" />
    <glyph glyph-name="breve" unicode="&#x2d8;" horiz-adv-x="820" 
d="M410 1161c-98 0 -175.167 27.667 -231.5 83s-84.5 131.666 -84.5 228.999h186c0 -51.333 11.5 -90.333 34.5 -117s54.833 -40 95.5 -40c41.333 0 73.5 13.333 96.5 40s34.5 65.667 34.5 117h185c0 -97.333 -28 -173.666 -84 -228.999s-133.333 -83 -232 -83z" />
    <glyph glyph-name="dotaccent" unicode="&#x2d9;" horiz-adv-x="506" 
d="M95.0947 1306.4c0 44.4785 15.0439 81.7617 45.1328 111.85c30.0879 30.0889 68.6797 45.1328 115.774 45.1328s86.3398 -15.0439 117.736 -45.1328c31.3965 -30.0879 47.0947 -67.3711 47.0947 -111.85c0 -43.8242 -15.6982 -80.29 -47.0947 -109.397
c-31.3965 -29.1064 -70.6416 -43.6602 -117.736 -43.6602s-85.6865 14.7168 -115.774 44.1504c-30.0889 29.4346 -45.1328 65.7373 -45.1328 108.907z" />
    <glyph glyph-name="ring" unicode="&#x2da;" horiz-adv-x="664" 
d="M332 1303c-43.333 0 -83.168 10.6689 -119.501 32.002s-65.166 50.166 -86.499 86.499s-32 76.166 -32 119.499s10.667 83 32 119s50 64.833 86 86.5s76 32.5 120 32.5c43.333 0 83 -10.833 119 -32.5s64.833 -50.5 86.5 -86.5s32.5 -75.667 32.5 -119
s-10.833 -83 -32.5 -119s-50.5 -64.833 -86.5 -86.5s-75.667 -32.5 -119 -32.5zM331.998 1461c22.667 0 41.667 7.66699 57 23s23 34.333 23 57s-7.66699 41.834 -23 57.501s-34.333 23.5 -57 23.5s-41.667 -7.83301 -57 -23.5s-23 -34.834 -23 -57.501
s7.66699 -41.667 23 -57s34.333 -23 57 -23z" />
    <glyph glyph-name="ogonek" unicode="&#x2db;" horiz-adv-x="700" 
d="M606 -366c-43.333 -23.333 -87.501 -40.999 -132.501 -52.999s-89.167 -18 -132.5 -18c-71.333 0 -130.333 16 -177 48s-70 77.667 -70 137c0 48 17.167 94.833 51.5 140.5s84.833 82.167 151.5 109.5l180 -39c-68.667 -24 -123.167 -49.833 -163.5 -77.5
s-60.5 -58.5 -60.5 -92.5c0 -26 11 -44.167 33 -54.5s46.333 -15.5 73 -15.5c28.667 0 57.834 4.66699 87.501 14s64.5 24.666 104.5 45.999z" />
    <glyph glyph-name="tilde" unicode="&#x2dc;" horiz-adv-x="880" 
d="M188 1128l-94.002 56.999c16 80.667 42.833 143.5 80.5 188.5s82.167 67.5 133.5 67.5c19.333 0 39.5 -3.66699 60.5 -11s49.5 -20.333 85.5 -39c34 -17.333 59.5 -29.666 76.5 -36.999s33.5 -11 49.5 -11c19.333 0 38.333 7.83301 57 23.5s35 40.5 49 74.5l100 -66
c-9.33301 -48 -24.5 -90.5 -45.5 -127.5s-45.167 -66.167 -72.5 -87.5s-54.666 -32 -81.999 -32c-24 0 -47.833 4.66699 -71.5 14s-54.5 23.333 -92.5 42c-31.333 17.333 -54.666 29 -69.999 35s-30 9 -44 9c-21.333 0 -41.833 -6.83301 -61.5 -20.5
s-39.167 -40.167 -58.5 -79.5z" />
    <glyph glyph-name="hungarumlaut" unicode="&#x2dd;" horiz-adv-x="661" 
d="M485 1108l-118 21l35 339l165 -39zM215 1123l-121 17l12 342l168 -28z" />
    <glyph glyph-name="gravecomb" unicode="&#x300;" horiz-adv-x="0" 
d="M512 1117l-418 337l157 128l374 -373z" />
    <glyph glyph-name="acutecomb" unicode="&#x301;" horiz-adv-x="0" 
d="M207 1117l-113 92l374 373l158 -128z" />
    <glyph glyph-name="uni0302" unicode="&#x302;" horiz-adv-x="0" 
d="M233 1109l-139 110l356 305l357 -305l-139 -110l-260 234h83z" />
    <glyph glyph-name="tildecomb" unicode="&#x303;" horiz-adv-x="0" 
d="M140 1128l-94.002 56.999c16 80.667 42.833 143.5 80.5 188.5s82.167 67.5 133.5 67.5c19.333 0 39.5 -3.66699 60.5 -11s49.5 -20.333 85.5 -39c34 -17.333 59.5 -29.666 76.5 -36.999s33.5 -11 49.5 -11c19.333 0 38.333 7.83301 57 23.5s35 40.5 49 74.5l100 -66
c-9.33301 -48 -24.5 -90.5 -45.5 -127.5s-45.167 -66.167 -72.5 -87.5s-54.666 -32 -81.999 -32c-24 0 -47.833 4.66699 -71.5 14s-54.5 23.333 -92.5 42c-31.333 17.333 -54.666 29 -69.999 35s-30 9 -44 9c-21.333 0 -41.833 -6.83301 -61.5 -20.5
s-39.167 -40.167 -58.5 -79.5z" />
    <glyph glyph-name="uni0304" unicode="&#x304;" horiz-adv-x="0" 
d="M260 1361h691v-193h-691v193z" />
    <glyph glyph-name="uni0306" unicode="&#x306;" horiz-adv-x="0" 
d="M410 1161c-98 0 -175.167 27.667 -231.5 83s-84.5 131.666 -84.5 228.999h186c0 -51.333 11.5 -90.333 34.5 -117s54.833 -40 95.5 -40c41.333 0 73.5 13.333 96.5 40s34.5 65.667 34.5 117h185c0 -97.333 -28 -173.666 -84 -228.999s-133.333 -83 -232 -83z" />
    <glyph glyph-name="uni0307" unicode="&#x307;" horiz-adv-x="0" 
d="M95.0947 1306.4c0 44.4785 15.0439 81.7617 45.1328 111.85c30.0879 30.0889 68.6797 45.1328 115.774 45.1328s86.3398 -15.0439 117.736 -45.1328c31.3965 -30.0879 47.0947 -67.3711 47.0947 -111.85c0 -43.8242 -15.6982 -80.29 -47.0947 -109.397
c-31.3965 -29.1064 -70.6416 -43.6602 -117.736 -43.6602s-85.6865 14.7168 -115.774 44.1504c-30.0889 29.4346 -45.1328 65.7373 -45.1328 108.907z" />
    <glyph glyph-name="uni0308" unicode="&#x308;" horiz-adv-x="0" 
d="M618 1142c-38.667 0 -71.667 12.667 -99 38s-41 57 -41 95s13.667 69.833 41 95.5s60.333 38.5 99 38.5c41.333 0 75.333 -12.833 102 -38.5s40 -57.5 40 -95.5s-13.333 -69.667 -40 -95s-60.667 -38 -102 -38zM234 1142c-40.667 0 -74.167 12.667 -100.5 38
s-39.5 56.333 -39.5 93c0 39.333 13.167 71.5 39.5 96.5s59.833 37.5 100.5 37.5c41.333 0 75.333 -12.5 102 -37.5s40 -57.167 40 -96.5c0 -36.667 -13.333 -67.667 -40 -93s-60.667 -38 -102 -38z" />
    <glyph glyph-name="uni030A" unicode="&#x30a;" horiz-adv-x="0" 
d="M332 1303c-43.333 0 -83.168 10.6689 -119.501 32.002s-65.166 50.166 -86.499 86.499s-32 76.166 -32 119.499s10.667 83 32 119s50 64.833 86 86.5s76 32.5 120 32.5c43.333 0 83 -10.833 119 -32.5s64.833 -50.5 86.5 -86.5s32.5 -75.667 32.5 -119
s-10.833 -83 -32.5 -119s-50.5 -64.833 -86.5 -86.5s-75.667 -32.5 -119 -32.5zM331.998 1461c22.667 0 41.667 7.66699 57 23s23 34.333 23 57s-7.66699 41.834 -23 57.501s-34.333 23.5 -57 23.5s-41.667 -7.83301 -57 -23.5s-23 -34.834 -23 -57.501
s7.66699 -41.667 23 -57s34.333 -23 57 -23z" />
    <glyph glyph-name="uni030B" unicode="&#x30b;" horiz-adv-x="0" 
d="M485 1108l-118 21l35 339l165 -39zM215 1123l-121 17l12 342l168 -28z" />
    <glyph glyph-name="uni030C" unicode="&#x30c;" horiz-adv-x="0" 
d="M450 1116l-356 305l139 110l258 -260h-83l260 260l139 -110z" />
    <glyph glyph-name="uni0312" unicode="&#x312;" horiz-adv-x="0" 
d="M266 1400l109.001 -56c-32.667 -16.667 -61.334 -35 -86.001 -55s-41.667 -43.333 -51 -70c25.333 -4 46.333 -14 63 -30s24 -36.667 22 -62c-2 -26.667 -13.667 -48.834 -35 -66.501s-47 -26.5 -77 -26.5c-38 0 -67.5 13.333 -88.5 40s-30.167 59.334 -27.5 98.001
c2 42.667 18 85.167 48 127.5s71 75.833 123 100.5z" />
    <glyph glyph-name="uni0326" unicode="&#x326;" horiz-adv-x="0" 
d="M203 -449l-109.001 56c32.667 16.667 61.334 35 86.001 55s41.667 43.333 51 70c-25.333 4 -46.333 14 -63 30s-24 36.667 -22 62c2 26.667 13.667 48.834 35 66.501s47 26.5 77 26.5c38 0 67.5 -13.333 88.5 -40s30.167 -59.334 27.5 -98.001
c-2 -42.667 -18 -85.167 -48 -127.5s-71 -75.833 -123 -100.5z" />
    <glyph glyph-name="uni0327" unicode="&#x327;" horiz-adv-x="0" 
d="M94 -367l32.999 83.002c45.333 -21.333 85.5 -33.5 120.5 -36.5s63 1.33301 84 13s32.5 28.167 34.5 49.5c2 18.667 -4.5 35.167 -19.5 49.5s-36 27.166 -63 38.499s-59.167 21 -96.5 29l78 220l104 -15l-71 -199l-31 60c64.667 -10 117 -25 157 -45s68.833 -43 86.5 -69
s25.5 -53.667 23.5 -83c-2.66699 -38.667 -19.167 -69.834 -49.5 -93.501s-68.166 -39.5 -113.499 -47.5s-92.5 -8.33301 -141.5 -1s-94.167 23 -135.5 47z" />
    <glyph glyph-name="uni0328" unicode="&#x328;" horiz-adv-x="0" 
d="M606 -366c-43.333 -23.333 -87.501 -40.999 -132.501 -52.999s-89.167 -18 -132.5 -18c-71.333 0 -130.333 16 -177 48s-70 77.667 -70 137c0 48 17.167 94.833 51.5 140.5s84.833 82.167 151.5 109.5l180 -39c-68.667 -24 -123.167 -49.833 -163.5 -77.5
s-60.5 -58.5 -60.5 -92.5c0 -26 11 -44.167 33 -54.5s46.333 -15.5 73 -15.5c28.667 0 57.834 4.66699 87.501 14s64.5 24.666 104.5 45.999z" />
    <glyph glyph-name="uni0394" unicode="&#x394;" horiz-adv-x="1251" 
d="M44 0l442 1298h296l424 -1298h-248l-328 1016l-336 -1016h-250zM176 0v207h871v-207h-871z" />
    <glyph glyph-name="uni03A9" unicode="&#x3a9;" horiz-adv-x="1365" 
d="M582 46c-61.333 0 -121.17 12.6699 -179.503 38.0029s-110.666 63.166 -156.999 113.499s-83.166 113.166 -110.499 188.499s-41 163.333 -41 264c0 152 25 277.833 75 377.5s119.167 174 207.5 223s190.166 73.5 305.499 73.5c116 0 218.333 -25.167 307 -75.5
s158 -125.5 208 -225.5s75 -224.333 75 -373c0 -102 -13.667 -190.833 -41 -266.5s-64.333 -138.5 -111 -188.5s-99.167 -87.333 -157.5 -112s-118.5 -37 -180.5 -37v108c37.333 0 74.833 20.167 112.5 60.5s69.334 97.666 95.001 171.999s38.5 162.833 38.5 265.5
c0 145.333 -31.167 258.333 -93.5 339s-146.5 121 -252.5 121c-104 0 -187.333 -40.5 -250 -121.5s-94 -194.5 -94 -340.5c0 -102 12.833 -190 38.5 -264s57.334 -131.167 95.001 -171.5s74.5 -60.5 110.5 -60.5v-108zM93.9961 -0.99707v155h488v-155h-488z
M781.996 -0.99707v155h487v-155h-487z" />
    <glyph glyph-name="uni03BC" unicode="&#x3bc;" horiz-adv-x="1254" 
d="M832 974h236v-974h-236v974zM166 974l236 -0.00195312v-596c0 -63.333 15.667 -110.833 47 -142.5s74.333 -47.5 129 -47.5c46.667 0 89.167 12.167 127.5 36.5s69 60.333 92 108s34.5 106.834 34.5 177.501h64c0 -118.667 -15.333 -217 -46 -295s-73 -136.333 -127 -175
s-116.333 -58 -187 -58c-69.333 0 -132 12.333 -188 37s-100.333 64.334 -133 119.001s-49 126.667 -49 216v620zM166 -398.002v1372h236v-1372h-236z" />
    <glyph glyph-name="pi" unicode="&#x3c0;" horiz-adv-x="1257" 
d="M1096 -7c-74.667 0 -138 16.833 -190 50.5s-91.333 81.667 -118 144s-40 136.5 -40 222.5v562h236v-562c0 -72 17 -124.167 51 -156.5s75.333 -48.5 124 -48.5zM269 0v970h236v-970h-236zM44 766v207h1183v-207h-1183z" />
    <glyph glyph-name="Wgrave" unicode="&#x1e80;" horiz-adv-x="1893" 
d="M20 1298h264l314 -1090h-60l310 1004h160l322 -988h-54l330 1074h266l-446 -1298h-248l-254 766h22l-254 -766h-248zM1094 1451l-418 337l157 128l374 -373z" />
    <glyph glyph-name="wgrave" unicode="&#x1e81;" horiz-adv-x="1516" 
d="M24 970h246l210 -736h-24l198 684h214l198 -686h-24l210 738h236l-320 -970h-232l-198 644h36l-194 -644h-234zM908 1117l-418 337l157 128l374 -373z" />
    <glyph glyph-name="Wacute" unicode="&#x1e82;" horiz-adv-x="1893" 
d="M20 1298h264l314 -1090h-60l310 1004h160l322 -988h-54l330 1074h266l-446 -1298h-248l-254 766h22l-254 -766h-248zM878 1448l-113 92l374 373l158 -128z" />
    <glyph glyph-name="wacute" unicode="&#x1e83;" horiz-adv-x="1516" 
d="M24 970h246l210 -736h-24l198 684h214l198 -686h-24l210 738h236l-320 -970h-232l-198 644h36l-194 -644h-234zM693 1114l-113 92l374 373l158 -128z" />
    <glyph glyph-name="Wdieresis" unicode="&#x1e84;" horiz-adv-x="1893" 
d="M20 1298h264l314 -1090h-60l310 1004h160l322 -988h-54l330 1074h266l-446 -1298h-248l-254 766h22l-254 -766h-248zM1134 1476c-38.667 0 -71.667 12.667 -99 38s-41 57 -41 95s13.667 69.833 41 95.5s60.333 38.5 99 38.5c41.333 0 75.333 -12.833 102 -38.5
s40 -57.5 40 -95.5s-13.333 -69.667 -40 -95s-60.667 -38 -102 -38zM750 1476c-40.667 0 -74.167 12.667 -100.5 38s-39.5 56.333 -39.5 93c0 39.333 13.167 71.5 39.5 96.5s59.833 37.5 100.5 37.5c41.333 0 75.333 -12.5 102 -37.5s40 -57.167 40 -96.5
c0 -36.667 -13.333 -67.667 -40 -93s-60.667 -38 -102 -38z" />
    <glyph glyph-name="wdieresis" unicode="&#x1e85;" horiz-adv-x="1516" 
d="M24 970h246l210 -736h-24l198 684h214l198 -686h-24l210 738h236l-320 -970h-232l-198 644h36l-194 -644h-234zM948 1142c-38.667 0 -71.667 12.667 -99 38s-41 57 -41 95s13.667 69.833 41 95.5s60.333 38.5 99 38.5c41.333 0 75.333 -12.833 102 -38.5
s40 -57.5 40 -95.5s-13.333 -69.667 -40 -95s-60.667 -38 -102 -38zM564 1142c-40.667 0 -74.167 12.667 -100.5 38s-39.5 56.333 -39.5 93c0 39.333 13.167 71.5 39.5 96.5s59.833 37.5 100.5 37.5c41.333 0 75.333 -12.5 102 -37.5s40 -57.167 40 -96.5
c0 -36.667 -13.333 -67.667 -40 -93s-60.667 -38 -102 -38z" />
    <glyph glyph-name="uni1E9E" unicode="&#x1e9e;" horiz-adv-x="1297" 
d="M1047 1076c0 -48.667 -8.67188 -89.3379 -26.0049 -122.005s-37.166 -60.834 -59.499 -84.501s-42 -45.5 -59 -65.5s-25.5 -41.333 -25.5 -64c0 -25.333 10.833 -47.666 32.5 -66.999s48.5 -39 80.5 -59s63.833 -43 95.5 -69s58.334 -57.667 80.001 -95
s32.5 -83.666 32.5 -138.999c0 -69.333 -18.167 -129.166 -54.5 -179.499s-83.333 -89.166 -141 -116.499s-119.167 -41 -184.5 -41c-38 0 -80 5 -126 15s-88 24.333 -126 43l2 188c40 -26.667 77.5 -46.167 112.5 -58.5s69.833 -18.5 104.5 -18.5
c36.667 0 66.334 6.33301 89.001 19s39 29.667 49 51s15 45.333 15 72c0 42.667 -10 78.834 -30 108.501s-44.5 55.834 -73.5 78.501l-87 66c-29 21.333 -53.333 45 -73 71s-29.5 57 -29.5 93s9.33301 66.833 28 92.5s40.334 50 65.001 73s46.334 47.833 65.001 74.5
s28 59 28 97c0 49.333 -18.5 87.833 -55.5 115.5s-85.5 41.5 -145.5 41.5c-76 0 -129.167 -23 -159.5 -69s-45.5 -119.333 -45.5 -220v-907h-239v912c0 104 18.167 190.833 54.5 260.5s88.333 122 156 157s149.167 52.5 244.5 52.5c83.333 0 155.333 -12.667 216 -38
s107.5 -61 140.5 -107s49.5 -99.667 49.5 -161z" />
    <glyph glyph-name="Ygrave" unicode="&#x1ef2;" horiz-adv-x="1173" 
d="M14 1298h280l310 -558h-46l322 558h278l-462 -762v-536h-236v536zM738 1443l-418 337l157 128l374 -373z" />
    <glyph glyph-name="ygrave" unicode="&#x1ef3;" horiz-adv-x="1007" 
d="M38 970l268 0.000976562l258 -764h-42l222 764h240l-372 -1146c-38 -114.667 -84.833 -197.667 -140.5 -249s-123.5 -77 -203.5 -77c-46 0 -90.833 5.16699 -134.5 15.5s-88.167 26.5 -133.5 48.5v208c36.667 -22.667 72.167 -39.334 106.5 -50.001s68.833 -16 103.5 -16
c31.333 0 58.833 8.5 82.5 25.5s44.167 40.667 61.5 71s32 65.5 44 105.5l30 94zM655 1117l-418 337l157 128l374 -373z" />
    <glyph glyph-name="endash" unicode="&#x2013;" horiz-adv-x="1050" 
d="M110 500v206h830v-206h-830z" />
    <glyph glyph-name="emdash" unicode="&#x2014;" horiz-adv-x="1536" 
d="M110 500v206h1318v-206h-1318z" />
    <glyph glyph-name="quoteleft" unicode="&#x2018;" horiz-adv-x="542" 
d="M262 758c-38 0 -71.334 10.001 -100.001 30.001s-50.834 46.333 -66.501 79s-23.5 68.334 -23.5 107.001c0 65.333 22 127.666 66 186.999s101.333 107 172 143l164 -92c-44 -20.667 -82.667 -45.334 -116 -74.001s-56.666 -62 -69.999 -100
c38 -5.33301 70.167 -19.5 96.5 -42.5s39.5 -53.5 39.5 -91.5c0 -40 -15.167 -74.333 -45.5 -103s-69.166 -43 -116.499 -43z" />
    <glyph glyph-name="quoteright" unicode="&#x2019;" horiz-adv-x="542" 
d="M222 758l-164.001 92c44 21.333 83 46.333 117 75s57 61.667 69 99c-39.333 6 -71.833 20.833 -97.5 44.5s-38.5 54.167 -38.5 91.5c0 42 15.833 76.5 47.5 103.5s70.5 40.5 116.5 40.5c39.333 0 72.833 -10 100.5 -30s48.834 -46.333 63.501 -79s22 -68.334 22 -107.001
c0 -66 -21.833 -128.167 -65.5 -186.5s-100.5 -106.166 -170.5 -143.499z" />
    <glyph glyph-name="quotesinglbase" unicode="&#x201a;" horiz-adv-x="558" 
d="M246 -272l-174 88c44 22 83 47.333 117 76s56.333 61.334 67 98.001c-36.667 7.33301 -68.167 22.666 -94.5 45.999s-39.5 54 -39.5 92c0 40 15.333 73.667 46 101s69.334 41 116.001 41c59.333 0 105.833 -20.667 139.5 -62s50.5 -90.333 50.5 -147
c0 -64.667 -20.333 -127.5 -61 -188.5s-96.334 -109.167 -167.001 -144.5z" />
    <glyph glyph-name="quotedblleft" unicode="&#x201c;" horiz-adv-x="982" 
d="M686 758c-38 0 -71.334 10.001 -100.001 30.001s-50.834 46.333 -66.501 79s-23.5 68.334 -23.5 107.001c0 65.333 22 127.666 66 186.999s101.333 107 172 143l164 -92c-44 -20.667 -82.667 -45.334 -116 -74.001s-56.666 -62 -69.999 -100
c38 -5.33301 70.167 -19.5 96.5 -42.5s39.5 -53.5 39.5 -91.5c0 -40 -15.167 -74.333 -45.5 -103s-69.166 -43 -116.499 -43zM261.999 758.001c-38 0 -71.334 10.001 -100.001 30.001s-50.834 46.333 -66.501 79s-23.5 68.334 -23.5 107.001c0 65.333 22 127.666 66 186.999
s101.333 107 172 143l164 -92c-44 -20.667 -82.667 -45.334 -116 -74.001s-56.666 -62 -69.999 -100c38 -5.33301 70.167 -19.5 96.5 -42.5s39.5 -53.5 39.5 -91.5c0 -40 -15.167 -74.333 -45.5 -103s-69.166 -43 -116.499 -43z" />
    <glyph glyph-name="quotedblright" unicode="&#x201d;" horiz-adv-x="970" 
d="M650 758l-164.001 92c44 21.333 83 46.333 117 75s57 61.667 69 99c-39.333 6 -71.833 20.833 -97.5 44.5s-38.5 54.167 -38.5 91.5c0 42 15.833 76.5 47.5 103.5s70.5 40.5 116.5 40.5c39.333 0 72.833 -10 100.5 -30s48.834 -46.333 63.501 -79s22 -68.334 22 -107.001
c0 -66 -21.833 -128.167 -65.5 -186.5s-100.5 -106.166 -170.5 -143.499zM235.999 758l-164.001 92c44 21.333 83 46.333 117 75s57 61.667 69 99c-39.333 6 -71.833 20.833 -97.5 44.5s-38.5 54.167 -38.5 91.5c0 42 15.833 76.5 47.5 103.5s70.5 40.5 116.5 40.5
c39.333 0 72.833 -10 100.5 -30s48.834 -46.333 63.501 -79s22 -68.334 22 -107.001c0 -66 -21.833 -128.167 -65.5 -186.5s-100.5 -106.166 -170.5 -143.499z" />
    <glyph glyph-name="quotedblbase" unicode="&#x201e;" horiz-adv-x="1032" 
d="M720 -272l-174 88c44 22 83 47.333 117 76s56.333 61.334 67 98.001c-36.667 7.33301 -68.167 22.666 -94.5 45.999s-39.5 54 -39.5 92c0 40 15.333 73.667 46 101s69.334 41 116.001 41c59.333 0 105.833 -20.667 139.5 -62s50.5 -90.333 50.5 -147
c0 -64.667 -20.333 -127.5 -61 -188.5s-96.334 -109.167 -167.001 -144.5zM246 -272l-174 88c44 22 83 47.333 117 76s56.333 61.334 67 98.001c-36.667 7.33301 -68.167 22.666 -94.5 45.999s-39.5 54 -39.5 92c0 40 15.333 73.667 46 101s69.334 41 116.001 41
c59.333 0 105.833 -20.667 139.5 -62s50.5 -90.333 50.5 -147c0 -64.667 -20.333 -127.5 -61 -188.5s-96.334 -109.167 -167.001 -144.5z" />
    <glyph glyph-name="dagger" unicode="&#x2020;" horiz-adv-x="1047" 
d="M408 -252l-27 1550h285l-30 -1550h-228zM91 770v163l432 16l433 -16v-163l-433 -18z" />
    <glyph glyph-name="daggerdbl" unicode="&#x2021;" horiz-adv-x="1047" 
d="M408 -252l-27 1550h285l-30 -1550h-228zM91 770v163l432 16l433 -16v-163l-433 -18zM91 408v162l432 17l433 -17v-162l-433 -19z" />
    <glyph glyph-name="bullet" unicode="&#x2022;" horiz-adv-x="649" 
d="M52.501 630.803c0 82.6396 27.9521 151.911 83.8555 207.814s127.605 83.8555 215.106 83.8555s160.418 -27.9521 218.752 -83.8555s87.501 -125.175 87.501 -207.814c0 -81.4248 -29.167 -149.178 -87.501 -203.259s-131.251 -81.1211 -218.752 -81.1211
s-159.203 27.3438 -215.106 82.0322s-83.8555 122.138 -83.8555 202.348z" />
    <glyph glyph-name="ellipsis" unicode="&#x2026;" horiz-adv-x="1318" 
d="M48 138c0 45.333 15.333 83.334 46 114.001s70 46 118 46s88 -15.333 120 -46s48 -68.667 48 -114c0 -44.667 -16 -81.834 -48 -111.501s-72 -44.5 -120 -44.5s-87.333 15 -118 45s-46 67 -46 111zM502 138.001c0 45.333 15.333 83.334 46 114.001s70 46 118 46
s88 -15.333 120 -46s48 -68.667 48 -114c0 -44.667 -16 -81.834 -48 -111.501s-72 -44.5 -120 -44.5s-87.333 15 -118 45s-46 67 -46 111zM936 138.002c0 45.333 15.333 83.334 46 114.001s70 46 118 46s88 -15.333 120 -46s48 -68.667 48 -114
c0 -44.667 -16 -81.834 -48 -111.501s-72 -44.5 -120 -44.5s-87.333 15 -118 45s-46 67 -46 111z" />
    <glyph glyph-name="perthousand" unicode="&#x2030;" horiz-adv-x="2501" 
d="M419 572c-96 0 -174.167 33.5 -234.5 100.5s-90.5 169.167 -90.5 306.5c0 138 30.167 240.5 90.5 307.5s138.5 100.5 234.5 100.5c95.333 0 173.166 -33.5 233.499 -100.5s90.5 -169.5 90.5 -307.5c0 -137.333 -30.167 -239.5 -90.5 -306.5
s-138.166 -100.5 -233.499 -100.5zM419 702c56 0 99.5 23.833 130.5 71.5s46.5 116.167 46.5 205.5c0 90 -15.5 159 -46.5 207s-74.5 72 -130.5 72c-56.667 0 -100.667 -24 -132 -72s-47 -117 -47 -207c0 -89.333 15.667 -157.833 47 -205.5s75.333 -71.5 132 -71.5z
M1347 -28c-96 0 -174.167 33.5 -234.5 100.5s-90.5 169.167 -90.5 306.5c0 138 30.167 240.5 90.5 307.5s138.5 100.5 234.5 100.5c95.333 0 173.166 -33.5 233.499 -100.5s90.5 -169.5 90.5 -307.5c0 -137.333 -30.167 -239.5 -90.5 -306.5
s-138.166 -100.5 -233.499 -100.5zM1347 102c56 0 99.5 23.833 130.5 71.5s46.5 116.167 46.5 205.5c0 90 -15.5 159 -46.5 207s-74.5 72 -130.5 72c-56.667 0 -100.667 -24 -132 -72s-47 -117 -47 -207c0 -89.333 15.667 -157.833 47 -205.5s75.333 -71.5 132 -71.5z
M2084 -28c-96 0 -174.167 33.5 -234.5 100.5s-90.5 169.167 -90.5 306.5c0 138 30.167 240.5 90.5 307.5s138.5 100.5 234.5 100.5c95.333 0 173.166 -33.5 233.5 -100.5c60.333 -67 90.5 -169.5 90.5 -307.5c0 -137.333 -30.167 -239.5 -90.5 -306.5
s-138.166 -100.5 -233.5 -100.5zM2084 102c56 0 99.5 23.833 130.5 71.5s46.5 116.167 46.5 205.5c0 90 -15.5 159 -46.5 207s-74.5 72 -130.5 72c-56.667 0 -100.667 -24 -132 -72s-47 -117 -47 -207c0 -89.333 15.667 -157.833 47 -205.5s75.333 -71.5 132 -71.5z
M306.499 -24.0254l978.003 1402.76h185.311l-981.065 -1402.76h-182.248z" />
    <glyph glyph-name="guilsinglleft" unicode="&#x2039;" horiz-adv-x="761" 
d="M315 509l352 342l-159 120l-414 -431l414 -432l159 120l-352 343v-62z" />
    <glyph glyph-name="guilsinglright" unicode="&#x203a;" horiz-adv-x="761" 
d="M253 108l-159 120l351 343v-62l-351 342l159 120l414 -431z" />
    <glyph glyph-name="fraction" unicode="&#x2044;" horiz-adv-x="569" 
d="M-291.501 -24.0254l978.003 1402.76h185.311l-981.065 -1402.76h-182.248z" />
    <glyph glyph-name="uni2070" unicode="&#x2070;" horiz-adv-x="861" 
d="M431.25 479.5c-66.667 0 -125.312 15.417 -175.938 46.25s-90.208 77.5 -118.75 140s-42.8125 141.25 -42.8125 236.25c0 95.417 14.2705 174.375 42.8125 236.875s68.125 109.062 118.75 139.688s109.271 45.9375 175.938 45.9375
c65.833 0 124.062 -15.3125 174.688 -45.9375s90.208 -77.1875 118.75 -139.688s42.8125 -141.458 42.8125 -236.875c0 -95 -14.2705 -173.75 -42.8125 -236.25s-68.125 -109.167 -118.75 -140s-108.854 -46.25 -174.688 -46.25zM431.25 614.5
c58.333 0 103.541 24.6875 135.624 74.0625s48.125 120.521 48.125 213.438s-16.042 164.271 -48.125 214.063s-77.291 74.6875 -135.624 74.6875c-58.75 0 -104.271 -24.8955 -136.562 -74.6875s-48.4375 -121.146 -48.4375 -214.063s16.1455 -164.062 48.4375 -213.438
s77.8125 -74.0625 136.562 -74.0625z" />
    <glyph glyph-name="uni2074" unicode="&#x2074;" horiz-adv-x="746" 
d="M444.512 1312.37h137.351v-495.187h136.146v-121.688h-136.146v-173.496h-140.966v173.496h-396.391v107.23zM448.126 1101.53l-234.942 -298.799h234.942v298.799z" />
    <glyph glyph-name="uni2075" unicode="&#x2075;" horiz-adv-x="779" 
d="M403.836 499.133c-56.2256 0 -105.826 9.73828 -148.798 29.2158c-42.9727 19.4775 -76.8086 47.8916 -101.508 85.2422c-24.6992 37.3496 -37.6514 82.7314 -38.8555 136.146h144.58c0 -40.1611 13.8555 -70.2822 41.5664 -90.3633s62.0488 -30.1211 103.014 -30.1211
c43.7754 0 79.6191 14.1572 107.531 42.4707s41.8682 63.1533 41.8682 104.52c0 80.3223 -53.8164 120.483 -161.448 120.483h-238.557l36.1445 401.21h468.681v-130.122h-354.222l27.7119 40.9639l-22.8916 -232.533l-12.0488 13.2539
c19.2773 4.41699 42.1689 7.73047 68.6758 9.93945s49.3984 3.31348 68.6758 3.31348c80.7236 0 145.082 -19.5781 193.075 -58.7354c47.9922 -39.1572 71.9883 -95.082 71.9883 -167.773c0 -51.8076 -12.249 -98.6953 -36.7471 -140.663
c-24.498 -41.9688 -58.8359 -75.2021 -103.013 -99.7002c-44.1777 -24.498 -95.9854 -36.7471 -155.424 -36.7471z" />
    <glyph glyph-name="uni2076" unicode="&#x2076;" horiz-adv-x="808" 
d="M425.957 509.133c-65.4629 0 -123.094 17.0674 -172.894 51.2041s-88.6553 80.8242 -116.567 140.062s-41.8682 126.809 -41.8682 202.714c0 89.5596 14.0566 165.665 42.1699 228.316c28.1123 62.6514 67.5703 110.343 118.374 143.074s110.142 49.0967 178.014 49.0967
c51.8076 0 97.5918 -9.53809 137.352 -28.6143c39.7588 -19.0771 71.084 -45.8848 93.9756 -80.4229s35.3418 -74.9004 37.3496 -121.086h-151.809c-4.41797 31.3252 -15.6631 56.0244 -33.7354 74.0977c-18.0732 18.0723 -44.1777 27.1084 -78.3145 27.1084
c-61.8486 0 -110.845 -27.209 -146.989 -81.627c-36.1455 -54.4189 -54.2178 -128.416 -54.2178 -221.991c0 -12.0479 0.300781 -25.1006 0.90332 -39.1572c0.602539 -14.0557 1.9082 -27.5098 3.91699 -40.3613c6.42578 49.3975 20.582 88.1533 42.4697 116.267
c21.8877 28.1123 48.2939 48.0928 79.2178 59.9404c30.9248 11.8467 63.4551 17.7705 97.5918 17.7705c48.9971 0 92.1699 -10.6426 129.52 -31.9277c37.3506 -21.2852 66.668 -50.6025 87.9531 -87.9531c21.2852 -37.3496 31.9277 -80.1211 31.9277 -128.314
c0 -49.3984 -11.9482 -92.7725 -35.8438 -130.122s-57.2295 -66.3662 -100.001 -87.0488s-92.2695 -31.0244 -148.495 -31.0244zM425.958 639.253c37.751 0 70.0791 11.3467 96.9863 34.0381c26.9082 22.6904 40.3623 52.7109 40.3623 90.0615
c0 38.9561 -13.4541 69.5791 -40.3623 91.8682c-26.9072 22.29 -59.2363 33.4346 -96.9873 33.4346c-24.9004 0 -47.4912 -5.2207 -67.7725 -15.6631s-36.5469 -25.1016 -48.7959 -43.9775s-18.373 -40.7637 -18.373 -65.6631c0 -37.3506 13.1523 -67.3711 39.458 -90.0615
c26.3057 -22.6914 58.1338 -34.0371 95.4844 -34.0371z" />
    <glyph glyph-name="uni2077" unicode="&#x2077;" horiz-adv-x="633" 
d="M72.0127 516l357.836 644.586h-381.933v137.352h549.404v-136.146l-333.739 -645.791h-191.568z" />
    <glyph glyph-name="uni2078" unicode="&#x2078;" horiz-adv-x="857" 
d="M428.161 509.133c-67.0693 0 -125.308 9.94336 -174.705 29.8232c-49.3984 19.8799 -87.6523 46.9883 -114.761 81.3262s-40.6631 73.1934 -40.6631 116.567c0 36.9482 9.83984 68.4746 29.5186 94.5791s46.5869 46.1846 80.7236 60.2412s72.4902 21.085 115.062 21.085
c16.8682 0 32.5312 -1.40527 46.9893 -4.2168s31.3262 -6.62695 50.6035 -11.4463v-34.9404c-34.1377 0 -64.459 -5.02051 -90.9648 -15.0605c-26.5068 -10.04 -47.29 -23.4941 -62.3506 -40.3613c-15.0605 -16.8682 -22.5908 -35.3428 -22.5908 -55.4238
c0 -23.2939 8.2334 -43.2744 24.6992 -59.9414s38.5547 -29.5186 66.2656 -38.5547c27.7119 -9.03613 58.4355 -13.5547 92.1709 -13.5547c62.6514 0 109.037 8.13281 139.157 24.3984c30.1211 16.2646 45.1816 37.0479 45.1816 62.3496
c0 20.0811 -7.3291 37.25 -21.9883 51.5068s-35.041 26.4053 -61.1455 36.4453l-222.895 85.543c-26.9072 10.4424 -54.3174 24.9004 -82.2295 43.375c-27.9121 18.4736 -51.5068 41.5664 -70.7842 69.2773s-28.916 60.4424 -28.916 98.1943
c0 43.374 11.9482 81.0254 35.8438 112.954c23.8955 31.9277 58.4346 56.627 103.616 74.0967c45.1807 17.4697 99.9004 26.2051 164.158 26.2051c57.0293 0 108.436 -9.63867 154.219 -28.916c45.7842 -19.2773 82.1299 -45.7832 109.038 -79.5186
c26.9072 -33.7354 40.3613 -72.29 40.3613 -115.664c0 -30.1211 -8.2334 -58.0332 -24.6992 -83.7363s-40.3613 -46.4863 -71.6865 -62.3496c-31.3252 -15.8643 -69.0762 -23.7959 -113.253 -23.7959c-15.2617 0 -29.3184 1.30566 -42.1699 3.91602
s-27.7109 6.52637 -44.5781 11.7471v40.9639c26.5068 0 51.1055 4.31738 73.7959 12.9521s40.9639 20.6836 54.8203 36.1455c13.8555 15.4619 20.7832 33.6348 20.7832 54.5186c0 21.2852 -6.62695 39.7598 -19.8799 55.4229s-31.627 27.8115 -55.1211 36.4453
c-23.4941 8.63477 -50.7031 12.9521 -81.6279 12.9521c-29.3174 0 -55.8232 -3.91602 -79.5176 -11.7471c-23.6953 -7.83105 -42.4707 -18.5742 -56.3262 -32.2295c-13.8555 -13.6543 -20.7832 -29.1162 -20.7832 -46.3857c0 -19.6787 6.82715 -35.8438 20.4824 -48.4941
c13.6543 -12.6514 33.333 -24.1982 59.0361 -34.6406l230.124 -89.1572c57.4307 -22.0889 101.508 -47.6914 132.231 -76.8086c30.7227 -29.1162 46.084 -69.7793 46.084 -121.989c0 -43.374 -12.9521 -81.9287 -38.8555 -115.664s-63.5547 -60.2412 -112.953 -79.5186
s-109.238 -28.916 -179.521 -28.916z" />
    </font>
</defs>
</svg>
