<?xml version="1.0" standalone="no"?>
<!DOCTYPE svg PUBLIC "-//W3C//DTD SVG 1.1//EN" "http://www.w3.org/Graphics/SVG/1.1/DTD/svg11.dtd" >
<svg>
<metadata>
Created by FontForge 20090914 at Tue Apr 13 17:19:07 2021
 By www-data
Copyright 2019 The Karla Project Authors (https://github.com/googlefonts/karla)
</metadata>
<defs>
<font id="Karla-ExtraBold" horiz-adv-x="1200" >
  <font-face 
    font-family="Karla ExtraBold"
    font-weight="800"
    font-stretch="normal"
    units-per-em="2000"
    panose-1="2 11 0 4 3 5 3 3 0 3"
    ascent="1600"
    descent="-400"
    x-height="985"
    cap-height="1342"
    bbox="-316.647 -513.003 2592 2062"
    underline-thickness="50"
    underline-position="-75"
    unicode-range="U+000D-U+FB02"
  />
<missing-glyph horiz-adv-x="1031" 
d="M10 1645h1011v-1640h-1011v1640zM0 1655v-1660h1031v1660h-1031zM1021 5c-60.667 67.333 -120.5 148.498 -179.5 243.498s-119.167 199.167 -180.5 312.5l-192 354.5c-66.667 123 -137.834 246.5 -213.501 370.5s-157.5 243.667 -245.5 359
c92.667 -152 182.334 -307.167 269.001 -465.5l254.5 -460c83 -148.333 165 -284.166 246 -407.499s161.5 -225.666 241.5 -306.999zM10 4.99805c80 81.333 160.5 183.668 241.5 307.001s163 259.166 246 407.499l254.5 460c86.667 158.333 176.334 313.5 269.001 465.5
c-88 -115.333 -169.833 -235 -245.5 -359s-146.834 -247.5 -213.501 -370.5l-192 -354.5c-61.333 -113.333 -121.5 -217.5 -180.5 -312.5s-118.833 -176.167 -179.5 -243.5z" />
    <glyph glyph-name="fi" unicode="fi" horiz-adv-x="1507" 
d="M229 0l0.000976562 1071c0 77.333 15.333 140 46 188s70.667 83.167 120 105.5s101.333 33.5 156 33.5c37.333 0 76.666 -2.5 117.999 -7.5s81 -10.167 119 -15.5l-63 -243c-13.333 3.33301 -27.833 6.66602 -43.5 9.99902s-31.5 5 -47.5 5s-30 -3 -42 -9
s-21.333 -15.167 -28 -27.5s-10 -27.5 -10 -45.5v-1065h-325zM98.001 778.001v207h613v-207h-613zM1148 1112c-60.667 0 -107.5 15.5 -140.5 46.5s-49.5 74.833 -49.5 131.5c0 55.333 16.5 99.5 49.5 132.5s79.833 49.5 140.5 49.5c58.667 0 105 -16.5 139 -49.5
s51 -77.167 51 -132.5c0 -56.667 -17 -100.5 -51 -131.5s-80.333 -46.5 -139 -46.5zM988.001 0.000976562v991h320v-991h-320z" />
    <glyph glyph-name="fl" unicode="fl" horiz-adv-x="1448" 
d="M229 0l0.000976562 1071c0 77.333 15.333 140 46 188s70.667 83.167 120 105.5s101.333 33.5 156 33.5c37.333 0 76.666 -2.5 117.999 -7.5s81 -10.167 119 -15.5l-63 -243c-13.333 3.33301 -27.833 6.66602 -43.5 9.99902s-31.5 5 -47.5 5s-30 -3 -42 -9
s-21.333 -15.167 -28 -27.5s-10 -27.5 -10 -45.5v-1065h-325zM98.001 778.001v207h613v-207h-613zM957.001 0.000976562v1380h320v-1380h-320z" />
    <glyph glyph-name=".notdef" horiz-adv-x="1031" 
d="M10 1645h1011v-1640h-1011v1640zM0 1655v-1660h1031v1660h-1031zM1021 5c-60.667 67.333 -120.5 148.498 -179.5 243.498s-119.167 199.167 -180.5 312.5l-192 354.5c-66.667 123 -137.834 246.5 -213.501 370.5s-157.5 243.667 -245.5 359
c92.667 -152 182.334 -307.167 269.001 -465.5l254.5 -460c83 -148.333 165 -284.166 246 -407.499s161.5 -225.666 241.5 -306.999zM10 4.99805c80 81.333 160.5 183.668 241.5 307.001s163 259.166 246 407.499l254.5 460c86.667 158.333 176.334 313.5 269.001 465.5
c-88 -115.333 -169.833 -235 -245.5 -359s-146.834 -247.5 -213.501 -370.5l-192 -354.5c-61.333 -113.333 -121.5 -217.5 -180.5 -312.5s-118.833 -176.167 -179.5 -243.5z" />
    <glyph glyph-name="CR" unicode="&#xd;" 
 />
    <glyph glyph-name="space" unicode=" " horiz-adv-x="539" 
 />
    <glyph glyph-name="exclam" unicode="!" horiz-adv-x="619" 
d="M177 528l-32 876h350l-36 -876h-282zM321 -18c-63.333 0 -114.833 19.167 -154.5 57.5s-59.5 87.833 -59.5 148.5c0 58 19.833 106.667 59.5 146s91.167 59 154.5 59c62.667 0 114.667 -19.667 156 -59s62 -88 62 -146c0 -60.667 -20.667 -110.167 -62 -148.5
s-93.333 -57.5 -156 -57.5z" />
    <glyph glyph-name="quotedbl" unicode="&#x22;" horiz-adv-x="929" 
d="M584 866l-41 514h316l-42 -514h-233zM111 866l-41 514h316l-42 -514h-233z" />
    <glyph glyph-name="numbersign" unicode="#" horiz-adv-x="1466" 
d="M264 70l26 245h-168l19 205h171l30 272h-172l23 204h169l28 245h302l-28 -245h234l26 245h300l-24 -245h167l-20 -204h-172l-27 -272h171l-20 -205h-172l-25 -245h-302l26 245h-235l-25 -245h-302zM614 520h234l30 272h-234z" />
    <glyph glyph-name="dollar" unicode="$" horiz-adv-x="1501" 
d="M782 -32c-86.667 0 -169.668 8.66699 -249.001 26s-149.833 44.666 -211.5 81.999s-110.334 85.833 -146.001 145.5s-53.5 131.834 -53.5 216.501h316c0 -44 12.833 -79.167 38.5 -105.5s65.334 -45.166 119.001 -56.499s121.834 -17 204.501 -17
c54 0 96.833 4.66699 128.5 14s54.5 22.5 68.5 39.5s21 36.5 21 58.5c0 25.333 -9.16699 48.666 -27.5 69.999s-44.5 39.333 -78.5 54l-157 64v272l319 -118c109.333 -40 187.333 -87.333 234 -142s70 -124 70 -208c0 -66.667 -20.667 -130.167 -62 -190.5
s-105.833 -109.5 -193.5 -147.5s-201.167 -57 -340.5 -57zM643.999 -223v1750h216v-1750h-216zM697.999 551l-192 66.999c-114 40 -203.333 88.333 -268 145s-97 133.334 -97 230.001c0 113.333 51 204.833 153 274.5s250.333 104.5 445 104.5
c184 0 322.5 -39.333 415.5 -118s151.5 -187.667 175.5 -327h-316c-10 44 -38.333 84 -85 120s-112 54 -196 54c-82 0 -143 -10.833 -183 -32.5s-60 -50.167 -60 -85.5c0 -23.333 7.83301 -42.833 23.5 -58.5s39.167 -30.167 70.5 -43.5l114 -52v-278z" />
    <glyph glyph-name="percent" unicode="%" horiz-adv-x="1611" 
d="M202 0l915 1342h318l-912 -1342h-321zM1228 -24c-52 0 -100.167 11.5 -144.5 34.5s-79.833 58.333 -106.5 106s-40 107.834 -40 180.501c0 74 13.333 134.833 40 182.5s62.167 83 106.5 106s92.5 34.5 144.5 34.5c52.667 0 101.334 -11.5 146.001 -34.5
s80.667 -58.333 108 -106s41 -108.5 41 -182.5c0 -72.667 -13.667 -132.834 -41 -180.501s-63.333 -83 -108 -106s-93.334 -34.5 -146.001 -34.5zM1228 174c18.667 0 33.667 8.33301 45 25s17 49.334 17 98.001s-5.66699 81.834 -17 99.501s-26.333 26.5 -45 26.5
s-33.5 -8.83301 -44.5 -26.5s-16.5 -50.834 -16.5 -99.501s5.5 -81.334 16.5 -98.001s25.833 -25 44.5 -25zM413 731c-52 0 -100.167 11.5 -144.5 34.5s-79.833 58.5 -106.5 106.5s-40 108.667 -40 182c0 72 13.333 131.5 40 178.5s62.167 82 106.5 105
s92.5 34.5 144.5 34.5c54 0 103.333 -11.5 148 -34.5s80.334 -58 107.001 -105s40 -106.5 40 -178.5c0 -73.333 -13.333 -134 -40 -182s-62.334 -83.5 -107.001 -106.5s-94 -34.5 -148 -34.5zM413 927c19.333 0 34.833 8.66699 46.5 26s17.5 51 17.5 101
c0 47.333 -5.83301 79.166 -17.5 95.499s-27.167 24.5 -46.5 24.5c-18.667 0 -33.334 -8.16699 -44.001 -24.5s-16 -48.166 -16 -95.499c0 -50 5.33301 -83.667 16 -101s25.334 -26 44.001 -26z" />
    <glyph glyph-name="ampersand" unicode="&#x26;" horiz-adv-x="2036" 
d="M1560 -32c-79.333 0 -153.168 17.6689 -221.501 53.002s-140.166 88.333 -215.499 159l-611 570c-36 33.333 -67.333 74.333 -94 123s-40 100 -40 154c0 60.667 18.5 116.667 55.5 168s92 92.666 165 123.999s163.167 47 270.5 47c106 0 195.167 -15.333 267.5 -46
s127 -71.334 164 -122.001s55.5 -106.334 55.5 -167.001c0 -68 -17.167 -128 -51.5 -180s-83.666 -96.5 -147.999 -133.5s-141.166 -67.5 -230.499 -91.5l-164 152c44.667 14 85.167 29.833 121.5 47.5s65.333 39 87 64s32.5 55.167 32.5 90.5c0 31.333 -12.5 57 -37.5 77
s-57.167 30 -96.5 30c-43.333 0 -76.833 -10 -100.5 -30s-35.5 -45.333 -35.5 -76c0 -26 6.66699 -49.5 20 -70.5s31.666 -43.167 54.999 -66.5l574 -533c21.333 -18.667 42.666 -33.667 63.999 -45s47.333 -17 78 -17c30 0 55 10.833 75 32.5s30 54.834 30 99.501h283
c-0.666992 -124 -30 -223.833 -88 -299.5s-146 -113.5 -264 -113.5zM771.998 -31.998c-77.333 0 -151.002 10.501 -221.002 31.501s-132.167 50.667 -186.5 89s-97 83.333 -128 135s-46.5 108.167 -46.5 169.5c0 104 43.167 183.667 129.5 239s201.166 88.333 344.499 99
l116 -165c-86 -6 -146.667 -22.667 -182 -50s-53 -60.666 -53 -99.999c0 -29.333 9.33301 -55.833 28 -79.5s45.334 -42.334 80.001 -56.001s75.334 -20.5 122.001 -20.5c66.667 0 129.667 12.667 189 38s115 61.5 167 108.5s100.5 103.167 145.5 168.5
s85.833 138 122.5 218l209 -118c-40 -112 -88.833 -211.667 -146.5 -299s-122.5 -161.333 -194.5 -222s-149.667 -106.834 -233 -138.501s-170.666 -47.5 -261.999 -47.5z" />
    <glyph glyph-name="quotesingle" unicode="'" horiz-adv-x="451" 
d="M68 1354h316l-42 -514h-233z" />
    <glyph glyph-name="parenleft" unicode="(" horiz-adv-x="891" 
d="M587 1565l231 -173c-77.333 -82.667 -141.5 -162.334 -192.5 -239.001s-89 -155 -114 -235s-37.5 -166.333 -37.5 -259c0 -136.667 28.333 -261.167 85 -373.5s143 -230.166 259 -353.499l-231 -176c-156.667 135.333 -269.334 276.833 -338.001 424.5
s-103 307.167 -103 478.5c0 172.667 34.333 333.167 103 481.5s181.334 289.833 338.001 424.5z" />
    <glyph glyph-name="parenright" unicode=")" horiz-adv-x="891" 
d="M305 -244l-233 175.999c116.667 123.333 203.5 241.166 260.5 353.499s85.5 236.833 85.5 373.5c0 92.667 -12.667 179 -38 259s-63.5 158.333 -114.5 235s-115.5 156.334 -193.5 239.001l233 173c156 -134.667 268.5 -276.167 337.5 -424.5s103.5 -308.833 103.5 -481.5
c0 -114.667 -15 -223.667 -45 -327s-77.5 -202.666 -142.5 -297.999s-149.5 -188 -253.5 -278z" />
    <glyph glyph-name="asterisk" unicode="*" horiz-adv-x="811" 
d="M133 936l164 147l-210 66l73 176l183 -94l-30 219h202l-30 -219l183 100l73 -178l-204 -68l164 -149l-148 -127l-137 196l-144 -196z" />
    <glyph glyph-name="plus" unicode="+" horiz-adv-x="1122" 
d="M401 982h322v-350h365v-282h-365v-350h-322v350h-365v282h365v350z" />
    <glyph glyph-name="comma" unicode="," horiz-adv-x="598" 
d="M268 -329l-233.002 120c50.667 25.333 96.834 54.833 138.501 88.5s69.5 70.5 83.5 110.5c-45.333 11.333 -84.166 32 -116.499 62s-48.5 68.667 -48.5 116c0 52.667 20.333 96.5 61 131.5s92 52.5 154 52.5c77.333 0 137.333 -26.667 180 -80s64 -116.333 64 -189
c0 -82 -26 -160.833 -78 -236.5s-120.333 -134.167 -205 -175.5z" />
    <glyph glyph-name="hyphen" unicode="-" horiz-adv-x="801" 
d="M109 485v280h581v-280h-581z" />
    <glyph glyph-name="period" unicode="." horiz-adv-x="507" 
d="M35 186c0 59.333 19.833 108.664 59.5 147.997s91.167 59 154.5 59s115.666 -19.667 156.999 -59s62 -88.666 62 -147.999s-20.667 -108.166 -62 -146.499s-93.666 -57.5 -156.999 -57.5s-114.833 19.333 -154.5 58s-59.5 87.334 -59.5 146.001z" />
    <glyph glyph-name="slash" unicode="/" horiz-adv-x="1027" 
d="M98 -177l526 1696h328l-530 -1696h-324z" />
    <glyph glyph-name="zero" unicode="0" horiz-adv-x="1347" 
d="M676 -32c-114.667 0 -216.5 25.333 -305.5 76s-158.667 127.834 -209 231.501s-75.5 234.834 -75.5 393.501c0 160.667 25.167 292.834 75.5 396.501s120 180.667 209 231s190.833 75.5 305.5 75.5c113.333 0 214 -25.167 302 -75.5s157.333 -127.333 208 -231
s76 -235.834 76 -396.501c0 -158.667 -25.333 -289.834 -76 -393.501s-120 -180.834 -208 -231.501s-188.667 -76 -302 -76zM676 259c77.333 0 139.333 34.5 186 103.5s70 171.167 70 306.5s-23.333 238.166 -70 308.499s-108.667 105.5 -186 105.5
c-80.667 0 -144.167 -35.167 -190.5 -105.5s-69.5 -173.166 -69.5 -308.499s23.167 -237.5 69.5 -306.5s109.833 -103.5 190.5 -103.5z" />
    <glyph glyph-name="one" unicode="1" horiz-adv-x="768" 
d="M365 1354l232 -0.00195312v-1354h-320v969c-38 -9.33301 -73.5 -16.666 -106.5 -21.999s-66.167 -7.66602 -99.5 -6.99902v304c48.667 4 96.167 14.333 142.5 31s96.833 43 151.5 79z" />
    <glyph glyph-name="two" unicode="2" horiz-adv-x="1264" 
d="M112 0l0.00195312 260.002c0 72.667 10 135.5 30 188.5s52.333 98.5 97 136.5s103.667 70.667 177 98l285 106c51.333 20 88.666 43.667 111.999 71s35 60.333 35 99c0 35.333 -14 66.833 -42 94.5s-69.333 41.5 -124 41.5c-50.667 0 -94.334 -15.333 -131.001 -46
s-57.667 -74.334 -63 -131.001h-354c-0.666992 105.333 23.833 191.5 73.5 258.5s115.834 116.333 198.501 148s172.667 47.5 270 47.5c94.667 0 180.834 -17.333 258.501 -52s139.667 -83.5 186 -146.5s69.5 -137.833 69.5 -224.5c0 -68.667 -12.333 -129.667 -37 -183
s-64.334 -100.833 -119.001 -142.5s-127.334 -79.5 -218.001 -113.5l-283 -107c-38.667 -14.667 -65.167 -28.834 -79.5 -42.501s-21.5 -31.5 -21.5 -53.5v-15h754v-292h-1074z" />
    <glyph glyph-name="three" unicode="3" horiz-adv-x="1310" 
d="M660 -32c-74.667 0 -146.999 9.83301 -216.999 29.5s-132.833 49 -188.5 88s-99.834 87.5 -132.501 145.5s-49 125.333 -49 202h341c4 -32.667 16 -62.167 36 -88.5s47.5 -47.166 82.5 -62.499s77.5 -23 127.5 -23c68 0 122.333 14.667 163 44s61 66.666 61 111.999
c0 31.333 -8 57 -24 77s-39.167 34.833 -69.5 44.5s-67.5 14.5 -111.5 14.5h-204v251h199c53.333 0 95 13.333 125 40s45 61.667 45 105c0 39.333 -14.333 71.833 -43 97.5s-75.667 38.5 -141 38.5c-56.667 0 -107.334 -11.667 -152.001 -35s-71 -60.666 -79 -111.999h-340
c8 100 36.333 182.167 85 246.5s113.334 112 194.001 143s172.667 46.5 276 46.5c105.333 0 198.833 -16 280.5 -48s146 -76.667 193 -134s70.5 -124.333 70.5 -201c0 -66 -17.167 -124.333 -51.5 -175s-86.166 -87.667 -155.499 -111
c77.333 -30.667 138.166 -72.834 182.499 -126.501s66.5 -118.167 66.5 -193.5c0 -81.333 -24.167 -153.333 -72.5 -216s-115.333 -111.5 -201 -146.5s-184.5 -52.5 -296.5 -52.5z" />
    <glyph glyph-name="four" unicode="4" horiz-adv-x="1267" 
d="M706 1352h314v-807h234v-276h-234v-269h-318v269h-666v239zM720 893l-306 -385h306v385z" />
    <glyph glyph-name="five" unicode="5" horiz-adv-x="1201" 
d="M625 -32c-108 0 -200.832 18.167 -278.499 54.5s-137.834 88.833 -180.501 157.5s-65.667 151.334 -69 248.001h328c0 -57.333 19 -99.833 57 -127.5s85.667 -41.5 143 -41.5c55.333 0 103.166 19.333 143.499 58s60.5 86 60.5 142c0 104 -73.667 156 -221 156h-459
l66 727h864v-294h-607l61 83l-34 -331l-20 26c32 7.33301 71.833 13.166 119.5 17.499s87.167 6.5 118.5 6.5c132 0 238 -34.667 318 -104s120 -165 120 -287c0 -90.667 -22.333 -173.167 -67 -247.5s-106.667 -133.5 -186 -177.5s-171.666 -66 -276.999 -66z" />
    <glyph glyph-name="six" unicode="6" horiz-adv-x="1286" 
d="M688 -32c-116.667 0 -220.328 28.834 -310.995 86.501s-161.834 137.667 -213.501 240s-77.5 219.833 -77.5 352.5c0 157.333 25.833 289.833 77.5 397.5s123 189.167 214 244.5s195.167 83 312.5 83c98 0 184.5 -17.667 259.5 -53s133.667 -85 176 -149
s63.166 -139.333 62.499 -226h-338c-4 43.333 -18.5 77.333 -43.5 102s-59.833 37 -104.5 37c-90.667 0 -163.167 -40.667 -217.5 -122s-81.5 -191.333 -81.5 -330c0 -14.667 0.5 -29.167 1.5 -43.5s2.5 -28.5 4.5 -42.5c16 75.333 42.667 134.166 80 176.499
s81.166 72.333 131.499 90s102.833 26.5 157.5 26.5c86.667 0 162 -18.667 226 -56s113.667 -88.666 149 -153.999s53 -139.666 53 -222.999c0 -86.667 -21.833 -162.834 -65.5 -228.501s-104.334 -116.834 -182.001 -153.501s-167.834 -55 -270.501 -55zM688.006 259.001
c49.333 0 93.333 15.333 132 46s58 69.334 58 116.001c0 51.333 -19.333 91.5 -58 120.5s-82.667 43.5 -132 43.5c-32 0 -62 -6.5 -90 -19.5s-50.667 -31.667 -68 -56s-26 -53.833 -26 -88.5c0 -46.667 18.5 -85.334 55.5 -116.001s79.833 -46 128.5 -46z" />
    <glyph glyph-name="seven" unicode="7" horiz-adv-x="1054" 
d="M57 0l585 1030h-594v312h971v-312l-529 -1030h-433z" />
    <glyph glyph-name="eight" unicode="8" horiz-adv-x="1360" 
d="M680 -32c-124.667 0 -231.331 17.3359 -319.998 52.0029s-156.667 81.834 -204 141.501s-71 126.834 -71 201.501c0 59.333 16.333 109.666 49 150.999s76.667 73 132 95s117 33 185 33c37.333 0 71.166 -3.66699 101.499 -11l110.5 -28v-70
c-46 0 -87.833 -5.83301 -125.5 -17.5s-67.5 -27.5 -89.5 -47.5s-33 -43 -33 -69c0 -27.333 12.333 -51.5 37 -72.5s57.167 -37.5 97.5 -49.5s83.833 -18 130.5 -18c99.333 0 168.833 9.66699 208.5 29s59.5 42.333 59.5 69c0 20.667 -8.33301 39.834 -25 57.501
s-40.334 33.167 -71.001 46.5l-395 153c-47.333 18.667 -96.166 44.667 -146.499 78s-92.666 75.166 -126.999 125.499s-51.5 109.5 -51.5 177.5c0 80 21.167 148 63.5 204s104.333 98.833 186 128.5s181.167 44.5 298.5 44.5c100.667 0 192.834 -16.833 276.501 -50.5
s150.5 -80.334 200.5 -140.001s75 -128.5 75 -206.5c0 -48 -14.333 -92.5 -43 -133.5s-69.334 -74.167 -122.001 -99.5s-115 -38 -187 -38c-32.667 0 -62.334 3 -89.001 9s-58.334 15 -95.001 27v87c33.333 0 65.833 5 97.5 15s57.667 24.333 78 43s30.5 40.667 30.5 66
c0 29.333 -9.5 53.666 -28.5 72.999s-45.167 34 -78.5 44s-71.666 15 -114.999 15c-40 0 -76.667 -4.16699 -110 -12.5s-60 -20 -80 -35s-30 -33.167 -30 -54.5c0 -20.667 7.16699 -38.334 21.5 -53.001s37.166 -29 68.499 -43l419 -165
c98.667 -38.667 174.5 -82.834 227.5 -132.501s79.5 -120.167 79.5 -211.5c0 -78 -23.167 -147.833 -69.5 -209.5s-113.833 -110.167 -202.5 -145.5s-196.667 -53 -324 -53z" />
    <glyph glyph-name="nine" unicode="9" horiz-adv-x="1283" 
d="M621 -32c-96.667 0 -184.335 17.835 -263.002 53.502s-141.5 85.667 -188.5 150s-70.5 139.5 -70.5 225.5h334c4 -42.667 23.667 -76.334 59 -101.001s74.333 -37 117 -37c66.667 0 119.834 19 159.501 57s68.5 90.667 86.5 158s27 145 27 233
c0 13.333 -0.5 27.666 -1.5 42.999s-2.5 29.666 -4.5 42.999c-16.667 -74.667 -44 -133 -82 -175s-81.833 -71.5 -131.5 -88.5s-101.167 -25.5 -154.5 -25.5c-86.667 0 -162.167 18.167 -226.5 54.5s-114.166 86.833 -149.499 151.5s-53 139 -53 223
c0 88 21.833 164.833 65.5 230.5s104.167 116.834 181.5 153.501s165.666 55 264.999 55c83.333 0 161.5 -16.5 234.5 -49.5s137.333 -79.833 193 -140.5s99.334 -132.667 131.001 -216s47.5 -175.666 47.5 -276.999c0 -146.667 -21.833 -273.834 -65.5 -381.501
s-108.167 -191.167 -193.5 -250.5s-191 -89 -317 -89zM594.999 757.002c32 0 62.168 6.33105 90.501 18.998s51.333 30.834 69 54.501s26.5 51.834 26.5 84.501c0 50 -19.333 89.833 -58 119.5s-82.667 44.5 -132 44.5c-47.333 0 -89.5 -14.833 -126.5 -44.5
s-55.5 -69.5 -55.5 -119.5c0 -50.667 18.667 -89.667 56 -117s80.666 -41 129.999 -41z" />
    <glyph glyph-name="colon" unicode=":" horiz-adv-x="621" 
d="M91 186c0 59.333 19.833 108.664 59.5 147.997s91.167 59 154.5 59s115.666 -19.667 156.999 -59s62 -88.666 62 -147.999s-20.667 -108.166 -62 -146.499s-93.666 -57.5 -156.999 -57.5s-114.833 19.333 -154.5 58s-59.5 87.334 -59.5 146.001zM91 765.998
c0 59.333 19.833 108.664 59.5 147.997s91.167 59 154.5 59s115.666 -19.667 156.999 -59s62 -88.666 62 -147.999s-20.667 -108.166 -62 -146.499s-93.666 -57.5 -156.999 -57.5s-114.833 19.333 -154.5 58s-59.5 87.334 -59.5 146.001z" />
    <glyph glyph-name="semicolon" unicode=";" horiz-adv-x="715" 
d="M334 -329l-233.002 120c50.667 25.333 96.834 54.833 138.501 88.5s69.5 70.5 83.5 110.5c-45.333 11.333 -84.166 32 -116.499 62s-48.5 68.667 -48.5 116c0 52.667 20.333 96.5 61 131.5s92 52.5 154 52.5c77.333 0 137.333 -26.667 180 -80s64 -116.333 64 -189
c0 -82 -26 -160.833 -78 -236.5s-120.333 -134.167 -205 -175.5zM175.998 766c0 59.333 19.833 108.664 59.5 147.997s91.167 59 154.5 59s115.666 -19.667 156.999 -59s62 -88.666 62 -147.999s-20.667 -108.166 -62 -146.499s-93.666 -57.5 -156.999 -57.5
s-114.833 19.333 -154.5 58s-59.5 87.334 -59.5 146.001z" />
    <glyph glyph-name="less" unicode="&#x3c;" horiz-adv-x="1107" 
d="M806 1331l213 -243l-688 -477v138l688 -477l-213 -241l-708 503v292z" />
    <glyph glyph-name="equal" unicode="=" horiz-adv-x="1051" 
d="M158 425h736v-277h-736v277zM158 883h736v-275h-736v275z" />
    <glyph glyph-name="greater" unicode="&#x3e;" horiz-adv-x="1107" 
d="M299 31l-213 241l688 477v-138l-688 477l213 243l707 -505v-292z" />
    <glyph glyph-name="question" unicode="?" horiz-adv-x="1073" 
d="M346 459l-0.00292969 70.002c0 58 7.33301 105.5 22 142.5s36.834 67.667 66.501 92s67.5 46.5 113.5 66.5c39.333 18.667 68.833 35.834 88.5 51.501s32.667 31 39 46s9.5 30.833 9.5 47.5c0 31.333 -12.5 57.166 -37.5 77.499s-59.167 30.5 -102.5 30.5
c-57.333 0 -101.833 -15 -133.5 -45s-47.167 -67 -46.5 -111h-330c5.33301 136 50.333 244.167 135 324.5s204.334 120.5 359.001 120.5c104.667 0 195 -17.167 271 -51.5s134.833 -81.333 176.5 -141s62.5 -127.834 62.5 -204.501c0 -70.667 -17.5 -130.834 -52.5 -180.501
s-88.167 -90.834 -159.5 -123.501c-41.333 -19.333 -73.666 -37.666 -96.999 -54.999s-39.5 -35.5 -48.5 -54.5s-13.5 -41.5 -13.5 -67.5v-35h-322zM515.997 -31.998c-64.667 0 -116.5 19.333 -155.5 58s-58.5 86.667 -58.5 144c0 59.333 19.5 108.166 58.5 146.499
s90.833 57.5 155.5 57.5c64 0 116.333 -19.167 157 -57.5s61 -87.166 61 -146.499c0 -57.333 -20.333 -105.333 -61 -144s-93 -58 -157 -58z" />
    <glyph glyph-name="at" unicode="@" horiz-adv-x="2238" 
d="M1190 -512c-160 0 -304.829 23.3223 -434.496 69.9893s-240.834 111.834 -333.501 195.501s-163.834 181.667 -213.501 294s-74.5 234.166 -74.5 365.499c0 140.667 27.5 269.5 82.5 386.5s131.667 218.333 230 304s212.666 151.834 342.999 198.501s270.5 70 420.5 70
c140.667 0 267.5 -20.167 380.5 -60.5s209.5 -96.666 289.5 -168.999s141.333 -157.166 184 -254.499s64 -202.666 64 -315.999c0 -99.333 -15.333 -186.666 -46 -261.999s-72 -138.166 -124 -188.499s-110.167 -88.166 -174.5 -113.499s-130.166 -38 -197.499 -38
c-66 0 -122.167 11.167 -168.5 33.5s-78.833 51.5 -97.5 87.5l-18 35c-22.667 -44 -52.834 -81 -90.501 -111s-88.5 -45 -152.5 -45c-67.333 0 -128.333 17.5 -183 52.5s-97.834 82.833 -129.501 143.5s-47.5 129.334 -47.5 206.001c0 70.667 13.5 137.167 40.5 199.5
s64.5 117.333 112.5 165s103.333 85.167 166 112.5s129.334 41 200.001 41c99.333 0 177.5 -29 234.5 -87s85.5 -144.667 85.5 -260v-218c0 -36.667 5.66699 -62.5 17 -77.5s26.333 -22.5 45 -22.5c24 0 52.5 11 85.5 33s61.833 57.833 86.5 107.5s37 115.834 37 198.501
c0 100 -21.833 189 -65.5 267s-108.834 139.5 -195.501 184.5s-194.667 67.5 -324 67.5c-112 0 -215 -17.5 -309 -52.5s-175.5 -84.167 -244.5 -147.5s-122.333 -138.166 -160 -224.499s-56.5 -181.166 -56.5 -284.499c0 -120.667 27.333 -228 82 -322
s136.667 -167.833 246 -221.5s245.333 -80.5 408 -80.5v-262zM1119 226.989c40 0 72.834 10.833 98.501 32.5s50.167 53.167 73.5 94.5v185c0 26.667 -5.5 51.167 -16.5 73.5s-34.167 33.5 -69.5 33.5c-34 0 -68.5 -11.5 -103.5 -34.5s-64.333 -54.5 -88 -94.5
s-35.5 -86 -35.5 -138c0 -54.667 13.667 -93.667 41 -117s60.666 -35 99.999 -35z" />
    <glyph glyph-name="A" unicode="A" horiz-adv-x="1358" 
d="M36 0l452 1342h407l427 -1342h-337l-73 236h-463l-73 -236h-340zM530 473h309l-152 491z" />
    <glyph glyph-name="B" unicode="B" horiz-adv-x="1352" 
d="M169 0v1342h581c108.667 0 198.667 -15.833 270 -47.5s124.833 -74.667 160.5 -129s53.5 -115.833 53.5 -184.5c0 -74 -21.167 -136.667 -63.5 -188s-97.833 -88.666 -166.5 -111.999c46 -12 88 -30.333 126 -55s68.5 -57.167 91.5 -97.5s34.5 -90.166 34.5 -149.499
c0 -39.333 -7.33301 -81 -22 -125s-40.334 -85.167 -77.001 -123.5s-87.667 -69.666 -153 -93.999s-148.666 -36.5 -249.999 -36.5h-585zM489 279.997h254.999c54 0 95 10.167 123 30.5s42 49.833 42 88.5s-13.167 69.667 -39.5 93s-68.166 35 -125.499 35h-255v-247z
M488.999 1065l0.000976562 -255.999h247c61.333 0 105 11.667 131 35s39 53.666 39 90.999c0 36 -12.833 66.667 -38.5 92s-68.834 38 -129.501 38h-249z" />
    <glyph glyph-name="C" unicode="C" horiz-adv-x="1310" 
d="M679 -32c-117.333 0 -220.498 26.333 -309.498 79s-158.5 131 -208.5 235s-75 233 -75 387c0 154.667 24.833 284 74.5 388s119.167 182.5 208.5 235.5s192.666 79.5 309.999 79.5c169.333 0 298.333 -40 387 -120s141.334 -183.667 158.001 -311l-340 -59
c-15.333 57.333 -39.5 104.833 -72.5 142.5s-77.167 56.5 -132.5 56.5c-49.333 0 -92.833 -14.833 -130.5 -44.5s-66.834 -74.834 -87.501 -135.501s-31 -138 -31 -232c0 -92 10.667 -168.167 32 -228.5s50.833 -105.166 88.5 -134.499s80.5 -44 128.5 -44
c68.667 0 120 18.167 154 54.5s51 80.5 51 132.5h338c0 -103.333 -20.833 -190.833 -62.5 -262.5s-102.834 -126 -183.501 -163s-179.667 -55.5 -297 -55.5z" />
    <glyph glyph-name="D" unicode="D" horiz-adv-x="1429" 
d="M169 1342l475 -0.000976562c138 0 259.667 -27.333 365 -82s187.833 -132.167 247.5 -232.5s89.5 -219.833 89.5 -358.5c0 -136.667 -29.833 -255.167 -89.5 -355.5s-142.167 -177.666 -247.5 -231.999s-227 -81.5 -365 -81.5h-475v1342zM489 1048v-756.001h155
c72.667 0 135.5 16.5 188.5 49.5s94 77.833 123 134.5s43.5 121 43.5 193c0 74.667 -14.5 140.334 -43.5 197.001s-70 101.167 -123 133.5s-115.833 48.5 -188.5 48.5h-155z" />
    <glyph glyph-name="E" unicode="E" horiz-adv-x="1224" 
d="M167 0v1342h897v-277h-577v-258h541v-278h-541v-249h577v-280h-897z" />
    <glyph glyph-name="F" unicode="F" horiz-adv-x="1140" 
d="M169 0v1342h875v-277h-555v-263h497v-273h-497v-529h-320z" />
    <glyph glyph-name="G" unicode="G" horiz-adv-x="1423" 
d="M677 -32c-112.667 0 -213.496 29.999 -302.496 89.999s-159.333 142.833 -211 248.5s-77.5 227.167 -77.5 364.5c0 103.333 15.167 197.833 45.5 283.5s73.666 159.667 129.999 222s123.666 110.5 201.999 144.5s165.5 51 261.5 51
c145.333 0 263.666 -32.833 354.999 -98.5s156.333 -168.5 195 -308.5l-340 -61c-22.667 55.333 -52.667 99 -90 131s-83.333 48 -138 48c-52 0 -98.833 -16.667 -140.5 -50s-74.5 -80.666 -98.5 -141.999s-36 -134.666 -36 -219.999c0 -84.667 12 -157.834 36 -219.501
s56.833 -109.167 98.5 -142.5s88.5 -50 140.5 -50c51.333 0 97.166 10.833 137.499 32.5s72 51 95 88s34.5 77.833 34.5 122.5h56c0 -109.333 -13 -204 -39 -284s-65 -141.667 -117 -185s-117.667 -65 -197 -65zM1014 -0.000976562l-40 276v238l-267 2v196h571v-712h-264z
" />
    <glyph glyph-name="H" unicode="H" horiz-adv-x="1489" 
d="M169 1342h320v-529h507v529h323v-1342h-323v531h-507v-531h-320v1342z" />
    <glyph glyph-name="I" unicode="I" horiz-adv-x="660" 
d="M169 0v1342h320v-1342h-320z" />
    <glyph glyph-name="J" unicode="J" horiz-adv-x="971" 
d="M49 46v313c59.333 -30.667 116.333 -51.5 171 -62.5s103.334 -16.5 146.001 -16.5c43.333 0 76.166 12.5 98.499 37.5s33.5 67.833 33.5 128.5v896h324v-896c0 -118.667 -18.833 -212.834 -56.5 -282.501s-88.5 -119.667 -152.5 -150s-136.333 -45.5 -217 -45.5
c-64 0 -125.333 7.33301 -184 22s-113 33.334 -163 56.001z" />
    <glyph glyph-name="K" unicode="K" horiz-adv-x="1406" 
d="M949 1342h437l-913 -928v429zM736 800l688 -800h-409l-497 591zM169 1342h322v-1342h-322v1342z" />
    <glyph glyph-name="L" unicode="L" horiz-adv-x="1044" 
d="M489 1342v-1062h507v-280h-827v1342h320z" />
    <glyph glyph-name="M" unicode="M" horiz-adv-x="1807" 
d="M169 1342h458l297 -716h-25l297 716h440v-1342h-322v955h44l-345 -830h-207l-343 828h26v-953h-320v1342z" />
    <glyph glyph-name="N" unicode="N" horiz-adv-x="1503" 
d="M163 1342h334l539 -812h-22v812h320v-1342h-309l-595 892h53v-892h-320v1342z" />
    <glyph glyph-name="O" unicode="O" horiz-adv-x="1443" 
d="M720 -32c-127.333 0 -238.5 26.833 -333.5 80.5s-168.833 133 -221.5 238s-79 234.5 -79 388.5c0 158 26.333 288.5 79 391.5s126.5 179.667 221.5 230s206.167 75.5 333.5 75.5c128.667 0 240.834 -26.333 336.501 -79s169.834 -130.667 222.501 -234
s79 -231.333 79 -384c0 -156.667 -26.333 -287.5 -79 -392.5s-126.834 -183.667 -222.501 -236s-207.834 -78.5 -336.501 -78.5zM720 255c93.333 0 168 36.834 224 110.501s84 177.5 84 311.5c0 126 -28 225.5 -84 298.5s-130.667 109.5 -224 109.5
c-90.667 0 -164 -36.5 -220 -109.5s-84 -173.167 -84 -300.5c0 -132.667 28 -235.834 84 -309.501s129.333 -110.5 220 -110.5z" />
    <glyph glyph-name="P" unicode="P" horiz-adv-x="1218" 
d="M161 0v1342h515c154.667 0 277.334 -37.167 368.001 -111.5s136 -184.166 136 -329.499c0 -144.667 -45.333 -254.5 -136 -329.5s-213.334 -112.5 -368.001 -112.5h-193v-459h-322zM483 738.999l193 0.000976562c58 0 101.833 16.167 131.5 48.5
s44.5 70.166 44.5 113.499c0 44 -14.833 82.333 -44.5 115s-73.5 49 -131.5 49h-193v-326z" />
    <glyph glyph-name="Q" unicode="Q" horiz-adv-x="1444" 
d="M720 -32c-127.333 0 -238.5 26.833 -333.5 80.5s-168.833 133 -221.5 238s-79 234.5 -79 388.5c0 158 26.333 288.5 79 391.5s126.5 179.667 221.5 230s206.167 75.5 333.5 75.5c128.667 0 240.834 -26.333 336.501 -79s169.834 -130.667 222.501 -234
s79 -231.333 79 -384c0 -156.667 -26.333 -287.5 -79 -392.5s-126.834 -183.667 -222.501 -236s-207.834 -78.5 -336.501 -78.5zM1141 -387c-73.333 0 -142.667 20.166 -208 60.499s-120 95.833 -164 166.5l-138 219l238 134l116 -195c16 -26 37.167 -44.167 63.5 -54.5
s53.833 -16.166 82.5 -17.499c31.333 0 63 3.66699 95 11s65 17 99 29v-319c-32 -12.667 -62.833 -21.5 -92.5 -26.5s-60.167 -7.5 -91.5 -7.5zM719.999 254.999c93.333 0 168 36.834 224 110.501s84 177.5 84 311.5c0 126 -28 225.5 -84 298.5s-130.667 109.5 -224 109.5
c-90.667 0 -164 -36.5 -220 -109.5s-84 -173.167 -84 -300.5c0 -132.667 28 -235.834 84 -309.501s129.333 -110.5 220 -110.5z" />
    <glyph glyph-name="R" unicode="R" horiz-adv-x="1352" 
d="M169 0v1342h524c168 0 298.5 -38.5 391.5 -115.5s139.5 -180.167 139.5 -309.5c0 -126.667 -46.5 -228.167 -139.5 -304.5s-223.5 -114.5 -391.5 -114.5h-204v-498h-320zM869 0l-327 648h338l408 -648h-419zM489 706l168 0.000976562c79.333 0 138.833 16.5 178.5 49.5
s59.5 75.167 59.5 126.5c0 53.333 -16.833 97.166 -50.5 131.499s-84.167 51.5 -151.5 51.5h-204v-359z" />
    <glyph glyph-name="S" unicode="S" horiz-adv-x="1344" 
d="M674 -32c-96 0 -185.001 16.167 -267.001 48.5s-148.667 83 -200 152s-79.666 158.833 -84.999 269.5h316c0 -40.667 10.333 -74.334 31 -101.001s48.834 -46.334 84.501 -59.001s75.167 -19 118.5 -19c34.667 0 67.167 3 97.5 9s54.833 16.667 73.5 32s28 36.333 28 63
c0 32.667 -9.83301 57 -29.5 73s-55.167 34.333 -106.5 55l-292 127c-96 41.333 -170.667 90 -224 146s-80 132.333 -80 229c0 113.333 46.167 204.833 138.5 274.5s218.833 104.5 379.5 104.5c163.333 0 288.666 -38.5 375.999 -115.5s136.333 -186.833 147 -329.5h-314
c-8 44 -27.5 81 -58.5 111s-81.167 45 -150.5 45c-50 0 -90.333 -9.16699 -121 -27.5s-46 -41.166 -46 -68.499c0 -25.333 9.83301 -45.333 29.5 -60s49.167 -30.667 88.5 -48l309 -131c102.667 -44.667 179.167 -97 229.5 -157s75.5 -132 75.5 -216
c0 -90 -21.5 -165.167 -64.5 -225.5s-105.333 -105.666 -187 -135.999s-180.5 -45.5 -296.5 -45.5z" />
    <glyph glyph-name="T" unicode="T" horiz-adv-x="1128" 
d="M12 1065v277h1105v-277h-463l72 72v-1137h-320v1137l72 -72h-466z" />
    <glyph glyph-name="U" unicode="U" horiz-adv-x="1458" 
d="M158 1342h320v-814c0 -95.333 24.333 -164 73 -206s109.667 -63 183 -63c74.667 0 136.5 21 185.5 63s73.5 110.667 73.5 206v814h319v-814c0 -113.333 -22.333 -212 -67 -296s-110 -149 -196 -195s-191 -69 -315 -69s-228.833 23 -314.5 69s-150.667 111 -195 195
s-66.5 182.667 -66.5 296v814z" />
    <glyph glyph-name="V" unicode="V" horiz-adv-x="1289" 
d="M630 355l290 987h334l-444 -1342h-338l-436 1342h338l284 -987h-28z" />
    <glyph glyph-name="W" unicode="W" horiz-adv-x="2003" 
d="M12 1342h356l301 -1060h-74l285 1020h216l314 -996h-65l284 1036h363l-448 -1342h-337l-216 676h14l-206 -676h-336z" />
    <glyph glyph-name="X" unicode="X" horiz-adv-x="1455" 
d="M37 0l474 669l-474 673h397l292 -422l234 422h386l-440 -667l514 -675h-405l-319 420l-271 -420h-388z" />
    <glyph glyph-name="Y" unicode="Y" horiz-adv-x="1253" 
d="M10 1342h376l258 -503h-52l275 503h375l-470 -785v-557h-318v557z" />
    <glyph glyph-name="Z" unicode="Z" horiz-adv-x="1335" 
d="M146 0v271l737 895v-115l-737 -3v294h1045v-267l-668 -818v35l668 2v-294h-1045z" />
    <glyph glyph-name="bracketleft" unicode="[" horiz-adv-x="780" 
d="M169 -366v2072h599v-294h-279v-1484h279v-294h-599z" />
    <glyph glyph-name="backslash" unicode="\" horiz-adv-x="1027" 
d="M74 1520l526 -1696h328l-530 1696h-324z" />
    <glyph glyph-name="bracketright" unicode="]" horiz-adv-x="779" 
d="M612 -366v2072h-599v-294h279v-1484h-279v-294h599z" />
    <glyph glyph-name="asciicircum" unicode="^" horiz-adv-x="1224" 
d="M38 379l444 863h262l444 -863h-350l-287 626h124l-289 -626h-348z" />
    <glyph glyph-name="underscore" unicode="_" horiz-adv-x="1627" 
d="M110 0v280h1408v-280h-1408z" />
    <glyph glyph-name="grave" unicode="`" horiz-adv-x="795" 
d="M558 1108l-472 351l208 168l414 -395z" />
    <glyph glyph-name="a" unicode="a" horiz-adv-x="1242" 
d="M815 0l-40.998 263.003v369c0 49.333 -9 87.666 -27 114.999s-56.333 41 -115 41c-34.667 0 -62.834 -5.16699 -84.501 -15.5s-37.667 -24 -48 -41s-15.5 -35.5 -15.5 -55.5h-346c0 77.333 18.333 141.166 55 191.499s91.667 87.833 165 112.5s164.666 37 273.999 37
c95.333 0 177.5 -14.667 246.5 -44s122.167 -73.333 159.5 -132s56 -132.334 56 -221.001v-620h-279zM505.002 -31.9971c-88 0 -162.167 14.833 -222.5 44.5s-105.833 69.834 -136.5 120.501s-46 106.667 -46 168c0 58 16 108.167 48 150.5s79.5 75.166 142.5 98.499
s140.5 35 232.5 35c56 0 105.5 -3 148.5 -9s87.167 -13.333 132.5 -22v-180c-33.333 7.33301 -67.833 13 -103.5 17s-70.5 6 -104.5 6c-47.333 0 -84.833 -7.5 -112.5 -22.5s-41.5 -39.5 -41.5 -73.5c0 -24.667 12.333 -46.167 37 -64.5s63.667 -27.5 117 -27.5
c45.333 0 81 9 107 27s44.333 40.667 55 68s16 54.333 16 81h75c0 -76 -12 -145.667 -36 -209s-61.333 -113.833 -112 -151.5s-116 -56.5 -196 -56.5z" />
    <glyph glyph-name="b" unicode="b" horiz-adv-x="1273" 
d="M726 -32c-56.667 0 -109.498 17.167 -158.498 51.5s-88.333 87.333 -118 159s-44.5 163.167 -44.5 274.5h84c0 -34.667 9.16699 -66.667 27.5 -96s41.666 -52.833 69.999 -70.5s57.166 -26.5 86.499 -26.5c40.667 0 75.5 10.333 104.5 31s51.5 49 67.5 85
s24 76.667 24 122c0 43.333 -7.83301 82.333 -23.5 117s-38.167 62 -67.5 82s-65 30 -107 30c-32.667 0 -62.834 -7.66699 -90.501 -23s-49.834 -36.833 -66.501 -64.5s-25 -60.167 -25 -97.5h-84c0 106 13.5 194.167 40.5 264.5s66.333 123 118 158s114.5 52.5 188.5 52.5
c82.667 0 156.834 -21.667 222.501 -65s117.834 -103.833 156.501 -181.5s58 -168.5 58 -272.5c0 -105.333 -20.5 -197.833 -61.5 -277.5s-96.333 -141.667 -166 -186s-148.167 -66.5 -235.5 -66.5zM169.002 0v1380h320v-1123l-120 -257h-200z" />
    <glyph glyph-name="c" unicode="c" horiz-adv-x="1087" 
d="M571 -32c-86 0 -165.833 21.665 -239.5 64.998s-133 104.333 -178 183s-67.5 170.667 -67.5 276c0 115.333 22.5 211.833 67.5 289.5s104.333 136.334 178 176.001s153.5 59.5 239.5 59.5c72.667 0 136.167 -12.333 190.5 -37s99.5 -57 135.5 -97s62.833 -84 80.5 -132
s26.5 -95 26.5 -141l-320 3c-4.66699 28.667 -16.167 54.834 -34.5 78.501s-45.166 35.5 -80.499 35.5c-28 0 -54.5 -7.16699 -79.5 -21.5s-45.333 -38.5 -61 -72.5s-23.5 -81 -23.5 -141c0 -58.667 7.83301 -105 23.5 -139s36 -58 61 -72s51.5 -21 79.5 -21
c45.333 0 75.833 10.5 91.5 31.5s23.5 47.5 23.5 79.5h320c0 -70.667 -15.667 -136.667 -47 -198s-78.833 -110.833 -142.5 -148.5s-144.834 -56.5 -243.501 -56.5z" />
    <glyph glyph-name="d" unicode="d" horiz-adv-x="1273" 
d="M544 -32c-85.333 0 -162.83 22.167 -232.497 66.5s-124.834 106.333 -165.501 186s-61 172.167 -61 277.5c0 104 19.333 194.833 58 272.5s91 138.167 157 181.5s140 65 222 65c74 0 137 -17.5 189 -52.5s91.5 -87.667 118.5 -158s40.5 -158.5 40.5 -264.5h-89
c0 37.333 -8.16699 69.833 -24.5 97.5s-37.833 49.167 -64.5 64.5s-56.334 23 -89.001 23c-42 0 -77.833 -10 -107.5 -30s-52.167 -47.333 -67.5 -82s-23 -73.667 -23 -117c0 -45.333 7.83301 -86 23.5 -122s38.167 -64.333 67.5 -85s63.666 -31 102.999 -31
c31.333 0 60.833 8.83301 88.5 26.5s50.167 41.167 67.5 70.5s26 61.333 26 96h89c0 -111.333 -15.167 -202.833 -45.5 -274.5s-70.333 -124.667 -120 -159s-103.167 -51.5 -160.5 -51.5zM844.003 0l-63 257v1123h324v-1380h-261z" />
    <glyph glyph-name="e" unicode="e" horiz-adv-x="1095" 
d="M563 -32c-82.667 0 -160.333 21.333 -233 64s-131.5 103.667 -176.5 183s-67.5 173.333 -67.5 282s22.333 201.834 67 279.501s103.334 137.167 176.001 178.5s150.667 62 234 62c82.667 0 154.667 -16.5 216 -49.5s110.833 -77.5 148.5 -133.5
s62.334 -119.167 74.001 -189.5s9.16699 -142.833 -7.5 -217.5h-655v162h421l-46 -30c2 23.333 1.16699 47 -2.5 71s-10.834 46.167 -21.501 66.5s-25.834 36.666 -45.501 48.999s-44.834 18.5 -75.501 18.5c-34 0 -63.5 -8.16699 -88.5 -24.5s-44.333 -40 -58 -71
s-20.5 -68.833 -20.5 -113.5v-126c0 -42 6 -78.333 18 -109s29.833 -54.5 53.5 -71.5s53.5 -25.5 89.5 -25.5c29.333 0 55 6 77 18s37.333 31 46 57h318c-10 -61.333 -34.5 -117 -73.5 -167s-89.667 -89.667 -152 -119s-134.166 -44 -215.499 -44z" />
    <glyph glyph-name="f" unicode="f" horiz-adv-x="788" 
d="M229 0l0.000976562 1071c0 77.333 15.333 140 46 188s70.667 83.167 120 105.5s101.333 33.5 156 33.5c37.333 0 76.666 -2.5 117.999 -7.5s81 -10.167 119 -15.5l-63 -243c-13.333 3.33301 -27.833 6.66602 -43.5 9.99902s-31.5 5 -47.5 5s-30 -3 -42 -9
s-21.333 -15.167 -28 -27.5s-10 -27.5 -10 -45.5v-1065h-325zM98.001 778.001v207h613v-207h-613z" />
    <glyph glyph-name="g" unicode="g" horiz-adv-x="1201" 
d="M581 -513c-125.333 0 -231.169 16.833 -317.502 50.5s-151.666 77.334 -195.999 131.001s-66.5 110.5 -66.5 170.5c0 63.333 22.667 113 68 149s100.666 54 165.999 54l263 -75c-58 0 -102.667 -9.5 -134 -28.5s-47 -46.167 -47 -81.5c0 -40 24.833 -69.333 74.5 -88
s112.834 -28 189.501 -28c54 0 100 8.5 138 25.5s66.833 38.833 86.5 65.5s29.5 54.334 29.5 83.001c0 17.333 -4.83301 30.333 -14.5 39s-24.834 13 -45.501 13h-277c-66 0 -129.333 11.333 -190 34s-110.167 53.834 -148.5 93.501s-57.5 84.5 -57.5 134.5
c0 41.333 11.333 77.666 34 108.999s54.834 55.666 96.501 72.999s90.167 26 145.5 26l92 -99c-18.667 0 -35.5 -3 -50.5 -9s-26.833 -14.833 -35.5 -26.5s-13 -26.167 -13 -43.5c0 -22.667 10 -40.167 30 -52.5s52.333 -18.5 97 -18.5h277
c117.333 0 209.333 -18.833 276 -56.5s100 -101.834 100 -192.501c0 -77.333 -23.667 -150.5 -71 -219.5s-113.666 -125 -198.999 -168s-185.333 -64.5 -300 -64.5zM575.997 321c-80 0 -154.167 14.167 -222.5 42.5s-123.5 68.333 -165.5 120s-63 112.834 -63 183.501
c0 72.667 21 135.167 63 187.5s97.167 92.5 165.5 120.5s142.5 42 222.5 42c78.667 0 152.334 -14 221.001 -42s124.334 -68.167 167.001 -120.5s64 -114.833 64 -187.5c0 -70.667 -21.333 -131.834 -64 -183.501s-98.334 -91.667 -167.001 -120
s-142.334 -42.5 -221.001 -42.5zM579.997 540c48.667 0 83.168 12.333 103.501 37s30.5 54.667 30.5 90c0 41.333 -10.333 73.833 -31 97.5s-56.334 35.5 -107.001 35.5c-46 0 -80 -11.833 -102 -35.5s-33 -56.167 -33 -97.5c0 -35.333 11.167 -65.333 33.5 -90
s57.5 -37 105.5 -37zM951.998 857l-144 94.998c0 60.667 16 113.334 48 158.001s73 79.334 123 104.001s101.333 37 154 37l-12 -302c-55.333 0 -97.333 -7.5 -126 -22.5s-43 -38.167 -43 -69.5z" />
    <glyph glyph-name="h" unicode="h" horiz-adv-x="1287" 
d="M821 0v574.001c0 52 -12.667 90.5 -38 115.5s-56 37.5 -92 37.5c-36.667 0 -70.334 -10.333 -101.001 -31s-55.167 -53.834 -73.5 -99.501s-27.5 -106.167 -27.5 -181.5h-97c0 141.333 16.833 256.333 50.5 345s79.667 153.667 138 195s124.5 62 198.5 62
c84.667 0 153.834 -19 207.501 -57s93.167 -90.333 118.5 -157s38 -143 38 -229v-574h-322zM169 0.000976562v1380h320v-1380h-320z" />
    <glyph glyph-name="i" unicode="i" horiz-adv-x="719" 
d="M360 1112c-60.667 0 -107.5 15.5 -140.5 46.5s-49.5 74.833 -49.5 131.5c0 55.333 16.5 99.5 49.5 132.5s79.833 49.5 140.5 49.5c58.667 0 105 -16.5 139 -49.5s51 -77.167 51 -132.5c0 -56.667 -17 -100.5 -51 -131.5s-80.333 -46.5 -139 -46.5zM200 0v991h320v-991
h-320z" />
    <glyph glyph-name="j" unicode="j" horiz-adv-x="715" 
d="M353 1112c-58.667 0 -105.334 15.5 -140.001 46.5s-52 74.833 -52 131.5c0 55.333 17.333 99.5 52 132.5s81.334 49.5 140.001 49.5s105 -16.5 139 -49.5s51 -77.167 51 -132.5c0 -56.667 -17 -100.5 -51 -131.5s-80.333 -46.5 -139 -46.5zM162 -513
c-58.667 0 -110.666 5.16699 -155.999 15.5s-91 21.833 -137 34.5v275c28.667 -11.333 61.667 -21.666 99 -30.999s72 -14 104 -14c41.333 0 72.166 9.66699 92.499 29s30.5 57.666 30.5 114.999v1078h322v-1084c0 -151.333 -30 -258.833 -90 -322.5
s-148.333 -95.5 -265 -95.5z" />
    <glyph glyph-name="k" unicode="k" horiz-adv-x="1242" 
d="M169 0v1380h320v-1380h-320zM449 659l340 326h427l-767 -652v326zM854 0l-413 633l293 81l508 -714h-388z" />
    <glyph glyph-name="l" unicode="l" horiz-adv-x="660" 
d="M169 0v1380h320v-1380h-320z" />
    <glyph glyph-name="m" unicode="m" horiz-adv-x="1926" 
d="M1460 0l0.00195312 574c0 52 -12.5 90.5 -37.5 115.5s-56.167 37.5 -93.5 37.5c-54.667 0 -99.334 -23.5 -134.001 -70.5s-52 -127.5 -52 -241.5h-126c0 118 10.667 215.833 32 293.5s50.666 139 87.999 184s80.166 77 128.499 96s99.833 28.5 154.5 28.5
c84 0 152.833 -19 206.5 -57s93.334 -90.333 119.001 -157s38.5 -143 38.5 -229v-574h-324zM169.002 0v985.002h282l34 -139c34 59.333 76.5 102.666 127.5 129.999s106.5 41 166.5 41c84.667 0 153.834 -19 207.501 -57s93.167 -90.333 118.5 -157s38 -143 38 -229v-574
h-322v574c0 52 -12.667 90.5 -38 115.5s-56 37.5 -92 37.5c-36.667 0 -70.334 -10.333 -101.001 -31s-55.167 -53.834 -73.5 -99.501s-27.5 -106.167 -27.5 -181.5v-415h-320z" />
    <glyph glyph-name="n" unicode="n" horiz-adv-x="1287" 
d="M821 0v574.001c0 52 -12.667 90.5 -38 115.5s-56 37.5 -92 37.5c-36.667 0 -70.334 -10.333 -101.001 -31s-55.167 -53.834 -73.5 -99.501s-27.5 -106.167 -27.5 -181.5h-97c0 141.333 16.833 256.333 50.5 345s79.667 153.667 138 195s124.5 62 198.5 62
c84.667 0 153.834 -19 207.501 -57s93.167 -90.333 118.5 -157s38 -143 38 -229v-574h-322zM169 0.000976562v985h282l38 -163v-822h-320z" />
    <glyph glyph-name="o" unicode="o" horiz-adv-x="1173" 
d="M589 -32c-91.333 0 -175.166 18.833 -251.499 56.5s-137.333 95 -183 172s-68.5 174.833 -68.5 293.5c0 122.667 22.833 222.667 68.5 300s106.667 134.5 183 171.5s160.166 55.5 251.499 55.5c89.333 0 171.666 -18.5 246.999 -55.5s135.833 -94.167 181.5 -171.5
s68.5 -177.333 68.5 -300c0 -118.667 -22.833 -216.5 -68.5 -293.5s-106.167 -134.333 -181.5 -172s-157.666 -56.5 -246.999 -56.5zM577 247c30.667 0 60.5 8 89.5 24s53.167 41.833 72.5 77.5s29 82.834 29 141.501c0 91.333 -16.333 155.666 -49 192.999s-72 56 -118 56
c-30.667 0 -61.167 -8 -91.5 -24s-55.333 -42.167 -75 -78.5s-29.5 -85.166 -29.5 -146.499c0 -88.667 17.167 -151.334 51.5 -188.001s74.5 -55 120.5 -55z" />
    <glyph glyph-name="p" unicode="p" horiz-adv-x="1274" 
d="M710 -32c-72.667 0 -133.333 14.6709 -182 44.0039s-85.167 75.333 -109.5 138s-36.5 144 -36.5 244h107c0 -26.667 7.66699 -50 23 -70s36 -35.667 62 -47s54.333 -17 85 -17s62.167 7.66699 94.5 23s59.666 40 81.999 74s33.5 79 33.5 135
c0 47.333 -8.33301 88.666 -25 123.999s-40.167 62.666 -70.5 81.999s-66.5 29 -108.5 29c-34 0 -64.333 -7 -91 -21s-47.5 -33.833 -62.5 -59.5s-22.5 -55.834 -22.5 -90.501h-107c0 112 16.167 201.667 48.5 269s74.833 116.166 127.5 146.499s108.667 45.5 168 45.5
c78.667 0 153.334 -20.667 224.001 -62s128.167 -101 172.5 -179s66.5 -172.667 66.5 -284c0 -110.667 -22.5 -205 -67.5 -283s-104 -137.667 -177 -179s-151.167 -62 -234.5 -62zM169.001 -477.996v1463h261l59 -257v-1206h-320z" />
    <glyph glyph-name="q" unicode="q" horiz-adv-x="1274" 
d="M563 -32c-82.667 0 -160.335 20.6641 -233.002 61.9971s-131.5 101 -176.5 179s-67.5 172.333 -67.5 283c0 111.333 22 206 66 284s100.833 137.667 170.5 179s143.5 62 221.5 62c60 0 116.333 -15.167 169 -45.5s95.334 -79.166 128.001 -146.499s49 -157 49 -269h-109
c0 34.667 -7.16699 64.834 -21.5 90.501s-34.166 45.5 -59.499 59.5s-55.333 21 -90 21c-42.667 0 -79.334 -9.66699 -110.001 -29s-54.167 -46.666 -70.5 -81.999s-24.5 -76.666 -24.5 -123.999c0 -56 11.167 -101 33.5 -135s49.833 -58.667 82.5 -74
s64.334 -23 95.001 -23c29.333 0 56.5 5.83301 81.5 17.5s45.167 27.667 60.5 48s23 43.166 23 68.499h46c0 -82.667 -6.66699 -156 -20 -220s-39 -114.333 -77 -151s-93.667 -55 -167 -55zM1140 -513.003c-128 29.333 -219.835 75.998 -275.502 139.998
s-83.5 151.333 -83.5 262v839l122 257h200v-1122c0 -33.333 3.83301 -59.166 11.5 -77.499s20.334 -32.666 38.001 -42.999s41.834 -19.833 72.501 -28.5z" />
    <glyph glyph-name="r" unicode="r" horiz-adv-x="850" 
d="M169 0v991h320v-991h-320zM421 420c0 134 17 244 51 330s77 149.667 129 191s105 62 159 62c10.667 0 21.334 -0.5 32.001 -1.5s20.667 -2.5 30 -4.5l3 -322c-16.667 2 -33.667 3.5 -51 4.5s-33.666 1.5 -48.999 1.5c-46.667 0 -87.834 -8.66699 -123.501 -26
s-63.334 -45 -83.001 -83s-29.5 -88.667 -29.5 -152h-68z" />
    <glyph glyph-name="s" unicode="s" horiz-adv-x="1059" 
d="M550 -32c-94 0 -177.002 12.5 -249.002 37.5s-128.167 62.667 -168.5 113s-60.166 113.833 -59.499 190.5h289c1.33301 -34.667 14.833 -58.667 40.5 -72s60.5 -20 104.5 -20c26.667 0 48.667 3.33301 66 10s30.333 15.5 39 26.5s13 22.833 13 35.5
c0 16.667 -6 30 -18 40s-30.667 20 -56 30l-239 93c-70.667 29.333 -125.167 66.5 -163.5 111.5s-57.5 98.5 -57.5 160.5c0 87.333 40.333 158 121 212s191 81 331 81c131.333 0 232.333 -30.667 303 -92s106.334 -139.333 107.001 -234h-293c0 21.333 -9 39.833 -27 55.5
s-48 23.5 -90 23.5c-34.667 0 -62 -5.66699 -82 -17s-30 -26.333 -30 -45c0 -25.333 21 -45.333 63 -60l272 -109c67.333 -26.667 120.333 -60 159 -100s58 -90 58 -150c0 -54.667 -18.833 -106.5 -56.5 -155.5s-89.167 -88.833 -154.5 -119.5s-139.333 -46 -222 -46z" />
    <glyph glyph-name="t" unicode="t" horiz-adv-x="828" 
d="M533 -32c-62.667 0 -121.167 11.334 -175.5 34.001s-98 58.167 -131 106.5s-49.5 110.5 -49.5 186.5v939h322v-927c0 -60 29.667 -90 89 -90c18.667 0 38.5 2.16699 59.5 6.5s45.5 11.5 73.5 21.5l47 -223c-40.667 -14.667 -79.5 -27.334 -116.5 -38.001
s-76.5 -16 -118.5 -16zM60 778.001v207h663v-207h-663z" />
    <glyph glyph-name="u" unicode="u" horiz-adv-x="1299" 
d="M811 991h320v-991h-320v991zM158 991l320.001 -0.00195312v-596c0 -45.333 11.5 -78.833 34.5 -100.5s52.5 -32.5 88.5 -32.5c32.667 0 65.167 8 97.5 24s59.166 43.333 80.499 82s32 92.334 32 161.001h70c0 -130.667 -15 -236.167 -45 -316.5
s-70.833 -138.833 -122.5 -175.5s-110.167 -55 -175.5 -55c-66 0 -128 11.333 -186 34s-104.833 61.334 -140.5 116.001s-53.5 130 -53.5 226v633z" />
    <glyph glyph-name="v" unicode="v" horiz-adv-x="1073" 
d="M11 985h371l161 -712h-14l161 712h370l-341 -985h-367z" />
    <glyph glyph-name="w" unicode="w" horiz-adv-x="1586" 
d="M11 985h335l174 -671h-28l156 612h302l158 -614h-30l174 673h320l-326 -985h-316l-163 579h49l-156 -579h-320z" />
    <glyph glyph-name="x" unicode="x" horiz-adv-x="1195" 
d="M11 0l395 490l-395 501h395l200 -260l186 260h391l-388 -501l390 -490h-391l-208 257l-180 -257h-395z" />
    <glyph glyph-name="y" unicode="y" horiz-adv-x="1087" 
d="M32 985l366.001 0.000976562l202 -705h-49l201 705h324l-384 -1144c-46.667 -134.667 -100.834 -227.334 -162.501 -278.001s-133.5 -76 -215.5 -76c-50 0 -100.167 4.5 -150.5 13.5s-100.5 23.833 -150.5 44.5v275c37.333 -17.333 73.833 -30.5 109.5 -39.5
s70.5 -13.5 104.5 -13.5c22.667 0 44 4.16699 64 12.5s38.333 22.833 55 43.5s30.667 49 42 85l32 92z" />
    <glyph glyph-name="z" unicode="z" horiz-adv-x="1033" 
d="M122 0v261l441 466h-441v258h790v-258l-417 -466h417v-261h-790z" />
    <glyph glyph-name="braceleft" unicode="{" horiz-adv-x="872" 
d="M873 -350c-140 0 -255.333 23 -346 69s-157.834 109.833 -201.501 191.5s-65.5 175.5 -65.5 281.5v182c0 52 -3.5 87.167 -10.5 105.5s-23.5 27.5 -49.5 27.5h-66v329h66c26 0 42.5 8.66699 49.5 26s10.5 53 10.5 107v184c0 106 21.833 199 65.5 279
s110.834 142.5 201.501 187.5s206 67.5 346 67.5v-290c-98 0 -171.667 -18.833 -221 -56.5s-74 -102.167 -74 -193.5v-198c0 -66 -15.5 -122.167 -46.5 -168.5s-69.167 -80.5 -114.5 -102.5v-15c45.333 -22 83.5 -56.167 114.5 -102.5s46.5 -102.5 46.5 -168.5v-198
c0 -91.333 24.667 -155.833 74 -193.5s123 -56.5 221 -56.5v-294z" />
    <glyph glyph-name="bar" unicode="|" horiz-adv-x="660" 
d="M169 -244v1826h320v-1826h-320z" />
    <glyph glyph-name="braceright" unicode="}" horiz-adv-x="872" 
d="M-1 -350c140 0 255.333 23 346 69s157.834 109.833 201.501 191.5s65.5 175.5 65.5 281.5v182c0 52 3.5 87.167 10.5 105.5s23.5 27.5 49.5 27.5h66v329h-66c-26 0 -42.5 8.66699 -49.5 26s-10.5 53 -10.5 107v184c0 106 -21.833 199 -65.5 279
s-110.834 142.5 -201.501 187.5s-206 67.5 -346 67.5v-290c98 0 171.667 -18.833 221 -56.5s74 -102.167 74 -193.5v-198c0 -66 15.5 -122.167 46.5 -168.5s69.167 -80.5 114.5 -102.5v-15c-45.333 -22 -83.5 -56.167 -114.5 -102.5s-46.5 -102.5 -46.5 -168.5v-198
c0 -91.333 -24.667 -155.833 -74 -193.5s-123 -56.5 -221 -56.5v-294z" />
    <glyph glyph-name="asciitilde" unicode="~" horiz-adv-x="1255" 
d="M290 368l-168.002 90.999c24.667 101.333 60 183.5 106 246.5s110.667 94.5 194 94.5c34.667 0 70.5 -4.83301 107.5 -14.5s78.833 -23.5 125.5 -41.5c41.333 -16 76.166 -28.333 104.499 -37s52.833 -13 73.5 -13c27.333 0 51.833 9.16699 73.5 27.5
s39.834 44.5 54.501 78.5l170 -107c-30 -97.333 -72.667 -171.666 -128 -222.999s-120.666 -77 -195.999 -77c-24 0 -53.167 4.16699 -87.5 12.5s-75.5 22.833 -123.5 43.5l-103 32.5c-25.333 8.33301 -48.666 12.5 -69.999 12.5c-29.333 0 -54.833 -10 -76.5 -30
s-40.5 -52 -56.5 -96z" />
    <glyph glyph-name="uni00A0" unicode="&#xa0;" horiz-adv-x="539" 
 />
    <glyph glyph-name="exclamdown" unicode="&#xa1;" horiz-adv-x="619" 
d="M177 852l-32 -876h350l-36 876h-282zM321 1398c-63.333 0 -114.833 -19.167 -154.5 -57.5s-59.5 -87.833 -59.5 -148.5c0 -58 19.833 -106.667 59.5 -146s91.167 -59 154.5 -59c62.667 0 114.667 19.667 156 59s62 88 62 146c0 60.667 -20.667 110.167 -62 148.5
s-93.333 57.5 -156 57.5z" />
    <glyph glyph-name="cent" unicode="&#xa2;" horiz-adv-x="1091" 
d="M433 -222v289h257v-289h-257zM433 938v270h257v-270h-257zM571 -32c-86 0 -165.833 21.665 -239.5 64.998s-133 104.333 -178 183s-67.5 170.667 -67.5 276c0 115.333 22.5 211.833 67.5 289.5s104.333 136.334 178 176.001s153.5 59.5 239.5 59.5
c72.667 0 136.167 -12.333 190.5 -37s99.5 -57 135.5 -97s62.833 -84 80.5 -132s26.5 -95 26.5 -141l-320 3c-4.66699 28.667 -16.167 54.834 -34.5 78.501s-45.166 35.5 -80.499 35.5c-28 0 -54.5 -7.16699 -79.5 -21.5s-45.333 -38.5 -61 -72.5s-23.5 -81 -23.5 -141
c0 -58.667 7.83301 -105 23.5 -139s36 -58 61 -72s51.5 -21 79.5 -21c45.333 0 75.833 10.5 91.5 31.5s23.5 47.5 23.5 79.5h320c0 -70.667 -15.667 -136.667 -47 -198s-78.833 -110.833 -142.5 -148.5s-144.834 -56.5 -243.501 -56.5z" />
    <glyph glyph-name="sterling" unicode="&#xa3;" horiz-adv-x="1281" 
d="M121 201l0.00195312 90.999c46.667 0 78.5 13.833 95.5 41.5s25.5 69.834 25.5 126.501v453c0 106 20.333 192.833 61 260.5s95 117.667 163 150s143.333 48.5 226 48.5c128 0 227 -33.5 297 -100.5s113 -167.5 129 -301.5h-314
c-2.66699 33.333 -13.334 60.5 -32.001 81.5s-45.334 31.5 -80.001 31.5c-37.333 0 -68.333 -14 -93 -42s-37 -70.667 -37 -128v-429c0 -94.667 -32.5 -165.5 -97.5 -212.5s-179.5 -70.5 -343.5 -70.5zM48.002 -0.000976562v292.001h617c68.667 0 116.667 11.667 144 35
s43.333 58.666 48 105.999h351c0 -138.667 -40.833 -245.5 -122.5 -320.5s-220.5 -112.5 -416.5 -112.5h-621zM93.002 591v209h790v-209h-790z" />
    <glyph glyph-name="currency" unicode="&#xa4;" 
d="M600 206c-81.333 0 -155.5 19.833 -222.5 59.5s-120.5 92.834 -160.5 159.501s-60 140.334 -60 221.001c0 82.667 20 157.5 60 224.5s93.5 120.5 160.5 160.5s141.167 60 222.5 60c82 0 156.333 -20 223 -60s119.667 -93.5 159 -160.5s59 -141.833 59 -224.5
c0 -80.667 -19.667 -154.334 -59 -221.001s-92.333 -119.834 -159 -159.501s-141 -59.5 -223 -59.5zM600 483c31.333 0 59.5 7.5 84.5 22.5s44.833 34.833 59.5 59.5s22 51.667 22 81c0 32 -7.33301 60.667 -22 86s-34.5 45.333 -59.5 60s-53.167 22 -84.5 22
c-30 0 -57.667 -7.33301 -83 -22s-45.5 -34.667 -60.5 -60s-22.5 -54 -22.5 -86c0 -29.333 7.5 -56.333 22.5 -81s35.167 -44.5 60.5 -59.5s53 -22.5 83 -22.5zM835 761l-121 121l266 267l121 -118zM346 779l-247 249l119 121l247 -249zM854 516l247 -250l-119 -119
l-247 248zM346 516l119 -121l-247 -248l-119 119z" />
    <glyph glyph-name="yen" unicode="&#xa5;" horiz-adv-x="1253" 
d="M454 0v557l-444 785h376l258 -503h-52l275 503h375l-470 -785v-557h-318zM257 136v168h721v-168h-721zM257 367v168h721v-168h-721z" />
    <glyph glyph-name="brokenbar" unicode="&#xa6;" horiz-adv-x="660" 
d="M169 792v790h320v-790h-320zM169 -244v789h320v-789h-320z" />
    <glyph glyph-name="section" unicode="&#xa7;" 
d="M619 517c26.667 0 48.667 3.33301 66 10s30.333 15.5 39 26.5s13 23.167 13 36.5c0 16 -6 29 -18 39s-30.667 20 -56 30l-239 93c-69.333 27.333 -123.5 63.833 -162.5 109.5s-58.5 98.834 -58.5 159.501c0 89.333 40.333 161 121 215s187 81 319 81
c143.333 0 249 -31 317 -93s103 -139.667 105 -233h-293c0 21.333 -9 39.833 -27 55.5s-48 23.5 -90 23.5c-34 0 -61.167 -5.66699 -81.5 -17s-30.5 -26.666 -30.5 -45.999c0 -22.667 21 -42.334 63 -59.001l272 -109c67.333 -26.667 120.333 -60 159 -100
s58 -88.667 58 -146c0 -56.667 -18.833 -109.834 -56.5 -159.501s-89.167 -89.667 -154.5 -120s-139.333 -45.5 -222 -45.5zM575 704c-34.667 0 -62.001 -6.16504 -82.001 -18.498s-30 -28.5 -30 -48.5c0 -22.667 21 -42.334 63 -59.001l272 -109
c67.333 -26.667 120.333 -60 159 -100s58 -89 58 -147c0 -56 -18.167 -108.667 -54.5 -158s-88.5 -89.333 -156.5 -120s-149.667 -46 -245 -46c-80.667 0 -156 12.5 -226 37.5s-126 62.667 -168 113s-62 113.833 -60 190.5h289c0.666992 -34.667 14.334 -58.667 41.001 -72
s59 -20 97 -20c45.333 0 77.5 7.16699 96.5 21.5s28.5 31.166 28.5 50.499c0 15.333 -5.5 28.166 -16.5 38.499s-30.167 20.833 -57.5 31.5l-239 93c-71.333 28 -126 64.833 -164 110.5s-57 99.834 -57 162.501c0 92.667 40.333 164.167 121 214.5s191 75.5 331 75.5v-241z
" />
    <glyph glyph-name="dieresis" unicode="&#xa8;" horiz-adv-x="967" 
d="M700 1146c-49.333 0 -91.166 15.833 -125.499 47.5s-51.5 71.834 -51.5 120.501s17.167 88.667 51.5 120s76.166 47 125.499 47c52.667 0 95.834 -15.667 129.501 -47s50.5 -71.333 50.5 -120s-16.833 -88.834 -50.5 -120.501s-76.834 -47.5 -129.501 -47.5zM264 1146
c-52.667 0 -95.5 15.833 -128.5 47.5s-49.5 71.167 -49.5 118.5c0 49.333 16.5 89.5 49.5 120.5s75.833 46.5 128.5 46.5s95.834 -15.5 129.501 -46.5s50.5 -71.167 50.5 -120.5c0 -47.333 -16.833 -86.833 -50.5 -118.5s-76.834 -47.5 -129.501 -47.5z" />
    <glyph glyph-name="copyright" unicode="&#xa9;" horiz-adv-x="1465" 
d="M733 -13c-94.667 0 -183.334 17.833 -266.001 53.5s-155.334 84.834 -218.001 147.501s-111.834 135.334 -147.501 218.001s-53.5 171.334 -53.5 266.001c0 94 17.833 182.333 53.5 265s84.834 155.5 147.501 218.5s135.334 112.167 218.001 147.5s171.334 53 266.001 53
c94 0 182.333 -17.667 265 -53s155.5 -84.5 218.5 -147.5s112.167 -135.833 147.5 -218.5s53 -171 53 -265c0 -94.667 -17.667 -183.334 -53 -266.001s-84.5 -155.334 -147.5 -218.001s-135.833 -111.834 -218.5 -147.501s-171 -53.5 -265 -53.5zM733 142
c73.333 0 141.833 13.833 205.5 41.5s119.834 65.667 168.501 114s86.667 104.666 114 168.999s41 132.833 41 205.5c0 73.333 -13.667 141.833 -41 205.5s-65.333 119.834 -114 168.501s-104.834 86.667 -168.501 114s-132.167 41 -205.5 41
c-72.667 0 -141.167 -13.667 -205.5 -41s-120.666 -65.333 -168.999 -114s-86.333 -104.834 -114 -168.501s-41.5 -132.167 -41.5 -205.5c0 -72.667 13.833 -141.167 41.5 -205.5s65.667 -120.666 114 -168.999s104.666 -86.333 168.999 -114s132.833 -41.5 205.5 -41.5z
M731 254c-69.333 0 -130.672 15.668 -184.005 47.001s-94.833 78 -124.5 140s-44.5 138.667 -44.5 230c0 92 14.833 169 44.5 231s71 108.667 124 140s114.5 47 184.5 47c100.667 0 177.334 -23.833 230.001 -71.5s84 -109.5 94 -185.5l-202 -35
c-9.33301 34.667 -23.666 63.167 -42.999 85.5s-45.666 33.5 -78.999 33.5c-29.333 0 -55.166 -8.83301 -77.499 -26.5s-39.666 -44.5 -51.999 -80.5s-18.5 -82 -18.5 -138c0 -54.667 6.33301 -99.834 19 -135.501s30.167 -62.334 52.5 -80.001s47.833 -26.5 76.5 -26.5
c40.667 0 71.167 10.833 91.5 32.5s30.5 47.834 30.5 78.501h200c0 -92.667 -27.667 -163.5 -83 -212.5s-135 -73.5 -239 -73.5z" />
    <glyph glyph-name="ordfeminine" unicode="&#xaa;" horiz-adv-x="1242" 
d="M815 0l-40.998 263.003v369c0 49.333 -9 87.666 -27 114.999s-56.333 41 -115 41c-34.667 0 -62.834 -5.16699 -84.501 -15.5s-37.667 -24 -48 -41s-15.5 -35.5 -15.5 -55.5h-346c0 77.333 18.333 141.166 55 191.499s91.667 87.833 165 112.5s164.666 37 273.999 37
c95.333 0 177.5 -14.667 246.5 -44s122.167 -73.333 159.5 -132s56 -132.334 56 -221.001v-620h-279zM505.002 -31.9971c-88 0 -162.167 14.833 -222.5 44.5s-105.833 69.834 -136.5 120.501s-46 106.667 -46 168c0 58 16 108.167 48 150.5s79.5 75.166 142.5 98.499
s140.5 35 232.5 35c56 0 105.5 -3 148.5 -9s87.167 -13.333 132.5 -22v-180c-33.333 7.33301 -67.833 13 -103.5 17s-70.5 6 -104.5 6c-47.333 0 -84.833 -7.5 -112.5 -22.5s-41.5 -39.5 -41.5 -73.5c0 -24.667 12.333 -46.167 37 -64.5s63.667 -27.5 117 -27.5
c45.333 0 81 9 107 27s44.333 40.667 55 68s16 54.333 16 81h75c0 -76 -12 -145.667 -36 -209s-61.333 -113.833 -112 -151.5s-116 -56.5 -196 -56.5z" />
    <glyph glyph-name="guillemotleft" unicode="&#xab;" horiz-adv-x="1353" 
d="M384 516l322 301l-202 167l-418 -434l418 -434l202 167l-322 301v-68zM944 516l322 301l-202 167l-418 -434l418 -434l202 167l-322 301v-68z" />
    <glyph glyph-name="logicalnot" unicode="&#xac;" 
d="M208 719h738v-417h-200v238l58 -60h-596v239z" />
    <glyph glyph-name="uni00AD" unicode="&#xad;" 
d="M109 485v280h581v-280h-581z" />
    <glyph glyph-name="registered" unicode="&#xae;" horiz-adv-x="1465" 
d="M733 -13c-94.667 0 -183.334 17.833 -266.001 53.5s-155.334 84.834 -218.001 147.501s-111.834 135.334 -147.501 218.001s-53.5 171.334 -53.5 266.001c0 94 17.833 182.333 53.5 265s84.834 155.5 147.501 218.5s135.334 112.167 218.001 147.5s171.334 53 266.001 53
c94 0 182.333 -17.667 265 -53s155.5 -84.5 218.5 -147.5s112.167 -135.833 147.5 -218.5s53 -171 53 -265c0 -94.667 -17.667 -183.334 -53 -266.001s-84.5 -155.334 -147.5 -218.001s-135.833 -111.834 -218.5 -147.501s-171 -53.5 -265 -53.5zM733 142
c73.333 0 141.833 13.833 205.5 41.5s119.834 65.667 168.501 114s86.667 104.666 114 168.999s41 132.833 41 205.5c0 73.333 -13.667 141.833 -41 205.5s-65.333 119.834 -114 168.501s-104.834 86.667 -168.501 114s-132.167 41 -205.5 41
c-72.667 0 -141.167 -13.667 -205.5 -41s-120.666 -65.333 -168.999 -114s-86.333 -104.834 -114 -168.501s-41.5 -132.167 -41.5 -205.5c0 -72.667 13.833 -141.167 41.5 -205.5s65.667 -120.666 114 -168.999s104.666 -86.333 168.999 -114s132.833 -41.5 205.5 -41.5z
M846 307l-183 363h189l228 -363h-234zM454 307v752h293c94 0 167.167 -21.5 219.5 -64.5s78.5 -100.833 78.5 -173.5c0 -70.667 -26.167 -127.5 -78.5 -170.5s-125.5 -64.5 -219.5 -64.5h-114v-279h-179zM633 702l94 -0.000976562c44.667 0 78 9.33301 100 28
s33 42.334 33 71.001c0 30 -9.33301 54.667 -28 74s-47 29 -85 29h-114v-202z" />
    <glyph glyph-name="macron" unicode="&#xaf;" horiz-adv-x="935" 
d="M86 1428h762v-259h-762v259z" />
    <glyph glyph-name="degree" unicode="&#xb0;" horiz-adv-x="877" 
d="M439 986c-62 0 -118.5 15.167 -169.5 45.5s-91.667 71 -122 122s-45.5 107.5 -45.5 169.5s15.167 118.333 45.5 169s71 91.167 122 121.5s107.5 45.5 169.5 45.5s118.333 -15.167 169 -45.5s91.167 -70.833 121.5 -121.5s45.5 -107 45.5 -169
s-15.167 -118.5 -45.5 -169.5s-70.833 -91.667 -121.5 -122s-107 -45.5 -169 -45.5zM439 1193c35.333 0 65.666 12.667 90.999 38s38 56 38 92c0 35.333 -12.667 65.666 -38 90.999s-55.666 38 -90.999 38c-36 0 -66.667 -12.667 -92 -38s-38 -55.666 -38 -90.999
c0 -36 12.667 -66.667 38 -92s56 -38 92 -38z" />
    <glyph glyph-name="plusminus" unicode="&#xb1;" horiz-adv-x="1051" 
d="M406 1148h240v-278h247v-201h-247v-274h-240v274h-247v201h247v278zM158 239h738v-239h-738v239z" />
    <glyph glyph-name="uni00B2" unicode="&#xb2;" horiz-adv-x="836" 
d="M112.471 545l-0.000976562 156.629c0 43.7754 6.02441 81.627 18.0723 113.555c12.0479 31.9287 31.5264 59.3389 58.4346 82.2305s62.4512 42.5703 106.628 59.0361l171.688 63.8555c30.9248 12.0488 53.415 26.3057 67.4707 42.7715
c14.0566 16.4658 21.085 36.3457 21.085 59.6396c0 21.2861 -8.43359 40.2627 -25.3018 56.9297s-41.7676 25 -74.6992 25c-30.5225 0 -56.8281 -9.2373 -78.917 -27.7109s-34.7393 -44.7793 -37.9521 -78.917h-213.256c-0.401367 63.4551 14.3584 115.363 44.2793 155.726
c29.9199 40.3613 69.7793 70.0801 119.579 89.1572c49.7998 19.0762 104.018 28.6143 162.653 28.6143c57.0283 0 108.937 -10.4414 155.725 -31.3252s84.1377 -50.3018 112.049 -88.2539c27.9121 -37.9521 41.8682 -83.0332 41.8682 -135.243
c0 -41.3662 -7.42969 -78.1133 -22.2891 -110.242c-14.8604 -32.1289 -38.7559 -60.7432 -71.6875 -85.8438c-32.9326 -25.1006 -76.708 -47.8926 -131.327 -68.375l-170.484 -64.458c-23.293 -8.83594 -39.2568 -17.3701 -47.8916 -25.6035
c-8.63477 -8.23242 -12.9521 -18.9756 -12.9521 -32.2285v-9.03613h454.223v-175.906h-646.996z" />
    <glyph glyph-name="uni00B3" unicode="&#xb3;" horiz-adv-x="850" 
d="M426.596 525.723c-44.9805 0 -88.5576 5.92383 -130.727 17.7715s-80.0205 29.5186 -113.555 53.0127s-60.1406 52.7109 -79.8193 87.6514s-29.5186 75.5029 -29.5186 121.688h205.424c2.41016 -19.6787 9.63965 -37.4502 21.6875 -53.3145
c12.0479 -15.8633 28.6143 -28.4131 49.6992 -37.6504s46.6875 -13.8555 76.8086 -13.8555c40.9639 0 73.6953 8.83496 98.1934 26.5059c24.499 17.6709 36.748 40.1611 36.748 67.4707c0 18.876 -4.81934 34.3379 -14.459 46.3857
c-9.6377 12.0488 -23.5938 20.9844 -41.8672 26.8076s-40.6631 8.73535 -67.1699 8.73535h-122.893v151.207h119.881c32.1289 0 57.2295 8.03223 75.3018 24.0967s27.1084 37.1494 27.1084 63.2539c0 23.6943 -8.63477 43.2725 -25.9033 58.7344
c-17.2695 15.4619 -45.583 23.1934 -84.9404 23.1934c-34.1377 0 -64.6602 -7.02832 -91.5684 -21.085c-26.9072 -14.0566 -42.7705 -36.5469 -47.5898 -67.4707h-204.821c4.81934 60.2412 21.8877 109.74 51.2051 148.496c29.3174 38.7549 68.2734 67.4697 116.868 86.1445
s104.018 28.0117 166.268 28.0117c63.4541 0 119.78 -9.63867 168.978 -28.916s87.9531 -46.1855 116.267 -80.7236s42.4707 -74.9004 42.4707 -121.086c0 -39.7588 -10.3418 -74.8994 -31.0254 -105.422c-20.6826 -30.5225 -51.9082 -52.8115 -93.6758 -66.8682
c46.5869 -18.4736 83.2344 -43.876 109.941 -76.2061c26.707 -32.3291 40.0605 -71.1846 40.0605 -116.566c0 -48.9971 -14.5586 -92.3711 -43.6748 -130.122c-29.1172 -37.751 -69.4795 -67.1689 -121.086 -88.2539c-51.6074 -21.085 -111.146 -31.627 -178.616 -31.627z
" />
    <glyph glyph-name="acute" unicode="&#xb4;" horiz-adv-x="795" 
d="M236 1108l-150 124l414 395l208 -168z" />
    <glyph glyph-name="uni00B5" unicode="&#xb5;" horiz-adv-x="1299" 
d="M811 991h320v-991h-320v991zM158 991l320.001 -0.00195312v-596c0 -45.333 11.5 -78.833 34.5 -100.5s52.5 -32.5 88.5 -32.5c32.667 0 65.167 8 97.5 24s59.166 43.333 80.499 82s32 92.334 32 161.001h70c0 -130.667 -15 -236.167 -45 -316.5
s-70.833 -138.833 -122.5 -175.5s-110.167 -55 -175.5 -55c-66 0 -128 11.333 -186 34s-104.833 61.334 -140.5 116.001s-53.5 130 -53.5 226v633zM158.001 -389.002v1380h320v-1380h-320z" />
    <glyph glyph-name="paragraph" unicode="&#xb6;" 
d="M535 459c-154.667 0 -277.334 37.668 -368.001 113.001s-136 185.666 -136 330.999c0 144.667 45.333 254 136 328s213.334 111 368.001 111h522v-289h-358v-594h-164zM528 -251.999v1594h232v-1594h-232zM858 -251.999v1594h232v-1594h-232z" />
    <glyph glyph-name="periodcentered" unicode="&#xb7;" horiz-adv-x="507" 
d="M35 556c0 59.333 19.833 108.664 59.5 147.997s91.167 59 154.5 59s115.666 -19.667 156.999 -59s62 -88.666 62 -147.999s-20.667 -108.166 -62 -146.499s-93.666 -57.5 -156.999 -57.5s-114.833 19.333 -154.5 58s-59.5 87.334 -59.5 146.001z" />
    <glyph glyph-name="cedilla" unicode="&#xb8;" horiz-adv-x="632" 
d="M86 -379l39.0029 101.002c40.667 -16.667 76.334 -26 107.001 -28s55.167 2 73.5 12s28.5 24.333 30.5 43c1.33301 14 -2.83398 26.667 -12.501 38s-26.334 22.166 -50.001 32.499s-56.5 20.166 -98.5 29.499l86 254l119 -22l-74 -225l-26 64
c69.333 -6.66699 123.5 -20.334 162.5 -41.001s66.333 -44.5 82 -71.5s22.5 -53.833 20.5 -80.5c-2.66699 -38.667 -19.5 -70.167 -50.5 -94.5s-69.833 -41.166 -116.5 -50.499s-95.834 -10.833 -147.501 -4.5s-99.834 20.833 -144.501 43.5z" />
    <glyph glyph-name="uni00B9" unicode="&#xb9;" horiz-adv-x="559" 
d="M247.882 1353.67l139.762 0.000976562v-815.673h-192.773v583.742c-22.8916 -5.62207 -44.2773 -10.04 -64.1572 -13.2529s-39.8604 -4.61914 -59.9414 -4.21777v183.135c29.3174 2.41016 57.9326 8.63574 85.8447 18.6758s58.334 25.9033 91.2656 47.5898z" />
    <glyph glyph-name="ordmasculine" unicode="&#xba;" horiz-adv-x="1173" 
d="M589 -32c-91.333 0 -175.166 18.833 -251.499 56.5s-137.333 95 -183 172s-68.5 174.833 -68.5 293.5c0 122.667 22.833 222.667 68.5 300s106.667 134.5 183 171.5s160.166 55.5 251.499 55.5c89.333 0 171.666 -18.5 246.999 -55.5s135.833 -94.167 181.5 -171.5
s68.5 -177.333 68.5 -300c0 -118.667 -22.833 -216.5 -68.5 -293.5s-106.167 -134.333 -181.5 -172s-157.666 -56.5 -246.999 -56.5zM577 247c30.667 0 60.5 8 89.5 24s53.167 41.833 72.5 77.5s29 82.834 29 141.501c0 91.333 -16.333 155.666 -49 192.999s-72 56 -118 56
c-30.667 0 -61.167 -8 -91.5 -24s-55.333 -42.167 -75 -78.5s-29.5 -85.166 -29.5 -146.499c0 -88.667 17.167 -151.334 51.5 -188.001s74.5 -55 120.5 -55z" />
    <glyph glyph-name="guillemotright" unicode="&#xbb;" horiz-adv-x="1353" 
d="M968 516l-322 301l202 167l418 -434l-418 -434l-202 167l322 301v-68zM408 516l-322 301l202 167l418 -434l-418 -434l-202 167l322 301v-68z" />
    <glyph glyph-name="onequarter" unicode="&#xbc;" horiz-adv-x="1935" 
d="M248 1416l140 -0.000976562v-816h-193v584c-22.667 -6 -44 -10.667 -64 -14s-40 -4.66602 -60 -3.99902v183c29.333 2.66699 58 9 86 19s58.333 26 91 48zM242.353 -31.4795l1003.48 1441.87h251.165l-1006.55 -1441.87h-248.102zM1592 813.999h189v-486h141v-166h-141
v-162h-192v162h-401v144zM1600 537.999l-184 -232h184v232z" />
    <glyph glyph-name="onehalf" unicode="&#xbd;" horiz-adv-x="1987" 
d="M248 1416l140 -0.000976562v-816h-193v584c-22.667 -6 -44 -10.667 -64 -14s-40 -4.66602 -60 -3.99902v183c29.333 2.66699 58 9 86 19s58.333 26 91 48zM242.353 -31.4795l1003.48 1441.87h251.165l-1006.55 -1441.87h-248.102zM1264 -0.000976562l-0.00195312 157
c0 65.333 13.833 117.833 41.5 157.5s74.834 71.834 141.501 96.501l171 64c31.333 12 54 26.333 68 43s21 36.667 21 60c0 21.333 -8.33301 40.333 -25 57s-41.667 25 -75 25c-30.667 0 -57 -9.33301 -79 -28s-34.667 -45 -38 -79h-213
c-0.666992 63.333 14 115.166 44 155.499s69.833 70.166 119.5 89.499s103.834 29 162.501 29c57.333 0 109.333 -10.333 156 -31s84 -50.167 112 -88.5s42 -83.5 42 -135.5c0 -62 -17 -113.833 -51 -155.5s-92 -78.167 -174 -109.5l-171 -64
c-23.333 -8.66699 -39.333 -17.167 -48 -25.5s-13 -19.166 -13 -32.499v-9h455v-176h-647z" />
    <glyph glyph-name="threequarters" unicode="&#xbe;" horiz-adv-x="2226" 
d="M427 568c-60 0 -117 10.4971 -171 31.4971s-98 52.333 -132 94s-51 93.167 -51 154.5h205c4 -29.333 18.5 -54.166 43.5 -74.499s60.167 -30.5 105.5 -30.5c41.333 0 74.166 8.83301 98.499 26.5s36.5 40.167 36.5 67.5c0 28.667 -10.833 49.5 -32.5 62.5
s-52.167 19.5 -91.5 19.5h-123v151h120c32.667 0 57.834 8 75.501 24s26.5 37.333 26.5 64c0 23.333 -8.5 42.833 -25.5 58.5s-45.167 23.5 -84.5 23.5c-34.667 0 -65.334 -7 -92.001 -21s-42.667 -36.667 -48 -68h-204c7.33301 90 41.5 156.333 102.5 199
s138.167 64 231.5 64c95.333 0 173.833 -21.167 235.5 -63.5s92.5 -98.166 92.5 -167.499c0 -39.333 -10.5 -74.5 -31.5 -105.5s-52.167 -53.167 -93.5 -66.5c46.667 -18.667 83.334 -44.167 110.001 -76.5s40 -71.166 40 -116.499c0 -74 -32 -134.167 -96 -180.5
s-146.333 -69.5 -247 -69.5zM533.353 -31.4814l1003.48 1441.87h251.165l-1006.55 -1441.87h-248.102zM1883 813.997h189v-486h141v-166h-141v-162h-192v162h-401v144zM1891 537.997l-184 -232h184v232z" />
    <glyph glyph-name="questiondown" unicode="&#xbf;" horiz-adv-x="1073" 
d="M728 907l0.00292969 -70.002c0 -58 -7.33301 -105.5 -22 -142.5s-36.834 -67.667 -66.501 -92s-67.5 -46.5 -113.5 -66.5c-39.333 -18.667 -68.833 -35.834 -88.5 -51.501s-32.667 -31 -39 -46s-9.5 -30.833 -9.5 -47.5c0 -31.333 12.5 -57.166 37.5 -77.499
s59.167 -30.5 102.5 -30.5c57.333 0 101.833 15 133.5 45s47.167 67 46.5 111h330c-5.33301 -136 -50.333 -244.167 -135 -324.5s-204.334 -120.5 -359.001 -120.5c-104.667 0 -195 17.167 -271 51.5s-134.833 81.333 -176.5 141s-62.5 127.834 -62.5 204.501
c0 70.667 17.5 130.834 52.5 180.501s88.167 90.834 159.5 123.501c41.333 19.333 73.666 37.666 96.999 54.999s39.5 35.5 48.5 54.5s13.5 41.5 13.5 67.5v35h322zM558.003 1398c64.667 0 116.5 -19.333 155.5 -58s58.5 -86.667 58.5 -144
c0 -59.333 -19.5 -108.166 -58.5 -146.499s-90.833 -57.5 -155.5 -57.5c-64 0 -116.333 19.167 -157 57.5s-61 87.166 -61 146.499c0 57.333 20.333 105.333 61 144s93 58 157 58z" />
    <glyph glyph-name="Agrave" unicode="&#xc0;" horiz-adv-x="1358" 
d="M36 0l452 1342h407l427 -1342h-337l-73 236h-463l-73 -236h-340zM530 473h309l-152 491zM852 1461l-472 351l208 168l414 -395z" />
    <glyph glyph-name="Aacute" unicode="&#xc1;" horiz-adv-x="1358" 
d="M36 0l452 1342h407l427 -1342h-337l-73 236h-463l-73 -236h-340zM530 473h309l-152 491zM628 1461l-150 124l414 395l208 -168z" />
    <glyph glyph-name="Acircumflex" unicode="&#xc2;" horiz-adv-x="1358" 
d="M36 0l452 1342h407l427 -1342h-337l-73 236h-463l-73 -236h-340zM530 473h309l-152 491zM486 1474l-185 147l396 300l399 -300l-188 -147l-268 211h114z" />
    <glyph glyph-name="Atilde" unicode="&#xc3;" horiz-adv-x="1358" 
d="M36 0l452 1342h407l427 -1342h-337l-73 236h-463l-73 -236h-340zM530 473h309l-152 491zM445 1489l-125.996 73.001c16 95.333 46.167 170.666 90.5 225.999s98.166 83 161.499 83c21.333 0 43.5 -4.16699 66.5 -12.5s49.5 -20.166 79.5 -35.499l67 -31.5
c18 -8.33301 35.667 -12.5 53 -12.5c19.333 0 38.333 7.33301 57 22s35 38 49 70l133 -87c-8.66699 -54 -25.334 -103.333 -50.001 -148s-53.167 -80.334 -85.5 -107.001s-64.166 -40 -95.499 -40c-28.667 0 -55.334 5 -80.001 15s-53.334 23 -86.001 39
c-26.667 15.333 -47.834 26.166 -63.501 32.499s-30.5 9.5 -44.5 9.5c-22.667 0 -44 -6.16699 -64 -18.5s-40.667 -38.166 -62 -77.499z" />
    <glyph glyph-name="Adieresis" unicode="&#xc4;" horiz-adv-x="1358" 
d="M36 0l452 1342h407l427 -1342h-337l-73 236h-463l-73 -236h-340zM530 473h309l-152 491zM915 1499c-49.333 0 -91.166 15.833 -125.499 47.5s-51.5 71.834 -51.5 120.501s17.167 88.667 51.5 120s76.166 47 125.499 47c52.667 0 95.834 -15.667 129.501 -47
s50.5 -71.333 50.5 -120s-16.833 -88.834 -50.5 -120.501s-76.834 -47.5 -129.501 -47.5zM479 1499c-52.667 0 -95.5 15.833 -128.5 47.5s-49.5 71.167 -49.5 118.5c0 49.333 16.5 89.5 49.5 120.5s75.833 46.5 128.5 46.5s95.834 -15.5 129.501 -46.5
s50.5 -71.167 50.5 -120.5c0 -47.333 -16.833 -86.833 -50.5 -118.5s-76.834 -47.5 -129.501 -47.5z" />
    <glyph glyph-name="Aring" unicode="&#xc5;" horiz-adv-x="1358" 
d="M36 0l452 1342h407l427 -1342h-337l-73 236h-463l-73 -236h-340zM530 473h309l-152 491zM700 1439c-50.667 0 -97 12.5 -139 37.5s-75.5 58.5 -100.5 100.5s-37.5 88.333 -37.5 139s12.5 97 37.5 139s58.5 75.5 100.5 100.5s88.333 37.5 139 37.5s97 -12.5 139 -37.5
s75.5 -58.5 100.5 -100.5s37.5 -88.333 37.5 -139s-12.5 -97 -37.5 -139s-58.5 -75.5 -100.5 -100.5s-88.333 -37.5 -139 -37.5zM700 1644c20 0 37 7 51 21s21 31 21 51s-7 37 -21 51s-31 21 -51 21s-37 -7 -51 -21s-21 -31 -21 -51s7 -37 21 -51s31 -21 51 -21z" />
    <glyph glyph-name="AE" unicode="&#xc6;" horiz-adv-x="1856" 
d="M1696 1342v-277h-568l52 45v-430l-52 127h530v-278h-530l52 91v-486l-52 146h568v-280h-836v352l52 -116h-554l152 111l-141 -347h-333l545 1342h1115zM912 473l-52 -87l-2 719l54 -40h-183l123 125l-325 -799l-95 82h480z" />
    <glyph glyph-name="Ccedilla" unicode="&#xc7;" horiz-adv-x="1310" 
d="M679 -32c-117.333 0 -220.498 26.333 -309.498 79s-158.5 131 -208.5 235s-75 233 -75 387c0 154.667 24.833 284 74.5 388s119.167 182.5 208.5 235.5s192.666 79.5 309.999 79.5c169.333 0 298.333 -40 387 -120s141.334 -183.667 158.001 -311l-340 -59
c-15.333 57.333 -39.5 104.833 -72.5 142.5s-77.167 56.5 -132.5 56.5c-49.333 0 -92.833 -14.833 -130.5 -44.5s-66.834 -74.834 -87.501 -135.501s-31 -138 -31 -232c0 -92 10.667 -168.167 32 -228.5s50.833 -105.166 88.5 -134.499s80.5 -44 128.5 -44
c68.667 0 120 18.167 154 54.5s51 80.5 51 132.5h338c0 -103.333 -20.833 -190.833 -62.5 -262.5s-102.834 -126 -183.501 -163s-179.667 -55.5 -297 -55.5zM486.002 -379l39.0029 101.002c40.667 -16.667 76.334 -26 107.001 -28s55.167 2 73.5 12s28.5 24.333 30.5 43
c1.33301 14 -2.83398 26.667 -12.501 38s-26.334 22.166 -50.001 32.499s-56.5 20.166 -98.5 29.499l86 254l119 -22l-74 -225l-26 64c69.333 -6.66699 123.5 -20.334 162.5 -41.001s66.333 -44.5 82 -71.5s22.5 -53.833 20.5 -80.5
c-2.66699 -38.667 -19.5 -70.167 -50.5 -94.5s-69.833 -41.166 -116.5 -50.499s-95.834 -10.833 -147.501 -4.5s-99.834 20.833 -144.501 43.5z" />
    <glyph glyph-name="Egrave" unicode="&#xc8;" horiz-adv-x="1224" 
d="M167 0v1342h897v-277h-577v-258h541v-278h-541v-249h577v-280h-897zM766 1461l-472 351l208 168l414 -395z" />
    <glyph glyph-name="Eacute" unicode="&#xc9;" horiz-adv-x="1224" 
d="M167 0v1342h897v-277h-577v-258h541v-278h-541v-249h577v-280h-897zM542 1461l-150 124l414 395l208 -168z" />
    <glyph glyph-name="Ecircumflex" unicode="&#xca;" horiz-adv-x="1224" 
d="M167 0v1342h897v-277h-577v-258h541v-278h-541v-249h577v-280h-897zM400 1474l-185 147l396 300l399 -300l-188 -147l-268 211h114z" />
    <glyph glyph-name="Edieresis" unicode="&#xcb;" horiz-adv-x="1224" 
d="M167 0v1342h897v-277h-577v-258h541v-278h-541v-249h577v-280h-897zM829 1499c-49.333 0 -91.166 15.833 -125.499 47.5s-51.5 71.834 -51.5 120.501s17.167 88.667 51.5 120s76.166 47 125.499 47c52.667 0 95.834 -15.667 129.501 -47s50.5 -71.333 50.5 -120
s-16.833 -88.834 -50.5 -120.501s-76.834 -47.5 -129.501 -47.5zM393 1499c-52.667 0 -95.5 15.833 -128.5 47.5s-49.5 71.167 -49.5 118.5c0 49.333 16.5 89.5 49.5 120.5s75.833 46.5 128.5 46.5s95.834 -15.5 129.501 -46.5s50.5 -71.167 50.5 -120.5
c0 -47.333 -16.833 -86.833 -50.5 -118.5s-76.834 -47.5 -129.501 -47.5z" />
    <glyph glyph-name="Igrave" unicode="&#xcc;" horiz-adv-x="660" 
d="M169 0v1342h320v-1342h-320zM484 1461l-472 351l208 168l414 -395z" />
    <glyph glyph-name="Iacute" unicode="&#xcd;" horiz-adv-x="660" 
d="M169 0v1342h320v-1342h-320zM260 1461l-150 124l414 395l208 -168z" />
    <glyph glyph-name="Icircumflex" unicode="&#xce;" horiz-adv-x="660" 
d="M169 0v1342h320v-1342h-320zM118 1474l-185 147l396 300l399 -300l-188 -147l-268 211h114z" />
    <glyph glyph-name="Idieresis" unicode="&#xcf;" horiz-adv-x="660" 
d="M169 0v1342h320v-1342h-320zM547 1499c-49.333 0 -91.166 15.833 -125.499 47.5s-51.5 71.834 -51.5 120.501s17.167 88.667 51.5 120s76.166 47 125.499 47c52.667 0 95.834 -15.667 129.501 -47s50.5 -71.333 50.5 -120s-16.833 -88.834 -50.5 -120.501
s-76.834 -47.5 -129.501 -47.5zM111 1499c-52.667 0 -95.5 15.833 -128.5 47.5s-49.5 71.167 -49.5 118.5c0 49.333 16.5 89.5 49.5 120.5s75.833 46.5 128.5 46.5s95.834 -15.5 129.501 -46.5s50.5 -71.167 50.5 -120.5c0 -47.333 -16.833 -86.833 -50.5 -118.5
s-76.834 -47.5 -129.501 -47.5z" />
    <glyph glyph-name="Eth" unicode="&#xd0;" horiz-adv-x="1429" 
d="M44 810h642v-278h-642v278zM169 1342l475 -0.000976562c138 0 259.667 -27.333 365 -82s187.833 -132.167 247.5 -232.5s89.5 -219.833 89.5 -358.5c0 -136.667 -29.833 -255.167 -89.5 -355.5s-142.167 -177.666 -247.5 -231.999s-227 -81.5 -365 -81.5h-475v1342z
M489 1048v-756.001h155c72.667 0 135.5 16.5 188.5 49.5s94 77.833 123 134.5s43.5 121 43.5 193c0 74.667 -14.5 140.334 -43.5 197.001s-70 101.167 -123 133.5s-115.833 48.5 -188.5 48.5h-155z" />
    <glyph glyph-name="Ntilde" unicode="&#xd1;" horiz-adv-x="1503" 
d="M163 1342h334l539 -812h-22v812h320v-1342h-309l-595 892h53v-892h-320v1342zM499 1489l-125.996 73.001c16 95.333 46.167 170.666 90.5 225.999s98.166 83 161.499 83c21.333 0 43.5 -4.16699 66.5 -12.5s49.5 -20.166 79.5 -35.499l67 -31.5
c18 -8.33301 35.667 -12.5 53 -12.5c19.333 0 38.333 7.33301 57 22s35 38 49 70l133 -87c-8.66699 -54 -25.334 -103.333 -50.001 -148s-53.167 -80.334 -85.5 -107.001s-64.166 -40 -95.499 -40c-28.667 0 -55.334 5 -80.001 15s-53.334 23 -86.001 39
c-26.667 15.333 -47.834 26.166 -63.501 32.499s-30.5 9.5 -44.5 9.5c-22.667 0 -44 -6.16699 -64 -18.5s-40.667 -38.166 -62 -77.499z" />
    <glyph glyph-name="Ograve" unicode="&#xd2;" horiz-adv-x="1443" 
d="M720 -32c-127.333 0 -238.5 26.833 -333.5 80.5s-168.833 133 -221.5 238s-79 234.5 -79 388.5c0 158 26.333 288.5 79 391.5s126.5 179.667 221.5 230s206.167 75.5 333.5 75.5c128.667 0 240.834 -26.333 336.501 -79s169.834 -130.667 222.501 -234
s79 -231.333 79 -384c0 -156.667 -26.333 -287.5 -79 -392.5s-126.834 -183.667 -222.501 -236s-207.834 -78.5 -336.501 -78.5zM720 255c93.333 0 168 36.834 224 110.501s84 177.5 84 311.5c0 126 -28 225.5 -84 298.5s-130.667 109.5 -224 109.5
c-90.667 0 -164 -36.5 -220 -109.5s-84 -173.167 -84 -300.5c0 -132.667 28 -235.834 84 -309.501s129.333 -110.5 220 -110.5zM876 1461l-472 351l208 168l414 -395z" />
    <glyph glyph-name="Oacute" unicode="&#xd3;" horiz-adv-x="1443" 
d="M720 -32c-127.333 0 -238.5 26.833 -333.5 80.5s-168.833 133 -221.5 238s-79 234.5 -79 388.5c0 158 26.333 288.5 79 391.5s126.5 179.667 221.5 230s206.167 75.5 333.5 75.5c128.667 0 240.834 -26.333 336.501 -79s169.834 -130.667 222.501 -234
s79 -231.333 79 -384c0 -156.667 -26.333 -287.5 -79 -392.5s-126.834 -183.667 -222.501 -236s-207.834 -78.5 -336.501 -78.5zM720 255c93.333 0 168 36.834 224 110.501s84 177.5 84 311.5c0 126 -28 225.5 -84 298.5s-130.667 109.5 -224 109.5
c-90.667 0 -164 -36.5 -220 -109.5s-84 -173.167 -84 -300.5c0 -132.667 28 -235.834 84 -309.501s129.333 -110.5 220 -110.5zM652 1461l-150 124l414 395l208 -168z" />
    <glyph glyph-name="Ocircumflex" unicode="&#xd4;" horiz-adv-x="1443" 
d="M720 -32c-127.333 0 -238.5 26.833 -333.5 80.5s-168.833 133 -221.5 238s-79 234.5 -79 388.5c0 158 26.333 288.5 79 391.5s126.5 179.667 221.5 230s206.167 75.5 333.5 75.5c128.667 0 240.834 -26.333 336.501 -79s169.834 -130.667 222.501 -234
s79 -231.333 79 -384c0 -156.667 -26.333 -287.5 -79 -392.5s-126.834 -183.667 -222.501 -236s-207.834 -78.5 -336.501 -78.5zM720 255c93.333 0 168 36.834 224 110.501s84 177.5 84 311.5c0 126 -28 225.5 -84 298.5s-130.667 109.5 -224 109.5
c-90.667 0 -164 -36.5 -220 -109.5s-84 -173.167 -84 -300.5c0 -132.667 28 -235.834 84 -309.501s129.333 -110.5 220 -110.5zM510 1474l-185 147l396 300l399 -300l-188 -147l-268 211h114z" />
    <glyph glyph-name="Otilde" unicode="&#xd5;" horiz-adv-x="1443" 
d="M720 -32c-127.333 0 -238.5 26.833 -333.5 80.5s-168.833 133 -221.5 238s-79 234.5 -79 388.5c0 158 26.333 288.5 79 391.5s126.5 179.667 221.5 230s206.167 75.5 333.5 75.5c128.667 0 240.834 -26.333 336.501 -79s169.834 -130.667 222.501 -234
s79 -231.333 79 -384c0 -156.667 -26.333 -287.5 -79 -392.5s-126.834 -183.667 -222.501 -236s-207.834 -78.5 -336.501 -78.5zM720 255c93.333 0 168 36.834 224 110.501s84 177.5 84 311.5c0 126 -28 225.5 -84 298.5s-130.667 109.5 -224 109.5
c-90.667 0 -164 -36.5 -220 -109.5s-84 -173.167 -84 -300.5c0 -132.667 28 -235.834 84 -309.501s129.333 -110.5 220 -110.5zM469 1489l-125.996 73.001c16 95.333 46.167 170.666 90.5 225.999s98.166 83 161.499 83c21.333 0 43.5 -4.16699 66.5 -12.5
s49.5 -20.166 79.5 -35.499l67 -31.5c18 -8.33301 35.667 -12.5 53 -12.5c19.333 0 38.333 7.33301 57 22s35 38 49 70l133 -87c-8.66699 -54 -25.334 -103.333 -50.001 -148s-53.167 -80.334 -85.5 -107.001s-64.166 -40 -95.499 -40c-28.667 0 -55.334 5 -80.001 15
s-53.334 23 -86.001 39c-26.667 15.333 -47.834 26.166 -63.501 32.499s-30.5 9.5 -44.5 9.5c-22.667 0 -44 -6.16699 -64 -18.5s-40.667 -38.166 -62 -77.499z" />
    <glyph glyph-name="Odieresis" unicode="&#xd6;" horiz-adv-x="1443" 
d="M720 -32c-127.333 0 -238.5 26.833 -333.5 80.5s-168.833 133 -221.5 238s-79 234.5 -79 388.5c0 158 26.333 288.5 79 391.5s126.5 179.667 221.5 230s206.167 75.5 333.5 75.5c128.667 0 240.834 -26.333 336.501 -79s169.834 -130.667 222.501 -234
s79 -231.333 79 -384c0 -156.667 -26.333 -287.5 -79 -392.5s-126.834 -183.667 -222.501 -236s-207.834 -78.5 -336.501 -78.5zM720 255c93.333 0 168 36.834 224 110.501s84 177.5 84 311.5c0 126 -28 225.5 -84 298.5s-130.667 109.5 -224 109.5
c-90.667 0 -164 -36.5 -220 -109.5s-84 -173.167 -84 -300.5c0 -132.667 28 -235.834 84 -309.501s129.333 -110.5 220 -110.5zM939 1499c-49.333 0 -91.166 15.833 -125.499 47.5s-51.5 71.834 -51.5 120.501s17.167 88.667 51.5 120s76.166 47 125.499 47
c52.667 0 95.834 -15.667 129.501 -47s50.5 -71.333 50.5 -120s-16.833 -88.834 -50.5 -120.501s-76.834 -47.5 -129.501 -47.5zM503 1499c-52.667 0 -95.5 15.833 -128.5 47.5s-49.5 71.167 -49.5 118.5c0 49.333 16.5 89.5 49.5 120.5s75.833 46.5 128.5 46.5
s95.834 -15.5 129.501 -46.5s50.5 -71.167 50.5 -120.5c0 -47.333 -16.833 -86.833 -50.5 -118.5s-76.834 -47.5 -129.501 -47.5z" />
    <glyph glyph-name="multiply" unicode="&#xd7;" horiz-adv-x="1123" 
d="M328 69l-227 229l235 233l-235 232l227 229l233 -235l235 235l229 -229l-237 -232l237 -233l-229 -229l-235 235z" />
    <glyph glyph-name="Oslash" unicode="&#xd8;" horiz-adv-x="1443" 
d="M26 0l1090 1342h264l-1093 -1342h-261zM720 -32c-127.333 0 -238.5 26.833 -333.5 80.5s-168.833 133 -221.5 238s-79 234.5 -79 388.5c0 158 26.333 288.5 79 391.5s126.5 179.667 221.5 230s206.167 75.5 333.5 75.5c128.667 0 240.834 -26.333 336.501 -79
s169.834 -130.667 222.501 -234s79 -231.333 79 -384c0 -156.667 -26.333 -287.5 -79 -392.5s-126.834 -183.667 -222.501 -236s-207.834 -78.5 -336.501 -78.5zM720 255c93.333 0 168 36.834 224 110.501s84 177.5 84 311.5c0 126 -28 225.5 -84 298.5
s-130.667 109.5 -224 109.5c-90.667 0 -164 -36.5 -220 -109.5s-84 -173.167 -84 -300.5c0 -132.667 28 -235.834 84 -309.501s129.333 -110.5 220 -110.5z" />
    <glyph glyph-name="Ugrave" unicode="&#xd9;" horiz-adv-x="1458" 
d="M158 1342h320v-814c0 -95.333 24.333 -164 73 -206s109.667 -63 183 -63c74.667 0 136.5 21 185.5 63s73.5 110.667 73.5 206v814h319v-814c0 -113.333 -22.333 -212 -67 -296s-110 -149 -196 -195s-191 -69 -315 -69s-228.833 23 -314.5 69s-150.667 111 -195 195
s-66.5 182.667 -66.5 296v814zM883 1461l-472 351l208 168l414 -395z" />
    <glyph glyph-name="Uacute" unicode="&#xda;" horiz-adv-x="1458" 
d="M158 1342h320v-814c0 -95.333 24.333 -164 73 -206s109.667 -63 183 -63c74.667 0 136.5 21 185.5 63s73.5 110.667 73.5 206v814h319v-814c0 -113.333 -22.333 -212 -67 -296s-110 -149 -196 -195s-191 -69 -315 -69s-228.833 23 -314.5 69s-150.667 111 -195 195
s-66.5 182.667 -66.5 296v814zM659 1461l-150 124l414 395l208 -168z" />
    <glyph glyph-name="Ucircumflex" unicode="&#xdb;" horiz-adv-x="1458" 
d="M158 1342h320v-814c0 -95.333 24.333 -164 73 -206s109.667 -63 183 -63c74.667 0 136.5 21 185.5 63s73.5 110.667 73.5 206v814h319v-814c0 -113.333 -22.333 -212 -67 -296s-110 -149 -196 -195s-191 -69 -315 -69s-228.833 23 -314.5 69s-150.667 111 -195 195
s-66.5 182.667 -66.5 296v814zM517 1474l-185 147l396 300l399 -300l-188 -147l-268 211h114z" />
    <glyph glyph-name="Udieresis" unicode="&#xdc;" horiz-adv-x="1458" 
d="M158 1342h320v-814c0 -95.333 24.333 -164 73 -206s109.667 -63 183 -63c74.667 0 136.5 21 185.5 63s73.5 110.667 73.5 206v814h319v-814c0 -113.333 -22.333 -212 -67 -296s-110 -149 -196 -195s-191 -69 -315 -69s-228.833 23 -314.5 69s-150.667 111 -195 195
s-66.5 182.667 -66.5 296v814zM946 1499c-49.333 0 -91.166 15.833 -125.499 47.5s-51.5 71.834 -51.5 120.501s17.167 88.667 51.5 120s76.166 47 125.499 47c52.667 0 95.834 -15.667 129.501 -47s50.5 -71.333 50.5 -120s-16.833 -88.834 -50.5 -120.501
s-76.834 -47.5 -129.501 -47.5zM510 1499c-52.667 0 -95.5 15.833 -128.5 47.5s-49.5 71.167 -49.5 118.5c0 49.333 16.5 89.5 49.5 120.5s75.833 46.5 128.5 46.5s95.834 -15.5 129.501 -46.5s50.5 -71.167 50.5 -120.5c0 -47.333 -16.833 -86.833 -50.5 -118.5
s-76.834 -47.5 -129.501 -47.5z" />
    <glyph glyph-name="Yacute" unicode="&#xdd;" horiz-adv-x="1253" 
d="M10 1342h376l258 -503h-52l275 503h375l-470 -785v-557h-318v557zM557 1461l-150 124l414 395l208 -168z" />
    <glyph glyph-name="Thorn" unicode="&#xde;" horiz-adv-x="1218" 
d="M161 0v1342h322v-282l-72 72h265c154.667 0 277.334 -37.167 368.001 -111.5s136 -184.166 136 -329.499c0 -144.667 -45.333 -254.5 -136 -329.5s-213.334 -112.5 -368.001 -112.5h-265l72 72v-321h-322zM483 456.999l-72 72.001h265c58 0 101.833 16.167 131.5 48.5
s44.5 70.166 44.5 113.499c0 44 -14.833 82.333 -44.5 115s-73.5 49 -131.5 49h-265l72 72v-470z" />
    <glyph glyph-name="germandbls" unicode="&#xdf;" horiz-adv-x="1371" 
d="M1129 1075c0 -46.667 -7.49707 -86.1709 -22.4971 -118.504s-32.5 -60.166 -52.5 -83.499l-52.5 -63.5c-15 -19 -22.5 -38.5 -22.5 -58.5c0 -23.333 10.667 -44.166 32 -62.499s47.666 -37.166 78.999 -56.499s62.666 -42 93.999 -68s57.666 -57.667 78.999 -95
s32 -83.333 32 -138c0 -76 -21.5 -140.833 -64.5 -194.5s-97.5 -94.5 -163.5 -122.5s-134 -42 -204 -42c-38 0 -79 4.33301 -123 13s-85.333 22.334 -124 41.001v246c43.333 -26.667 79.333 -45.667 108 -57s59.667 -17 93 -17c30 0 53.833 4 71.5 12s30.167 19.667 37.5 35
s11 34 11 56c0 40 -9.16699 73.833 -27.5 101.5s-41 52 -68 73l-81.5 62c-27.333 20.333 -50.166 43 -68.499 68s-27.5 55.167 -27.5 90.5c0 36 8.83301 66.833 26.5 92.5s38.334 49.667 62.001 72s44.334 46 62.001 71s26.5 54.5 26.5 88.5c0 46.667 -17.667 79.667 -53 99
s-76 29 -122 29c-70.667 0 -116.834 -21 -138.501 -63s-32.5 -107 -32.5 -195v-890h-326v898c0 115.333 21.167 210 63.5 284s101.666 128.833 177.999 164.5s165.166 53.5 266.499 53.5c88 0 166 -12.5 234 -37.5s121.333 -61.667 160 -110s58 -107.5 58 -177.5z" />
    <glyph glyph-name="agrave" unicode="&#xe0;" horiz-adv-x="1242" 
d="M815 0l-40.998 263.003v369c0 49.333 -9 87.666 -27 114.999s-56.333 41 -115 41c-34.667 0 -62.834 -5.16699 -84.501 -15.5s-37.667 -24 -48 -41s-15.5 -35.5 -15.5 -55.5h-346c0 77.333 18.333 141.166 55 191.499s91.667 87.833 165 112.5s164.666 37 273.999 37
c95.333 0 177.5 -14.667 246.5 -44s122.167 -73.333 159.5 -132s56 -132.334 56 -221.001v-620h-279zM505.002 -31.9971c-88 0 -162.167 14.833 -222.5 44.5s-105.833 69.834 -136.5 120.501s-46 106.667 -46 168c0 58 16 108.167 48 150.5s79.5 75.166 142.5 98.499
s140.5 35 232.5 35c56 0 105.5 -3 148.5 -9s87.167 -13.333 132.5 -22v-180c-33.333 7.33301 -67.833 13 -103.5 17s-70.5 6 -104.5 6c-47.333 0 -84.833 -7.5 -112.5 -22.5s-41.5 -39.5 -41.5 -73.5c0 -24.667 12.333 -46.167 37 -64.5s63.667 -27.5 117 -27.5
c45.333 0 81 9 107 27s44.333 40.667 55 68s16 54.333 16 81h75c0 -76 -12 -145.667 -36 -209s-61.333 -113.833 -112 -151.5s-116 -56.5 -196 -56.5zM775.002 1108l-472 351l208 168l414 -395z" />
    <glyph glyph-name="aacute" unicode="&#xe1;" horiz-adv-x="1242" 
d="M815 0l-40.998 263.003v369c0 49.333 -9 87.666 -27 114.999s-56.333 41 -115 41c-34.667 0 -62.834 -5.16699 -84.501 -15.5s-37.667 -24 -48 -41s-15.5 -35.5 -15.5 -55.5h-346c0 77.333 18.333 141.166 55 191.499s91.667 87.833 165 112.5s164.666 37 273.999 37
c95.333 0 177.5 -14.667 246.5 -44s122.167 -73.333 159.5 -132s56 -132.334 56 -221.001v-620h-279zM505.002 -31.9971c-88 0 -162.167 14.833 -222.5 44.5s-105.833 69.834 -136.5 120.501s-46 106.667 -46 168c0 58 16 108.167 48 150.5s79.5 75.166 142.5 98.499
s140.5 35 232.5 35c56 0 105.5 -3 148.5 -9s87.167 -13.333 132.5 -22v-180c-33.333 7.33301 -67.833 13 -103.5 17s-70.5 6 -104.5 6c-47.333 0 -84.833 -7.5 -112.5 -22.5s-41.5 -39.5 -41.5 -73.5c0 -24.667 12.333 -46.167 37 -64.5s63.667 -27.5 117 -27.5
c45.333 0 81 9 107 27s44.333 40.667 55 68s16 54.333 16 81h75c0 -76 -12 -145.667 -36 -209s-61.333 -113.833 -112 -151.5s-116 -56.5 -196 -56.5zM551.002 1108l-150 124l414 395l208 -168z" />
    <glyph glyph-name="acircumflex" unicode="&#xe2;" horiz-adv-x="1242" 
d="M815 0l-40.998 263.003v369c0 49.333 -9 87.666 -27 114.999s-56.333 41 -115 41c-34.667 0 -62.834 -5.16699 -84.501 -15.5s-37.667 -24 -48 -41s-15.5 -35.5 -15.5 -55.5h-346c0 77.333 18.333 141.166 55 191.499s91.667 87.833 165 112.5s164.666 37 273.999 37
c95.333 0 177.5 -14.667 246.5 -44s122.167 -73.333 159.5 -132s56 -132.334 56 -221.001v-620h-279zM505.002 -31.9971c-88 0 -162.167 14.833 -222.5 44.5s-105.833 69.834 -136.5 120.501s-46 106.667 -46 168c0 58 16 108.167 48 150.5s79.5 75.166 142.5 98.499
s140.5 35 232.5 35c56 0 105.5 -3 148.5 -9s87.167 -13.333 132.5 -22v-180c-33.333 7.33301 -67.833 13 -103.5 17s-70.5 6 -104.5 6c-47.333 0 -84.833 -7.5 -112.5 -22.5s-41.5 -39.5 -41.5 -73.5c0 -24.667 12.333 -46.167 37 -64.5s63.667 -27.5 117 -27.5
c45.333 0 81 9 107 27s44.333 40.667 55 68s16 54.333 16 81h75c0 -76 -12 -145.667 -36 -209s-61.333 -113.833 -112 -151.5s-116 -56.5 -196 -56.5zM409.002 1121l-185 147l396 300l399 -300l-188 -147l-268 211h114z" />
    <glyph glyph-name="atilde" unicode="&#xe3;" horiz-adv-x="1242" 
d="M815 0l-40.998 263.003v369c0 49.333 -9 87.666 -27 114.999s-56.333 41 -115 41c-34.667 0 -62.834 -5.16699 -84.501 -15.5s-37.667 -24 -48 -41s-15.5 -35.5 -15.5 -55.5h-346c0 77.333 18.333 141.166 55 191.499s91.667 87.833 165 112.5s164.666 37 273.999 37
c95.333 0 177.5 -14.667 246.5 -44s122.167 -73.333 159.5 -132s56 -132.334 56 -221.001v-620h-279zM505.002 -31.9971c-88 0 -162.167 14.833 -222.5 44.5s-105.833 69.834 -136.5 120.501s-46 106.667 -46 168c0 58 16 108.167 48 150.5s79.5 75.166 142.5 98.499
s140.5 35 232.5 35c56 0 105.5 -3 148.5 -9s87.167 -13.333 132.5 -22v-180c-33.333 7.33301 -67.833 13 -103.5 17s-70.5 6 -104.5 6c-47.333 0 -84.833 -7.5 -112.5 -22.5s-41.5 -39.5 -41.5 -73.5c0 -24.667 12.333 -46.167 37 -64.5s63.667 -27.5 117 -27.5
c45.333 0 81 9 107 27s44.333 40.667 55 68s16 54.333 16 81h75c0 -76 -12 -145.667 -36 -209s-61.333 -113.833 -112 -151.5s-116 -56.5 -196 -56.5zM368.002 1136l-125.996 73.001c16 95.333 46.167 170.666 90.5 225.999s98.166 83 161.499 83
c21.333 0 43.5 -4.16699 66.5 -12.5s49.5 -20.166 79.5 -35.499l67 -31.5c18 -8.33301 35.667 -12.5 53 -12.5c19.333 0 38.333 7.33301 57 22s35 38 49 70l133 -87c-8.66699 -54 -25.334 -103.333 -50.001 -148s-53.167 -80.334 -85.5 -107.001s-64.166 -40 -95.499 -40
c-28.667 0 -55.334 5 -80.001 15s-53.334 23 -86.001 39c-26.667 15.333 -47.834 26.166 -63.501 32.499s-30.5 9.5 -44.5 9.5c-22.667 0 -44 -6.16699 -64 -18.5s-40.667 -38.166 -62 -77.499z" />
    <glyph glyph-name="adieresis" unicode="&#xe4;" horiz-adv-x="1242" 
d="M815 0l-40.998 263.003v369c0 49.333 -9 87.666 -27 114.999s-56.333 41 -115 41c-34.667 0 -62.834 -5.16699 -84.501 -15.5s-37.667 -24 -48 -41s-15.5 -35.5 -15.5 -55.5h-346c0 77.333 18.333 141.166 55 191.499s91.667 87.833 165 112.5s164.666 37 273.999 37
c95.333 0 177.5 -14.667 246.5 -44s122.167 -73.333 159.5 -132s56 -132.334 56 -221.001v-620h-279zM505.002 -31.9971c-88 0 -162.167 14.833 -222.5 44.5s-105.833 69.834 -136.5 120.501s-46 106.667 -46 168c0 58 16 108.167 48 150.5s79.5 75.166 142.5 98.499
s140.5 35 232.5 35c56 0 105.5 -3 148.5 -9s87.167 -13.333 132.5 -22v-180c-33.333 7.33301 -67.833 13 -103.5 17s-70.5 6 -104.5 6c-47.333 0 -84.833 -7.5 -112.5 -22.5s-41.5 -39.5 -41.5 -73.5c0 -24.667 12.333 -46.167 37 -64.5s63.667 -27.5 117 -27.5
c45.333 0 81 9 107 27s44.333 40.667 55 68s16 54.333 16 81h75c0 -76 -12 -145.667 -36 -209s-61.333 -113.833 -112 -151.5s-116 -56.5 -196 -56.5zM838.002 1146c-49.333 0 -91.166 15.833 -125.499 47.5s-51.5 71.834 -51.5 120.501s17.167 88.667 51.5 120
s76.166 47 125.499 47c52.667 0 95.834 -15.667 129.501 -47s50.5 -71.333 50.5 -120s-16.833 -88.834 -50.5 -120.501s-76.834 -47.5 -129.501 -47.5zM402.002 1146c-52.667 0 -95.5 15.833 -128.5 47.5s-49.5 71.167 -49.5 118.5c0 49.333 16.5 89.5 49.5 120.5
s75.833 46.5 128.5 46.5s95.834 -15.5 129.501 -46.5s50.5 -71.167 50.5 -120.5c0 -47.333 -16.833 -86.833 -50.5 -118.5s-76.834 -47.5 -129.501 -47.5z" />
    <glyph glyph-name="aring" unicode="&#xe5;" horiz-adv-x="1242" 
d="M815 0l-40.998 263.003v369c0 49.333 -9 87.666 -27 114.999s-56.333 41 -115 41c-34.667 0 -62.834 -5.16699 -84.501 -15.5s-37.667 -24 -48 -41s-15.5 -35.5 -15.5 -55.5h-346c0 77.333 18.333 141.166 55 191.499s91.667 87.833 165 112.5s164.666 37 273.999 37
c95.333 0 177.5 -14.667 246.5 -44s122.167 -73.333 159.5 -132s56 -132.334 56 -221.001v-620h-279zM505.002 -31.9971c-88 0 -162.167 14.833 -222.5 44.5s-105.833 69.834 -136.5 120.501s-46 106.667 -46 168c0 58 16 108.167 48 150.5s79.5 75.166 142.5 98.499
s140.5 35 232.5 35c56 0 105.5 -3 148.5 -9s87.167 -13.333 132.5 -22v-180c-33.333 7.33301 -67.833 13 -103.5 17s-70.5 6 -104.5 6c-47.333 0 -84.833 -7.5 -112.5 -22.5s-41.5 -39.5 -41.5 -73.5c0 -24.667 12.333 -46.167 37 -64.5s63.667 -27.5 117 -27.5
c45.333 0 81 9 107 27s44.333 40.667 55 68s16 54.333 16 81h75c0 -76 -12 -145.667 -36 -209s-61.333 -113.833 -112 -151.5s-116 -56.5 -196 -56.5zM623.002 1086c-50.667 0 -97 12.5 -139 37.5s-75.5 58.5 -100.5 100.5s-37.5 88.333 -37.5 139s12.5 97 37.5 139
s58.5 75.5 100.5 100.5s88.333 37.5 139 37.5s97 -12.5 139 -37.5s75.5 -58.5 100.5 -100.5s37.5 -88.333 37.5 -139s-12.5 -97 -37.5 -139s-58.5 -75.5 -100.5 -100.5s-88.333 -37.5 -139 -37.5zM623.002 1291c20 0 37 7 51 21s21 31 21 51s-7 37 -21 51s-31 21 -51 21
s-37 -7 -51 -21s-21 -31 -21 -51s7 -37 21 -51s31 -21 51 -21z" />
    <glyph glyph-name="ae" unicode="&#xe6;" horiz-adv-x="1755" 
d="M795 303h-41.001v329c0 46 -10.167 83.5 -30.5 112.5s-56.5 43.5 -108.5 43.5c-30.667 0 -55.667 -5.16699 -75 -15.5s-33.5 -24 -42.5 -41s-13.5 -35.5 -13.5 -55.5h-346c0 77.333 18 141.166 54 191.499s85.167 87.833 147.5 112.5s132.833 37 211.5 37
c102.667 0 185.834 -19.167 249.501 -57.5s110.167 -91.166 139.5 -158.499s44 -145 44 -233v-68zM500.999 -32c-87.333 0 -160.834 14.834 -220.501 44.501s-104.667 69.5 -135 119.5s-45.5 104.667 -45.5 164c0 60.667 15.667 112.5 47 155.5s77.166 76 137.499 99
s133.833 34.5 220.5 34.5c47.333 0 94.333 -3 141 -9s92.667 -13.333 138 -22v-180c-33.333 7.33301 -69.666 13 -108.999 17s-70.333 6 -93 6c-42.667 0 -76.667 -7.5 -102 -22.5s-38 -38.167 -38 -69.5c0 -26.667 10.667 -49.334 32 -68.001s54.333 -28 99 -28
c42.667 0 77.334 8.5 104.001 25.5s46.167 38.833 58.5 65.5s18.5 55 18.5 85h205c0 -64.667 -16 -129 -48 -193s-81.667 -117.333 -149 -160s-154.333 -64 -261 -64zM1239 -31.999c-90.667 0 -172.496 23.502 -245.496 70.502s-130.833 110.5 -173.5 190.5
s-64 169.333 -64 268s21.333 187.167 64 265.5s100.167 140.333 172.5 186s153.5 68.5 243.5 68.5c77.333 0 145.833 -16.667 205.5 -50s108.167 -78 145.5 -134s62.166 -119.167 74.499 -189.5s9.83301 -142.5 -7.5 -216.5h-655v162h421l-46 -30
c2 23.333 1.16699 47 -2.5 71s-10.834 46.167 -21.501 66.5s-25.834 36.666 -45.501 48.999s-44.834 18.5 -75.501 18.5c-34 0 -63.5 -8.16699 -88.5 -24.5s-44.333 -40 -58 -71s-20.5 -68.833 -20.5 -113.5v-126c0 -42 6 -78.333 18 -109s29.833 -54.5 53.5 -71.5
s53.5 -25.5 89.5 -25.5c29.333 0 55 6 77 18s37.333 31 46 57h318c-9.33301 -62.667 -34.333 -118.834 -75 -168.501s-91.5 -89 -152.5 -118s-126.833 -43.5 -197.5 -43.5z" />
    <glyph glyph-name="ccedilla" unicode="&#xe7;" horiz-adv-x="1087" 
d="M571 -32c-86 0 -165.833 21.665 -239.5 64.998s-133 104.333 -178 183s-67.5 170.667 -67.5 276c0 115.333 22.5 211.833 67.5 289.5s104.333 136.334 178 176.001s153.5 59.5 239.5 59.5c72.667 0 136.167 -12.333 190.5 -37s99.5 -57 135.5 -97s62.833 -84 80.5 -132
s26.5 -95 26.5 -141l-320 3c-4.66699 28.667 -16.167 54.834 -34.5 78.501s-45.166 35.5 -80.499 35.5c-28 0 -54.5 -7.16699 -79.5 -21.5s-45.333 -38.5 -61 -72.5s-23.5 -81 -23.5 -141c0 -58.667 7.83301 -105 23.5 -139s36 -58 61 -72s51.5 -21 79.5 -21
c45.333 0 75.833 10.5 91.5 31.5s23.5 47.5 23.5 79.5h320c0 -70.667 -15.667 -136.667 -47 -198s-78.833 -110.833 -142.5 -148.5s-144.834 -56.5 -243.501 -56.5zM360 -376.002l39.0029 101.002c40.667 -16.667 76.334 -26 107.001 -28s55.167 2 73.5 12
s28.5 24.333 30.5 43c1.33301 14 -2.83398 26.667 -12.501 38s-26.334 22.166 -50.001 32.499s-56.5 20.166 -98.5 29.499l86 254l119 -22l-74 -225l-26 64c69.333 -6.66699 123.5 -20.334 162.5 -41.001s66.333 -44.5 82 -71.5s22.5 -53.833 20.5 -80.5
c-2.66699 -38.667 -19.5 -70.167 -50.5 -94.5s-69.833 -41.166 -116.5 -50.499s-95.834 -10.833 -147.501 -4.5s-99.834 20.833 -144.501 43.5z" />
    <glyph glyph-name="egrave" unicode="&#xe8;" horiz-adv-x="1095" 
d="M563 -32c-82.667 0 -160.333 21.333 -233 64s-131.5 103.667 -176.5 183s-67.5 173.333 -67.5 282s22.333 201.834 67 279.501s103.334 137.167 176.001 178.5s150.667 62 234 62c82.667 0 154.667 -16.5 216 -49.5s110.833 -77.5 148.5 -133.5
s62.334 -119.167 74.001 -189.5s9.16699 -142.833 -7.5 -217.5h-655v162h421l-46 -30c2 23.333 1.16699 47 -2.5 71s-10.834 46.167 -21.501 66.5s-25.834 36.666 -45.501 48.999s-44.834 18.5 -75.501 18.5c-34 0 -63.5 -8.16699 -88.5 -24.5s-44.333 -40 -58 -71
s-20.5 -68.833 -20.5 -113.5v-126c0 -42 6 -78.333 18 -109s29.833 -54.5 53.5 -71.5s53.5 -25.5 89.5 -25.5c29.333 0 55 6 77 18s37.333 31 46 57h318c-10 -61.333 -34.5 -117 -73.5 -167s-89.667 -89.667 -152 -119s-134.166 -44 -215.499 -44zM702.001 1108l-472 351
l208 168l414 -395z" />
    <glyph glyph-name="eacute" unicode="&#xe9;" horiz-adv-x="1095" 
d="M563 -32c-82.667 0 -160.333 21.333 -233 64s-131.5 103.667 -176.5 183s-67.5 173.333 -67.5 282s22.333 201.834 67 279.501s103.334 137.167 176.001 178.5s150.667 62 234 62c82.667 0 154.667 -16.5 216 -49.5s110.833 -77.5 148.5 -133.5
s62.334 -119.167 74.001 -189.5s9.16699 -142.833 -7.5 -217.5h-655v162h421l-46 -30c2 23.333 1.16699 47 -2.5 71s-10.834 46.167 -21.501 66.5s-25.834 36.666 -45.501 48.999s-44.834 18.5 -75.501 18.5c-34 0 -63.5 -8.16699 -88.5 -24.5s-44.333 -40 -58 -71
s-20.5 -68.833 -20.5 -113.5v-126c0 -42 6 -78.333 18 -109s29.833 -54.5 53.5 -71.5s53.5 -25.5 89.5 -25.5c29.333 0 55 6 77 18s37.333 31 46 57h318c-10 -61.333 -34.5 -117 -73.5 -167s-89.667 -89.667 -152 -119s-134.166 -44 -215.499 -44zM478.001 1108l-150 124
l414 395l208 -168z" />
    <glyph glyph-name="ecircumflex" unicode="&#xea;" horiz-adv-x="1095" 
d="M563 -32c-82.667 0 -160.333 21.333 -233 64s-131.5 103.667 -176.5 183s-67.5 173.333 -67.5 282s22.333 201.834 67 279.501s103.334 137.167 176.001 178.5s150.667 62 234 62c82.667 0 154.667 -16.5 216 -49.5s110.833 -77.5 148.5 -133.5
s62.334 -119.167 74.001 -189.5s9.16699 -142.833 -7.5 -217.5h-655v162h421l-46 -30c2 23.333 1.16699 47 -2.5 71s-10.834 46.167 -21.501 66.5s-25.834 36.666 -45.501 48.999s-44.834 18.5 -75.501 18.5c-34 0 -63.5 -8.16699 -88.5 -24.5s-44.333 -40 -58 -71
s-20.5 -68.833 -20.5 -113.5v-126c0 -42 6 -78.333 18 -109s29.833 -54.5 53.5 -71.5s53.5 -25.5 89.5 -25.5c29.333 0 55 6 77 18s37.333 31 46 57h318c-10 -61.333 -34.5 -117 -73.5 -167s-89.667 -89.667 -152 -119s-134.166 -44 -215.499 -44zM336.001 1121l-185 147
l396 300l399 -300l-188 -147l-268 211h114z" />
    <glyph glyph-name="edieresis" unicode="&#xeb;" horiz-adv-x="1095" 
d="M563 -32c-82.667 0 -160.333 21.333 -233 64s-131.5 103.667 -176.5 183s-67.5 173.333 -67.5 282s22.333 201.834 67 279.501s103.334 137.167 176.001 178.5s150.667 62 234 62c82.667 0 154.667 -16.5 216 -49.5s110.833 -77.5 148.5 -133.5
s62.334 -119.167 74.001 -189.5s9.16699 -142.833 -7.5 -217.5h-655v162h421l-46 -30c2 23.333 1.16699 47 -2.5 71s-10.834 46.167 -21.501 66.5s-25.834 36.666 -45.501 48.999s-44.834 18.5 -75.501 18.5c-34 0 -63.5 -8.16699 -88.5 -24.5s-44.333 -40 -58 -71
s-20.5 -68.833 -20.5 -113.5v-126c0 -42 6 -78.333 18 -109s29.833 -54.5 53.5 -71.5s53.5 -25.5 89.5 -25.5c29.333 0 55 6 77 18s37.333 31 46 57h318c-10 -61.333 -34.5 -117 -73.5 -167s-89.667 -89.667 -152 -119s-134.166 -44 -215.499 -44zM765.001 1146
c-49.333 0 -91.166 15.833 -125.499 47.5s-51.5 71.834 -51.5 120.501s17.167 88.667 51.5 120s76.166 47 125.499 47c52.667 0 95.834 -15.667 129.501 -47s50.5 -71.333 50.5 -120s-16.833 -88.834 -50.5 -120.501s-76.834 -47.5 -129.501 -47.5zM329.001 1146
c-52.667 0 -95.5 15.833 -128.5 47.5s-49.5 71.167 -49.5 118.5c0 49.333 16.5 89.5 49.5 120.5s75.833 46.5 128.5 46.5s95.834 -15.5 129.501 -46.5s50.5 -71.167 50.5 -120.5c0 -47.333 -16.833 -86.833 -50.5 -118.5s-76.834 -47.5 -129.501 -47.5z" />
    <glyph glyph-name="igrave" unicode="&#xec;" horiz-adv-x="719" 
d="M200 0v991h320v-991h-320zM514 1108l-472 351l208 168l414 -395z" />
    <glyph glyph-name="iacute" unicode="&#xed;" horiz-adv-x="719" 
d="M200 0v991h320v-991h-320zM290 1108l-150 124l414 395l208 -168z" />
    <glyph glyph-name="icircumflex" unicode="&#xee;" horiz-adv-x="719" 
d="M200 0v991h320v-991h-320zM148 1121l-185 147l396 300l399 -300l-188 -147l-268 211h114z" />
    <glyph glyph-name="idieresis" unicode="&#xef;" horiz-adv-x="719" 
d="M200 0v991h320v-991h-320zM577 1146c-49.333 0 -91.166 15.833 -125.499 47.5s-51.5 71.834 -51.5 120.501s17.167 88.667 51.5 120s76.166 47 125.499 47c52.667 0 95.834 -15.667 129.501 -47s50.5 -71.333 50.5 -120s-16.833 -88.834 -50.5 -120.501
s-76.834 -47.5 -129.501 -47.5zM141 1146c-52.667 0 -95.5 15.833 -128.5 47.5s-49.5 71.167 -49.5 118.5c0 49.333 16.5 89.5 49.5 120.5s75.833 46.5 128.5 46.5s95.834 -15.5 129.501 -46.5s50.5 -71.167 50.5 -120.5c0 -47.333 -16.833 -86.833 -50.5 -118.5
s-76.834 -47.5 -129.501 -47.5z" />
    <glyph glyph-name="eth" unicode="&#xf0;" horiz-adv-x="1146" 
d="M554 -32c-85.333 0 -163.501 22.167 -234.501 66.5s-127.833 106.5 -170.5 186.5s-64 173.333 -64 280c0 102.667 19.5 192.667 58.5 270s91 137.666 156 180.999s135.833 65 212.5 65c82.667 0 152.334 -23.667 209.001 -71s99.5 -109.333 128.5 -186
s43.5 -159.334 43.5 -248.001h-89c-1.33301 48.667 -12.166 88.834 -32.499 120.501s-45.833 55.334 -76.5 71.001s-63 23.5 -97 23.5c-40 0 -74.5 -10 -103.5 -30s-51.167 -47.333 -66.5 -82s-23 -74.334 -23 -119.001s8 -84.834 24 -120.501s38.5 -63.834 67.5 -84.501
s63.167 -31 102.5 -31c42 0 78 11 108 33s53.167 50.5 69.5 85.5s24.833 72.167 25.5 111.5c1.33301 92.667 -1 180.834 -7 264.501s-23.333 166.334 -52 248.001s-76 165.334 -142 251.001s-158.333 176.834 -277 273.501l281 170
c105.333 -103.333 191.166 -203 257.499 -299s117.5 -187.667 153.5 -275s60.667 -169 74 -245s20 -145.667 20 -209c0 -118.667 -16.333 -221.834 -49 -309.501s-76 -160.5 -130 -218.5s-113.833 -101.333 -179.5 -130s-131.5 -43 -197.5 -43zM393.999 1106l-88 187
l669 344l88 -187z" />
    <glyph glyph-name="ntilde" unicode="&#xf1;" horiz-adv-x="1287" 
d="M821 0v574.001c0 52 -12.667 90.5 -38 115.5s-56 37.5 -92 37.5c-36.667 0 -70.334 -10.333 -101.001 -31s-55.167 -53.834 -73.5 -99.501s-27.5 -106.167 -27.5 -181.5h-97c0 141.333 16.833 256.333 50.5 345s79.667 153.667 138 195s124.5 62 198.5 62
c84.667 0 153.834 -19 207.501 -57s93.167 -90.333 118.5 -157s38 -143 38 -229v-574h-322zM169 0.000976562v985h282l38 -163v-822h-320zM391 1136l-125.996 73.001c16 95.333 46.167 170.666 90.5 225.999s98.166 83 161.499 83c21.333 0 43.5 -4.16699 66.5 -12.5
s49.5 -20.166 79.5 -35.499l67 -31.5c18 -8.33301 35.667 -12.5 53 -12.5c19.333 0 38.333 7.33301 57 22s35 38 49 70l133 -87c-8.66699 -54 -25.334 -103.333 -50.001 -148s-53.167 -80.334 -85.5 -107.001s-64.166 -40 -95.499 -40c-28.667 0 -55.334 5 -80.001 15
s-53.334 23 -86.001 39c-26.667 15.333 -47.834 26.166 -63.501 32.499s-30.5 9.5 -44.5 9.5c-22.667 0 -44 -6.16699 -64 -18.5s-40.667 -38.166 -62 -77.499z" />
    <glyph glyph-name="ograve" unicode="&#xf2;" horiz-adv-x="1173" 
d="M589 -32c-91.333 0 -175.166 18.833 -251.499 56.5s-137.333 95 -183 172s-68.5 174.833 -68.5 293.5c0 122.667 22.833 222.667 68.5 300s106.667 134.5 183 171.5s160.166 55.5 251.499 55.5c89.333 0 171.666 -18.5 246.999 -55.5s135.833 -94.167 181.5 -171.5
s68.5 -177.333 68.5 -300c0 -118.667 -22.833 -216.5 -68.5 -293.5s-106.167 -134.333 -181.5 -172s-157.666 -56.5 -246.999 -56.5zM577 247c30.667 0 60.5 8 89.5 24s53.167 41.833 72.5 77.5s29 82.834 29 141.501c0 91.333 -16.333 155.666 -49 192.999s-72 56 -118 56
c-30.667 0 -61.167 -8 -91.5 -24s-55.333 -42.167 -75 -78.5s-29.5 -85.166 -29.5 -146.499c0 -88.667 17.167 -151.334 51.5 -188.001s74.5 -55 120.5 -55zM741 1108l-472 351l208 168l414 -395z" />
    <glyph glyph-name="oacute" unicode="&#xf3;" horiz-adv-x="1173" 
d="M589 -32c-91.333 0 -175.166 18.833 -251.499 56.5s-137.333 95 -183 172s-68.5 174.833 -68.5 293.5c0 122.667 22.833 222.667 68.5 300s106.667 134.5 183 171.5s160.166 55.5 251.499 55.5c89.333 0 171.666 -18.5 246.999 -55.5s135.833 -94.167 181.5 -171.5
s68.5 -177.333 68.5 -300c0 -118.667 -22.833 -216.5 -68.5 -293.5s-106.167 -134.333 -181.5 -172s-157.666 -56.5 -246.999 -56.5zM577 247c30.667 0 60.5 8 89.5 24s53.167 41.833 72.5 77.5s29 82.834 29 141.501c0 91.333 -16.333 155.666 -49 192.999s-72 56 -118 56
c-30.667 0 -61.167 -8 -91.5 -24s-55.333 -42.167 -75 -78.5s-29.5 -85.166 -29.5 -146.499c0 -88.667 17.167 -151.334 51.5 -188.001s74.5 -55 120.5 -55zM517 1108l-150 124l414 395l208 -168z" />
    <glyph glyph-name="ocircumflex" unicode="&#xf4;" horiz-adv-x="1173" 
d="M589 -32c-91.333 0 -175.166 18.833 -251.499 56.5s-137.333 95 -183 172s-68.5 174.833 -68.5 293.5c0 122.667 22.833 222.667 68.5 300s106.667 134.5 183 171.5s160.166 55.5 251.499 55.5c89.333 0 171.666 -18.5 246.999 -55.5s135.833 -94.167 181.5 -171.5
s68.5 -177.333 68.5 -300c0 -118.667 -22.833 -216.5 -68.5 -293.5s-106.167 -134.333 -181.5 -172s-157.666 -56.5 -246.999 -56.5zM577 247c30.667 0 60.5 8 89.5 24s53.167 41.833 72.5 77.5s29 82.834 29 141.501c0 91.333 -16.333 155.666 -49 192.999s-72 56 -118 56
c-30.667 0 -61.167 -8 -91.5 -24s-55.333 -42.167 -75 -78.5s-29.5 -85.166 -29.5 -146.499c0 -88.667 17.167 -151.334 51.5 -188.001s74.5 -55 120.5 -55zM375 1121l-185 147l396 300l399 -300l-188 -147l-268 211h114z" />
    <glyph glyph-name="otilde" unicode="&#xf5;" horiz-adv-x="1173" 
d="M589 -32c-91.333 0 -175.166 18.833 -251.499 56.5s-137.333 95 -183 172s-68.5 174.833 -68.5 293.5c0 122.667 22.833 222.667 68.5 300s106.667 134.5 183 171.5s160.166 55.5 251.499 55.5c89.333 0 171.666 -18.5 246.999 -55.5s135.833 -94.167 181.5 -171.5
s68.5 -177.333 68.5 -300c0 -118.667 -22.833 -216.5 -68.5 -293.5s-106.167 -134.333 -181.5 -172s-157.666 -56.5 -246.999 -56.5zM577 247c30.667 0 60.5 8 89.5 24s53.167 41.833 72.5 77.5s29 82.834 29 141.501c0 91.333 -16.333 155.666 -49 192.999s-72 56 -118 56
c-30.667 0 -61.167 -8 -91.5 -24s-55.333 -42.167 -75 -78.5s-29.5 -85.166 -29.5 -146.499c0 -88.667 17.167 -151.334 51.5 -188.001s74.5 -55 120.5 -55zM334 1136l-125.996 73.001c16 95.333 46.167 170.666 90.5 225.999s98.166 83 161.499 83
c21.333 0 43.5 -4.16699 66.5 -12.5s49.5 -20.166 79.5 -35.499l67 -31.5c18 -8.33301 35.667 -12.5 53 -12.5c19.333 0 38.333 7.33301 57 22s35 38 49 70l133 -87c-8.66699 -54 -25.334 -103.333 -50.001 -148s-53.167 -80.334 -85.5 -107.001s-64.166 -40 -95.499 -40
c-28.667 0 -55.334 5 -80.001 15s-53.334 23 -86.001 39c-26.667 15.333 -47.834 26.166 -63.501 32.499s-30.5 9.5 -44.5 9.5c-22.667 0 -44 -6.16699 -64 -18.5s-40.667 -38.166 -62 -77.499z" />
    <glyph glyph-name="odieresis" unicode="&#xf6;" horiz-adv-x="1173" 
d="M589 -32c-91.333 0 -175.166 18.833 -251.499 56.5s-137.333 95 -183 172s-68.5 174.833 -68.5 293.5c0 122.667 22.833 222.667 68.5 300s106.667 134.5 183 171.5s160.166 55.5 251.499 55.5c89.333 0 171.666 -18.5 246.999 -55.5s135.833 -94.167 181.5 -171.5
s68.5 -177.333 68.5 -300c0 -118.667 -22.833 -216.5 -68.5 -293.5s-106.167 -134.333 -181.5 -172s-157.666 -56.5 -246.999 -56.5zM577 247c30.667 0 60.5 8 89.5 24s53.167 41.833 72.5 77.5s29 82.834 29 141.501c0 91.333 -16.333 155.666 -49 192.999s-72 56 -118 56
c-30.667 0 -61.167 -8 -91.5 -24s-55.333 -42.167 -75 -78.5s-29.5 -85.166 -29.5 -146.499c0 -88.667 17.167 -151.334 51.5 -188.001s74.5 -55 120.5 -55zM804 1146c-49.333 0 -91.166 15.833 -125.499 47.5s-51.5 71.834 -51.5 120.501s17.167 88.667 51.5 120
s76.166 47 125.499 47c52.667 0 95.834 -15.667 129.501 -47s50.5 -71.333 50.5 -120s-16.833 -88.834 -50.5 -120.501s-76.834 -47.5 -129.501 -47.5zM368 1146c-52.667 0 -95.5 15.833 -128.5 47.5s-49.5 71.167 -49.5 118.5c0 49.333 16.5 89.5 49.5 120.5
s75.833 46.5 128.5 46.5s95.834 -15.5 129.501 -46.5s50.5 -71.167 50.5 -120.5c0 -47.333 -16.833 -86.833 -50.5 -118.5s-76.834 -47.5 -129.501 -47.5z" />
    <glyph glyph-name="divide" unicode="&#xf7;" horiz-adv-x="1052" 
d="M96 436v283h858v-283h-858zM522 13c-49.333 0 -90.166 15.5 -122.499 46.5s-48.5 70.167 -48.5 117.5s16.167 86 48.5 116s73.166 45 122.499 45c50.667 0 93 -15 127 -45s51 -68.667 51 -116s-17 -86.5 -51 -117.5s-76.333 -46.5 -127 -46.5zM522 807
c-49.333 0 -90.166 15 -122.499 45s-48.5 69.333 -48.5 118c0 45.333 16.167 84 48.5 116s73.166 48 122.499 48c50.667 0 93 -16 127 -48s51 -70.667 51 -116c0 -48.667 -17 -88 -51 -118s-76.333 -45 -127 -45z" />
    <glyph glyph-name="oslash" unicode="&#xf8;" horiz-adv-x="1173" 
d="M589 -32c-91.333 0 -175.166 18.833 -251.499 56.5s-137.333 95 -183 172s-68.5 174.833 -68.5 293.5c0 122.667 22.833 222.667 68.5 300s106.667 134.5 183 171.5s160.166 55.5 251.499 55.5c89.333 0 171.666 -18.5 246.999 -55.5s135.833 -94.167 181.5 -171.5
s68.5 -177.333 68.5 -300c0 -118.667 -22.833 -216.5 -68.5 -293.5s-106.167 -134.333 -181.5 -172s-157.666 -56.5 -246.999 -56.5zM577 247c30.667 0 60.5 8 89.5 24s53.167 41.833 72.5 77.5s29 82.834 29 141.501c0 91.333 -16.333 155.666 -49 192.999s-72 56 -118 56
c-30.667 0 -61.167 -8 -91.5 -24s-55.333 -42.167 -75 -78.5s-29.5 -85.166 -29.5 -146.499c0 -88.667 17.167 -151.334 51.5 -188.001s74.5 -55 120.5 -55zM122.379 -2.46094l841.183 1010.52h298.552l-844.823 -1010.52h-294.911z" />
    <glyph glyph-name="ugrave" unicode="&#xf9;" horiz-adv-x="1299" 
d="M811 991h320v-991h-320v991zM158 991l320.001 -0.00195312v-596c0 -45.333 11.5 -78.833 34.5 -100.5s52.5 -32.5 88.5 -32.5c32.667 0 65.167 8 97.5 24s59.166 43.333 80.499 82s32 92.334 32 161.001h70c0 -130.667 -15 -236.167 -45 -316.5
s-70.833 -138.833 -122.5 -175.5s-110.167 -55 -175.5 -55c-66 0 -128 11.333 -186 34s-104.833 61.334 -140.5 116.001s-53.5 130 -53.5 226v633zM817.001 1108l-472 351l208 168l414 -395z" />
    <glyph glyph-name="uacute" unicode="&#xfa;" horiz-adv-x="1299" 
d="M811 991h320v-991h-320v991zM158 991l320.001 -0.00195312v-596c0 -45.333 11.5 -78.833 34.5 -100.5s52.5 -32.5 88.5 -32.5c32.667 0 65.167 8 97.5 24s59.166 43.333 80.499 82s32 92.334 32 161.001h70c0 -130.667 -15 -236.167 -45 -316.5
s-70.833 -138.833 -122.5 -175.5s-110.167 -55 -175.5 -55c-66 0 -128 11.333 -186 34s-104.833 61.334 -140.5 116.001s-53.5 130 -53.5 226v633zM593.001 1108l-150 124l414 395l208 -168z" />
    <glyph glyph-name="ucircumflex" unicode="&#xfb;" horiz-adv-x="1299" 
d="M811 991h320v-991h-320v991zM158 991l320.001 -0.00195312v-596c0 -45.333 11.5 -78.833 34.5 -100.5s52.5 -32.5 88.5 -32.5c32.667 0 65.167 8 97.5 24s59.166 43.333 80.499 82s32 92.334 32 161.001h70c0 -130.667 -15 -236.167 -45 -316.5
s-70.833 -138.833 -122.5 -175.5s-110.167 -55 -175.5 -55c-66 0 -128 11.333 -186 34s-104.833 61.334 -140.5 116.001s-53.5 130 -53.5 226v633zM451.001 1121l-185 147l396 300l399 -300l-188 -147l-268 211h114z" />
    <glyph glyph-name="udieresis" unicode="&#xfc;" horiz-adv-x="1299" 
d="M811 991h320v-991h-320v991zM158 991l320.001 -0.00195312v-596c0 -45.333 11.5 -78.833 34.5 -100.5s52.5 -32.5 88.5 -32.5c32.667 0 65.167 8 97.5 24s59.166 43.333 80.499 82s32 92.334 32 161.001h70c0 -130.667 -15 -236.167 -45 -316.5
s-70.833 -138.833 -122.5 -175.5s-110.167 -55 -175.5 -55c-66 0 -128 11.333 -186 34s-104.833 61.334 -140.5 116.001s-53.5 130 -53.5 226v633zM880.001 1146c-49.333 0 -91.166 15.833 -125.499 47.5s-51.5 71.834 -51.5 120.501s17.167 88.667 51.5 120
s76.166 47 125.499 47c52.667 0 95.834 -15.667 129.501 -47s50.5 -71.333 50.5 -120s-16.833 -88.834 -50.5 -120.501s-76.834 -47.5 -129.501 -47.5zM444.001 1146c-52.667 0 -95.5 15.833 -128.5 47.5s-49.5 71.167 -49.5 118.5c0 49.333 16.5 89.5 49.5 120.5
s75.833 46.5 128.5 46.5s95.834 -15.5 129.501 -46.5s50.5 -71.167 50.5 -120.5c0 -47.333 -16.833 -86.833 -50.5 -118.5s-76.834 -47.5 -129.501 -47.5z" />
    <glyph glyph-name="yacute" unicode="&#xfd;" horiz-adv-x="1087" 
d="M32 985l366.001 0.000976562l202 -705h-49l201 705h324l-384 -1144c-46.667 -134.667 -100.834 -227.334 -162.501 -278.001s-133.5 -76 -215.5 -76c-50 0 -100.167 4.5 -150.5 13.5s-100.5 23.833 -150.5 44.5v275c37.333 -17.333 73.833 -30.5 109.5 -39.5
s70.5 -13.5 104.5 -13.5c22.667 0 44 4.16699 64 12.5s38.333 22.833 55 43.5s30.667 49 42 85l32 92zM474.001 1108l-150 124l414 395l208 -168z" />
    <glyph glyph-name="thorn" unicode="&#xfe;" 
d="M710 -32c-72.667 0 -133.333 14.6709 -182 44.0039s-85.167 75.333 -109.5 138s-36.5 144 -36.5 244h107c0 -26.667 7.66699 -50 23 -70s36 -35.667 62 -47s54.333 -17 85 -17s62.167 7.66699 94.5 23s59.666 40 81.999 74s33.5 79 33.5 135
c0 47.333 -8.33301 88.666 -25 123.999s-40.167 62.666 -70.5 81.999s-66.5 29 -108.5 29c-34 0 -64.333 -7 -91 -21s-47.5 -33.833 -62.5 -59.5s-22.5 -55.834 -22.5 -90.501h-107c0 112 16.167 201.667 48.5 269s74.833 116.166 127.5 146.499s108.667 45.5 168 45.5
c78.667 0 153.334 -20.667 224.001 -62s128.167 -101 172.5 -179s66.5 -172.667 66.5 -284c0 -110.667 -22.5 -205 -67.5 -283s-104 -137.667 -177 -179s-151.167 -62 -234.5 -62zM169.001 -477.996v1820h320v-1820h-320z" />
    <glyph glyph-name="ydieresis" unicode="&#xff;" horiz-adv-x="1087" 
d="M32 985l366.001 0.000976562l202 -705h-49l201 705h324l-384 -1144c-46.667 -134.667 -100.834 -227.334 -162.501 -278.001s-133.5 -76 -215.5 -76c-50 0 -100.167 4.5 -150.5 13.5s-100.5 23.833 -150.5 44.5v275c37.333 -17.333 73.833 -30.5 109.5 -39.5
s70.5 -13.5 104.5 -13.5c22.667 0 44 4.16699 64 12.5s38.333 22.833 55 43.5s30.667 49 42 85l32 92zM761.001 1146c-49.333 0 -91.166 15.833 -125.499 47.5s-51.5 71.834 -51.5 120.501s17.167 88.667 51.5 120s76.166 47 125.499 47
c52.667 0 95.834 -15.667 129.501 -47s50.5 -71.333 50.5 -120s-16.833 -88.834 -50.5 -120.501s-76.834 -47.5 -129.501 -47.5zM325.001 1146c-52.667 0 -95.5 15.833 -128.5 47.5s-49.5 71.167 -49.5 118.5c0 49.333 16.5 89.5 49.5 120.5s75.833 46.5 128.5 46.5
s95.834 -15.5 129.501 -46.5s50.5 -71.167 50.5 -120.5c0 -47.333 -16.833 -86.833 -50.5 -118.5s-76.834 -47.5 -129.501 -47.5z" />
    <glyph glyph-name="Amacron" unicode="&#x100;" horiz-adv-x="1358" 
d="M36 0l452 1342h407l427 -1342h-337l-73 236h-463l-73 -236h-340zM530 473h309l-152 491zM317 1781h762v-259h-762v259z" />
    <glyph glyph-name="amacron" unicode="&#x101;" horiz-adv-x="1242" 
d="M815 0l-40.998 263.003v369c0 49.333 -9 87.666 -27 114.999s-56.333 41 -115 41c-34.667 0 -62.834 -5.16699 -84.501 -15.5s-37.667 -24 -48 -41s-15.5 -35.5 -15.5 -55.5h-346c0 77.333 18.333 141.166 55 191.499s91.667 87.833 165 112.5s164.666 37 273.999 37
c95.333 0 177.5 -14.667 246.5 -44s122.167 -73.333 159.5 -132s56 -132.334 56 -221.001v-620h-279zM505.002 -31.9971c-88 0 -162.167 14.833 -222.5 44.5s-105.833 69.834 -136.5 120.501s-46 106.667 -46 168c0 58 16 108.167 48 150.5s79.5 75.166 142.5 98.499
s140.5 35 232.5 35c56 0 105.5 -3 148.5 -9s87.167 -13.333 132.5 -22v-180c-33.333 7.33301 -67.833 13 -103.5 17s-70.5 6 -104.5 6c-47.333 0 -84.833 -7.5 -112.5 -22.5s-41.5 -39.5 -41.5 -73.5c0 -24.667 12.333 -46.167 37 -64.5s63.667 -27.5 117 -27.5
c45.333 0 81 9 107 27s44.333 40.667 55 68s16 54.333 16 81h75c0 -76 -12 -145.667 -36 -209s-61.333 -113.833 -112 -151.5s-116 -56.5 -196 -56.5zM240.002 1428h762v-259h-762v259z" />
    <glyph glyph-name="Abreve" unicode="&#x102;" horiz-adv-x="1358" 
d="M36 0l452 1342h407l427 -1342h-337l-73 236h-463l-73 -236h-340zM530 473h309l-152 491zM698 1524c-112.667 0 -200.167 31.333 -262.5 94s-93.5 155.334 -93.5 278.001h244c0 -57.333 9.5 -99.666 28.5 -126.999s46.833 -41 83.5 -41s64.5 13.667 83.5 41
s28.5 69.666 28.5 126.999h244c0 -122.667 -31.167 -215.334 -93.5 -278.001s-149.833 -94 -262.5 -94z" />
    <glyph glyph-name="abreve" unicode="&#x103;" horiz-adv-x="1242" 
d="M815 0l-40.998 263.003v369c0 49.333 -9 87.666 -27 114.999s-56.333 41 -115 41c-34.667 0 -62.834 -5.16699 -84.501 -15.5s-37.667 -24 -48 -41s-15.5 -35.5 -15.5 -55.5h-346c0 77.333 18.333 141.166 55 191.499s91.667 87.833 165 112.5s164.666 37 273.999 37
c95.333 0 177.5 -14.667 246.5 -44s122.167 -73.333 159.5 -132s56 -132.334 56 -221.001v-620h-279zM505.002 -31.9971c-88 0 -162.167 14.833 -222.5 44.5s-105.833 69.834 -136.5 120.501s-46 106.667 -46 168c0 58 16 108.167 48 150.5s79.5 75.166 142.5 98.499
s140.5 35 232.5 35c56 0 105.5 -3 148.5 -9s87.167 -13.333 132.5 -22v-180c-33.333 7.33301 -67.833 13 -103.5 17s-70.5 6 -104.5 6c-47.333 0 -84.833 -7.5 -112.5 -22.5s-41.5 -39.5 -41.5 -73.5c0 -24.667 12.333 -46.167 37 -64.5s63.667 -27.5 117 -27.5
c45.333 0 81 9 107 27s44.333 40.667 55 68s16 54.333 16 81h75c0 -76 -12 -145.667 -36 -209s-61.333 -113.833 -112 -151.5s-116 -56.5 -196 -56.5zM621.002 1171c-112.667 0 -200.167 31.333 -262.5 94s-93.5 155.334 -93.5 278.001h244
c0 -57.333 9.5 -99.666 28.5 -126.999s46.833 -41 83.5 -41s64.5 13.667 83.5 41s28.5 69.666 28.5 126.999h244c0 -122.667 -31.167 -215.334 -93.5 -278.001s-149.833 -94 -262.5 -94z" />
    <glyph glyph-name="Aogonek" unicode="&#x104;" horiz-adv-x="1358" 
d="M36 0l452 1342h407l427 -1342h-337l-73 236h-463l-73 -236h-340zM530 473h309l-152 491zM1437 -318c-44.667 -22.667 -89.168 -39.832 -133.501 -51.499s-89.166 -17.5 -134.499 -17.5c-76.667 0 -142 17.167 -196 51.5s-81 84.833 -81 151.5
c0 43.333 12.833 85.666 38.5 126.999s62.5 73.333 110.5 96l263 -39c-62.667 -16.667 -112.5 -35.667 -149.5 -57s-55.5 -46.333 -55.5 -75c0 -22 9.83301 -36.167 29.5 -42.5s39.167 -9.5 58.5 -9.5c26.667 0 53 4.16699 79 12.5s59 22.5 99 42.5z" />
    <glyph glyph-name="aogonek" unicode="&#x105;" horiz-adv-x="1242" 
d="M815 0l-40.998 263.003v369c0 49.333 -9 87.666 -27 114.999s-56.333 41 -115 41c-34.667 0 -62.834 -5.16699 -84.501 -15.5s-37.667 -24 -48 -41s-15.5 -35.5 -15.5 -55.5h-346c0 77.333 18.333 141.166 55 191.499s91.667 87.833 165 112.5s164.666 37 273.999 37
c95.333 0 177.5 -14.667 246.5 -44s122.167 -73.333 159.5 -132s56 -132.334 56 -221.001v-620h-279zM505.002 -31.9971c-88 0 -162.167 14.833 -222.5 44.5s-105.833 69.834 -136.5 120.501s-46 106.667 -46 168c0 58 16 108.167 48 150.5s79.5 75.166 142.5 98.499
s140.5 35 232.5 35c56 0 105.5 -3 148.5 -9s87.167 -13.333 132.5 -22v-180c-33.333 7.33301 -67.833 13 -103.5 17s-70.5 6 -104.5 6c-47.333 0 -84.833 -7.5 -112.5 -22.5s-41.5 -39.5 -41.5 -73.5c0 -24.667 12.333 -46.167 37 -64.5s63.667 -27.5 117 -27.5
c45.333 0 81 9 107 27s44.333 40.667 55 68s16 54.333 16 81h75c0 -76 -12 -145.667 -36 -209s-61.333 -113.833 -112 -151.5s-116 -56.5 -196 -56.5zM1228 -317.997c-44.667 -22.667 -89.168 -39.832 -133.501 -51.499s-89.166 -17.5 -134.499 -17.5
c-76.667 0 -142 17.167 -196 51.5s-81 84.833 -81 151.5c0 43.333 12.833 85.666 38.5 126.999s62.5 73.333 110.5 96l263 -39c-62.667 -16.667 -112.5 -35.667 -149.5 -57s-55.5 -46.333 -55.5 -75c0 -22 9.83301 -36.167 29.5 -42.5s39.167 -9.5 58.5 -9.5
c26.667 0 53 4.16699 79 12.5s59 22.5 99 42.5z" />
    <glyph glyph-name="Cacute" unicode="&#x106;" horiz-adv-x="1310" 
d="M679 -32c-117.333 0 -220.498 26.333 -309.498 79s-158.5 131 -208.5 235s-75 233 -75 387c0 154.667 24.833 284 74.5 388s119.167 182.5 208.5 235.5s192.666 79.5 309.999 79.5c169.333 0 298.333 -40 387 -120s141.334 -183.667 158.001 -311l-340 -59
c-15.333 57.333 -39.5 104.833 -72.5 142.5s-77.167 56.5 -132.5 56.5c-49.333 0 -92.833 -14.833 -130.5 -44.5s-66.834 -74.834 -87.501 -135.501s-31 -138 -31 -232c0 -92 10.667 -168.167 32 -228.5s50.833 -105.166 88.5 -134.499s80.5 -44 128.5 -44
c68.667 0 120 18.167 154 54.5s51 80.5 51 132.5h338c0 -103.333 -20.833 -190.833 -62.5 -262.5s-102.834 -126 -183.501 -163s-179.667 -55.5 -297 -55.5zM585.002 1461l-150 124l414 395l208 -168z" />
    <glyph glyph-name="cacute" unicode="&#x107;" horiz-adv-x="1087" 
d="M571 -32c-86 0 -165.833 21.665 -239.5 64.998s-133 104.333 -178 183s-67.5 170.667 -67.5 276c0 115.333 22.5 211.833 67.5 289.5s104.333 136.334 178 176.001s153.5 59.5 239.5 59.5c72.667 0 136.167 -12.333 190.5 -37s99.5 -57 135.5 -97s62.833 -84 80.5 -132
s26.5 -95 26.5 -141l-320 3c-4.66699 28.667 -16.167 54.834 -34.5 78.501s-45.166 35.5 -80.499 35.5c-28 0 -54.5 -7.16699 -79.5 -21.5s-45.333 -38.5 -61 -72.5s-23.5 -81 -23.5 -141c0 -58.667 7.83301 -105 23.5 -139s36 -58 61 -72s51.5 -21 79.5 -21
c45.333 0 75.833 10.5 91.5 31.5s23.5 47.5 23.5 79.5h320c0 -70.667 -15.667 -136.667 -47 -198s-78.833 -110.833 -142.5 -148.5s-144.834 -56.5 -243.501 -56.5zM501 1108l-150 124l414 395l208 -168z" />
    <glyph glyph-name="Cdotaccent" unicode="&#x10a;" horiz-adv-x="1310" 
d="M679 -32c-117.333 0 -220.498 26.333 -309.498 79s-158.5 131 -208.5 235s-75 233 -75 387c0 154.667 24.833 284 74.5 388s119.167 182.5 208.5 235.5s192.666 79.5 309.999 79.5c169.333 0 298.333 -40 387 -120s141.334 -183.667 158.001 -311l-340 -59
c-15.333 57.333 -39.5 104.833 -72.5 142.5s-77.167 56.5 -132.5 56.5c-49.333 0 -92.833 -14.833 -130.5 -44.5s-66.834 -74.834 -87.501 -135.501s-31 -138 -31 -232c0 -92 10.667 -168.167 32 -228.5s50.833 -105.166 88.5 -134.499s80.5 -44 128.5 -44
c68.667 0 120 18.167 154 54.5s51 80.5 51 132.5h338c0 -103.333 -20.833 -190.833 -62.5 -262.5s-102.834 -126 -183.501 -163s-179.667 -55.5 -297 -55.5zM451.342 1713.49c0 58.2139 19.459 106.616 58.3779 145.208c38.9189 38.5908 89.4473 57.8867 151.586 57.8867
s113.485 -19.2959 154.039 -57.8867c40.5537 -38.5918 60.8311 -86.9951 60.8311 -145.209s-20.2773 -106.126 -60.8311 -143.736s-91.9004 -56.415 -154.039 -56.415s-112.667 18.9688 -151.586 56.9062c-38.9189 37.9365 -58.3779 85.6855 -58.3779 143.246z" />
    <glyph glyph-name="cdotaccent" unicode="&#x10b;" horiz-adv-x="1087" 
d="M571 -32c-86 0 -165.833 21.665 -239.5 64.998s-133 104.333 -178 183s-67.5 170.667 -67.5 276c0 115.333 22.5 211.833 67.5 289.5s104.333 136.334 178 176.001s153.5 59.5 239.5 59.5c72.667 0 136.167 -12.333 190.5 -37s99.5 -57 135.5 -97s62.833 -84 80.5 -132
s26.5 -95 26.5 -141l-320 3c-4.66699 28.667 -16.167 54.834 -34.5 78.501s-45.166 35.5 -80.499 35.5c-28 0 -54.5 -7.16699 -79.5 -21.5s-45.333 -38.5 -61 -72.5s-23.5 -81 -23.5 -141c0 -58.667 7.83301 -105 23.5 -139s36 -58 61 -72s51.5 -21 79.5 -21
c45.333 0 75.833 10.5 91.5 31.5s23.5 47.5 23.5 79.5h320c0 -70.667 -15.667 -136.667 -47 -198s-78.833 -110.833 -142.5 -148.5s-144.834 -56.5 -243.501 -56.5zM367.34 1360.49c0 58.2139 19.459 106.616 58.3779 145.208
c38.9189 38.5908 89.4473 57.8867 151.586 57.8867s113.485 -19.2959 154.039 -57.8867c40.5537 -38.5918 60.8311 -86.9951 60.8311 -145.209s-20.2773 -106.126 -60.8311 -143.736s-91.9004 -56.415 -154.039 -56.415s-112.667 18.9688 -151.586 56.9062
c-38.9189 37.9365 -58.3779 85.6855 -58.3779 143.246z" />
    <glyph glyph-name="Ccaron" unicode="&#x10c;" horiz-adv-x="1310" 
d="M679 -32c-117.333 0 -220.498 26.333 -309.498 79s-158.5 131 -208.5 235s-75 233 -75 387c0 154.667 24.833 284 74.5 388s119.167 182.5 208.5 235.5s192.666 79.5 309.999 79.5c169.333 0 298.333 -40 387 -120s141.334 -183.667 158.001 -311l-340 -59
c-15.333 57.333 -39.5 104.833 -72.5 142.5s-77.167 56.5 -132.5 56.5c-49.333 0 -92.833 -14.833 -130.5 -44.5s-66.834 -74.834 -87.501 -135.501s-31 -138 -31 -232c0 -92 10.667 -168.167 32 -228.5s50.833 -105.166 88.5 -134.499s80.5 -44 128.5 -44
c68.667 0 120 18.167 154 54.5s51 80.5 51 132.5h338c0 -103.333 -20.833 -190.833 -62.5 -262.5s-102.834 -126 -183.501 -163s-179.667 -55.5 -297 -55.5zM666.002 1479l-396 300l185 147l268 -251h-114l268 251l188 -147z" />
    <glyph glyph-name="ccaron" unicode="&#x10d;" horiz-adv-x="1087" 
d="M571 -32c-86 0 -165.833 21.665 -239.5 64.998s-133 104.333 -178 183s-67.5 170.667 -67.5 276c0 115.333 22.5 211.833 67.5 289.5s104.333 136.334 178 176.001s153.5 59.5 239.5 59.5c72.667 0 136.167 -12.333 190.5 -37s99.5 -57 135.5 -97s62.833 -84 80.5 -132
s26.5 -95 26.5 -141l-320 3c-4.66699 28.667 -16.167 54.834 -34.5 78.501s-45.166 35.5 -80.499 35.5c-28 0 -54.5 -7.16699 -79.5 -21.5s-45.333 -38.5 -61 -72.5s-23.5 -81 -23.5 -141c0 -58.667 7.83301 -105 23.5 -139s36 -58 61 -72s51.5 -21 79.5 -21
c45.333 0 75.833 10.5 91.5 31.5s23.5 47.5 23.5 79.5h320c0 -70.667 -15.667 -136.667 -47 -198s-78.833 -110.833 -142.5 -148.5s-144.834 -56.5 -243.501 -56.5zM582 1126l-396 300l185 147l268 -251h-114l268 251l188 -147z" />
    <glyph glyph-name="Dcaron" unicode="&#x10e;" horiz-adv-x="1429" 
d="M169 1342l475 -0.000976562c138 0 259.667 -27.333 365 -82s187.833 -132.167 247.5 -232.5s89.5 -219.833 89.5 -358.5c0 -136.667 -29.833 -255.167 -89.5 -355.5s-142.167 -177.666 -247.5 -231.999s-227 -81.5 -365 -81.5h-475v1342zM489 1048v-756.001h155
c72.667 0 135.5 16.5 188.5 49.5s94 77.833 123 134.5s43.5 121 43.5 193c0 74.667 -14.5 140.334 -43.5 197.001s-70 101.167 -123 133.5s-115.833 48.5 -188.5 48.5h-155zM726 1479l-396 300l185 147l268 -251h-114l268 251l188 -147z" />
    <glyph glyph-name="dcaron" unicode="&#x10f;" horiz-adv-x="1513" 
d="M1303 1020l-134 69c29.333 14.667 56 31.667 80 51s40 40.333 48 63c-26.667 6.66699 -49.167 18.667 -67.5 36s-27.5 39.666 -27.5 66.999c0 30 11.667 55 35 75s52.666 30 87.999 30c44.667 0 79.334 -15.333 104.001 -46s37 -66.667 37 -108
c0 -47.333 -15 -92.666 -45 -135.999s-69.333 -77 -118 -101zM544 -32c-85.333 0 -162.83 22.167 -232.497 66.5s-124.834 106.333 -165.501 186s-61 172.167 -61 277.5c0 104 19.333 194.833 58 272.5s91 138.167 157 181.5s140 65 222 65c74 0 137 -17.5 189 -52.5
s91.5 -87.667 118.5 -158s40.5 -158.5 40.5 -264.5h-89c0 37.333 -8.16699 69.833 -24.5 97.5s-37.833 49.167 -64.5 64.5s-56.334 23 -89.001 23c-42 0 -77.833 -10 -107.5 -30s-52.167 -47.333 -67.5 -82s-23 -73.667 -23 -117c0 -45.333 7.83301 -86 23.5 -122
s38.167 -64.333 67.5 -85s63.666 -31 102.999 -31c31.333 0 60.833 8.83301 88.5 26.5s50.167 41.167 67.5 70.5s26 61.333 26 96h89c0 -111.333 -15.167 -202.833 -45.5 -274.5s-70.333 -124.667 -120 -159s-103.167 -51.5 -160.5 -51.5zM844.003 0l-63 257v1123h324v-1380
h-261z" />
    <glyph glyph-name="Dcroat" unicode="&#x110;" horiz-adv-x="1429" 
d="M44 810h642v-278h-642v278zM169 1342l475 -0.000976562c138 0 259.667 -27.333 365 -82s187.833 -132.167 247.5 -232.5s89.5 -219.833 89.5 -358.5c0 -136.667 -29.833 -255.167 -89.5 -355.5s-142.167 -177.666 -247.5 -231.999s-227 -81.5 -365 -81.5h-475v1342z
M489 1048v-756.001h155c72.667 0 135.5 16.5 188.5 49.5s94 77.833 123 134.5s43.5 121 43.5 193c0 74.667 -14.5 140.334 -43.5 197.001s-70 101.167 -123 133.5s-115.833 48.5 -188.5 48.5h-155z" />
    <glyph glyph-name="dcroat" unicode="&#x111;" horiz-adv-x="1273" 
d="M544 -32c-85.333 0 -162.83 22.167 -232.497 66.5s-124.834 106.333 -165.501 186s-61 172.167 -61 277.5c0 104 19.333 194.833 58 272.5s91 138.167 157 181.5s140 65 222 65c74 0 137 -17.5 189 -52.5s91.5 -87.667 118.5 -158s40.5 -158.5 40.5 -264.5h-89
c0 37.333 -8.16699 69.833 -24.5 97.5s-37.833 49.167 -64.5 64.5s-56.334 23 -89.001 23c-42 0 -77.833 -10 -107.5 -30s-52.167 -47.333 -67.5 -82s-23 -73.667 -23 -117c0 -45.333 7.83301 -86 23.5 -122s38.167 -64.333 67.5 -85s63.666 -31 102.999 -31
c31.333 0 60.833 8.83301 88.5 26.5s50.167 41.167 67.5 70.5s26 61.333 26 96h89c0 -111.333 -15.167 -202.833 -45.5 -274.5s-70.333 -124.667 -120 -159s-103.167 -51.5 -160.5 -51.5zM844.003 0l-63 257v1123h324v-1380h-261zM624.003 1075v190h616v-190h-616z" />
    <glyph glyph-name="Emacron" unicode="&#x112;" horiz-adv-x="1224" 
d="M167 0v1342h897v-277h-577v-258h541v-278h-541v-249h577v-280h-897zM231 1781h762v-259h-762v259z" />
    <glyph glyph-name="emacron" unicode="&#x113;" horiz-adv-x="1095" 
d="M563 -32c-82.667 0 -160.333 21.333 -233 64s-131.5 103.667 -176.5 183s-67.5 173.333 -67.5 282s22.333 201.834 67 279.501s103.334 137.167 176.001 178.5s150.667 62 234 62c82.667 0 154.667 -16.5 216 -49.5s110.833 -77.5 148.5 -133.5
s62.334 -119.167 74.001 -189.5s9.16699 -142.833 -7.5 -217.5h-655v162h421l-46 -30c2 23.333 1.16699 47 -2.5 71s-10.834 46.167 -21.501 66.5s-25.834 36.666 -45.501 48.999s-44.834 18.5 -75.501 18.5c-34 0 -63.5 -8.16699 -88.5 -24.5s-44.333 -40 -58 -71
s-20.5 -68.833 -20.5 -113.5v-126c0 -42 6 -78.333 18 -109s29.833 -54.5 53.5 -71.5s53.5 -25.5 89.5 -25.5c29.333 0 55 6 77 18s37.333 31 46 57h318c-10 -61.333 -34.5 -117 -73.5 -167s-89.667 -89.667 -152 -119s-134.166 -44 -215.499 -44zM167.001 1428h762v-259
h-762v259z" />
    <glyph glyph-name="Edotaccent" unicode="&#x116;" horiz-adv-x="1224" 
d="M167 0v1342h897v-277h-577v-258h541v-278h-541v-249h577v-280h-897zM408.34 1713.49c0 58.2139 19.459 106.616 58.3779 145.208c38.9189 38.5908 89.4473 57.8867 151.586 57.8867s113.485 -19.2959 154.039 -57.8867
c40.5537 -38.5918 60.8311 -86.9951 60.8311 -145.209s-20.2773 -106.126 -60.8311 -143.736s-91.9004 -56.415 -154.039 -56.415s-112.667 18.9688 -151.586 56.9062c-38.9189 37.9365 -58.3779 85.6855 -58.3779 143.246z" />
    <glyph glyph-name="edotaccent" unicode="&#x117;" horiz-adv-x="1095" 
d="M563 -32c-82.667 0 -160.333 21.333 -233 64s-131.5 103.667 -176.5 183s-67.5 173.333 -67.5 282s22.333 201.834 67 279.501s103.334 137.167 176.001 178.5s150.667 62 234 62c82.667 0 154.667 -16.5 216 -49.5s110.833 -77.5 148.5 -133.5
s62.334 -119.167 74.001 -189.5s9.16699 -142.833 -7.5 -217.5h-655v162h421l-46 -30c2 23.333 1.16699 47 -2.5 71s-10.834 46.167 -21.501 66.5s-25.834 36.666 -45.501 48.999s-44.834 18.5 -75.501 18.5c-34 0 -63.5 -8.16699 -88.5 -24.5s-44.333 -40 -58 -71
s-20.5 -68.833 -20.5 -113.5v-126c0 -42 6 -78.333 18 -109s29.833 -54.5 53.5 -71.5s53.5 -25.5 89.5 -25.5c29.333 0 55 6 77 18s37.333 31 46 57h318c-10 -61.333 -34.5 -117 -73.5 -167s-89.667 -89.667 -152 -119s-134.166 -44 -215.499 -44zM344.341 1360.49
c0 58.2139 19.459 106.616 58.3779 145.208c38.9189 38.5908 89.4473 57.8867 151.586 57.8867s113.485 -19.2959 154.039 -57.8867c40.5537 -38.5918 60.8311 -86.9951 60.8311 -145.209s-20.2773 -106.126 -60.8311 -143.736s-91.9004 -56.415 -154.039 -56.415
s-112.667 18.9688 -151.586 56.9062c-38.9189 37.9365 -58.3779 85.6855 -58.3779 143.246z" />
    <glyph glyph-name="Eogonek" unicode="&#x118;" horiz-adv-x="1224" 
d="M167 0v1342h897v-277h-577v-258h541v-278h-541v-249h577v-280h-897zM958 -318c-44.667 -22.667 -89.168 -39.832 -133.501 -51.499s-89.166 -17.5 -134.499 -17.5c-76.667 0 -142 17.167 -196 51.5s-81 84.833 -81 151.5c0 43.333 12.833 85.666 38.5 126.999
s62.5 73.333 110.5 96l263 -39c-62.667 -16.667 -112.5 -35.667 -149.5 -57s-55.5 -46.333 -55.5 -75c0 -22 9.83301 -36.167 29.5 -42.5s39.167 -9.5 58.5 -9.5c26.667 0 53 4.16699 79 12.5s59 22.5 99 42.5z" />
    <glyph glyph-name="eogonek" unicode="&#x119;" horiz-adv-x="1095" 
d="M563 -32c-82.667 0 -160.333 21.333 -233 64s-131.5 103.667 -176.5 183s-67.5 173.333 -67.5 282s22.333 201.834 67 279.501s103.334 137.167 176.001 178.5s150.667 62 234 62c82.667 0 154.667 -16.5 216 -49.5s110.833 -77.5 148.5 -133.5
s62.334 -119.167 74.001 -189.5s9.16699 -142.833 -7.5 -217.5h-655v162h421l-46 -30c2 23.333 1.16699 47 -2.5 71s-10.834 46.167 -21.501 66.5s-25.834 36.666 -45.501 48.999s-44.834 18.5 -75.501 18.5c-34 0 -63.5 -8.16699 -88.5 -24.5s-44.333 -40 -58 -71
s-20.5 -68.833 -20.5 -113.5v-126c0 -42 6 -78.333 18 -109s29.833 -54.5 53.5 -71.5s53.5 -25.5 89.5 -25.5c29.333 0 55 6 77 18s37.333 31 46 57h318c-10 -61.333 -34.5 -117 -73.5 -167s-89.667 -89.667 -152 -119s-134.166 -44 -215.499 -44zM821.001 -318
c-44.667 -22.667 -89.168 -39.832 -133.501 -51.499s-89.166 -17.5 -134.499 -17.5c-76.667 0 -142 17.167 -196 51.5s-81 84.833 -81 151.5c0 43.333 12.833 85.666 38.5 126.999s62.5 73.333 110.5 96l263 -39c-62.667 -16.667 -112.5 -35.667 -149.5 -57
s-55.5 -46.333 -55.5 -75c0 -22 9.83301 -36.167 29.5 -42.5s39.167 -9.5 58.5 -9.5c26.667 0 53 4.16699 79 12.5s59 22.5 99 42.5z" />
    <glyph glyph-name="Ecaron" unicode="&#x11a;" horiz-adv-x="1224" 
d="M167 0v1342h897v-277h-577v-258h541v-278h-541v-249h577v-280h-897zM623 1479l-396 300l185 147l268 -251h-114l268 251l188 -147z" />
    <glyph glyph-name="ecaron" unicode="&#x11b;" horiz-adv-x="1095" 
d="M563 -32c-82.667 0 -160.333 21.333 -233 64s-131.5 103.667 -176.5 183s-67.5 173.333 -67.5 282s22.333 201.834 67 279.501s103.334 137.167 176.001 178.5s150.667 62 234 62c82.667 0 154.667 -16.5 216 -49.5s110.833 -77.5 148.5 -133.5
s62.334 -119.167 74.001 -189.5s9.16699 -142.833 -7.5 -217.5h-655v162h421l-46 -30c2 23.333 1.16699 47 -2.5 71s-10.834 46.167 -21.501 66.5s-25.834 36.666 -45.501 48.999s-44.834 18.5 -75.501 18.5c-34 0 -63.5 -8.16699 -88.5 -24.5s-44.333 -40 -58 -71
s-20.5 -68.833 -20.5 -113.5v-126c0 -42 6 -78.333 18 -109s29.833 -54.5 53.5 -71.5s53.5 -25.5 89.5 -25.5c29.333 0 55 6 77 18s37.333 31 46 57h318c-10 -61.333 -34.5 -117 -73.5 -167s-89.667 -89.667 -152 -119s-134.166 -44 -215.499 -44zM559.001 1126l-396 300
l185 147l268 -251h-114l268 251l188 -147z" />
    <glyph glyph-name="Gbreve" unicode="&#x11e;" horiz-adv-x="1423" 
d="M677 -32c-112.667 0 -213.496 29.999 -302.496 89.999s-159.333 142.833 -211 248.5s-77.5 227.167 -77.5 364.5c0 103.333 15.167 197.833 45.5 283.5s73.666 159.667 129.999 222s123.666 110.5 201.999 144.5s165.5 51 261.5 51
c145.333 0 263.666 -32.833 354.999 -98.5s156.333 -168.5 195 -308.5l-340 -61c-22.667 55.333 -52.667 99 -90 131s-83.333 48 -138 48c-52 0 -98.833 -16.667 -140.5 -50s-74.5 -80.666 -98.5 -141.999s-36 -134.666 -36 -219.999c0 -84.667 12 -157.834 36 -219.501
s56.833 -109.167 98.5 -142.5s88.5 -50 140.5 -50c51.333 0 97.166 10.833 137.499 32.5s72 51 95 88s34.5 77.833 34.5 122.5h56c0 -109.333 -13 -204 -39 -284s-65 -141.667 -117 -185s-117.667 -65 -197 -65zM1014 -0.000976562l-40 276v238l-267 2v196h571v-712h-264z
M712.004 1524c-112.667 0 -200.167 31.333 -262.5 94s-93.5 155.334 -93.5 278.001h244c0 -57.333 9.5 -99.666 28.5 -126.999s46.833 -41 83.5 -41s64.5 13.667 83.5 41s28.5 69.666 28.5 126.999h244c0 -122.667 -31.167 -215.334 -93.5 -278.001s-149.833 -94 -262.5 -94
z" />
    <glyph glyph-name="gbreve" unicode="&#x11f;" horiz-adv-x="1201" 
d="M581 -513c-125.333 0 -231.169 16.833 -317.502 50.5s-151.666 77.334 -195.999 131.001s-66.5 110.5 -66.5 170.5c0 63.333 22.667 113 68 149s100.666 54 165.999 54l263 -75c-58 0 -102.667 -9.5 -134 -28.5s-47 -46.167 -47 -81.5c0 -40 24.833 -69.333 74.5 -88
s112.834 -28 189.501 -28c54 0 100 8.5 138 25.5s66.833 38.833 86.5 65.5s29.5 54.334 29.5 83.001c0 17.333 -4.83301 30.333 -14.5 39s-24.834 13 -45.501 13h-277c-66 0 -129.333 11.333 -190 34s-110.167 53.834 -148.5 93.501s-57.5 84.5 -57.5 134.5
c0 41.333 11.333 77.666 34 108.999s54.834 55.666 96.501 72.999s90.167 26 145.5 26l92 -99c-18.667 0 -35.5 -3 -50.5 -9s-26.833 -14.833 -35.5 -26.5s-13 -26.167 -13 -43.5c0 -22.667 10 -40.167 30 -52.5s52.333 -18.5 97 -18.5h277
c117.333 0 209.333 -18.833 276 -56.5s100 -101.834 100 -192.501c0 -77.333 -23.667 -150.5 -71 -219.5s-113.666 -125 -198.999 -168s-185.333 -64.5 -300 -64.5zM575.997 321c-80 0 -154.167 14.167 -222.5 42.5s-123.5 68.333 -165.5 120s-63 112.834 -63 183.501
c0 72.667 21 135.167 63 187.5s97.167 92.5 165.5 120.5s142.5 42 222.5 42c78.667 0 152.334 -14 221.001 -42s124.334 -68.167 167.001 -120.5s64 -114.833 64 -187.5c0 -70.667 -21.333 -131.834 -64 -183.501s-98.334 -91.667 -167.001 -120
s-142.334 -42.5 -221.001 -42.5zM579.997 540c48.667 0 83.168 12.333 103.501 37s30.5 54.667 30.5 90c0 41.333 -10.333 73.833 -31 97.5s-56.334 35.5 -107.001 35.5c-46 0 -80 -11.833 -102 -35.5s-33 -56.167 -33 -97.5c0 -35.333 11.167 -65.333 33.5 -90
s57.5 -37 105.5 -37zM951.998 857l-144 94.998c0 60.667 16 113.334 48 158.001s73 79.334 123 104.001s101.333 37 154 37l-12 -302c-55.333 0 -97.333 -7.5 -126 -22.5s-43 -38.167 -43 -69.5zM600.998 1171c-112.667 0 -200.167 31.333 -262.5 94
s-93.5 155.334 -93.5 278.001h244c0 -57.333 9.5 -99.666 28.5 -126.999s46.833 -41 83.5 -41s64.5 13.667 83.5 41s28.5 69.666 28.5 126.999h244c0 -122.667 -31.167 -215.334 -93.5 -278.001s-149.833 -94 -262.5 -94z" />
    <glyph glyph-name="Gdotaccent" unicode="&#x120;" horiz-adv-x="1423" 
d="M677 -32c-112.667 0 -213.496 29.999 -302.496 89.999s-159.333 142.833 -211 248.5s-77.5 227.167 -77.5 364.5c0 103.333 15.167 197.833 45.5 283.5s73.666 159.667 129.999 222s123.666 110.5 201.999 144.5s165.5 51 261.5 51
c145.333 0 263.666 -32.833 354.999 -98.5s156.333 -168.5 195 -308.5l-340 -61c-22.667 55.333 -52.667 99 -90 131s-83.333 48 -138 48c-52 0 -98.833 -16.667 -140.5 -50s-74.5 -80.666 -98.5 -141.999s-36 -134.666 -36 -219.999c0 -84.667 12 -157.834 36 -219.501
s56.833 -109.167 98.5 -142.5s88.5 -50 140.5 -50c51.333 0 97.166 10.833 137.499 32.5s72 51 95 88s34.5 77.833 34.5 122.5h56c0 -109.333 -13 -204 -39 -284s-65 -141.667 -117 -185s-117.667 -65 -197 -65zM1014 -0.000976562l-40 276v238l-267 2v196h571v-712h-264z
M508.344 1713.49c0 58.2139 19.459 106.616 58.3779 145.208c38.9189 38.5908 89.4473 57.8867 151.586 57.8867s113.485 -19.2959 154.039 -57.8867c40.5537 -38.5918 60.8311 -86.9951 60.8311 -145.209s-20.2773 -106.126 -60.8311 -143.736
s-91.9004 -56.415 -154.039 -56.415s-112.667 18.9688 -151.586 56.9062c-38.9189 37.9365 -58.3779 85.6855 -58.3779 143.246z" />
    <glyph glyph-name="gdotaccent" unicode="&#x121;" horiz-adv-x="1201" 
d="M581 -513c-125.333 0 -231.169 16.833 -317.502 50.5s-151.666 77.334 -195.999 131.001s-66.5 110.5 -66.5 170.5c0 63.333 22.667 113 68 149s100.666 54 165.999 54l263 -75c-58 0 -102.667 -9.5 -134 -28.5s-47 -46.167 -47 -81.5c0 -40 24.833 -69.333 74.5 -88
s112.834 -28 189.501 -28c54 0 100 8.5 138 25.5s66.833 38.833 86.5 65.5s29.5 54.334 29.5 83.001c0 17.333 -4.83301 30.333 -14.5 39s-24.834 13 -45.501 13h-277c-66 0 -129.333 11.333 -190 34s-110.167 53.834 -148.5 93.501s-57.5 84.5 -57.5 134.5
c0 41.333 11.333 77.666 34 108.999s54.834 55.666 96.501 72.999s90.167 26 145.5 26l92 -99c-18.667 0 -35.5 -3 -50.5 -9s-26.833 -14.833 -35.5 -26.5s-13 -26.167 -13 -43.5c0 -22.667 10 -40.167 30 -52.5s52.333 -18.5 97 -18.5h277
c117.333 0 209.333 -18.833 276 -56.5s100 -101.834 100 -192.501c0 -77.333 -23.667 -150.5 -71 -219.5s-113.666 -125 -198.999 -168s-185.333 -64.5 -300 -64.5zM575.997 321c-80 0 -154.167 14.167 -222.5 42.5s-123.5 68.333 -165.5 120s-63 112.834 -63 183.501
c0 72.667 21 135.167 63 187.5s97.167 92.5 165.5 120.5s142.5 42 222.5 42c78.667 0 152.334 -14 221.001 -42s124.334 -68.167 167.001 -120.5s64 -114.833 64 -187.5c0 -70.667 -21.333 -131.834 -64 -183.501s-98.334 -91.667 -167.001 -120
s-142.334 -42.5 -221.001 -42.5zM579.997 540c48.667 0 83.168 12.333 103.501 37s30.5 54.667 30.5 90c0 41.333 -10.333 73.833 -31 97.5s-56.334 35.5 -107.001 35.5c-46 0 -80 -11.833 -102 -35.5s-33 -56.167 -33 -97.5c0 -35.333 11.167 -65.333 33.5 -90
s57.5 -37 105.5 -37zM951.998 857l-144 94.998c0 60.667 16 113.334 48 158.001s73 79.334 123 104.001s101.333 37 154 37l-12 -302c-55.333 0 -97.333 -7.5 -126 -22.5s-43 -38.167 -43 -69.5zM397.338 1360.49c0 58.2139 19.459 106.616 58.3779 145.208
c38.9189 38.5908 89.4473 57.8867 151.586 57.8867s113.485 -19.2959 154.039 -57.8867c40.5537 -38.5918 60.8311 -86.9951 60.8311 -145.209s-20.2773 -106.126 -60.8311 -143.736s-91.9004 -56.415 -154.039 -56.415s-112.667 18.9688 -151.586 56.9062
c-38.9189 37.9365 -58.3779 85.6855 -58.3779 143.246z" />
    <glyph glyph-name="uni0122" unicode="&#x122;" horiz-adv-x="1423" 
d="M677 -32c-112.667 0 -213.496 29.999 -302.496 89.999s-159.333 142.833 -211 248.5s-77.5 227.167 -77.5 364.5c0 103.333 15.167 197.833 45.5 283.5s73.666 159.667 129.999 222s123.666 110.5 201.999 144.5s165.5 51 261.5 51
c145.333 0 263.666 -32.833 354.999 -98.5s156.333 -168.5 195 -308.5l-340 -61c-22.667 55.333 -52.667 99 -90 131s-83.333 48 -138 48c-52 0 -98.833 -16.667 -140.5 -50s-74.5 -80.666 -98.5 -141.999s-36 -134.666 -36 -219.999c0 -84.667 12 -157.834 36 -219.501
s56.833 -109.167 98.5 -142.5s88.5 -50 140.5 -50c51.333 0 97.166 10.833 137.499 32.5s72 51 95 88s34.5 77.833 34.5 122.5h56c0 -109.333 -13 -204 -39 -284s-65 -141.667 -117 -185s-117.667 -65 -197 -65zM1014 -0.000976562l-40 276v238l-267 2v196h571v-712h-264z
M664.004 -460.001l-129 69c30 14.667 57.667 31.667 83 51s43 40.333 53 63c-26 6.66699 -47.667 18.667 -65 36s-25 39.666 -23 66.999c2 30 15.5 55 40.5 75s55.167 30 90.5 30c44.667 0 78.167 -15.333 100.5 -46s31.833 -66.667 28.5 -108
c-2.66699 -47.333 -20.5 -92.666 -53.5 -135.999s-74.833 -77 -125.5 -101z" />
    <glyph glyph-name="uni0123" unicode="&#x123;" horiz-adv-x="1201" 
d="M581 -513c-125.333 0 -231.169 16.833 -317.502 50.5s-151.666 77.334 -195.999 131.001s-66.5 110.5 -66.5 170.5c0 63.333 22.667 113 68 149s100.666 54 165.999 54l263 -75c-58 0 -102.667 -9.5 -134 -28.5s-47 -46.167 -47 -81.5c0 -40 24.833 -69.333 74.5 -88
s112.834 -28 189.501 -28c54 0 100 8.5 138 25.5s66.833 38.833 86.5 65.5s29.5 54.334 29.5 83.001c0 17.333 -4.83301 30.333 -14.5 39s-24.834 13 -45.501 13h-277c-66 0 -129.333 11.333 -190 34s-110.167 53.834 -148.5 93.501s-57.5 84.5 -57.5 134.5
c0 41.333 11.333 77.666 34 108.999s54.834 55.666 96.501 72.999s90.167 26 145.5 26l92 -99c-18.667 0 -35.5 -3 -50.5 -9s-26.833 -14.833 -35.5 -26.5s-13 -26.167 -13 -43.5c0 -22.667 10 -40.167 30 -52.5s52.333 -18.5 97 -18.5h277
c117.333 0 209.333 -18.833 276 -56.5s100 -101.834 100 -192.501c0 -77.333 -23.667 -150.5 -71 -219.5s-113.666 -125 -198.999 -168s-185.333 -64.5 -300 -64.5zM575.997 321c-80 0 -154.167 14.167 -222.5 42.5s-123.5 68.333 -165.5 120s-63 112.834 -63 183.501
c0 72.667 21 135.167 63 187.5s97.167 92.5 165.5 120.5s142.5 42 222.5 42c78.667 0 152.334 -14 221.001 -42s124.334 -68.167 167.001 -120.5s64 -114.833 64 -187.5c0 -70.667 -21.333 -131.834 -64 -183.501s-98.334 -91.667 -167.001 -120
s-142.334 -42.5 -221.001 -42.5zM579.997 540c48.667 0 83.168 12.333 103.501 37s30.5 54.667 30.5 90c0 41.333 -10.333 73.833 -31 97.5s-56.334 35.5 -107.001 35.5c-46 0 -80 -11.833 -102 -35.5s-33 -56.167 -33 -97.5c0 -35.333 11.167 -65.333 33.5 -90
s57.5 -37 105.5 -37zM951.998 857l-144 94.998c0 60.667 16 113.334 48 158.001s73 79.334 123 104.001s101.333 37 154 37l-12 -302c-55.333 0 -97.333 -7.5 -126 -22.5s-43 -38.167 -43 -69.5zM574.998 1421l129 -69c-30 -14.667 -57.667 -31.667 -83 -51
s-43 -40.333 -53 -63c26 -6.66699 47.667 -18.667 65 -36s25 -39.666 23 -66.999c-2 -30 -15.5 -55 -40.5 -75s-55.167 -30 -90.5 -30c-44.667 0 -78.167 15.333 -100.5 46s-31.833 66.667 -28.5 108c2.66699 47.333 20.5 92.666 53.5 135.999s74.833 77 125.5 101z" />
    <glyph glyph-name="Hbar" unicode="&#x126;" horiz-adv-x="1489" 
d="M169 1342h320v-609h507v609h323v-1342h-323v451h-507v-451h-320v1342zM323 860v220h847v-220h-847z" />
    <glyph glyph-name="hbar" unicode="&#x127;" horiz-adv-x="1287" 
d="M821 0v574.001c0 52 -12.667 90.5 -38 115.5s-56 37.5 -92 37.5c-36.667 0 -70.334 -10.333 -101.001 -31s-55.167 -53.834 -73.5 -99.501s-27.5 -106.167 -27.5 -181.5h-97c0 141.333 16.833 256.333 50.5 345s79.667 153.667 138 195s124.5 62 198.5 62
c84.667 0 153.834 -19 207.501 -57s93.167 -90.333 118.5 -157s38 -143 38 -229v-574h-322zM169 0.000976562v1380h320v-1380h-320zM69 1062v196h580v-196h-580z" />
    <glyph glyph-name="Imacron" unicode="&#x12a;" horiz-adv-x="660" 
d="M169 0v1342h320v-1342h-320zM78.0938 1781h502.899v-259h-502.899v259z" />
    <glyph glyph-name="imacron" unicode="&#x12b;" horiz-adv-x="719" 
d="M200 0v991h320v-991h-320zM108.094 1428h502.899v-259h-502.899v259z" />
    <glyph glyph-name="Iogonek" unicode="&#x12e;" horiz-adv-x="660" 
d="M169 0v1342h320v-1342h-320zM622 -318c-44.667 -22.667 -89.168 -39.832 -133.501 -51.499s-89.166 -17.5 -134.499 -17.5c-76.667 0 -142 17.167 -196 51.5s-81 84.833 -81 151.5c0 43.333 12.833 85.666 38.5 126.999s62.5 73.333 110.5 96l263 -39
c-62.667 -16.667 -112.5 -35.667 -149.5 -57s-55.5 -46.333 -55.5 -75c0 -22 9.83301 -36.167 29.5 -42.5s39.167 -9.5 58.5 -9.5c26.667 0 53 4.16699 79 12.5s59 22.5 99 42.5z" />
    <glyph glyph-name="iogonek" unicode="&#x12f;" horiz-adv-x="719" 
d="M200 0v991h320v-991h-320zM156.34 1360.49c0 58.2139 19.459 106.616 58.3779 145.208c38.9189 38.5908 89.4473 57.8867 151.586 57.8867s113.485 -19.2959 154.039 -57.8867c40.5537 -38.5918 60.8311 -86.9951 60.8311 -145.209s-20.2773 -106.126 -60.8311 -143.736
s-91.9004 -56.415 -154.039 -56.415s-112.667 18.9688 -151.586 56.9062c-38.9189 37.9365 -58.3779 85.6855 -58.3779 143.246zM651 -318.001c-44.667 -22.667 -89.168 -39.832 -133.501 -51.499s-89.166 -17.5 -134.499 -17.5c-76.667 0 -142 17.167 -196 51.5
s-81 84.833 -81 151.5c0 43.333 12.833 85.666 38.5 126.999s62.5 73.333 110.5 96l263 -39c-62.667 -16.667 -112.5 -35.667 -149.5 -57s-55.5 -46.333 -55.5 -75c0 -22 9.83301 -36.167 29.5 -42.5s39.167 -9.5 58.5 -9.5c26.667 0 53 4.16699 79 12.5s59 22.5 99 42.5z
" />
    <glyph glyph-name="Idotaccent" unicode="&#x130;" horiz-adv-x="660" 
d="M169 0v1342h320v-1342h-320zM126.34 1713.49c0 58.2139 19.459 106.616 58.3779 145.208c38.9189 38.5908 89.4473 57.8867 151.586 57.8867s113.485 -19.2959 154.039 -57.8867c40.5537 -38.5918 60.8311 -86.9951 60.8311 -145.209
s-20.2773 -106.126 -60.8311 -143.736s-91.9004 -56.415 -154.039 -56.415s-112.667 18.9688 -151.586 56.9062c-38.9189 37.9365 -58.3779 85.6855 -58.3779 143.246z" />
    <glyph glyph-name="dotlessi" unicode="&#x131;" horiz-adv-x="719" 
d="M200 0v991h320v-991h-320z" />
    <glyph glyph-name="uni0136" unicode="&#x136;" horiz-adv-x="1406" 
d="M949 1342h437l-913 -928v429zM736 800l688 -800h-409l-497 591zM169 1342h322v-1342h-322v1342zM655 -460l-129 69c30 14.667 57.667 31.667 83 51s43 40.333 53 63c-26 6.66699 -47.667 18.667 -65 36s-25 39.666 -23 66.999c2 30 15.5 55 40.5 75s55.167 30 90.5 30
c44.667 0 78.167 -15.333 100.5 -46s31.833 -66.667 28.5 -108c-2.66699 -47.333 -20.5 -92.666 -53.5 -135.999s-74.833 -77 -125.5 -101z" />
    <glyph glyph-name="uni0137" unicode="&#x137;" horiz-adv-x="1242" 
d="M169 0v1380h320v-1380h-320zM449 659l340 326h427l-767 -652v326zM854 0l-413 633l293 81l508 -714h-388zM573 -460l-129 69c30 14.667 57.667 31.667 83 51s43 40.333 53 63c-26 6.66699 -47.667 18.667 -65 36s-25 39.666 -23 66.999c2 30 15.5 55 40.5 75
s55.167 30 90.5 30c44.667 0 78.167 -15.333 100.5 -46s31.833 -66.667 28.5 -108c-2.66699 -47.333 -20.5 -92.666 -53.5 -135.999s-74.833 -77 -125.5 -101z" />
    <glyph glyph-name="Lacute" unicode="&#x139;" horiz-adv-x="1044" 
d="M489 1342v-1062h507v-280h-827v1342h320zM492 1461l-150 124l414 395l208 -168z" />
    <glyph glyph-name="lacute" unicode="&#x13a;" horiz-adv-x="660" 
d="M169 0v1380h320v-1380h-320zM260 1543l-150 124l414 395l208 -168z" />
    <glyph glyph-name="uni013B" unicode="&#x13b;" horiz-adv-x="1044" 
d="M489 1342v-1062h507v-280h-827v1342h320zM474 -460l-129 69c30 14.667 57.667 31.667 83 51s43 40.333 53 63c-26 6.66699 -47.667 18.667 -65 36s-25 39.666 -23 66.999c2 30 15.5 55 40.5 75s55.167 30 90.5 30c44.667 0 78.167 -15.333 100.5 -46
s31.833 -66.667 28.5 -108c-2.66699 -47.333 -20.5 -92.666 -53.5 -135.999s-74.833 -77 -125.5 -101z" />
    <glyph glyph-name="uni013C" unicode="&#x13c;" horiz-adv-x="660" 
d="M169 0v1380h320v-1380h-320zM282 -460l-129 69c30 14.667 57.667 31.667 83 51s43 40.333 53 63c-26 6.66699 -47.667 18.667 -65 36s-25 39.666 -23 66.999c2 30 15.5 55 40.5 75s55.167 30 90.5 30c44.667 0 78.167 -15.333 100.5 -46s31.833 -66.667 28.5 -108
c-2.66699 -47.333 -20.5 -92.666 -53.5 -135.999s-74.833 -77 -125.5 -101z" />
    <glyph glyph-name="Lcaron" unicode="&#x13d;" horiz-adv-x="1044" 
d="M489 1342v-1062h507v-280h-827v1342h320zM573 1479l-396 300l185 147l268 -251h-114l268 251l188 -147z" />
    <glyph glyph-name="lcaron" unicode="&#x13e;" horiz-adv-x="660" 
d="M169 0v1380h320v-1380h-320zM341 1561l-396 300l185 147l268 -251h-114l268 251l188 -147z" />
    <glyph glyph-name="Lslash" unicode="&#x141;" horiz-adv-x="1044" 
d="M76 624l-49 275l606 100l49 -275zM489 1342v-1062h507v-280h-827v1342h320z" />
    <glyph glyph-name="lslash" unicode="&#x142;" horiz-adv-x="660" 
d="M56 714l-39 195l606 100l39 -195zM169 0v1380h320v-1380h-320z" />
    <glyph glyph-name="Nacute" unicode="&#x143;" horiz-adv-x="1503" 
d="M163 1342h334l539 -812h-22v812h320v-1342h-309l-595 892h53v-892h-320v1342zM682 1461l-150 124l414 395l208 -168z" />
    <glyph glyph-name="nacute" unicode="&#x144;" horiz-adv-x="1287" 
d="M821 0v574.001c0 52 -12.667 90.5 -38 115.5s-56 37.5 -92 37.5c-36.667 0 -70.334 -10.333 -101.001 -31s-55.167 -53.834 -73.5 -99.501s-27.5 -106.167 -27.5 -181.5h-97c0 141.333 16.833 256.333 50.5 345s79.667 153.667 138 195s124.5 62 198.5 62
c84.667 0 153.834 -19 207.501 -57s93.167 -90.333 118.5 -157s38 -143 38 -229v-574h-322zM169 0.000976562v985h282l38 -163v-822h-320zM574 1108l-150 124l414 395l208 -168z" />
    <glyph glyph-name="uni0145" unicode="&#x145;" horiz-adv-x="1503" 
d="M163 1342h334l539 -812h-22v812h320v-1342h-309l-595 892h53v-892h-320v1342zM704 -460l-129 69c30 14.667 57.667 31.667 83 51s43 40.333 53 63c-26 6.66699 -47.667 18.667 -65 36s-25 39.666 -23 66.999c2 30 15.5 55 40.5 75s55.167 30 90.5 30
c44.667 0 78.167 -15.333 100.5 -46s31.833 -66.667 28.5 -108c-2.66699 -47.333 -20.5 -92.666 -53.5 -135.999s-74.833 -77 -125.5 -101z" />
    <glyph glyph-name="uni0146" unicode="&#x146;" horiz-adv-x="1287" 
d="M821 0v574.001c0 52 -12.667 90.5 -38 115.5s-56 37.5 -92 37.5c-36.667 0 -70.334 -10.333 -101.001 -31s-55.167 -53.834 -73.5 -99.501s-27.5 -106.167 -27.5 -181.5h-97c0 141.333 16.833 256.333 50.5 345s79.667 153.667 138 195s124.5 62 198.5 62
c84.667 0 153.834 -19 207.501 -57s93.167 -90.333 118.5 -157s38 -143 38 -229v-574h-322zM169 0.000976562v985h282l38 -163v-822h-320zM596 -459.999l-129 69c30 14.667 57.667 31.667 83 51s43 40.333 53 63c-26 6.66699 -47.667 18.667 -65 36s-25 39.666 -23 66.999
c2 30 15.5 55 40.5 75s55.167 30 90.5 30c44.667 0 78.167 -15.333 100.5 -46s31.833 -66.667 28.5 -108c-2.66699 -47.333 -20.5 -92.666 -53.5 -135.999s-74.833 -77 -125.5 -101z" />
    <glyph glyph-name="Ncaron" unicode="&#x147;" horiz-adv-x="1503" 
d="M163 1342h334l539 -812h-22v812h320v-1342h-309l-595 892h53v-892h-320v1342zM763 1479l-396 300l185 147l268 -251h-114l268 251l188 -147z" />
    <glyph glyph-name="ncaron" unicode="&#x148;" horiz-adv-x="1287" 
d="M821 0v574.001c0 52 -12.667 90.5 -38 115.5s-56 37.5 -92 37.5c-36.667 0 -70.334 -10.333 -101.001 -31s-55.167 -53.834 -73.5 -99.501s-27.5 -106.167 -27.5 -181.5h-97c0 141.333 16.833 256.333 50.5 345s79.667 153.667 138 195s124.5 62 198.5 62
c84.667 0 153.834 -19 207.501 -57s93.167 -90.333 118.5 -157s38 -143 38 -229v-574h-322zM169 0.000976562v985h282l38 -163v-822h-320zM655 1126l-396 300l185 147l268 -251h-114l268 251l188 -147z" />
    <glyph glyph-name="Eng" unicode="&#x14a;" horiz-adv-x="1503" 
d="M979 -513c-58.667 0 -110.665 5.16699 -155.998 15.5s-91 21.833 -137 34.5v275c28.667 -11.333 61.667 -21.666 99 -30.999s72 -14 104 -14c41.333 0 74.666 9.66699 99.999 29s37.666 57.666 36.999 114.999l-12 1078h320v-1084c0 -151.333 -30 -258.833 -90 -322.5
s-148.333 -95.5 -265 -95.5zM163.002 1342h334l539 -812h-22v812h320v-1342l-122 -280l-782 1172h53v-892h-320v1342z" />
    <glyph glyph-name="eng" unicode="&#x14b;" horiz-adv-x="1316" 
d="M789 -513c-58.667 0 -110.666 5.16699 -155.999 15.5s-91 21.833 -137 34.5v275c28.667 -11.333 61.667 -21.666 99 -30.999s72 -14 104 -14c41.333 0 72.166 9.66699 92.499 29s30.5 57.666 30.5 114.999v578h322v-584c0 -151.333 -30 -258.833 -90 -322.5
s-148.333 -95.5 -265 -95.5zM821.001 0v574.001c0 52 -12.667 90.5 -38 115.5s-56 37.5 -92 37.5c-36.667 0 -70.334 -10.333 -101.001 -31s-55.167 -53.834 -73.5 -99.501s-27.5 -106.167 -27.5 -181.5h-97c0 141.333 16.833 256.333 50.5 345s79.667 153.667 138 195
s124.5 62 198.5 62c84.667 0 153.834 -19 207.501 -57s93.167 -90.333 118.5 -157s38 -143 38 -229v-574h-322zM169.001 0.000976562v985h282l38 -163v-822h-320z" />
    <glyph glyph-name="Omacron" unicode="&#x14c;" horiz-adv-x="1443" 
d="M720 -32c-127.333 0 -238.5 26.833 -333.5 80.5s-168.833 133 -221.5 238s-79 234.5 -79 388.5c0 158 26.333 288.5 79 391.5s126.5 179.667 221.5 230s206.167 75.5 333.5 75.5c128.667 0 240.834 -26.333 336.501 -79s169.834 -130.667 222.501 -234
s79 -231.333 79 -384c0 -156.667 -26.333 -287.5 -79 -392.5s-126.834 -183.667 -222.501 -236s-207.834 -78.5 -336.501 -78.5zM720 255c93.333 0 168 36.834 224 110.501s84 177.5 84 311.5c0 126 -28 225.5 -84 298.5s-130.667 109.5 -224 109.5
c-90.667 0 -164 -36.5 -220 -109.5s-84 -173.167 -84 -300.5c0 -132.667 28 -235.834 84 -309.501s129.333 -110.5 220 -110.5zM341 1781h762v-259h-762v259z" />
    <glyph glyph-name="omacron" unicode="&#x14d;" horiz-adv-x="1173" 
d="M589 -32c-91.333 0 -175.166 18.833 -251.499 56.5s-137.333 95 -183 172s-68.5 174.833 -68.5 293.5c0 122.667 22.833 222.667 68.5 300s106.667 134.5 183 171.5s160.166 55.5 251.499 55.5c89.333 0 171.666 -18.5 246.999 -55.5s135.833 -94.167 181.5 -171.5
s68.5 -177.333 68.5 -300c0 -118.667 -22.833 -216.5 -68.5 -293.5s-106.167 -134.333 -181.5 -172s-157.666 -56.5 -246.999 -56.5zM577 247c30.667 0 60.5 8 89.5 24s53.167 41.833 72.5 77.5s29 82.834 29 141.501c0 91.333 -16.333 155.666 -49 192.999s-72 56 -118 56
c-30.667 0 -61.167 -8 -91.5 -24s-55.333 -42.167 -75 -78.5s-29.5 -85.166 -29.5 -146.499c0 -88.667 17.167 -151.334 51.5 -188.001s74.5 -55 120.5 -55zM206 1428h762v-259h-762v259z" />
    <glyph glyph-name="Ohungarumlaut" unicode="&#x150;" horiz-adv-x="1443" 
d="M720 -32c-127.333 0 -238.5 26.833 -333.5 80.5s-168.833 133 -221.5 238s-79 234.5 -79 388.5c0 158 26.333 288.5 79 391.5s126.5 179.667 221.5 230s206.167 75.5 333.5 75.5c128.667 0 240.834 -26.333 336.501 -79s169.834 -130.667 222.501 -234
s79 -231.333 79 -384c0 -156.667 -26.333 -287.5 -79 -392.5s-126.834 -183.667 -222.501 -236s-207.834 -78.5 -336.501 -78.5zM720 255c93.333 0 168 36.834 224 110.501s84 177.5 84 311.5c0 126 -28 225.5 -84 298.5s-130.667 109.5 -224 109.5
c-90.667 0 -164 -36.5 -220 -109.5s-84 -173.167 -84 -300.5c0 -132.667 28 -235.834 84 -309.501s129.333 -110.5 220 -110.5zM938 1476l-153 31l42 351l211 -56zM632 1500l-157 23l7 358l215 -42z" />
    <glyph glyph-name="ohungarumlaut" unicode="&#x151;" horiz-adv-x="1173" 
d="M589 -32c-91.333 0 -175.166 18.833 -251.499 56.5s-137.333 95 -183 172s-68.5 174.833 -68.5 293.5c0 122.667 22.833 222.667 68.5 300s106.667 134.5 183 171.5s160.166 55.5 251.499 55.5c89.333 0 171.666 -18.5 246.999 -55.5s135.833 -94.167 181.5 -171.5
s68.5 -177.333 68.5 -300c0 -118.667 -22.833 -216.5 -68.5 -293.5s-106.167 -134.333 -181.5 -172s-157.666 -56.5 -246.999 -56.5zM577 247c30.667 0 60.5 8 89.5 24s53.167 41.833 72.5 77.5s29 82.834 29 141.501c0 91.333 -16.333 155.666 -49 192.999s-72 56 -118 56
c-30.667 0 -61.167 -8 -91.5 -24s-55.333 -42.167 -75 -78.5s-29.5 -85.166 -29.5 -146.499c0 -88.667 17.167 -151.334 51.5 -188.001s74.5 -55 120.5 -55zM803 1123l-153 31l42 351l211 -56zM497 1147l-157 23l7 358l215 -42z" />
    <glyph glyph-name="OE" unicode="&#x152;" horiz-adv-x="1830" 
d="M675 -32c-113.333 0 -214.334 26.832 -303.001 80.499s-158.5 133.334 -209.5 239.001s-76.5 235.834 -76.5 390.501c0 156 25.5 285.333 76.5 388s120.5 179.334 208.5 230.001s187 76 297 76c91.333 0 172.833 -12.833 244.5 -38.5s123.5 -57.834 155.5 -96.501
l-180 -172c-28 4 -61.167 8.33301 -99.5 13s-71.166 7 -98.499 7c-82 0 -148.167 -36.833 -198.5 -110.5s-75.5 -175.167 -75.5 -304.5c0 -126.667 25 -227.5 75 -302.5s118.667 -112.5 206 -112.5c24 0 54.833 2.16699 92.5 6.5s73.834 10.5 108.501 18.5l170 -204
c-32 -26.667 -83.833 -51.334 -155.5 -74.001s-150.834 -34 -237.501 -34zM872.999 -0.000976562v1342h797v-277h-549l62 72v-402l-62 72h513v-278h-513l62 72v-393l-62 72h549v-280h-797z" />
    <glyph glyph-name="oe" unicode="&#x153;" horiz-adv-x="1701" 
d="M564.959 -32c-86.9854 0 -166.827 18.833 -239.526 56.5s-130.795 95 -174.288 172c-43.4922 77 -65.2383 174.833 -65.2383 293.5c0 122.667 21.7461 222.667 65.2383 300c43.4932 77.333 101.589 134.5 174.288 171.5s152.541 55.5 239.526 55.5
c85.0811 0 163.495 -18.5 235.242 -55.5s129.367 -94.167 172.86 -171.5s65.2393 -177.333 65.2393 -300c0 -118.667 -21.7461 -216.5 -65.2393 -293.5s-101.113 -134.333 -172.86 -172s-150.161 -56.5 -235.242 -56.5zM553.53 247c29.207 0 57.6201 8 85.2393 24
c27.6201 16 50.6367 41.833 69.0498 77.5s27.6191 82.834 27.6191 141.501c0 91.333 -15.5557 155.666 -46.667 192.999s-68.5723 56 -112.383 56c-29.2061 0 -58.2539 -8 -87.1436 -24s-52.6992 -42.167 -71.4297 -78.5s-28.0957 -85.166 -28.0957 -146.499
c0 -88.667 16.3496 -151.334 49.0488 -188.001c32.6982 -36.667 70.9521 -55 114.762 -55zM1190.2 -32c-78.7314 0 -152.698 21.333 -221.906 64c-69.207 42.667 -125.239 103.667 -168.097 183s-64.2861 173.333 -64.2861 282s21.2695 201.834 63.8096 279.501
s98.4141 137.167 167.621 178.5c69.208 41.333 143.495 62 222.861 62c78.7314 0 147.304 -16.5 205.717 -49.5s105.557 -77.5 141.43 -133.5c35.874 -56 59.3662 -119.167 70.4775 -189.5s8.73047 -142.833 -7.14355 -217.5h-623.816v162h400.957l-43.8105 -30
c1.90527 23.333 1.11133 47 -2.38086 71s-10.3174 46.167 -20.4766 66.5s-24.6035 36.666 -43.333 48.999c-18.7305 12.333 -42.6992 18.5 -71.9062 18.5c-32.3809 0 -60.4766 -8.16699 -84.2861 -24.5s-42.2227 -40 -55.2393 -71s-19.5244 -68.833 -19.5244 -113.5v-126
c0 -42 5.71484 -78.333 17.1436 -109s28.4131 -54.5 50.9531 -71.5s50.9531 -25.5 85.2393 -25.5c27.9365 0 52.3809 6 73.333 18s35.5557 31 43.8105 57h302.86c-9.52441 -61.333 -32.8584 -117 -70.002 -167s-85.3984 -89.667 -144.765 -119s-127.779 -44 -205.24 -44z
" />
    <glyph glyph-name="Racute" unicode="&#x154;" horiz-adv-x="1352" 
d="M169 0v1342h524c168 0 298.5 -38.5 391.5 -115.5s139.5 -180.167 139.5 -309.5c0 -126.667 -46.5 -228.167 -139.5 -304.5s-223.5 -114.5 -391.5 -114.5h-204v-498h-320zM869 0l-327 648h338l408 -648h-419zM489 706l168 0.000976562c79.333 0 138.833 16.5 178.5 49.5
s59.5 75.167 59.5 126.5c0 53.333 -16.833 97.166 -50.5 131.499s-84.167 51.5 -151.5 51.5h-204v-359zM606 1461l-150 124l414 395l208 -168z" />
    <glyph glyph-name="racute" unicode="&#x155;" horiz-adv-x="850" 
d="M169 0v991h320v-991h-320zM421 420c0 134 17 244 51 330s77 149.667 129 191s105 62 159 62c10.667 0 21.334 -0.5 32.001 -1.5s20.667 -2.5 30 -4.5l3 -322c-16.667 2 -33.667 3.5 -51 4.5s-33.666 1.5 -48.999 1.5c-46.667 0 -87.834 -8.66699 -123.501 -26
s-63.334 -45 -83.001 -83s-29.5 -88.667 -29.5 -152h-68zM425 1108l-150 124l414 395l208 -168z" />
    <glyph glyph-name="uni0156" unicode="&#x156;" horiz-adv-x="1352" 
d="M169 0v1342h524c168 0 298.5 -38.5 391.5 -115.5s139.5 -180.167 139.5 -309.5c0 -126.667 -46.5 -228.167 -139.5 -304.5s-223.5 -114.5 -391.5 -114.5h-204v-498h-320zM869 0l-327 648h338l408 -648h-419zM489 706l168 0.000976562c79.333 0 138.833 16.5 178.5 49.5
s59.5 75.167 59.5 126.5c0 53.333 -16.833 97.166 -50.5 131.499s-84.167 51.5 -151.5 51.5h-204v-359zM628 -459.999l-129 69c30 14.667 57.667 31.667 83 51s43 40.333 53 63c-26 6.66699 -47.667 18.667 -65 36s-25 39.666 -23 66.999c2 30 15.5 55 40.5 75
s55.167 30 90.5 30c44.667 0 78.167 -15.333 100.5 -46s31.833 -66.667 28.5 -108c-2.66699 -47.333 -20.5 -92.666 -53.5 -135.999s-74.833 -77 -125.5 -101z" />
    <glyph glyph-name="uni0157" unicode="&#x157;" horiz-adv-x="850" 
d="M169 0v991h320v-991h-320zM421 420c0 134 17 244 51 330s77 149.667 129 191s105 62 159 62c10.667 0 21.334 -0.5 32.001 -1.5s20.667 -2.5 30 -4.5l3 -322c-16.667 2 -33.667 3.5 -51 4.5s-33.666 1.5 -48.999 1.5c-46.667 0 -87.834 -8.66699 -123.501 -26
s-63.334 -45 -83.001 -83s-29.5 -88.667 -29.5 -152h-68zM507 -460l-129 69c30 14.667 57.667 31.667 83 51s43 40.333 53 63c-26 6.66699 -47.667 18.667 -65 36s-25 39.666 -23 66.999c2 30 15.5 55 40.5 75s55.167 30 90.5 30c44.667 0 78.167 -15.333 100.5 -46
s31.833 -66.667 28.5 -108c-2.66699 -47.333 -20.5 -92.666 -53.5 -135.999s-74.833 -77 -125.5 -101z" />
    <glyph glyph-name="Rcaron" unicode="&#x158;" horiz-adv-x="1352" 
d="M169 0v1342h524c168 0 298.5 -38.5 391.5 -115.5s139.5 -180.167 139.5 -309.5c0 -126.667 -46.5 -228.167 -139.5 -304.5s-223.5 -114.5 -391.5 -114.5h-204v-498h-320zM869 0l-327 648h338l408 -648h-419zM489 706l168 0.000976562c79.333 0 138.833 16.5 178.5 49.5
s59.5 75.167 59.5 126.5c0 53.333 -16.833 97.166 -50.5 131.499s-84.167 51.5 -151.5 51.5h-204v-359zM687 1479l-396 300l185 147l268 -251h-114l268 251l188 -147z" />
    <glyph glyph-name="rcaron" unicode="&#x159;" horiz-adv-x="850" 
d="M169 0v991h320v-991h-320zM421 420c0 134 17 244 51 330s77 149.667 129 191s105 62 159 62c10.667 0 21.334 -0.5 32.001 -1.5s20.667 -2.5 30 -4.5l3 -322c-16.667 2 -33.667 3.5 -51 4.5s-33.666 1.5 -48.999 1.5c-46.667 0 -87.834 -8.66699 -123.501 -26
s-63.334 -45 -83.001 -83s-29.5 -88.667 -29.5 -152h-68zM506 1126l-396 300l185 147l268 -251h-114l268 251l188 -147z" />
    <glyph glyph-name="Sacute" unicode="&#x15a;" horiz-adv-x="1344" 
d="M674 -32c-96 0 -185.001 16.167 -267.001 48.5s-148.667 83 -200 152s-79.666 158.833 -84.999 269.5h316c0 -40.667 10.333 -74.334 31 -101.001s48.834 -46.334 84.501 -59.001s75.167 -19 118.5 -19c34.667 0 67.167 3 97.5 9s54.833 16.667 73.5 32s28 36.333 28 63
c0 32.667 -9.83301 57 -29.5 73s-55.167 34.333 -106.5 55l-292 127c-96 41.333 -170.667 90 -224 146s-80 132.333 -80 229c0 113.333 46.167 204.833 138.5 274.5s218.833 104.5 379.5 104.5c163.333 0 288.666 -38.5 375.999 -115.5s136.333 -186.833 147 -329.5h-314
c-8 44 -27.5 81 -58.5 111s-81.167 45 -150.5 45c-50 0 -90.333 -9.16699 -121 -27.5s-46 -41.166 -46 -68.499c0 -25.333 9.83301 -45.333 29.5 -60s49.167 -30.667 88.5 -48l309 -131c102.667 -44.667 179.167 -97 229.5 -157s75.5 -132 75.5 -216
c0 -90 -21.5 -165.167 -64.5 -225.5s-105.333 -105.666 -187 -135.999s-180.5 -45.5 -296.5 -45.5zM601.999 1461l-150 124l414 395l208 -168z" />
    <glyph glyph-name="sacute" unicode="&#x15b;" horiz-adv-x="1059" 
d="M550 -32c-94 0 -177.002 12.5 -249.002 37.5s-128.167 62.667 -168.5 113s-60.166 113.833 -59.499 190.5h289c1.33301 -34.667 14.833 -58.667 40.5 -72s60.5 -20 104.5 -20c26.667 0 48.667 3.33301 66 10s30.333 15.5 39 26.5s13 22.833 13 35.5
c0 16.667 -6 30 -18 40s-30.667 20 -56 30l-239 93c-70.667 29.333 -125.167 66.5 -163.5 111.5s-57.5 98.5 -57.5 160.5c0 87.333 40.333 158 121 212s191 81 331 81c131.333 0 232.333 -30.667 303 -92s106.334 -139.333 107.001 -234h-293c0 21.333 -9 39.833 -27 55.5
s-48 23.5 -90 23.5c-34.667 0 -62 -5.66699 -82 -17s-30 -26.333 -30 -45c0 -25.333 21 -45.333 63 -60l272 -109c67.333 -26.667 120.333 -60 159 -100s58 -90 58 -150c0 -54.667 -18.833 -106.5 -56.5 -155.5s-89.167 -88.833 -154.5 -119.5s-139.333 -46 -222 -46z
M459.998 1108l-150 124l414 395l208 -168z" />
    <glyph glyph-name="Scedilla" unicode="&#x15e;" horiz-adv-x="1344" 
d="M674 -32c-96 0 -185.001 16.167 -267.001 48.5s-148.667 83 -200 152s-79.666 158.833 -84.999 269.5h316c0 -40.667 10.333 -74.334 31 -101.001s48.834 -46.334 84.501 -59.001s75.167 -19 118.5 -19c34.667 0 67.167 3 97.5 9s54.833 16.667 73.5 32s28 36.333 28 63
c0 32.667 -9.83301 57 -29.5 73s-55.167 34.333 -106.5 55l-292 127c-96 41.333 -170.667 90 -224 146s-80 132.333 -80 229c0 113.333 46.167 204.833 138.5 274.5s218.833 104.5 379.5 104.5c163.333 0 288.666 -38.5 375.999 -115.5s136.333 -186.833 147 -329.5h-314
c-8 44 -27.5 81 -58.5 111s-81.167 45 -150.5 45c-50 0 -90.333 -9.16699 -121 -27.5s-46 -41.166 -46 -68.499c0 -25.333 9.83301 -45.333 29.5 -60s49.167 -30.667 88.5 -48l309 -131c102.667 -44.667 179.167 -97 229.5 -157s75.5 -132 75.5 -216
c0 -90 -21.5 -165.167 -64.5 -225.5s-105.333 -105.666 -187 -135.999s-180.5 -45.5 -296.5 -45.5zM473.999 -379l39.0029 101.002c40.667 -16.667 76.334 -26 107.001 -28s55.167 2 73.5 12s28.5 24.333 30.5 43c1.33301 14 -2.83398 26.667 -12.501 38
s-26.334 22.166 -50.001 32.499s-56.5 20.166 -98.5 29.499l86 254l119 -22l-74 -225l-26 64c69.333 -6.66699 123.5 -20.334 162.5 -41.001s66.333 -44.5 82 -71.5s22.5 -53.833 20.5 -80.5c-2.66699 -38.667 -19.5 -70.167 -50.5 -94.5s-69.833 -41.166 -116.5 -50.499
s-95.834 -10.833 -147.501 -4.5s-99.834 20.833 -144.501 43.5z" />
    <glyph glyph-name="scedilla" unicode="&#x15f;" horiz-adv-x="1059" 
d="M550 -32c-94 0 -177.002 12.5 -249.002 37.5s-128.167 62.667 -168.5 113s-60.166 113.833 -59.499 190.5h289c1.33301 -34.667 14.833 -58.667 40.5 -72s60.5 -20 104.5 -20c26.667 0 48.667 3.33301 66 10s30.333 15.5 39 26.5s13 22.833 13 35.5
c0 16.667 -6 30 -18 40s-30.667 20 -56 30l-239 93c-70.667 29.333 -125.167 66.5 -163.5 111.5s-57.5 98.5 -57.5 160.5c0 87.333 40.333 158 121 212s191 81 331 81c131.333 0 232.333 -30.667 303 -92s106.334 -139.333 107.001 -234h-293c0 21.333 -9 39.833 -27 55.5
s-48 23.5 -90 23.5c-34.667 0 -62 -5.66699 -82 -17s-30 -26.333 -30 -45c0 -25.333 21 -45.333 63 -60l272 -109c67.333 -26.667 120.333 -60 159 -100s58 -90 58 -150c0 -54.667 -18.833 -106.5 -56.5 -155.5s-89.167 -88.833 -154.5 -119.5s-139.333 -46 -222 -46z
M322.998 -377l39.0029 101.002c40.667 -16.667 76.334 -26 107.001 -28s55.167 2 73.5 12s28.5 24.333 30.5 43c1.33301 14 -2.83398 26.667 -12.501 38s-26.334 22.166 -50.001 32.499s-56.5 20.166 -98.5 29.499l86 254l119 -22l-74 -225l-26 64
c69.333 -6.66699 123.5 -20.334 162.5 -41.001s66.333 -44.5 82 -71.5s22.5 -53.833 20.5 -80.5c-2.66699 -38.667 -19.5 -70.167 -50.5 -94.5s-69.833 -41.166 -116.5 -50.499s-95.834 -10.833 -147.501 -4.5s-99.834 20.833 -144.501 43.5z" />
    <glyph glyph-name="Scaron" unicode="&#x160;" horiz-adv-x="1344" 
d="M674 -32c-96 0 -185.001 16.167 -267.001 48.5s-148.667 83 -200 152s-79.666 158.833 -84.999 269.5h316c0 -40.667 10.333 -74.334 31 -101.001s48.834 -46.334 84.501 -59.001s75.167 -19 118.5 -19c34.667 0 67.167 3 97.5 9s54.833 16.667 73.5 32s28 36.333 28 63
c0 32.667 -9.83301 57 -29.5 73s-55.167 34.333 -106.5 55l-292 127c-96 41.333 -170.667 90 -224 146s-80 132.333 -80 229c0 113.333 46.167 204.833 138.5 274.5s218.833 104.5 379.5 104.5c163.333 0 288.666 -38.5 375.999 -115.5s136.333 -186.833 147 -329.5h-314
c-8 44 -27.5 81 -58.5 111s-81.167 45 -150.5 45c-50 0 -90.333 -9.16699 -121 -27.5s-46 -41.166 -46 -68.499c0 -25.333 9.83301 -45.333 29.5 -60s49.167 -30.667 88.5 -48l309 -131c102.667 -44.667 179.167 -97 229.5 -157s75.5 -132 75.5 -216
c0 -90 -21.5 -165.167 -64.5 -225.5s-105.333 -105.666 -187 -135.999s-180.5 -45.5 -296.5 -45.5zM682.999 1479l-396 300l185 147l268 -251h-114l268 251l188 -147z" />
    <glyph glyph-name="scaron" unicode="&#x161;" horiz-adv-x="1059" 
d="M550 -32c-94 0 -177.002 12.5 -249.002 37.5s-128.167 62.667 -168.5 113s-60.166 113.833 -59.499 190.5h289c1.33301 -34.667 14.833 -58.667 40.5 -72s60.5 -20 104.5 -20c26.667 0 48.667 3.33301 66 10s30.333 15.5 39 26.5s13 22.833 13 35.5
c0 16.667 -6 30 -18 40s-30.667 20 -56 30l-239 93c-70.667 29.333 -125.167 66.5 -163.5 111.5s-57.5 98.5 -57.5 160.5c0 87.333 40.333 158 121 212s191 81 331 81c131.333 0 232.333 -30.667 303 -92s106.334 -139.333 107.001 -234h-293c0 21.333 -9 39.833 -27 55.5
s-48 23.5 -90 23.5c-34.667 0 -62 -5.66699 -82 -17s-30 -26.333 -30 -45c0 -25.333 21 -45.333 63 -60l272 -109c67.333 -26.667 120.333 -60 159 -100s58 -90 58 -150c0 -54.667 -18.833 -106.5 -56.5 -155.5s-89.167 -88.833 -154.5 -119.5s-139.333 -46 -222 -46z
M540.998 1126l-396 300l185 147l268 -251h-114l268 251l188 -147z" />
    <glyph glyph-name="uni0162" unicode="&#x162;" horiz-adv-x="1128" 
d="M12 1065v277h1105v-277h-463l72 72v-1137h-320v1137l72 -72h-466zM275 -349l39.0029 101.002c40.667 -16.667 76.334 -26 107.001 -28s55.167 2 73.5 12s28.5 24.333 30.5 43c1.33301 14 -2.83398 26.667 -12.501 38s-26.334 22.166 -50.001 32.499
s-56.5 20.166 -98.5 29.499l86 254l119 -22l-74 -225l-26 64c69.333 -6.66699 123.5 -20.334 162.5 -41.001s66.333 -44.5 82 -71.5s22.5 -53.833 20.5 -80.5c-2.66699 -38.667 -19.5 -70.167 -50.5 -94.5s-69.833 -41.166 -116.5 -50.499s-95.834 -10.833 -147.501 -4.5
s-99.834 20.833 -144.501 43.5z" />
    <glyph glyph-name="uni0163" unicode="&#x163;" horiz-adv-x="828" 
d="M533 -32c-62.667 0 -121.167 11.334 -175.5 34.001s-98 58.167 -131 106.5s-49.5 110.5 -49.5 186.5v939h322v-927c0 -60 29.667 -90 89 -90c18.667 0 38.5 2.16699 59.5 6.5s45.5 11.5 73.5 21.5l47 -223c-40.667 -14.667 -79.5 -27.334 -116.5 -38.001
s-76.5 -16 -118.5 -16zM60 778.001v207h663v-207h-663zM245 -368.999l39.0029 101.002c40.667 -16.667 76.334 -26 107.001 -28s55.167 2 73.5 12s28.5 24.333 30.5 43c1.33301 14 -2.83398 26.667 -12.501 38s-26.334 22.166 -50.001 32.499s-56.5 20.166 -98.5 29.499
l86 254l119 -22l-74 -225l-26 64c69.333 -6.66699 123.5 -20.334 162.5 -41.001s66.333 -44.5 82 -71.5s22.5 -53.833 20.5 -80.5c-2.66699 -38.667 -19.5 -70.167 -50.5 -94.5s-69.833 -41.166 -116.5 -50.499s-95.834 -10.833 -147.501 -4.5s-99.834 20.833 -144.501 43.5
z" />
    <glyph glyph-name="Tcaron" unicode="&#x164;" horiz-adv-x="1128" 
d="M12 1065v277h1105v-277h-463l72 72v-1137h-320v1137l72 -72h-466zM575 1479l-396 300l185 147l268 -251h-114l268 251l188 -147z" />
    <glyph glyph-name="tcaron" unicode="&#x165;" horiz-adv-x="828" 
d="M533 -32c-62.667 0 -121.167 11.334 -175.5 34.001s-98 58.167 -131 106.5s-49.5 110.5 -49.5 186.5v939h322v-927c0 -60 29.667 -90 89 -90c18.667 0 38.5 2.16699 59.5 6.5s45.5 11.5 73.5 21.5l47 -223c-40.667 -14.667 -79.5 -27.334 -116.5 -38.001
s-76.5 -16 -118.5 -16zM60 778.001v207h663v-207h-663zM425 1326l-396 300l185 147l268 -251h-114l268 251l188 -147z" />
    <glyph glyph-name="Tbar" unicode="&#x166;" horiz-adv-x="1128" 
d="M12 1065v277h1105v-277h-463l72 72v-1137h-320v1137l72 -72h-466zM165.554 452.23v261.082h717.207v-261.082h-717.207z" />
    <glyph glyph-name="tbar" unicode="&#x167;" horiz-adv-x="828" 
d="M533 -32c-62.667 0 -121.167 11.334 -175.5 34.001s-98 58.167 -131 106.5s-49.5 110.5 -49.5 186.5v939h322v-927c0 -60 29.667 -90 89 -90c18.667 0 38.5 2.16699 59.5 6.5s45.5 11.5 73.5 21.5l47 -223c-40.667 -14.667 -79.5 -27.334 -116.5 -38.001
s-76.5 -16 -118.5 -16zM60 778.001v207h663v-207h-663zM61.6787 499.584v239.925h600.61v-239.925h-600.61z" />
    <glyph glyph-name="Umacron" unicode="&#x16a;" horiz-adv-x="1458" 
d="M158 1342h320v-814c0 -95.333 24.333 -164 73 -206s109.667 -63 183 -63c74.667 0 136.5 21 185.5 63s73.5 110.667 73.5 206v814h319v-814c0 -113.333 -22.333 -212 -67 -296s-110 -149 -196 -195s-191 -69 -315 -69s-228.833 23 -314.5 69s-150.667 111 -195 195
s-66.5 182.667 -66.5 296v814zM348 1781h762v-259h-762v259z" />
    <glyph glyph-name="umacron" unicode="&#x16b;" horiz-adv-x="1299" 
d="M811 991h320v-991h-320v991zM158 991l320.001 -0.00195312v-596c0 -45.333 11.5 -78.833 34.5 -100.5s52.5 -32.5 88.5 -32.5c32.667 0 65.167 8 97.5 24s59.166 43.333 80.499 82s32 92.334 32 161.001h70c0 -130.667 -15 -236.167 -45 -316.5
s-70.833 -138.833 -122.5 -175.5s-110.167 -55 -175.5 -55c-66 0 -128 11.333 -186 34s-104.833 61.334 -140.5 116.001s-53.5 130 -53.5 226v633zM282.001 1428h762v-259h-762v259z" />
    <glyph glyph-name="Uring" unicode="&#x16e;" horiz-adv-x="1458" 
d="M158 1342h320v-814c0 -95.333 24.333 -164 73 -206s109.667 -63 183 -63c74.667 0 136.5 21 185.5 63s73.5 110.667 73.5 206v814h319v-814c0 -113.333 -22.333 -212 -67 -296s-110 -149 -196 -195s-191 -69 -315 -69s-228.833 23 -314.5 69s-150.667 111 -195 195
s-66.5 182.667 -66.5 296v814zM731 1439c-50.667 0 -97 12.5 -139 37.5s-75.5 58.5 -100.5 100.5s-37.5 88.333 -37.5 139s12.5 97 37.5 139s58.5 75.5 100.5 100.5s88.333 37.5 139 37.5s97 -12.5 139 -37.5s75.5 -58.5 100.5 -100.5s37.5 -88.333 37.5 -139
s-12.5 -97 -37.5 -139s-58.5 -75.5 -100.5 -100.5s-88.333 -37.5 -139 -37.5zM731 1644c20 0 37 7 51 21s21 31 21 51s-7 37 -21 51s-31 21 -51 21s-37 -7 -51 -21s-21 -31 -21 -51s7 -37 21 -51s31 -21 51 -21z" />
    <glyph glyph-name="uring" unicode="&#x16f;" horiz-adv-x="1299" 
d="M811 991h320v-991h-320v991zM158 991l320.001 -0.00195312v-596c0 -45.333 11.5 -78.833 34.5 -100.5s52.5 -32.5 88.5 -32.5c32.667 0 65.167 8 97.5 24s59.166 43.333 80.499 82s32 92.334 32 161.001h70c0 -130.667 -15 -236.167 -45 -316.5
s-70.833 -138.833 -122.5 -175.5s-110.167 -55 -175.5 -55c-66 0 -128 11.333 -186 34s-104.833 61.334 -140.5 116.001s-53.5 130 -53.5 226v633zM665.001 1086c-50.667 0 -97 12.5 -139 37.5s-75.5 58.5 -100.5 100.5s-37.5 88.333 -37.5 139s12.5 97 37.5 139
s58.5 75.5 100.5 100.5s88.333 37.5 139 37.5s97 -12.5 139 -37.5s75.5 -58.5 100.5 -100.5s37.5 -88.333 37.5 -139s-12.5 -97 -37.5 -139s-58.5 -75.5 -100.5 -100.5s-88.333 -37.5 -139 -37.5zM665.001 1291c20 0 37 7 51 21s21 31 21 51s-7 37 -21 51s-31 21 -51 21
s-37 -7 -51 -21s-21 -31 -21 -51s7 -37 21 -51s31 -21 51 -21z" />
    <glyph glyph-name="Uhungarumlaut" unicode="&#x170;" horiz-adv-x="1458" 
d="M158 1342h320v-814c0 -95.333 24.333 -164 73 -206s109.667 -63 183 -63c74.667 0 136.5 21 185.5 63s73.5 110.667 73.5 206v814h319v-814c0 -113.333 -22.333 -212 -67 -296s-110 -149 -196 -195s-191 -69 -315 -69s-228.833 23 -314.5 69s-150.667 111 -195 195
s-66.5 182.667 -66.5 296v814zM945 1476l-153 31l42 351l211 -56zM639 1500l-157 23l7 358l215 -42z" />
    <glyph glyph-name="uhungarumlaut" unicode="&#x171;" horiz-adv-x="1299" 
d="M811 991h320v-991h-320v991zM158 991l320.001 -0.00195312v-596c0 -45.333 11.5 -78.833 34.5 -100.5s52.5 -32.5 88.5 -32.5c32.667 0 65.167 8 97.5 24s59.166 43.333 80.499 82s32 92.334 32 161.001h70c0 -130.667 -15 -236.167 -45 -316.5
s-70.833 -138.833 -122.5 -175.5s-110.167 -55 -175.5 -55c-66 0 -128 11.333 -186 34s-104.833 61.334 -140.5 116.001s-53.5 130 -53.5 226v633zM879.001 1123l-153 31l42 351l211 -56zM573.001 1147l-157 23l7 358l215 -42z" />
    <glyph glyph-name="Uogonek" unicode="&#x172;" horiz-adv-x="1458" 
d="M158 1342h320v-814c0 -95.333 24.333 -164 73 -206s109.667 -63 183 -63c74.667 0 136.5 21 185.5 63s73.5 110.667 73.5 206v814h319v-814c0 -113.333 -22.333 -212 -67 -296s-110 -149 -196 -195s-191 -69 -315 -69s-228.833 23 -314.5 69s-150.667 111 -195 195
s-66.5 182.667 -66.5 296v814zM1107 -318c-44.667 -22.667 -89.168 -39.832 -133.501 -51.499s-89.166 -17.5 -134.499 -17.5c-76.667 0 -142 17.167 -196 51.5s-81 84.833 -81 151.5c0 43.333 12.833 85.666 38.5 126.999s62.5 73.333 110.5 96l263 -39
c-62.667 -16.667 -112.5 -35.667 -149.5 -57s-55.5 -46.333 -55.5 -75c0 -22 9.83301 -36.167 29.5 -42.5s39.167 -9.5 58.5 -9.5c26.667 0 53 4.16699 79 12.5s59 22.5 99 42.5z" />
    <glyph glyph-name="uogonek" unicode="&#x173;" horiz-adv-x="1299" 
d="M811 991h320v-991h-320v991zM158 991l320.001 -0.00195312v-596c0 -45.333 11.5 -78.833 34.5 -100.5s52.5 -32.5 88.5 -32.5c32.667 0 65.167 8 97.5 24s59.166 43.333 80.499 82s32 92.334 32 161.001h70c0 -130.667 -15 -236.167 -45 -316.5
s-70.833 -138.833 -122.5 -175.5s-110.167 -55 -175.5 -55c-66 0 -128 11.333 -186 34s-104.833 61.334 -140.5 116.001s-53.5 130 -53.5 226v633zM1264 -318.002c-44.667 -22.667 -89.168 -39.832 -133.501 -51.499s-89.166 -17.5 -134.499 -17.5
c-76.667 0 -142 17.167 -196 51.5s-81 84.833 -81 151.5c0 43.333 12.833 85.666 38.5 126.999s62.5 73.333 110.5 96l263 -39c-62.667 -16.667 -112.5 -35.667 -149.5 -57s-55.5 -46.333 -55.5 -75c0 -22 9.83301 -36.167 29.5 -42.5s39.167 -9.5 58.5 -9.5
c26.667 0 53 4.16699 79 12.5s59 22.5 99 42.5z" />
    <glyph glyph-name="Wcircumflex" unicode="&#x174;" horiz-adv-x="2003" 
d="M12 1342h356l301 -1060h-74l285 1020h216l314 -996h-65l284 1036h363l-448 -1342h-337l-216 676h14l-206 -676h-336zM790 1474l-185 147l396 300l399 -300l-188 -147l-268 211h114z" />
    <glyph glyph-name="wcircumflex" unicode="&#x175;" horiz-adv-x="1586" 
d="M11 985h335l174 -671h-28l156 612h302l158 -614h-30l174 673h320l-326 -985h-316l-163 579h49l-156 -579h-320zM581 1121l-185 147l396 300l399 -300l-188 -147l-268 211h114z" />
    <glyph glyph-name="Ycircumflex" unicode="&#x176;" horiz-adv-x="1253" 
d="M10 1342h376l258 -503h-52l275 503h375l-470 -785v-557h-318v557zM415 1474l-185 147l396 300l399 -300l-188 -147l-268 211h114z" />
    <glyph glyph-name="ycircumflex" unicode="&#x177;" horiz-adv-x="1087" 
d="M32 985l366.001 0.000976562l202 -705h-49l201 705h324l-384 -1144c-46.667 -134.667 -100.834 -227.334 -162.501 -278.001s-133.5 -76 -215.5 -76c-50 0 -100.167 4.5 -150.5 13.5s-100.5 23.833 -150.5 44.5v275c37.333 -17.333 73.833 -30.5 109.5 -39.5
s70.5 -13.5 104.5 -13.5c22.667 0 44 4.16699 64 12.5s38.333 22.833 55 43.5s30.667 49 42 85l32 92zM332.001 1121l-185 147l396 300l399 -300l-188 -147l-268 211h114z" />
    <glyph glyph-name="Ydieresis" unicode="&#x178;" horiz-adv-x="1253" 
d="M10 1342h376l258 -503h-52l275 503h375l-470 -785v-557h-318v557zM844 1499c-49.333 0 -91.166 15.833 -125.499 47.5s-51.5 71.834 -51.5 120.501s17.167 88.667 51.5 120s76.166 47 125.499 47c52.667 0 95.834 -15.667 129.501 -47s50.5 -71.333 50.5 -120
s-16.833 -88.834 -50.5 -120.501s-76.834 -47.5 -129.501 -47.5zM408 1499c-52.667 0 -95.5 15.833 -128.5 47.5s-49.5 71.167 -49.5 118.5c0 49.333 16.5 89.5 49.5 120.5s75.833 46.5 128.5 46.5s95.834 -15.5 129.501 -46.5s50.5 -71.167 50.5 -120.5
c0 -47.333 -16.833 -86.833 -50.5 -118.5s-76.834 -47.5 -129.501 -47.5z" />
    <glyph glyph-name="Zacute" unicode="&#x179;" horiz-adv-x="1335" 
d="M146 0v271l737 895v-115l-737 -3v294h1045v-267l-668 -818v35l668 2v-294h-1045zM618 1461l-150 124l414 395l208 -168z" />
    <glyph glyph-name="zacute" unicode="&#x17a;" horiz-adv-x="1033" 
d="M122 0v261l441 466h-441v258h790v-258l-417 -466h417v-261h-790zM447 1108l-150 124l414 395l208 -168z" />
    <glyph glyph-name="Zdotaccent" unicode="&#x17b;" horiz-adv-x="1335" 
d="M146 0v271l737 895v-115l-737 -3v294h1045v-267l-668 -818v35l668 2v-294h-1045zM484.34 1713.49c0 58.2139 19.459 106.616 58.3779 145.208c38.9189 38.5908 89.4473 57.8867 151.586 57.8867s113.485 -19.2959 154.039 -57.8867
c40.5537 -38.5918 60.8311 -86.9951 60.8311 -145.209s-20.2773 -106.126 -60.8311 -143.736s-91.9004 -56.415 -154.039 -56.415s-112.667 18.9688 -151.586 56.9062c-38.9189 37.9365 -58.3779 85.6855 -58.3779 143.246z" />
    <glyph glyph-name="zdotaccent" unicode="&#x17c;" horiz-adv-x="1033" 
d="M122 0v261l441 466h-441v258h790v-258l-417 -466h417v-261h-790zM313.34 1360.49c0 58.2139 19.459 106.616 58.3779 145.208c38.9189 38.5908 89.4473 57.8867 151.586 57.8867s113.485 -19.2959 154.039 -57.8867c40.5537 -38.5918 60.8311 -86.9951 60.8311 -145.209
s-20.2773 -106.126 -60.8311 -143.736s-91.9004 -56.415 -154.039 -56.415s-112.667 18.9688 -151.586 56.9062c-38.9189 37.9365 -58.3779 85.6855 -58.3779 143.246z" />
    <glyph glyph-name="Zcaron" unicode="&#x17d;" horiz-adv-x="1335" 
d="M146 0v271l737 895v-115l-737 -3v294h1045v-267l-668 -818v35l668 2v-294h-1045zM699 1479l-396 300l185 147l268 -251h-114l268 251l188 -147z" />
    <glyph glyph-name="zcaron" unicode="&#x17e;" horiz-adv-x="1033" 
d="M122 0v261l441 466h-441v258h790v-258l-417 -466h417v-261h-790zM528 1126l-396 300l185 147l268 -251h-114l268 251l188 -147z" />
    <glyph glyph-name="florin" unicode="&#x192;" horiz-adv-x="790" 
d="M29 778l14 207h613l-14 -207h-613zM-131 -457l80.001 242.999c13.333 -3.33301 27.666 -6.66602 42.999 -9.99902s31 -5 47 -5s30.167 3.16699 42.5 9.5s22.333 15.5 30 27.5s12.167 27 13.5 45l85 1218c5.33301 77.333 25 140 59 188s76.5 83.167 127.5 105.5
s103.833 33.5 158.5 33.5c37.333 0 76.5 -2.5 117.5 -7.5s80.167 -10.167 117.5 -15.5l-80 -243c-12.667 3.33301 -26.834 6.66602 -42.501 9.99902s-31.5 5 -47.5 5s-30.167 -3 -42.5 -9s-22.333 -15.167 -30 -27.5s-12.167 -27.5 -13.5 -45.5l-85 -1218
c-5.33301 -76.667 -25 -139.167 -59 -187.5s-76.333 -83.666 -127 -105.999s-103.667 -33.5 -159 -33.5c-36.667 0 -75.667 2.5 -117 7.5s-80.666 10.167 -117.999 15.5z" />
    <glyph glyph-name="uni0218" unicode="&#x218;" horiz-adv-x="1344" 
d="M674 -32c-96 0 -185.001 16.167 -267.001 48.5s-148.667 83 -200 152s-79.666 158.833 -84.999 269.5h316c0 -40.667 10.333 -74.334 31 -101.001s48.834 -46.334 84.501 -59.001s75.167 -19 118.5 -19c34.667 0 67.167 3 97.5 9s54.833 16.667 73.5 32s28 36.333 28 63
c0 32.667 -9.83301 57 -29.5 73s-55.167 34.333 -106.5 55l-292 127c-96 41.333 -170.667 90 -224 146s-80 132.333 -80 229c0 113.333 46.167 204.833 138.5 274.5s218.833 104.5 379.5 104.5c163.333 0 288.666 -38.5 375.999 -115.5s136.333 -186.833 147 -329.5h-314
c-8 44 -27.5 81 -58.5 111s-81.167 45 -150.5 45c-50 0 -90.333 -9.16699 -121 -27.5s-46 -41.166 -46 -68.499c0 -25.333 9.83301 -45.333 29.5 -60s49.167 -30.667 88.5 -48l309 -131c102.667 -44.667 179.167 -97 229.5 -157s75.5 -132 75.5 -216
c0 -90 -21.5 -165.167 -64.5 -225.5s-105.333 -105.666 -187 -135.999s-180.5 -45.5 -296.5 -45.5zM634.999 -460l-129 69c30 14.667 57.667 31.667 83 51s43 40.333 53 63c-26 6.66699 -47.667 18.667 -65 36s-25 39.666 -23 66.999c2 30 15.5 55 40.5 75
s55.167 30 90.5 30c44.667 0 78.167 -15.333 100.5 -46s31.833 -66.667 28.5 -108c-2.66699 -47.333 -20.5 -92.666 -53.5 -135.999s-74.833 -77 -125.5 -101z" />
    <glyph glyph-name="uni0219" unicode="&#x219;" horiz-adv-x="1059" 
d="M550 -32c-94 0 -177.002 12.5 -249.002 37.5s-128.167 62.667 -168.5 113s-60.166 113.833 -59.499 190.5h289c1.33301 -34.667 14.833 -58.667 40.5 -72s60.5 -20 104.5 -20c26.667 0 48.667 3.33301 66 10s30.333 15.5 39 26.5s13 22.833 13 35.5
c0 16.667 -6 30 -18 40s-30.667 20 -56 30l-239 93c-70.667 29.333 -125.167 66.5 -163.5 111.5s-57.5 98.5 -57.5 160.5c0 87.333 40.333 158 121 212s191 81 331 81c131.333 0 232.333 -30.667 303 -92s106.334 -139.333 107.001 -234h-293c0 21.333 -9 39.833 -27 55.5
s-48 23.5 -90 23.5c-34.667 0 -62 -5.66699 -82 -17s-30 -26.333 -30 -45c0 -25.333 21 -45.333 63 -60l272 -109c67.333 -26.667 120.333 -60 159 -100s58 -90 58 -150c0 -54.667 -18.833 -106.5 -56.5 -155.5s-89.167 -88.833 -154.5 -119.5s-139.333 -46 -222 -46z
M483.998 -458l-129 69c30 14.667 57.667 31.667 83 51s43 40.333 53 63c-26 6.66699 -47.667 18.667 -65 36s-25 39.666 -23 66.999c2 30 15.5 55 40.5 75s55.167 30 90.5 30c44.667 0 78.167 -15.333 100.5 -46s31.833 -66.667 28.5 -108
c-2.66699 -47.333 -20.5 -92.666 -53.5 -135.999s-74.833 -77 -125.5 -101z" />
    <glyph glyph-name="uni021A" unicode="&#x21a;" horiz-adv-x="1128" 
d="M12 1065v277h1105v-277h-463l72 72v-1137h-320v1137l72 -72h-466zM436 -430l-129 69c30 14.667 57.667 31.667 83 51s43 40.333 53 63c-26 6.66699 -47.667 18.667 -65 36s-25 39.666 -23 66.999c2 30 15.5 55 40.5 75s55.167 30 90.5 30
c44.667 0 78.167 -15.333 100.5 -46s31.833 -66.667 28.5 -108c-2.66699 -47.333 -20.5 -92.666 -53.5 -135.999s-74.833 -77 -125.5 -101z" />
    <glyph glyph-name="uni021B" unicode="&#x21b;" horiz-adv-x="828" 
d="M533 -32c-62.667 0 -121.167 11.334 -175.5 34.001s-98 58.167 -131 106.5s-49.5 110.5 -49.5 186.5v939h322v-927c0 -60 29.667 -90 89 -90c18.667 0 38.5 2.16699 59.5 6.5s45.5 11.5 73.5 21.5l47 -223c-40.667 -14.667 -79.5 -27.334 -116.5 -38.001
s-76.5 -16 -118.5 -16zM60 778.001v207h663v-207h-663zM406 -449.999l-129 69c30 14.667 57.667 31.667 83 51s43 40.333 53 63c-26 6.66699 -47.667 18.667 -65 36s-25 39.666 -23 66.999c2 30 15.5 55 40.5 75s55.167 30 90.5 30c44.667 0 78.167 -15.333 100.5 -46
s31.833 -66.667 28.5 -108c-2.66699 -47.333 -20.5 -92.666 -53.5 -135.999s-74.833 -77 -125.5 -101z" />
    <glyph glyph-name="uni0237" unicode="&#x237;" horiz-adv-x="715" 
d="M162 -513c-58.667 0 -110.666 5.16699 -155.999 15.5s-91 21.833 -137 34.5v275c28.667 -11.333 61.667 -21.666 99 -30.999s72 -14 104 -14c41.333 0 72.166 9.66699 92.499 29s30.5 57.666 30.5 114.999v1078h322v-1084c0 -151.333 -30 -258.833 -90 -322.5
s-148.333 -95.5 -265 -95.5z" />
    <glyph glyph-name="apostrophe" unicode="&#x2bc;" horiz-adv-x="585" 
d="M305 692l-233.002 120c50.667 25.333 96.834 54.833 138.501 88.5s69.5 70.5 83.5 110.5c-45.333 11.333 -84.166 32 -116.499 62s-48.5 68.667 -48.5 116c0 52.667 20.333 96.5 61 131.5s92 52.5 154 52.5c77.333 0 137.333 -26.667 180 -80s64 -116.333 64 -189
c0 -82 -26 -160.833 -78 -236.5s-120.333 -134.167 -205 -175.5z" />
    <glyph glyph-name="circumflex" unicode="&#x2c6;" horiz-adv-x="968" 
d="M271 1126l-185 147l396 300l399 -300l-188 -147l-268 211h114z" />
    <glyph glyph-name="caron" unicode="&#x2c7;" horiz-adv-x="968" 
d="M482 1126l-396 300l185 147l268 -251h-114l268 251l188 -147z" />
    <glyph glyph-name="breve" unicode="&#x2d8;" horiz-adv-x="885" 
d="M442 1171c-112.667 0 -200.167 31.333 -262.5 94s-93.5 155.334 -93.5 278.001h244c0 -57.333 9.5 -99.666 28.5 -126.999s46.833 -41 83.5 -41s64.5 13.667 83.5 41s28.5 69.666 28.5 126.999h244c0 -122.667 -31.167 -215.334 -93.5 -278.001s-149.833 -94 -262.5 -94z
" />
    <glyph glyph-name="dotaccent" unicode="&#x2d9;" horiz-adv-x="582" 
d="M87.3398 1360.49c0 58.2139 19.459 106.616 58.3779 145.208c38.9189 38.5908 89.4473 57.8867 151.586 57.8867s113.485 -19.2959 154.039 -57.8867c40.5537 -38.5918 60.8311 -86.9951 60.8311 -145.209s-20.2773 -106.126 -60.8311 -143.736
s-91.9004 -56.415 -154.039 -56.415s-112.667 18.9688 -151.586 56.9062c-38.9189 37.9365 -58.3779 85.6855 -58.3779 143.246z" />
    <glyph glyph-name="ring" unicode="&#x2da;" horiz-adv-x="727" 
d="M363 1288c-50.667 0 -97 12.5 -139 37.5s-75.5 58.5 -100.5 100.5s-37.5 88.333 -37.5 139s12.5 97 37.5 139s58.5 75.5 100.5 100.5s88.333 37.5 139 37.5s97 -12.5 139 -37.5s75.5 -58.5 100.5 -100.5s37.5 -88.333 37.5 -139s-12.5 -97 -37.5 -139
s-58.5 -75.5 -100.5 -100.5s-88.333 -37.5 -139 -37.5zM363 1493c20 0 37 7 51 21s21 31 21 51s-7 37 -21 51s-31 21 -51 21s-37 -7 -51 -21s-21 -31 -21 -51s7 -37 21 -51s31 -21 51 -21z" />
    <glyph glyph-name="ogonek" unicode="&#x2db;" horiz-adv-x="718" 
d="M631 -373c-44.667 -22.667 -89.168 -39.832 -133.501 -51.499s-89.166 -17.5 -134.499 -17.5c-76.667 0 -142 17.167 -196 51.5s-81 84.833 -81 151.5c0 43.333 12.833 85.666 38.5 126.999s62.5 73.333 110.5 96l263 -39c-62.667 -16.667 -112.5 -35.667 -149.5 -57
s-55.5 -46.333 -55.5 -75c0 -22 9.83301 -36.167 29.5 -42.5s39.167 -9.5 58.5 -9.5c26.667 0 53 4.16699 79 12.5s59 22.5 99 42.5z" />
    <glyph glyph-name="tilde" unicode="&#x2dc;" horiz-adv-x="930" 
d="M212 1139l-125.996 73.001c16 95.333 46.167 170.666 90.5 225.999s98.166 83 161.499 83c21.333 0 43.5 -4.16699 66.5 -12.5s49.5 -20.166 79.5 -35.499l67 -31.5c18 -8.33301 35.667 -12.5 53 -12.5c19.333 0 38.333 7.33301 57 22s35 38 49 70l133 -87
c-8.66699 -54 -25.334 -103.333 -50.001 -148s-53.167 -80.334 -85.5 -107.001s-64.166 -40 -95.499 -40c-28.667 0 -55.334 5 -80.001 15s-53.334 23 -86.001 39c-26.667 15.333 -47.834 26.166 -63.501 32.499s-30.5 9.5 -44.5 9.5c-22.667 0 -44 -6.16699 -64 -18.5
s-40.667 -38.166 -62 -77.499z" />
    <glyph glyph-name="hungarumlaut" unicode="&#x2dd;" horiz-adv-x="736" 
d="M549 1123l-153 31l42 351l211 -56zM243 1147l-157 23l7 358l215 -42z" />
    <glyph glyph-name="gravecomb" unicode="&#x300;" horiz-adv-x="0" 
d="M562 1108l-472 351l208 168l414 -395z" />
    <glyph glyph-name="acutecomb" unicode="&#x301;" horiz-adv-x="0" 
d="M236 1108l-150 124l414 395l208 -168z" />
    <glyph glyph-name="uni0302" unicode="&#x302;" horiz-adv-x="0" 
d="M271 1126l-185 147l396 300l399 -300l-188 -147l-268 211h114z" />
    <glyph glyph-name="tildecomb" unicode="&#x303;" horiz-adv-x="0" 
d="M172 1139l-125.996 73.001c16 95.333 46.167 170.666 90.5 225.999s98.166 83 161.499 83c21.333 0 43.5 -4.16699 66.5 -12.5s49.5 -20.166 79.5 -35.499l67 -31.5c18 -8.33301 35.667 -12.5 53 -12.5c19.333 0 38.333 7.33301 57 22s35 38 49 70l133 -87
c-8.66699 -54 -25.334 -103.333 -50.001 -148s-53.167 -80.334 -85.5 -107.001s-64.166 -40 -95.499 -40c-28.667 0 -55.334 5 -80.001 15s-53.334 23 -86.001 39c-26.667 15.333 -47.834 26.166 -63.501 32.499s-30.5 9.5 -44.5 9.5c-22.667 0 -44 -6.16699 -64 -18.5
s-40.667 -38.166 -62 -77.499z" />
    <glyph glyph-name="uni0304" unicode="&#x304;" horiz-adv-x="0" 
d="M235 1428h762v-259h-762v259z" />
    <glyph glyph-name="uni0306" unicode="&#x306;" horiz-adv-x="0" 
d="M442 1171c-112.667 0 -200.167 31.333 -262.5 94s-93.5 155.334 -93.5 278.001h244c0 -57.333 9.5 -99.666 28.5 -126.999s46.833 -41 83.5 -41s64.5 13.667 83.5 41s28.5 69.666 28.5 126.999h244c0 -122.667 -31.167 -215.334 -93.5 -278.001s-149.833 -94 -262.5 -94z
" />
    <glyph glyph-name="uni0307" unicode="&#x307;" horiz-adv-x="0" 
d="M87.3398 1360.49c0 58.2139 19.459 106.616 58.3779 145.208c38.9189 38.5908 89.4473 57.8867 151.586 57.8867s113.485 -19.2959 154.039 -57.8867c40.5537 -38.5918 60.8311 -86.9951 60.8311 -145.209s-20.2773 -106.126 -60.8311 -143.736
s-91.9004 -56.415 -154.039 -56.415s-112.667 18.9688 -151.586 56.9062c-38.9189 37.9365 -58.3779 85.6855 -58.3779 143.246z" />
    <glyph glyph-name="uni0308" unicode="&#x308;" horiz-adv-x="0" 
d="M700 1146c-49.333 0 -91.166 15.833 -125.499 47.5s-51.5 71.834 -51.5 120.501s17.167 88.667 51.5 120s76.166 47 125.499 47c52.667 0 95.834 -15.667 129.501 -47s50.5 -71.333 50.5 -120s-16.833 -88.834 -50.5 -120.501s-76.834 -47.5 -129.501 -47.5zM264 1146
c-52.667 0 -95.5 15.833 -128.5 47.5s-49.5 71.167 -49.5 118.5c0 49.333 16.5 89.5 49.5 120.5s75.833 46.5 128.5 46.5s95.834 -15.5 129.501 -46.5s50.5 -71.167 50.5 -120.5c0 -47.333 -16.833 -86.833 -50.5 -118.5s-76.834 -47.5 -129.501 -47.5z" />
    <glyph glyph-name="uni030A" unicode="&#x30a;" horiz-adv-x="0" 
d="M363 1288c-50.667 0 -97 12.5 -139 37.5s-75.5 58.5 -100.5 100.5s-37.5 88.333 -37.5 139s12.5 97 37.5 139s58.5 75.5 100.5 100.5s88.333 37.5 139 37.5s97 -12.5 139 -37.5s75.5 -58.5 100.5 -100.5s37.5 -88.333 37.5 -139s-12.5 -97 -37.5 -139
s-58.5 -75.5 -100.5 -100.5s-88.333 -37.5 -139 -37.5zM363 1493c20 0 37 7 51 21s21 31 21 51s-7 37 -21 51s-31 21 -51 21s-37 -7 -51 -21s-21 -31 -21 -51s7 -37 21 -51s31 -21 51 -21z" />
    <glyph glyph-name="uni030B" unicode="&#x30b;" horiz-adv-x="0" 
d="M549 1123l-153 31l42 351l211 -56zM243 1147l-157 23l7 358l215 -42z" />
    <glyph glyph-name="uni030C" unicode="&#x30c;" horiz-adv-x="0" 
d="M482 1126l-396 300l185 147l268 -251h-114l268 251l188 -147z" />
    <glyph glyph-name="uni0312" unicode="&#x312;" horiz-adv-x="0" 
d="M266 1421l129 -69c-30 -14.667 -57.667 -31.667 -83 -51s-43 -40.333 -53 -63c26 -6.66699 47.667 -18.667 65 -36s25 -39.666 23 -66.999c-2 -30 -15.5 -55 -40.5 -75s-55.167 -30 -90.5 -30c-44.667 0 -78.167 15.333 -100.5 46s-31.833 66.667 -28.5 108
c2.66699 47.333 20.5 92.666 53.5 135.999s74.833 77 125.5 101z" />
    <glyph glyph-name="uni0326" unicode="&#x326;" horiz-adv-x="0" 
d="M215 -460l-129 69c30 14.667 57.667 31.667 83 51s43 40.333 53 63c-26 6.66699 -47.667 18.667 -65 36s-25 39.666 -23 66.999c2 30 15.5 55 40.5 75s55.167 30 90.5 30c44.667 0 78.167 -15.333 100.5 -46s31.833 -66.667 28.5 -108
c-2.66699 -47.333 -20.5 -92.666 -53.5 -135.999s-74.833 -77 -125.5 -101z" />
    <glyph glyph-name="uni0327" unicode="&#x327;" horiz-adv-x="0" 
d="M86 -379l39.0029 101.002c40.667 -16.667 76.334 -26 107.001 -28s55.167 2 73.5 12s28.5 24.333 30.5 43c1.33301 14 -2.83398 26.667 -12.501 38s-26.334 22.166 -50.001 32.499s-56.5 20.166 -98.5 29.499l86 254l119 -22l-74 -225l-26 64
c69.333 -6.66699 123.5 -20.334 162.5 -41.001s66.333 -44.5 82 -71.5s22.5 -53.833 20.5 -80.5c-2.66699 -38.667 -19.5 -70.167 -50.5 -94.5s-69.833 -41.166 -116.5 -50.499s-95.834 -10.833 -147.501 -4.5s-99.834 20.833 -144.501 43.5z" />
    <glyph glyph-name="uni0328" unicode="&#x328;" horiz-adv-x="0" 
d="M631 -373c-44.667 -22.667 -89.168 -39.832 -133.501 -51.499s-89.166 -17.5 -134.499 -17.5c-76.667 0 -142 17.167 -196 51.5s-81 84.833 -81 151.5c0 43.333 12.833 85.666 38.5 126.999s62.5 73.333 110.5 96l263 -39c-62.667 -16.667 -112.5 -35.667 -149.5 -57
s-55.5 -46.333 -55.5 -75c0 -22 9.83301 -36.167 29.5 -42.5s39.167 -9.5 58.5 -9.5c26.667 0 53 4.16699 79 12.5s59 22.5 99 42.5z" />
    <glyph glyph-name="uni0394" unicode="&#x394;" horiz-adv-x="1358" 
d="M36 0l452 1342h407l427 -1342h-337l-298 964l-311 -964h-340zM204 0v282h897v-282h-897z" />
    <glyph glyph-name="uni03A9" unicode="&#x3a9;" horiz-adv-x="1443" 
d="M619 64c-70 0 -137.005 13.0029 -201.005 39.0029s-121 64.667 -171 116s-89.333 115 -118 191s-43 164.333 -43 265c0 158 26.333 288.5 79 391.5s126.5 179.667 221.5 230s206.167 75.5 333.5 75.5c128.667 0 240.834 -26.333 336.501 -79
s169.834 -130.667 222.501 -234s79 -231.333 79 -384c0 -102.667 -14.5 -192.334 -43.5 -269.001s-68.5 -140.334 -118.5 -191.001s-107.167 -88.5 -171.5 -113.5s-132.166 -37.5 -203.499 -37.5v137c28.667 0 59 19.667 91 59s59.333 94.666 82 165.999s34 155 34 251
c0 126 -28 225.5 -84 298.5s-130.667 109.5 -224 109.5c-90.667 0 -164 -36.5 -220 -109.5s-84 -173.167 -84 -300.5c0 -95.333 11.333 -178.5 34 -249.5s49.834 -126.167 81.501 -165.5s60.834 -59 87.501 -59v-137zM85.9951 0.00292969v201h533v-201h-533z
M820.995 0.00292969v201h533v-201h-533z" />
    <glyph glyph-name="uni03BC" unicode="&#x3bc;" horiz-adv-x="1299" 
d="M811 991h320v-991h-320v991zM158 991l320.001 -0.00195312v-596c0 -45.333 11.5 -78.833 34.5 -100.5s52.5 -32.5 88.5 -32.5c32.667 0 65.167 8 97.5 24s59.166 43.333 80.499 82s32 92.334 32 161.001h70c0 -130.667 -15 -236.167 -45 -316.5
s-70.833 -138.833 -122.5 -175.5s-110.167 -55 -175.5 -55c-66 0 -128 11.333 -186 34s-104.833 61.334 -140.5 116.001s-53.5 130 -53.5 226v633zM158.001 -389.002v1380h320v-1380h-320z" />
    <glyph glyph-name="pi" unicode="&#x3c0;" horiz-adv-x="1287" 
d="M1105 0c-84.667 0 -153.833 19 -207.5 57s-93.167 90.333 -118.5 157s-38 143 -38 229v544h322v-544c0 -52 12.667 -90.5 38 -115.5s56 -37.5 92 -37.5zM229.001 0v985h320v-985h-320zM30.001 707v282h1235v-282h-1235z" />
    <glyph glyph-name="Wgrave" unicode="&#x1e80;" horiz-adv-x="2003" 
d="M12 1342h356l301 -1060h-74l285 1020h216l314 -996h-65l284 1036h363l-448 -1342h-337l-216 676h14l-206 -676h-336zM1156 1461l-472 351l208 168l414 -395z" />
    <glyph glyph-name="wgrave" unicode="&#x1e81;" horiz-adv-x="1586" 
d="M11 985h335l174 -671h-28l156 612h302l158 -614h-30l174 673h320l-326 -985h-316l-163 579h49l-156 -579h-320zM947 1108l-472 351l208 168l414 -395z" />
    <glyph glyph-name="Wacute" unicode="&#x1e82;" horiz-adv-x="2003" 
d="M12 1342h356l301 -1060h-74l285 1020h216l314 -996h-65l284 1036h363l-448 -1342h-337l-216 676h14l-206 -676h-336zM932 1461l-150 124l414 395l208 -168z" />
    <glyph glyph-name="wacute" unicode="&#x1e83;" horiz-adv-x="1586" 
d="M11 985h335l174 -671h-28l156 612h302l158 -614h-30l174 673h320l-326 -985h-316l-163 579h49l-156 -579h-320zM723 1108l-150 124l414 395l208 -168z" />
    <glyph glyph-name="Wdieresis" unicode="&#x1e84;" horiz-adv-x="2003" 
d="M12 1342h356l301 -1060h-74l285 1020h216l314 -996h-65l284 1036h363l-448 -1342h-337l-216 676h14l-206 -676h-336zM1219 1499c-49.333 0 -91.166 15.833 -125.499 47.5s-51.5 71.834 -51.5 120.501s17.167 88.667 51.5 120s76.166 47 125.499 47
c52.667 0 95.834 -15.667 129.501 -47s50.5 -71.333 50.5 -120s-16.833 -88.834 -50.5 -120.501s-76.834 -47.5 -129.501 -47.5zM783 1499c-52.667 0 -95.5 15.833 -128.5 47.5s-49.5 71.167 -49.5 118.5c0 49.333 16.5 89.5 49.5 120.5s75.833 46.5 128.5 46.5
s95.834 -15.5 129.501 -46.5s50.5 -71.167 50.5 -120.5c0 -47.333 -16.833 -86.833 -50.5 -118.5s-76.834 -47.5 -129.501 -47.5z" />
    <glyph glyph-name="wdieresis" unicode="&#x1e85;" horiz-adv-x="1586" 
d="M11 985h335l174 -671h-28l156 612h302l158 -614h-30l174 673h320l-326 -985h-316l-163 579h49l-156 -579h-320zM1010 1146c-49.333 0 -91.166 15.833 -125.499 47.5s-51.5 71.834 -51.5 120.501s17.167 88.667 51.5 120s76.166 47 125.499 47
c52.667 0 95.834 -15.667 129.501 -47s50.5 -71.333 50.5 -120s-16.833 -88.834 -50.5 -120.501s-76.834 -47.5 -129.501 -47.5zM574 1146c-52.667 0 -95.5 15.833 -128.5 47.5s-49.5 71.167 -49.5 118.5c0 49.333 16.5 89.5 49.5 120.5s75.833 46.5 128.5 46.5
s95.834 -15.5 129.501 -46.5s50.5 -71.167 50.5 -120.5c0 -47.333 -16.833 -86.833 -50.5 -118.5s-76.834 -47.5 -129.501 -47.5z" />
    <glyph glyph-name="uni1E9E" unicode="&#x1e9e;" horiz-adv-x="1371" 
d="M1129 1075c0 -46.667 -7.49707 -86.1709 -22.4971 -118.504s-32.5 -60.166 -52.5 -83.499l-52.5 -63.5c-15 -19 -22.5 -38.5 -22.5 -58.5c0 -23.333 10.667 -44.166 32 -62.499s47.666 -37.166 78.999 -56.499s62.666 -42 93.999 -68s57.666 -57.667 78.999 -95
s32 -83.333 32 -138c0 -76 -21.5 -140.833 -64.5 -194.5s-97.5 -94.5 -163.5 -122.5s-134 -42 -204 -42c-38 0 -79 4.33301 -123 13s-85.333 22.334 -124 41.001v246c43.333 -26.667 79.333 -45.667 108 -57s59.667 -17 93 -17c30 0 53.833 4 71.5 12s30.167 19.667 37.5 35
s11 34 11 56c0 40 -9.16699 73.833 -27.5 101.5s-41 52 -68 73l-81.5 62c-27.333 20.333 -50.166 43 -68.499 68s-27.5 55.167 -27.5 90.5c0 36 8.83301 66.833 26.5 92.5s38.334 49.667 62.001 72s44.334 46 62.001 71s26.5 54.5 26.5 88.5c0 46.667 -17.667 79.667 -53 99
s-76 29 -122 29c-70.667 0 -116.834 -21 -138.501 -63s-32.5 -107 -32.5 -195v-890h-326v898c0 115.333 21.167 210 63.5 284s101.666 128.833 177.999 164.5s165.166 53.5 266.499 53.5c88 0 166 -12.5 234 -37.5s121.333 -61.667 160 -110s58 -107.5 58 -177.5z" />
    <glyph glyph-name="Ygrave" unicode="&#x1ef2;" horiz-adv-x="1253" 
d="M10 1342h376l258 -503h-52l275 503h375l-470 -785v-557h-318v557zM781 1461l-472 351l208 168l414 -395z" />
    <glyph glyph-name="ygrave" unicode="&#x1ef3;" horiz-adv-x="1087" 
d="M32 985l366.001 0.000976562l202 -705h-49l201 705h324l-384 -1144c-46.667 -134.667 -100.834 -227.334 -162.501 -278.001s-133.5 -76 -215.5 -76c-50 0 -100.167 4.5 -150.5 13.5s-100.5 23.833 -150.5 44.5v275c37.333 -17.333 73.833 -30.5 109.5 -39.5
s70.5 -13.5 104.5 -13.5c22.667 0 44 4.16699 64 12.5s38.333 22.833 55 43.5s30.667 49 42 85l32 92zM698.001 1108l-472 351l208 168l414 -395z" />
    <glyph glyph-name="endash" unicode="&#x2013;" horiz-adv-x="1160" 
d="M110 485v280h939v-280h-939z" />
    <glyph glyph-name="emdash" unicode="&#x2014;" horiz-adv-x="1627" 
d="M110 485v280h1408v-280h-1408z" />
    <glyph glyph-name="quoteleft" unicode="&#x2018;" horiz-adv-x="665" 
d="M317 674c-50.667 0 -94.333 13.168 -131 39.501s-64.834 60.5 -84.501 102.5s-29.5 87 -29.5 135c0 84 28.333 162.333 85 235s127.334 130.334 212.001 173.001l218 -126c-50 -22.667 -95.333 -50.334 -136 -83.001s-69.667 -70.667 -87 -114
c45.333 -8.66699 84.5 -27.834 117.5 -57.501s49.5 -68.5 49.5 -116.5c0 -52 -20.333 -96.333 -61 -133s-91.667 -55 -153 -55z" />
    <glyph glyph-name="quoteright" unicode="&#x2019;" horiz-adv-x="665" 
d="M306 674l-219 126c50.667 23.333 97 51.666 139 84.999s71 71.333 87 114c-48.667 9.33301 -88.667 29 -120 59s-47 68.333 -47 115c0 54.667 20.833 99.334 62.5 134.001s92.167 52 151.5 52c51.333 0 95 -13 131 -39s63.333 -60.167 82 -102.5s28 -87.5 28 -135.5
c0 -85.333 -28.333 -163.833 -85 -235.5s-126.667 -129.167 -210 -172.5z" />
    <glyph glyph-name="quotesinglbase" unicode="&#x201a;" horiz-adv-x="652" 
d="M305 -329l-233.002 120c50.667 25.333 96.834 54.833 138.501 88.5s69.5 70.5 83.5 110.5c-45.333 11.333 -84.166 32 -116.499 62s-48.5 68.667 -48.5 116c0 52.667 20.333 96.5 61 131.5s92 52.5 154 52.5c77.333 0 137.333 -26.667 180 -80s64 -116.333 64 -189
c0 -82 -26 -160.833 -78 -236.5s-120.333 -134.167 -205 -175.5z" />
    <glyph glyph-name="quotedblleft" unicode="&#x201c;" horiz-adv-x="1170" 
d="M836 674c-50.667 0 -94.333 13.168 -131 39.501s-64.834 60.5 -84.501 102.5s-29.5 87 -29.5 135c0 84 28.333 162.333 85 235s127.334 130.334 212.001 173.001l218 -126c-50 -22.667 -95.333 -50.334 -136 -83.001s-69.667 -70.667 -87 -114
c45.333 -8.66699 84.5 -27.834 117.5 -57.501s49.5 -68.5 49.5 -116.5c0 -52 -20.333 -96.333 -61 -133s-91.667 -55 -153 -55zM317.001 674.001c-50.667 0 -94.333 13.168 -131 39.501s-64.834 60.5 -84.501 102.5s-29.5 87 -29.5 135c0 84 28.333 162.333 85 235
s127.334 130.334 212.001 173.001l218 -126c-50 -22.667 -95.333 -50.334 -136 -83.001s-69.667 -70.667 -87 -114c45.333 -8.66699 84.5 -27.834 117.5 -57.501s49.5 -68.5 49.5 -116.5c0 -52 -20.333 -96.333 -61 -133s-91.667 -55 -153 -55z" />
    <glyph glyph-name="quotedblright" unicode="&#x201d;" horiz-adv-x="1155" 
d="M796 674l-219 126c50.667 23.333 97 51.666 139 84.999s71 71.333 87 114c-48.667 9.33301 -88.667 29 -120 59s-47 68.333 -47 115c0 54.667 20.833 99.334 62.5 134.001s92.167 52 151.5 52c51.333 0 95 -13 131 -39s63.333 -60.167 82 -102.5s28 -87.5 28 -135.5
c0 -85.333 -28.333 -163.833 -85 -235.5s-126.667 -129.167 -210 -172.5zM291 674l-219 126c50.667 23.333 97 51.666 139 84.999s71 71.333 87 114c-48.667 9.33301 -88.667 29 -120 59s-47 68.333 -47 115c0 54.667 20.833 99.334 62.5 134.001s92.167 52 151.5 52
c51.333 0 95 -13 131 -39s63.333 -60.167 82 -102.5s28 -87.5 28 -135.5c0 -85.333 -28.333 -163.833 -85 -235.5s-126.667 -129.167 -210 -172.5z" />
    <glyph glyph-name="quotedblbase" unicode="&#x201e;" horiz-adv-x="1201" 
d="M854 -329l-233.002 120c50.667 25.333 96.834 54.833 138.501 88.5s69.5 70.5 83.5 110.5c-45.333 11.333 -84.166 32 -116.499 62s-48.5 68.667 -48.5 116c0 52.667 20.333 96.5 61 131.5s92 52.5 154 52.5c77.333 0 137.333 -26.667 180 -80s64 -116.333 64 -189
c0 -82 -26 -160.833 -78 -236.5s-120.333 -134.167 -205 -175.5zM304.998 -329l-233.002 120c50.667 25.333 96.834 54.833 138.501 88.5s69.5 70.5 83.5 110.5c-45.333 11.333 -84.166 32 -116.499 62s-48.5 68.667 -48.5 116c0 52.667 20.333 96.5 61 131.5
s92 52.5 154 52.5c77.333 0 137.333 -26.667 180 -80s64 -116.333 64 -189c0 -82 -26 -160.833 -78 -236.5s-120.333 -134.167 -205 -175.5z" />
    <glyph glyph-name="dagger" unicode="&#x2020;" horiz-adv-x="1096" 
d="M386 -252l-35 1594h394l-38 -1594h-321zM100 758v229l448 18l448 -18v-229l-448 -20z" />
    <glyph glyph-name="daggerdbl" unicode="&#x2021;" horiz-adv-x="1096" 
d="M386 -252l-35 1594h394l-38 -1594h-321zM100 758v229l448 18l448 -18v-229l-448 -20zM100 358v229l448 18l448 -18v-229l-448 -20z" />
    <glyph glyph-name="bullet" unicode="&#x2022;" horiz-adv-x="750" 
d="M43.8027 740.553c0 108.161 36.1553 198.093 108.465 269.795s166.19 107.553 281.643 107.553s210.853 -35.8506 286.201 -107.553s113.022 -161.634 113.022 -269.795s-37.6738 -197.181 -113.022 -267.06c-75.3486 -69.8799 -170.749 -104.819 -286.201 -104.819
s-209.333 35.2432 -281.643 105.73s-108.465 159.203 -108.465 266.148z" />
    <glyph glyph-name="ellipsis" unicode="&#x2026;" horiz-adv-x="1564" 
d="M35 186c0 59.333 19.833 108.664 59.5 147.997s91.167 59 154.5 59s115.666 -19.667 156.999 -59s62 -88.666 62 -147.999s-20.667 -108.166 -62 -146.499s-93.666 -57.5 -156.999 -57.5s-114.833 19.333 -154.5 58s-59.5 87.334 -59.5 146.001zM575 185.998
c0 59.333 19.833 108.664 59.5 147.997s91.167 59 154.5 59s115.666 -19.667 156.999 -59s62 -88.666 62 -147.999s-20.667 -108.166 -62 -146.499s-93.666 -57.5 -156.999 -57.5s-114.833 19.333 -154.5 58s-59.5 87.334 -59.5 146.001zM1092 185.996
c0 59.333 19.833 108.664 59.5 147.997s91.167 59 154.5 59s115.666 -19.667 156.999 -59s62 -88.666 62 -147.999s-20.667 -108.166 -62 -146.499s-93.666 -57.5 -156.999 -57.5s-114.833 19.333 -154.5 58s-59.5 87.334 -59.5 146.001z" />
    <glyph glyph-name="perthousand" unicode="&#x2030;" horiz-adv-x="2677" 
d="M441 568c-104 0 -189.167 34.5 -255.5 103.5s-99.5 175.167 -99.5 318.5c0 145.333 33.167 252.333 99.5 321s151.5 103 255.5 103c102 0 186.333 -34.333 253 -103s100 -175.667 100 -321c0 -143.333 -33.333 -249.5 -100 -318.5s-151 -103.5 -253 -103.5zM441 743
c46.667 0 84 20.833 112 62.5s42 103.167 42 184.5c0 82 -14 144.167 -42 186.5s-65.333 63.5 -112 63.5c-48.667 0 -87 -21.167 -115 -63.5s-42 -104.5 -42 -186.5c0 -81.333 14 -142.833 42 -184.5s66.333 -62.5 115 -62.5zM1460 -32c-104 0 -189.167 34.5 -255.5 103.5
s-99.5 175.167 -99.5 318.5c0 145.333 33.167 252.333 99.5 321s151.5 103 255.5 103c102 0 186.333 -34.333 253 -103s100 -175.667 100 -321c0 -143.333 -33.333 -249.5 -100 -318.5s-151 -103.5 -253 -103.5zM1460 143c46.667 0 84 20.833 112 62.5s42 103.167 42 184.5
c0 82 -14 144.167 -42 186.5s-65.333 63.5 -112 63.5c-48.667 0 -87 -21.167 -115 -63.5s-42 -104.5 -42 -186.5c0 -81.333 14 -142.833 42 -184.5s66.333 -62.5 115 -62.5zM2239 -32c-104 0 -189.167 34.5 -255.5 103.5s-99.5 175.167 -99.5 318.5
c0 145.333 33.167 252.333 99.5 321s151.5 103 255.5 103c102 0 186.333 -34.333 253 -103s100 -175.667 100 -321c0 -143.333 -33.333 -249.5 -100 -318.5s-151 -103.5 -253 -103.5zM2239 143c46.667 0 84 20.833 112 62.5s42 103.167 42 184.5c0 82 -14 144.167 -42 186.5
s-65.333 63.5 -112 63.5c-48.667 0 -87 -21.167 -115 -63.5s-42 -104.5 -42 -186.5c0 -81.333 14 -142.833 42 -184.5s66.333 -62.5 115 -62.5zM331.353 -31.4785l1003.48 1441.87h251.165l-1006.55 -1441.87h-248.102z" />
    <glyph glyph-name="guilsinglleft" unicode="&#x2039;" horiz-adv-x="793" 
d="M384 516l322 301l-202 167l-418 -434l418 -434l202 167l-322 301v-68z" />
    <glyph glyph-name="guilsinglright" unicode="&#x203a;" horiz-adv-x="793" 
d="M288 116l-202 167l322 301v-68l-322 301l202 167l418 -434z" />
    <glyph glyph-name="fraction" unicode="&#x2044;" horiz-adv-x="593" 
d="M-316.647 -31.4785l1003.48 1441.87h251.165l-1006.55 -1441.87h-248.102z" />
    <glyph glyph-name="uni2070" unicode="&#x2070;" horiz-adv-x="906" 
d="M454.5 495c-71.667 0 -135.312 15.833 -190.938 47.5s-99.167 79.8965 -130.625 144.688s-47.1875 146.771 -47.1875 245.938c0 100.417 15.7295 183.021 47.1875 247.813s75 112.917 130.625 144.375s119.271 47.1875 190.938 47.1875
c70.833 0 133.75 -15.7295 188.75 -47.1875s98.333 -79.583 130 -144.375s47.5 -147.396 47.5 -247.813c0 -99.167 -15.833 -181.146 -47.5 -245.938s-75 -113.021 -130 -144.688s-117.917 -47.5 -188.75 -47.5zM454.5 676.875c48.333 0 87.083 21.5625 116.25 64.6875
s43.75 106.979 43.75 191.562s-14.583 148.854 -43.75 192.812s-67.917 65.9375 -116.25 65.9375c-50.417 0 -90.1045 -21.9795 -119.062 -65.9375s-43.4375 -108.229 -43.4375 -192.812s14.4795 -148.438 43.4375 -191.562s68.6455 -64.6875 119.062 -64.6875z" />
    <glyph glyph-name="uni2074" unicode="&#x2074;" horiz-adv-x="782" 
d="M439.307 1352.47h189.158v-486.15h140.966v-166.268h-140.966v-162.05h-191.568v162.05h-401.209v143.978zM447.74 1075.96l-184.34 -231.931h184.34v231.931z" />
    <glyph glyph-name="uni2075" unicode="&#x2075;" horiz-adv-x="781" 
d="M415.511 514.723c-65.0615 0 -120.984 10.9443 -167.772 32.832s-83.0332 53.5146 -108.736 94.8809s-39.5586 91.166 -41.5664 149.399h197.593c0 -34.5381 11.4463 -60.1406 34.3379 -76.8076s51.6064 -25 86.1445 -25c33.334 0 62.1494 11.6465 86.4463 34.9395
c24.2979 23.2939 36.4463 51.8086 36.4463 85.5439c0 62.6514 -44.3779 93.9766 -133.134 93.9766h-276.51l39.7598 437.957h520.488v-177.11h-365.667l36.7471 50.001l-20.4814 -199.4l-12.0488 15.6631c19.2773 4.41699 43.2734 7.93066 71.9893 10.541
c28.7148 2.61035 52.5098 3.91602 71.3857 3.91602c79.5195 0 143.376 -20.8838 191.569 -62.6514s72.29 -99.3984 72.29 -172.894c0 -54.6191 -13.4541 -104.318 -40.3623 -149.099c-26.9082 -44.7793 -64.2578 -80.4219 -112.05 -106.929
s-103.415 -39.7598 -166.869 -39.7598z" />
    <glyph glyph-name="uni2076" unicode="&#x2076;" horiz-adv-x="841" 
d="M448.463 525.723c-70.2822 0 -132.73 17.3701 -187.35 52.1094s-97.4912 82.9326 -128.616 144.58s-46.6875 132.432 -46.6875 212.353c0 94.7803 15.5625 174.601 46.6875 239.461s74.0977 113.957 128.917 147.291c54.8203 33.333 117.572 50 188.256 50
c59.0361 0 111.146 -10.6426 156.327 -31.9277c45.1807 -21.2852 80.5225 -51.2051 106.025 -89.7598c25.502 -38.5547 38.0527 -83.9365 37.6514 -136.146h-203.617c-2.41016 26.1045 -11.1455 46.5869 -26.2051 61.4463c-15.0605 14.8604 -36.0449 22.29 -62.9531 22.29
c-54.6191 0 -98.2939 -24.498 -131.025 -73.4951s-49.0967 -115.263 -49.0967 -198.798c0 -8.83496 0.300781 -17.5703 0.90332 -26.2051s1.50586 -17.1689 2.71094 -25.6025c9.63867 45.3818 25.7031 80.8242 48.1934 106.326
c22.4902 25.5029 48.8965 43.5752 79.2178 54.2178s61.9482 15.9639 94.8809 15.9639c52.209 0 97.5908 -11.2451 136.146 -33.7354s68.4746 -53.4141 89.7607 -92.7715c21.2852 -39.3584 31.9277 -84.1387 31.9277 -134.341c0 -52.209 -13.1523 -98.0928 -39.458 -137.652
c-26.3057 -39.5586 -62.8525 -70.3818 -109.641 -92.4707s-101.106 -33.1328 -162.955 -33.1328zM448.465 701.026c29.7197 0 56.2266 9.2373 79.5205 27.7109c23.293 18.4736 34.9395 41.7666 34.9395 69.8789c0 30.9248 -11.6465 55.1221 -34.9395 72.5918
c-23.2939 17.4697 -49.8008 26.2051 -79.5205 26.2051c-19.2773 0 -37.3496 -3.91602 -54.2178 -11.7471s-30.5225 -19.0762 -40.9639 -33.7354c-10.4424 -14.6592 -15.6631 -32.4307 -15.6631 -53.3145c0 -28.1123 11.1445 -51.4053 33.4346 -69.8789
c22.2891 -18.4736 48.0928 -27.7109 77.4102 -27.7109z" />
    </font>
</defs>
</svg>
