<?xml version="1.0" standalone="no"?>
<!DOCTYPE svg PUBLIC "-//W3C//DTD SVG 20010904//EN"
 "http://www.w3.org/TR/2001/REC-SVG-20010904/DTD/svg10.dtd">
<svg version="1.0" xmlns="http://www.w3.org/2000/svg"
 width="700.000000pt" height="700.000000pt" viewBox="0 0 700.000000 700.000000"
 preserveAspectRatio="xMidYMid meet">
<metadata>
Created by potrace 1.14, written by Peter Selinger 2001-2017
</metadata>
<g transform="translate(0.000000,700.000000) scale(0.100000,-0.100000)"
fill="#000000" stroke="none">
<path d="M3450 6974 c-24 -14 -114 -63 -200 -108 -170 -91 -268 -144 -345
-186 -27 -15 -90 -49 -140 -75 -49 -26 -119 -63 -154 -82 -35 -19 -215 -116
-400 -215 -185 -99 -365 -196 -401 -216 -36 -19 -108 -57 -160 -85 -52 -27
-108 -57 -125 -67 -16 -10 -163 -89 -325 -175 -162 -87 -322 -172 -355 -190
-186 -100 -317 -171 -370 -200 -33 -17 -99 -53 -147 -79 l-87 -47 0 -1738 0
-1738 193 -106 c106 -58 229 -125 272 -148 44 -23 93 -49 109 -59 17 -10 71
-39 120 -65 50 -26 104 -56 120 -65 17 -10 62 -34 100 -55 39 -21 94 -51 123
-66 28 -16 76 -42 105 -58 85 -46 736 -400 807 -438 36 -20 88 -48 115 -63 28
-15 156 -85 285 -155 129 -70 255 -139 280 -153 25 -13 79 -43 120 -65 41 -22
173 -94 293 -159 l217 -119 233 127 c127 69 257 140 287 156 30 17 84 46 120
66 36 19 88 47 115 62 28 15 100 54 160 87 61 33 139 76 175 95 104 57 609
332 680 370 36 19 85 47 110 60 25 14 81 44 125 68 44 24 98 53 120 65 22 12
70 39 108 59 115 62 198 107 307 166 58 32 130 71 160 87 30 17 138 75 240
131 102 55 214 116 250 136 l65 35 3 1740 2 1739 -62 35 c-35 19 -99 53 -143
77 -44 24 -107 57 -140 75 -77 42 -120 65 -535 287 -190 102 -374 201 -410
220 -36 20 -101 55 -145 78 -44 23 -102 55 -130 70 -27 15 -95 51 -150 80 -55
29 -113 60 -130 70 -16 9 -70 39 -120 65 -49 26 -112 60 -140 75 -88 48 -197
106 -325 174 -69 36 -132 71 -140 76 -8 6 -22 13 -30 17 -8 4 -64 33 -125 66
-60 33 -171 92 -245 132 -74 40 -169 91 -211 114 -42 22 -78 41 -80 41 -2 0
-24 -12 -49 -26z"/>
</g>
</svg>
