<svg width="40" height="40" viewBox="0 0 16 16" fill="none" xmlns="http://www.w3.org/2000/svg">
    <path fill-rule="evenodd" clip-rule="evenodd" d="M8.06987 0.0924988L14.909 4.04624V11.9537L8.06987 15.9075L1.23071 11.9537V4.04624L8.06987 0.0924988Z" fill="url(#paint0_radial)"/>
    <path d="M5.37705 6.30247C6.86173 4.8488 9.26887 4.8488 10.7535 6.30247L10.9322 6.47742C11.0065 6.5501 11.0065 6.66794 10.9322 6.74063L10.321 7.3391C10.2839 7.37544 10.2237 7.37544 10.1866 7.3391L9.94069 7.09834C8.90494 6.08423 7.22565 6.08423 6.18991 7.09834L5.92658 7.35617C5.88946 7.39251 5.82928 7.39251 5.79217 7.35617L5.18092 6.7577C5.10669 6.68502 5.10669 6.56717 5.18092 6.49449L5.37705 6.30247ZM12.0213 7.54503L12.5652 8.07612C12.6394 8.14859 12.6394 8.26609 12.5652 8.33856L10.1129 10.7333C10.0386 10.8058 9.91832 10.8058 9.84411 10.7333C9.84411 10.7333 9.8441 10.7333 9.8441 10.7333L8.10357 9.03369C8.08502 9.01557 8.05494 9.01557 8.03638 9.03369C8.03638 9.03369 8.03638 9.03369 8.03638 9.03369L6.29589 10.7333C6.22167 10.8058 6.10135 10.8058 6.02713 10.7333C6.02713 10.7333 6.02713 10.7333 6.02713 10.7333L3.5747 8.33853C3.50049 8.26606 3.50049 8.14856 3.5747 8.07609L4.11858 7.545C4.19279 7.47253 4.31312 7.47253 4.38734 7.545L6.12789 9.24465C6.14645 9.26276 6.17653 9.26276 6.19508 9.24465C6.19508 9.24465 6.19508 9.24465 6.19508 9.24465L7.93555 7.545C8.00977 7.47253 8.1301 7.47253 8.20431 7.545C8.20431 7.545 8.20432 7.545 8.20432 7.545L9.94487 9.24465C9.96343 9.26276 9.99351 9.26276 10.0121 9.24465L11.7526 7.54503C11.8268 7.47256 11.9471 7.47256 12.0213 7.54503Z" fill="white"/>
    <defs>
        <radialGradient id="paint0_radial" cx="0" cy="0" r="1" gradientUnits="userSpaceOnUse" gradientTransform="translate(1.23071 7.99998) scale(13.6783 15.815)">
            <stop stop-color="#5D9DF6"/>
            <stop offset="1" stop-color="#006FFF"/>
        </radialGradient>
    </defs>
</svg>
